<svg width="57" height="56" viewBox="0 0 57 56" fill="none" xmlns="http://www.w3.org/2000/svg">
<path d="M52.77 9.06006H45.36C43.47 9.06006 41.93 10.6001 41.93 12.4901C41.93 14.3801 43.47 15.9101 45.36 15.9101H48.33C48.95 15.9101 49.46 16.4201 49.46 17.0401C49.46 17.6601 48.95 18.1701 48.33 18.1701H45.52C42.07 16.3801 38.02 15.4501 33.48 15.4501C29.48 15.4501 25.57 16.2001 21.91 17.3701C20.38 15.9901 14.79 11.6601 5.12 11.6601H5.01C-4.76837e-07 11.6801 0 15.1501 0 16.4601V51.3701C0 53.9501 2.4 55.9101 4.54 55.9101H51.48C53.65 55.9101 56.02 53.9501 56.02 51.3701C56.02 34.4001 56.17 30.8701 55.53 29.2601C55.17 28.3501 54.71 27.4701 54.22 26.6001C55.28 26.0601 56.02 25.0001 56.02 23.7301V12.3101C56.02 10.5201 54.56 9.07006 52.77 9.07006V9.06006ZM51.46 17.0401C51.46 15.3101 50.06 13.9101 48.33 13.9101H45.36C44.57 13.9101 43.93 13.2701 43.93 12.4901C43.93 11.7101 44.57 11.0601 45.36 11.0601H52.77C53.46 11.0601 54.02 11.6201 54.02 12.3001V23.7201C54.02 24.4101 53.46 24.9601 52.77 24.9601H34.66C33.34 24.9601 32.26 23.8801 32.26 22.5601C32.26 21.2401 33.34 20.1601 34.66 20.1601H48.34C50.07 20.1601 51.47 18.7601 51.47 17.0301L51.46 17.0401ZM39.8 18.1701H34.66C32.23 18.1701 30.26 20.1501 30.26 22.5701C30.26 24.9901 32.23 26.9701 34.66 26.9701H52.09C52.69 27.9501 53.25 28.9501 53.66 29.9901C53.94 30.6801 53.99 32.9501 54.01 34.4901H48.81C48.81 34.4901 48.8 34.4901 48.79 34.4901H2.06C2.17 33.0701 2.5 31.9201 3.01 31.2601C5.33 28.2201 18.32 17.4501 33.5 17.4501C35.75 17.4501 37.85 17.7001 39.81 18.1701H39.8ZM43.63 36.4901H48.34L54.01 42.5301V51.3601C54.01 51.8001 53.86 52.2001 53.66 52.5601L43.63 36.4801V36.4901ZM54.01 39.6101L51.09 36.4901H54.01V39.6101ZM24.3 36.4901L22.26 53.9001H15.57L21.37 36.4801H24.3V36.4901ZM26.31 36.4901H29.71L31.75 53.9001H24.27L26.31 36.4901ZM31.73 36.4901H34.66L40.46 53.9001H33.77L31.73 36.4901ZM2.37 52.5701C2.17 52.2101 2.02 51.8101 2.02 51.3701V42.5401L7.7 36.4901H12.41L2.37 52.5701ZM2.02 36.4801H4.95L2.02 39.6101V36.4801ZM5.03 13.6501H5.13C12.67 13.6501 17.55 16.5401 19.68 18.1301C11.39 21.2301 4.73 26.2801 2.02 29.3201V16.4401C2.02 15.0101 2.02 13.6501 5.03 13.6401V13.6501ZM3.96 53.7801L14.76 36.4801H19.26L13.46 53.9001H4.56C4.35 53.9001 4.17 53.8301 3.97 53.7801H3.96ZM42.56 53.9001L36.76 36.4901H41.27L52.06 53.7801C51.87 53.8301 51.68 53.9001 51.47 53.9001H42.55H42.56Z" fill="#dee5ef"/>
<path d="M38.5901 7.29018C38.5901 5.44018 37.0801 3.93018 35.2301 3.93018C33.3801 3.93018 31.8701 5.44018 31.8701 7.29018C31.8701 9.14018 33.3801 10.6502 35.2301 10.6502C37.0801 10.6502 38.5901 9.14018 38.5901 7.29018ZM35.2301 8.65018C34.4801 8.65018 33.8701 8.04018 33.8701 7.29018C33.8701 6.54018 34.4801 5.93018 35.2301 5.93018C35.9801 5.93018 36.5901 6.54018 36.5901 7.29018C36.5901 8.04018 35.9801 8.65018 35.2301 8.65018Z" fill="#dee5ef"/>
<path d="M36.2305 2.37V1C36.2305 0.45 35.7805 0 35.2305 0C34.6805 0 34.2305 0.45 34.2305 1V2.37C34.2305 2.92 34.6805 3.37 35.2305 3.37C35.7805 3.37 36.2305 2.92 36.2305 2.37Z" fill="#dee5ef"/>
<path d="M34.2305 12.2202V13.5902C34.2305 14.1402 34.6805 14.5902 35.2305 14.5902C35.7805 14.5902 36.2305 14.1402 36.2305 13.5902V12.2202C36.2305 11.6702 35.7805 11.2202 35.2305 11.2202C34.6805 11.2202 34.2305 11.6702 34.2305 12.2202Z" fill="#dee5ef"/>
<path d="M42.5204 7.29004C42.5204 6.74004 42.0704 6.29004 41.5204 6.29004H40.1504C39.6004 6.29004 39.1504 6.74004 39.1504 7.29004C39.1504 7.84004 39.6004 8.29004 40.1504 8.29004H41.5204C42.0704 8.29004 42.5204 7.84004 42.5204 7.29004Z" fill="#dee5ef"/>
<path d="M27.9404 7.29004C27.9404 7.84004 28.3904 8.29004 28.9404 8.29004H30.3104C30.8604 8.29004 31.3104 7.84004 31.3104 7.29004C31.3104 6.74004 30.8604 6.29004 30.3104 6.29004H28.9404C28.3904 6.29004 27.9404 6.74004 27.9404 7.29004Z" fill="#dee5ef"/>
<path d="M39.4203 4.52016L40.3903 3.55016C40.7803 3.16016 40.7803 2.53016 40.3903 2.14016C40.0003 1.75016 39.3703 1.75016 38.9803 2.14016L38.0103 3.11016C37.6203 3.50016 37.6203 4.13016 38.0103 4.52016C38.2103 4.72016 38.4603 4.81016 38.7203 4.81016C38.9803 4.81016 39.2303 4.71016 39.4303 4.52016H39.4203Z" fill="#dee5ef"/>
<path d="M30.7796 12.7398C31.0396 12.7398 31.2896 12.6398 31.4896 12.4498L32.4596 11.4798C32.8496 11.0898 32.8496 10.4598 32.4596 10.0698C32.0696 9.67984 31.4396 9.67984 31.0496 10.0698L30.0796 11.0398C29.6896 11.4298 29.6896 12.0598 30.0796 12.4498C30.2796 12.6498 30.5296 12.7398 30.7896 12.7398H30.7796Z" fill="#dee5ef"/>
<path d="M38.9703 12.4498C39.1703 12.6498 39.4203 12.7398 39.6803 12.7398C39.9403 12.7398 40.1903 12.6398 40.3903 12.4498C40.7803 12.0598 40.7803 11.4298 40.3903 11.0398L39.4203 10.0698C39.0303 9.67984 38.4003 9.67984 38.0103 10.0698C37.6203 10.4598 37.6203 11.0898 38.0103 11.4798L38.9803 12.4498H38.9703Z" fill="#dee5ef"/>
<path d="M31.7398 4.81016C31.9998 4.81016 32.2498 4.71016 32.4498 4.52016C32.8398 4.13016 32.8398 3.50016 32.4498 3.11016L31.4798 2.14016C31.0898 1.75016 30.4598 1.75016 30.0698 2.14016C29.6798 2.53016 29.6798 3.16016 30.0698 3.55016L31.0398 4.52016C31.2398 4.72016 31.4898 4.81016 31.7498 4.81016H31.7398Z" fill="#dee5ef"/>
<path d="M3.66015 45.4299C3.59015 45.4099 3.51015 45.3999 3.43015 45.3999C2.97015 45.3999 2.56015 45.7199 2.46015 46.1699C2.34015 46.6999 2.67015 47.2499 3.21015 47.3699C3.75015 47.4899 4.29015 47.1599 4.41015 46.6299C4.53015 46.0999 4.20015 45.5499 3.67015 45.4299H3.66015Z" fill="#dee5ef"/>
<path d="M5.98 41.82C5.45 41.7 4.9 42.03 4.78 42.56C4.76 42.64 4.75 42.71 4.75 42.79C4.75 43.25 5.07 43.66 5.52 43.76C6.05 43.88 6.6 43.55 6.72 43.01C6.74 42.94 6.75 42.86 6.75 42.78C6.75 42.32 6.43 41.91 5.98 41.8V41.82Z" fill="#dee5ef"/>
<path d="M8.21016 38.1898C7.67016 38.1198 7.16016 38.5098 7.09016 39.0498C7.02016 39.5898 7.41016 40.0998 7.95016 40.1698C8.49016 40.2398 9.00016 39.8498 9.07016 39.3098C9.14016 38.7698 8.75016 38.2598 8.21016 38.1898Z" fill="#dee5ef"/>
<path d="M19.8096 52.02C20.3619 52.02 20.8096 51.5723 20.8096 51.02C20.8096 50.4677 20.3619 50.02 19.8096 50.02C19.2573 50.02 18.8096 50.4677 18.8096 51.02C18.8096 51.5723 19.2573 52.02 19.8096 52.02Z" fill="#dee5ef"/>
<path d="M20.5602 48.1301C21.1002 48.1801 21.6002 47.7801 21.6502 47.2301C21.7002 46.6901 21.3002 46.1901 20.7502 46.1401C20.7202 46.1401 20.6802 46.1401 20.6502 46.1401C20.1402 46.1401 19.7102 46.5301 19.6602 47.0401C19.6602 47.0701 19.6602 47.1101 19.6602 47.1401C19.6602 47.6501 20.0502 48.0901 20.5602 48.1401V48.1301Z" fill="#dee5ef"/>
<path d="M21.5098 44.25C22.0598 44.25 22.5098 43.8 22.5098 43.25C22.5098 42.7 22.0598 42.25 21.5098 42.25C20.9598 42.25 20.5098 42.7 20.5098 43.25C20.5098 43.8 20.9598 44.25 21.5098 44.25Z" fill="#dee5ef"/>
<path d="M22.3496 40.3701C22.9019 40.3701 23.3496 39.9224 23.3496 39.3701C23.3496 38.8178 22.9019 38.3701 22.3496 38.3701C21.7973 38.3701 21.3496 38.8178 21.3496 39.3701C21.3496 39.9224 21.7973 40.3701 22.3496 40.3701Z" fill="#dee5ef"/>
<path d="M36.2305 52.02C36.7828 52.02 37.2305 51.5723 37.2305 51.02C37.2305 50.4677 36.7828 50.02 36.2305 50.02C35.6782 50.02 35.2305 50.4677 35.2305 51.02C35.2305 51.5723 35.6782 52.02 36.2305 52.02Z" fill="#dee5ef"/>
<path d="M35.3799 48.1401C35.9322 48.1401 36.3799 47.6924 36.3799 47.1401C36.3799 46.5879 35.9322 46.1401 35.3799 46.1401C34.8276 46.1401 34.3799 46.5879 34.3799 47.1401C34.3799 47.6924 34.8276 48.1401 35.3799 48.1401Z" fill="#dee5ef"/>
<path d="M34.5303 44.25C35.0826 44.25 35.5303 43.8023 35.5303 43.25C35.5303 42.6977 35.0826 42.25 34.5303 42.25C33.978 42.25 33.5303 42.6977 33.5303 43.25C33.5303 43.8023 33.978 44.25 34.5303 44.25Z" fill="#dee5ef"/>
<path d="M33.6904 40.3701C34.2427 40.3701 34.6904 39.9224 34.6904 39.3701C34.6904 38.8178 34.2427 38.3701 33.6904 38.3701C33.1381 38.3701 32.6904 38.8178 32.6904 39.3701C32.6904 39.9224 33.1381 40.3701 33.6904 40.3701Z" fill="#dee5ef"/>
<path d="M52.3904 45.4399C51.8504 45.5699 51.5204 46.0999 51.6504 46.6399C51.7804 47.1799 52.3104 47.5099 52.8504 47.3799C53.3904 47.2499 53.7204 46.7199 53.6004 46.1799C53.4704 45.6399 52.9404 45.3099 52.4004 45.4399H52.3904Z" fill="#dee5ef"/>
<path d="M50.0598 41.8301C49.5198 41.9501 49.1898 42.4901 49.3098 43.0301C49.4398 43.5701 49.9698 43.9001 50.5098 43.7701C51.0498 43.6401 51.3798 43.1101 51.2598 42.5701C51.1298 42.0301 50.5998 41.7001 50.0598 41.8301Z" fill="#dee5ef"/>
<path d="M47.8302 38.2002C47.2802 38.2702 46.9002 38.7702 46.9702 39.3202C47.0402 39.8702 47.5402 40.2502 48.0902 40.1802C48.6402 40.1102 49.0202 39.6102 48.9502 39.0602C48.8802 38.5102 48.3802 38.1302 47.8302 38.2002Z" fill="#dee5ef"/>
</svg>
