<svg width="62" height="62" viewBox="0 0 62 62" fill="none" xmlns="http://www.w3.org/2000/svg">
<path d="M61 57H1V61H61V57Z" stroke="#dee5ef" stroke-width="2" stroke-linejoin="round"/>
<path d="M3 57V9H31V57" stroke="#dee5ef" stroke-width="2" stroke-linejoin="round"/>
<path d="M59 57H31V31L59 41V57Z" stroke="#dee5ef" stroke-width="2" stroke-linejoin="round"/>
<path d="M53 38.86V23H47V36.71" stroke="#dee5ef" stroke-width="2" stroke-linejoin="round"/>
<path d="M55.999 1C54.673 1 53.4012 1.52678 52.4635 2.46447C51.5258 3.40215 50.999 4.67392 50.999 6C51.001 6.37038 51.0446 6.73937 51.129 7.1C50.2418 7.2977 49.4484 7.79169 48.8795 8.50059C48.3105 9.20949 48 10.091 47.999 11C48.0019 11.8201 48.2567 12.6196 48.729 13.29C48.1984 13.5368 47.7515 13.9334 47.4434 14.431C47.1353 14.9286 46.9796 15.5055 46.9952 16.0905C47.0109 16.6755 47.1973 17.2432 47.5316 17.7236C47.8658 18.204 48.3333 18.5762 48.8764 18.7942C49.4195 19.0123 50.0146 19.0667 50.5882 18.9508C51.1619 18.8349 51.6891 18.5537 52.105 18.142C52.5208 17.7302 52.8072 17.2057 52.9287 16.6333C53.0503 16.0608 53.0017 15.4652 52.789 14.92C53.6944 14.7376 54.5087 14.2476 55.0938 13.533C55.6789 12.8185 55.9988 11.9235 55.999 11C57.3251 11 58.5969 10.4732 59.5346 9.53553C60.4723 8.59785 60.999 7.32608 60.999 6C60.999 4.67392 60.4723 3.40215 59.5346 2.46447C58.5969 1.52678 57.3251 1 55.999 1Z" stroke="#dee5ef" stroke-width="2" stroke-linejoin="round"/>
<path d="M47 27H53" stroke="#dee5ef" stroke-width="2" stroke-linejoin="round"/>
<path d="M5 9V1H29V9" stroke="#dee5ef" stroke-width="2" stroke-linejoin="round"/>
<path d="M35 57V47H43V57" stroke="#dee5ef" stroke-width="2" stroke-linejoin="round"/>
<path d="M47 57V47H55V57" stroke="#dee5ef" stroke-width="2" stroke-linejoin="round"/>
<path d="M27 13H7V17H27V13Z" stroke="#dee5ef" stroke-width="2" stroke-linejoin="round"/>
<path d="M27 21H7V25H27V21Z" stroke="#dee5ef" stroke-width="2" stroke-linejoin="round"/>
<path d="M27 29H7V33H27V29Z" stroke="#dee5ef" stroke-width="2" stroke-linejoin="round"/>
<path d="M27 37H7V41H27V37Z" stroke="#dee5ef" stroke-width="2" stroke-linejoin="round"/>
<path d="M3 45H31" stroke="#dee5ef" stroke-width="2" stroke-linejoin="round"/>
<path d="M7 57V45" stroke="#dee5ef" stroke-width="2" stroke-linejoin="round"/>
<path d="M11 57V45" stroke="#dee5ef" stroke-width="2" stroke-linejoin="round"/>
<path d="M15 57V45" stroke="#dee5ef" stroke-width="2" stroke-linejoin="round"/>
<path d="M19 57V45" stroke="#dee5ef" stroke-width="2" stroke-linejoin="round"/>
<path d="M23 57V45" stroke="#dee5ef" stroke-width="2" stroke-linejoin="round"/>
<path d="M27 57V45" stroke="#dee5ef" stroke-width="2" stroke-linejoin="round"/>
<path d="M8 5H10" stroke="#dee5ef" stroke-width="2" stroke-linejoin="round"/>
<path d="M12 5H14" stroke="#dee5ef" stroke-width="2" stroke-linejoin="round"/>
<path d="M16 5H18" stroke="#dee5ef" stroke-width="2" stroke-linejoin="round"/>
<path d="M20 5H22" stroke="#dee5ef" stroke-width="2" stroke-linejoin="round"/>
<path d="M24 5H26" stroke="#dee5ef" stroke-width="2" stroke-linejoin="round"/>
</svg>
