<?xml version="1.0" encoding="UTF-8"?>
<svg xmlns="http://www.w3.org/2000/svg" xmlns:xlink="http://www.w3.org/1999/xlink" width="699px" height="232px" viewBox="0 0 697 232" version="1.1">
<defs>
<linearGradient id="linear0" gradientUnits="userSpaceOnUse" x1="131.5" y1="32.5" x2="-8.44932" y2="47.4737" gradientTransform="matrix(1.643868,0,0,1.64539,0,0)">
<stop offset="0.432292" style="stop-color:rgb(78.823529%,19.607843%,98.431373%);stop-opacity:1;"/>
<stop offset="1" style="stop-color:rgb(28.627451%,69.803922%,94.901961%);stop-opacity:1;"/>
</linearGradient>
<linearGradient id="linear1" gradientUnits="userSpaceOnUse" x1="78.5" y1="61.5" x2="12.5" y2="66.5" gradientTransform="matrix(1.643868,0,0,1.64539,0,0)">
<stop offset="0.0366764" style="stop-color:rgb(78.823529%,19.607843%,98.431373%);stop-opacity:1;"/>
<stop offset="1" style="stop-color:rgb(40.784314%,57.647059%,95.686275%);stop-opacity:1;"/>
</linearGradient>
<linearGradient id="linear2" gradientUnits="userSpaceOnUse" x1="417.016" y1="101.937" x2="407.453" y2="87.5937" >
<stop offset="0" style="stop-color:rgb(66.666667%,52.941176%,99.607843%);stop-opacity:1;"/>
<stop offset="1" style="stop-color:rgb(63.529412%,40%,85.882353%);stop-opacity:1;"/>
</linearGradient>
<linearGradient id="linear3" gradientUnits="userSpaceOnUse" x1="406.5" y1="89" x2="416" y2="100.5" >
<stop offset="0" style="stop-color:rgb(63.921569%,41.960784%,88.235294%);stop-opacity:1;"/>
<stop offset="1" style="stop-color:rgb(66.27451%,50.588235%,96.862745%);stop-opacity:1;"/>
</linearGradient>
<linearGradient id="linear4" gradientUnits="userSpaceOnUse" x1="85.7571" y1="85.4571" x2="57" y2="68.0143" >
<stop offset="0" style="stop-color:rgb(63.137255%,55.294118%,99.215686%);stop-opacity:1;"/>
<stop offset="1" style="stop-color:rgb(42.745098%,70.196078%,97.254902%);stop-opacity:1;"/>
</linearGradient>
<linearGradient id="linear5" gradientUnits="userSpaceOnUse" x1="55.5857" y1="71.3143" x2="85.7571" y2="87.3429" >
<stop offset="0" style="stop-color:rgb(45.490196%,68.235294%,97.647059%);stop-opacity:1;"/>
<stop offset="1" style="stop-color:rgb(62.352941%,56.078431%,99.215686%);stop-opacity:1;"/>
</linearGradient>
</defs>
<g id="surface1">
<path stroke="#ffffff" stroke-width="3px" style="fill-rule:nonzero;fill:rgb(100%,100%,100%);fill-opacity:1;" d="M 357.128906 172.765625 L 357.128906 96.375 L 327.609375 96.375 L 327.609375 88.6875 L 395.53125 88.6875 L 395.53125 96.375 L 366.011719 96.375 L 366.011719 172.765625 Z M 415.238281 126.28125 L 459.636719 126.28125 L 459.636719 133.847656 L 415.238281 133.847656 Z M 416.199219 165.078125 L 466.71875 165.078125 L 466.71875 172.765625 L 407.316406 172.765625 L 407.316406 88.6875 L 464.917969 88.6875 L 464.917969 96.375 L 416.199219 96.375 Z M 492.871094 151.867188 L 492.511719 141.054688 L 543.394531 88.6875 L 553.59375 88.6875 L 516.511719 127.601562 L 511.472656 133.007812 Z M 485.191406 172.765625 L 485.191406 88.6875 L 494.074219 88.6875 L 494.074219 172.765625 Z M 545.554688 172.765625 L 509.3125 130.964844 L 515.3125 124.480469 L 556.113281 172.765625 Z M 575.785156 151.867188 L 575.425781 141.054688 L 626.308594 88.6875 L 636.507812 88.6875 L 599.425781 127.601562 L 594.386719 133.007812 Z M 568.105469 172.765625 L 568.105469 88.6875 L 576.984375 88.6875 L 576.984375 172.765625 Z M 628.46875 172.765625 L 592.226562 130.964844 L 598.226562 124.480469 L 639.027344 172.765625 Z M 628.46875 172.765625 "/>
<path stroke="#ffffff" stroke-width="3px" style="fill-rule:nonzero;fill:url(#linear0);" d="M 179.476562 36.480469 L 167.789062 53.191406 C 154.433594 43.722656 138.292969 38.988281 119.375 38.988281 C 96 38.988281 75.824219 47.484375 58.851562 64.472656 C 41.878906 81.460938 33.390625 101.652344 33.390625 125.050781 C 33.390625 148.445312 42.574219 168.636719 60.9375 185.625 C 79.304688 202.617188 99.476562 211.113281 121.460938 211.113281 C 138.992188 211.113281 154.433594 206.375 167.789062 196.90625 L 179.476562 213.617188 C 161.667969 225.871094 141.632812 232 119.375 232 C 90.15625 232 65.042969 221.484375 44.035156 200.457031 C 23.027344 179.429688 12.523438 154.292969 12.523438 125.050781 C 12.523438 95.804688 23.027344 70.667969 44.035156 49.640625 C 65.042969 28.613281 90.15625 18.097656 119.375 18.097656 C 141.632812 18.097656 161.667969 24.226562 179.476562 36.480469 Z M 179.476562 36.480469 "/>
<path stroke-width="3px" style="fill-rule:nonzero;fill:url(#linear1);" d="M 179.476562 36.480469 L 183.515625 39.3125 L 186.367188 35.234375 L 182.269531 32.414062 Z M 167.789062 53.191406 L 164.9375 57.21875 L 168.988281 60.089844 L 171.832031 56.023438 Z M 167.789062 196.90625 L 171.832031 194.074219 L 168.988281 190.007812 L 164.9375 192.878906 Z M 179.476562 213.617188 L 182.269531 217.683594 L 186.367188 214.863281 L 183.515625 210.789062 Z M 44.035156 200.457031 L 40.546875 203.949219 Z M 44.035156 49.640625 L 40.546875 46.152344 Z M 175.4375 33.652344 L 163.75 50.363281 L 171.832031 56.023438 L 183.515625 39.3125 Z M 170.640625 49.164062 C 156.324219 39.015625 139.152344 34.050781 119.375 34.050781 L 119.375 43.925781 C 137.4375 43.925781 152.542969 48.429688 164.9375 57.21875 Z M 119.375 34.050781 C 94.652344 34.050781 73.234375 43.09375 55.363281 60.980469 L 62.339844 67.960938 C 78.414062 51.871094 97.347656 43.925781 119.375 43.925781 Z M 55.363281 60.980469 C 37.492188 78.867188 28.460938 100.304688 28.460938 125.050781 L 38.324219 125.050781 C 38.324219 103.003906 46.261719 84.054688 62.339844 67.960938 Z M 28.460938 125.050781 C 28.460938 149.925781 38.296875 171.402344 57.589844 189.253906 L 64.285156 182 C 46.851562 165.875 38.324219 146.964844 38.324219 125.050781 Z M 57.589844 189.253906 C 76.734375 206.960938 98.066406 216.046875 121.460938 216.046875 L 121.460938 206.175781 C 100.890625 206.175781 81.875 198.273438 64.285156 182 Z M 121.460938 216.046875 C 139.933594 216.046875 156.390625 211.039062 170.640625 200.933594 L 164.9375 192.878906 C 152.476562 201.714844 138.046875 206.175781 121.460938 206.175781 Z M 163.75 199.738281 L 175.4375 216.449219 L 183.515625 210.789062 L 171.832031 194.074219 Z M 176.683594 209.550781 C 159.722656 221.222656 140.667969 227.0625 119.375 227.0625 L 119.375 236.9375 C 142.597656 236.9375 163.613281 230.523438 182.269531 217.683594 Z M 119.375 227.0625 C 91.488281 227.0625 67.621094 217.085938 47.523438 196.96875 L 40.546875 203.949219 C 62.464844 225.882812 88.824219 236.9375 119.375 236.9375 Z M 47.523438 196.96875 C 27.421875 176.847656 17.453125 152.960938 17.453125 125.050781 L 7.589844 125.050781 C 7.589844 155.628906 18.632812 182.011719 40.546875 203.949219 Z M 17.453125 125.050781 C 17.453125 97.140625 27.421875 73.25 47.523438 53.132812 L 40.546875 46.152344 C 18.632812 68.085938 7.589844 94.472656 7.589844 125.050781 Z M 47.523438 53.132812 C 67.621094 33.011719 91.488281 23.035156 119.375 23.035156 L 119.375 13.164062 C 88.824219 13.164062 62.464844 24.214844 40.546875 46.152344 Z M 119.375 23.035156 C 140.667969 23.035156 159.722656 28.878906 176.683594 40.550781 L 182.269531 32.414062 C 163.613281 19.574219 142.597656 13.164062 119.375 13.164062 Z M 119.375 23.035156 "/>
<path stroke="#ffffff" stroke-width="3px" style="fill-rule:nonzero;fill:rgb(100%,100%,100%);fill-opacity:1;" d="M 193.691406 171.121094 L 193.691406 142.457031 L 195.5625 147.527344 L 162.851562 93.953125 L 171.554688 93.953125 L 200.300781 141.023438 L 195.675781 141.023438 L 224.421875 93.953125 L 232.570312 93.953125 L 199.859375 147.527344 L 201.730469 142.457031 L 201.730469 171.121094 Z M 243.597656 171.121094 L 243.597656 93.953125 L 276.859375 93.953125 C 285.449219 93.953125 292.09375 95.679688 296.796875 99.132812 C 301.566406 102.585938 303.953125 107.476562 303.953125 113.796875 C 303.953125 117.984375 302.964844 121.511719 300.980469 124.378906 C 299.070312 127.246094 296.429688 129.414062 293.050781 130.882812 C 289.746094 132.351562 286.113281 133.085938 282.148438 133.085938 L 284.019531 130.441406 C 288.9375 130.441406 293.160156 131.214844 296.683594 132.757812 C 300.285156 134.226562 303.074219 136.46875 305.054688 139.480469 C 307.039062 142.421875 308.03125 146.097656 308.03125 150.503906 C 308.03125 157.046875 305.605469 162.117188 300.761719 165.71875 C 295.988281 169.320312 288.753906 171.121094 279.0625 171.121094 Z M 251.75 164.394531 L 278.953125 164.394531 C 285.707031 164.394531 290.882812 163.257812 294.484375 160.976562 C 298.082031 158.625 299.878906 154.914062 299.878906 149.84375 C 299.878906 144.847656 298.082031 141.207031 294.484375 138.929688 C 290.882812 136.578125 285.707031 135.402344 278.953125 135.402344 L 250.867188 135.402344 L 250.867188 128.675781 L 276.308594 128.675781 C 282.476562 128.675781 287.25 127.5 290.628906 125.148438 C 294.078125 122.796875 295.804688 119.308594 295.804688 114.675781 C 295.804688 109.972656 294.078125 106.484375 290.628906 104.203125 C 287.25 101.851562 282.476562 100.675781 276.308594 100.675781 L 251.75 100.675781 Z M 251.75 164.394531 "/>
<path style="fill-rule:nonzero;fill:url(#linear2);stroke-width:3;stroke-linecap:butt;stroke-linejoin:miter;stroke:url(#linear3);stroke-miterlimit:4;" d="M 412.498924 104.498872 C 418.023718 104.498872 422.500583 100.023774 422.500583 94.499343 C 422.500583 88.977287 418.023718 84.499815 412.498924 84.499815 C 406.976506 84.499815 402.499641 88.977287 402.499641 94.499343 C 402.499641 100.023774 406.976506 104.498872 412.498924 104.498872 Z M 412.498924 104.498872 " transform="matrix(1.643868,0,0,1.64539,0,0)"/>
<path style="fill-rule:nonzero;fill:url(#linear4);stroke-width:1;stroke-linecap:butt;stroke-linejoin:miter;stroke:url(#linear5);stroke-miterlimit:4;" d="M 73.499955 93.499865 C 82.88854 93.499865 90.499686 85.888638 90.499686 76.499242 C 90.499686 67.112221 82.88854 59.500993 73.499955 59.500993 C 64.11137 59.500993 56.500224 67.112221 56.500224 76.499242 C 56.500224 85.888638 64.11137 93.499865 73.499955 93.499865 Z M 73.499955 93.499865 " transform="matrix(1.643868,0,0,1.64539,0,0)"/>
</g>
</svg>
