<svg width="89" height="88" viewBox="0 0 89 88" fill="none" xmlns="http://www.w3.org/2000/svg">
<path d="M52.1223 87.7903H36.8623L38.8623 37.7903C38.8623 37.5251 38.9677 37.2707 39.1552 37.0832C39.3427 36.8957 39.5971 36.7903 39.8623 36.7903C40.1275 36.7903 40.3819 36.8957 40.5694 37.0832C40.7569 37.2707 40.8623 37.5251 40.8623 37.7903L38.8623 85.6703H50.0423L48.0423 37.7903C48.0371 37.659 48.0577 37.5279 48.1031 37.4046C48.1485 37.2812 48.2178 37.1681 48.3069 37.0715C48.3961 36.9749 48.5033 36.8968 48.6227 36.8417C48.742 36.7866 48.871 36.7556 49.0023 36.7503C49.1336 36.7451 49.2647 36.7657 49.388 36.8111C49.5114 36.8565 49.6246 36.9258 49.7211 37.0149C49.8177 37.1041 49.8958 37.2114 49.9509 37.3307C50.006 37.45 50.0371 37.579 50.0423 37.7103L52.1223 87.7903Z" fill="#dee5ef"/>
<path d="M44.5427 35.2402C43.1653 35.2509 41.8399 34.7146 40.8575 33.749C39.8751 32.7835 39.3159 31.4676 39.3027 30.0902V9.31019C39.3291 6.82145 40.3404 4.44453 42.1153 2.69968C43.8901 0.954832 46.2839 -0.0158147 48.7727 0.000194944H49.7727V30.0902C49.7675 30.7718 49.6281 31.4456 49.3624 32.0733C49.0967 32.701 48.71 33.2702 48.2244 33.7484C47.7387 34.2266 47.1636 34.6045 46.5319 34.8605C45.9002 35.1164 45.2243 35.2455 44.5427 35.2402ZM47.7727 2.0702C46.001 2.29023 44.3691 3.14508 43.1794 4.47632C41.9897 5.80757 41.323 7.52495 41.3027 9.31019V30.0902C41.3487 30.9171 41.7096 31.6949 42.3112 32.264C42.9129 32.8331 43.7096 33.1503 44.5377 33.1503C45.3659 33.1503 46.1626 32.8331 46.7642 32.264C47.3659 31.6949 47.7267 30.9171 47.7727 30.0902V2.0702Z" fill="#dee5ef"/>
<path d="M68.4726 48.4004C68.313 48.3985 68.1558 48.3609 68.0126 48.2904L67.3726 47.9504L42.3126 34.8604C41.8911 34.6409 41.5037 34.3613 41.1626 34.0304L41.0126 33.8904C40.2304 33.1237 39.7216 32.1213 39.5645 31.0373C39.4073 29.9533 39.6104 28.8477 40.1426 27.8904C40.4467 27.3179 40.8614 26.8115 41.3626 26.4004L41.5326 26.2704C42.4511 25.5416 43.5901 25.1467 44.7626 25.1504H44.9826C45.7575 25.1781 46.5162 25.3798 47.2026 25.7404L65.9126 35.5004C66.9491 36.0485 67.8748 36.7843 68.6426 37.6704C68.7301 37.7698 68.7969 37.8856 68.8393 38.0111C68.8817 38.1366 68.8987 38.2692 68.8894 38.4013C68.8801 38.5334 68.8447 38.6624 68.7851 38.7807C68.7256 38.899 68.6431 39.0042 68.5426 39.0904C68.3423 39.264 68.0813 39.351 67.8169 39.3322C67.5525 39.3135 67.3064 39.1905 67.1326 38.9904C66.5267 38.3015 65.7976 37.7317 64.9826 37.3104L46.2826 27.5604C45.8515 27.3286 45.3719 27.2019 44.8826 27.1904H44.7226C43.9877 27.2027 43.2802 27.4715 42.7226 27.9504L42.5326 28.1004C42.298 28.3257 42.0991 28.5853 41.9426 28.8704C41.6356 29.4486 41.5214 30.1098 41.6167 30.7574C41.7121 31.4051 42.012 32.0053 42.4726 32.4704L42.6026 32.6004C42.7991 32.7949 43.0252 32.9569 43.2726 33.0804L68.9726 46.5104C69.1763 46.6142 69.3383 46.7846 69.4316 46.9932C69.5249 47.2019 69.5439 47.4363 69.4854 47.6572C69.427 47.8782 69.2946 48.0725 69.1103 48.2077C68.926 48.343 68.7009 48.411 68.4726 48.4004Z" fill="#dee5ef"/>
<path d="M69.4131 47.6704C69.1479 47.6704 68.8935 47.565 68.706 47.3775C68.5184 47.19 68.4131 46.9356 68.4131 46.6704V46.5004L68.5431 46.1704C68.5821 46.0477 68.6459 45.9343 68.7305 45.8373C68.8151 45.7403 68.9188 45.6616 69.035 45.6063C69.1513 45.551 69.2777 45.5202 69.4064 45.5157C69.5351 45.5112 69.6633 45.5333 69.7831 45.5804C69.9118 45.6228 70.0306 45.691 70.1322 45.7807C70.2338 45.8704 70.3161 45.9799 70.3741 46.1024C70.4321 46.2249 70.4646 46.358 70.4695 46.4934C70.4745 46.6289 70.4519 46.764 70.4031 46.8904L70.3431 47.0304C70.2706 47.2183 70.143 47.38 69.977 47.4942C69.8111 47.6084 69.6145 47.6698 69.4131 47.6704Z" fill="#dee5ef"/>
<path d="M20.3728 48.9904L19.9128 48.0804C19.8544 47.9813 19.8042 47.8776 19.7628 47.7703C19.6405 47.5396 19.5304 47.3026 19.4328 47.0604C19.3267 46.8164 19.3219 46.5402 19.4194 46.2927C19.5169 46.0451 19.7088 45.8464 19.9528 45.7404C20.1968 45.6343 20.473 45.6294 20.7205 45.727C20.968 45.8245 21.1667 46.0164 21.2728 46.2604L46.5228 33.0804C46.8912 32.8961 47.2192 32.6403 47.4876 32.3279C47.756 32.0154 47.9595 31.6526 48.0861 31.2607C48.2127 30.8687 48.2599 30.4555 48.225 30.0451C48.1901 29.6346 48.0738 29.2353 47.8828 28.8704C47.6978 28.513 47.4467 28.194 47.1428 27.9303C46.5609 27.429 45.8208 27.1493 45.0528 27.1404H44.9028C44.4043 27.1541 43.9154 27.2806 43.4728 27.5104L24.7728 37.2804C23.1769 38.1011 21.9409 39.4831 21.3028 41.1604C21.21 41.4097 21.0219 41.6119 20.78 41.7225C20.5381 41.8332 20.2621 41.8432 20.0128 41.7504C19.7635 41.6575 19.5613 41.4695 19.4506 41.2275C19.34 40.9856 19.33 40.7097 19.4228 40.4604C20.2326 38.3045 21.8102 36.5239 23.8528 35.4604L42.5528 25.7004C43.2446 25.3445 44.0055 25.1432 44.7828 25.1104H44.9928C45.9381 25.1102 46.8661 25.3634 47.6804 25.8435C48.4946 26.3236 49.1654 27.0131 49.6228 27.8403L49.6728 27.9503C50.2941 29.159 50.4114 30.5645 49.9991 31.8595C49.5868 33.1544 48.6785 34.2334 47.4728 34.8603L45.3728 35.9604L20.3728 48.9904Z" fill="#dee5ef"/>
<path d="M76.1422 87.6706H65.2422L66.6222 53.9106C66.6281 53.7793 66.6598 53.6504 66.7155 53.5313C66.7712 53.4123 66.8499 53.3054 66.9469 53.2167C67.0439 53.128 67.1575 53.0593 67.2811 53.0145C67.4047 52.9697 67.5359 52.9497 67.6672 52.9556C67.7985 52.9615 67.9274 52.9932 68.0464 53.0489C68.1655 53.1047 68.2724 53.1833 68.3611 53.2803C68.4498 53.3774 68.5185 53.4909 68.5633 53.6145C68.6081 53.7381 68.6281 53.8693 68.6222 54.0006L67.3222 85.6706H74.0522L72.7622 54.0406C72.7622 53.7754 72.8675 53.521 73.0551 53.3335C73.2426 53.146 73.497 53.0406 73.7622 53.0406C74.0274 53.0406 74.2818 53.146 74.4693 53.3335C74.6568 53.521 74.7622 53.7754 74.7622 54.0406L76.1422 87.6706Z" fill="#dee5ef"/>
<path d="M70.7228 52.5705C69.7131 52.5759 68.7424 52.1812 68.0228 51.4729C67.3032 50.7646 66.8934 49.8002 66.8828 48.7905V34.8905C66.9013 33.1383 67.6138 31.4648 68.8641 30.237C70.1144 29.0092 71.8005 28.3272 73.5528 28.3405H74.5528V48.7905C74.5449 49.7993 74.1372 50.7637 73.4192 51.4723C72.7013 52.1809 71.7316 52.5759 70.7228 52.5705ZM72.5528 30.4405C71.5253 30.6526 70.6012 31.2094 69.9337 32.0188C69.2662 32.8282 68.8954 33.8415 68.8828 34.8905V48.7905C68.917 49.2538 69.1252 49.687 69.4656 50.0031C69.8059 50.3193 70.2533 50.495 70.7178 50.495C71.1823 50.495 71.6297 50.3193 71.97 50.0031C72.3104 49.687 72.5186 49.2538 72.5528 48.7905V30.4405Z" fill="#dee5ef"/>
<path d="M87.4729 61.8606L69.0729 52.2706C68.6275 52.0438 68.232 51.7303 67.9095 51.3485C67.5871 50.9668 67.3442 50.5244 67.1951 50.0474C67.0461 49.5704 66.9938 49.0684 67.0415 48.5709C67.0892 48.0735 67.2359 47.5906 67.4729 47.1506C67.9614 46.2681 68.7751 45.6112 69.7408 45.3198C70.7065 45.0284 71.7478 45.1256 72.6429 45.5906L85.1529 52.1206C85.9243 52.5148 86.6092 53.0592 87.1673 53.7219C87.7253 54.3846 88.1453 55.1522 88.4024 55.9795C88.6595 56.8068 88.7487 57.6772 88.6646 58.5395C88.5806 59.4017 88.325 60.2385 87.9129 61.0006L87.4729 61.8606ZM70.8629 47.1506C70.5276 47.1548 70.1997 47.2501 69.9144 47.4262C69.629 47.6023 69.3969 47.8527 69.2429 48.1506C69.1307 48.3566 69.0611 48.583 69.0381 48.8165C69.0152 49.0499 69.0395 49.2856 69.1094 49.5095C69.1794 49.7333 69.2937 49.9409 69.4454 50.1197C69.5972 50.2986 69.7833 50.4451 69.9929 50.5506L86.5429 59.1806C86.7829 58.3577 86.7829 57.4834 86.5429 56.6606C86.3646 56.0789 86.072 55.5387 85.6822 55.0717C85.2924 54.6046 84.8132 54.22 84.2729 53.9406L71.7329 47.3706C71.4659 47.2254 71.1667 47.1497 70.8629 47.1506Z" fill="#dee5ef"/>
<path d="M54.4728 61.8606L54.0028 61.0006C53.5892 60.243 53.3318 59.4101 53.2459 58.5512C53.16 57.6924 53.2474 56.825 53.5028 56.0006C53.7584 55.1658 54.1785 54.3907 54.7384 53.7209C55.2983 53.0511 55.9866 52.5001 56.7628 52.1006L69.2728 45.5706C70.1679 45.1055 71.2092 45.0084 72.1749 45.2998C73.1406 45.5911 73.9543 46.2481 74.4428 47.1306C74.6802 47.5699 74.8274 48.0523 74.8758 48.5493C74.9242 49.0464 74.8728 49.5481 74.7247 50.025C74.5766 50.5019 74.3347 50.9444 74.0133 51.3266C73.6918 51.7088 73.2973 52.0229 72.8528 52.2506L54.4728 61.8606ZM71.0228 47.1506C70.7191 47.151 70.4202 47.2265 70.1528 47.3706L57.6528 53.8906C57.1099 54.168 56.6283 54.5518 56.2367 55.0191C55.845 55.4863 55.5512 56.0275 55.3728 56.6106C55.1277 57.4327 55.1277 58.3084 55.3728 59.1306L71.9128 50.5006C72.1238 50.3913 72.311 50.2414 72.4638 50.0595C72.6165 49.8776 72.7317 49.6672 72.8028 49.4406C72.872 49.2194 72.8953 48.9865 72.8712 48.7561C72.8472 48.5257 72.7762 48.3026 72.6628 48.1006C72.5022 47.8076 72.2645 47.5642 71.9754 47.3967C71.6863 47.2292 71.3569 47.1441 71.0228 47.1506Z" fill="#dee5ef"/>
<path d="M22.9527 87.6702H12.0527L13.4727 53.9502C13.4727 53.685 13.5781 53.4306 13.7656 53.2431C13.9532 53.0556 14.2075 52.9502 14.4727 52.9502C14.738 52.9502 14.9923 53.0556 15.1798 53.2431C15.3674 53.4306 15.4727 53.685 15.4727 53.9502L14.1427 85.6702H20.8727L19.5727 54.0402C19.5608 53.775 19.6547 53.5159 19.8338 53.3199C20.0129 53.1239 20.2625 53.0071 20.5277 52.9952C20.793 52.9833 21.052 53.0772 21.248 53.2563C21.444 53.4354 21.5608 53.685 21.5727 53.9502L22.9527 87.6702Z" fill="#dee5ef"/>
<path d="M17.5331 52.5705C16.5244 52.5758 15.5547 52.1808 14.8367 51.4722C14.1187 50.7636 13.7111 49.7992 13.7031 48.7905V34.8905C13.7216 33.1399 14.4327 31.468 15.6808 30.2405C16.929 29.0129 18.6125 28.3298 20.3631 28.3405H21.3631V48.7905C21.3552 49.7992 20.9475 50.7636 20.2296 51.4722C19.5116 52.1808 18.5419 52.5758 17.5331 52.5705ZM19.3631 30.4405C18.3375 30.6545 17.4156 31.2122 16.7501 32.0214C16.0846 32.8306 15.7152 33.8428 15.7031 34.8905V48.7905C15.7031 49.2758 15.8959 49.7413 16.2391 50.0845C16.5823 50.4277 17.0478 50.6205 17.5331 50.6205C18.0185 50.6205 18.4839 50.4277 18.8271 50.0845C19.1703 49.7413 19.3631 49.2758 19.3631 48.7905V30.4405Z" fill="#dee5ef"/>
<path d="M34.2727 61.8606L15.8827 52.2706C15.44 52.041 15.0474 51.7257 14.7277 51.343C14.4081 50.9603 14.1677 50.5178 14.0207 50.0414C13.8737 49.5649 13.8229 49.0639 13.8713 48.5677C13.9197 48.0714 14.0663 47.5897 14.3027 47.1506C14.7912 46.2681 15.6049 45.6112 16.5706 45.3198C17.5363 45.0284 18.5776 45.1256 19.4727 45.5906L31.9827 52.1206C32.7588 52.5202 33.4472 53.0711 34.0071 53.7409C34.5669 54.4107 34.9871 55.1858 35.2427 56.0206C35.4981 56.845 35.5855 57.7124 35.4996 58.5713C35.4137 59.4301 35.1563 60.263 34.7427 61.0206L34.2727 61.8606ZM17.6827 47.1506C17.3459 47.1541 17.0164 47.2489 16.7293 47.4251C16.4422 47.6012 16.2084 47.8519 16.0527 48.1506C15.9431 48.3541 15.8751 48.5774 15.8528 48.8075C15.8305 49.0376 15.8542 49.2698 15.9227 49.4906C15.9937 49.7172 16.1089 49.9276 16.2617 50.1095C16.4144 50.2915 16.6017 50.4414 16.8127 50.5506L33.3527 59.1806C33.6025 58.3592 33.6025 57.482 33.3527 56.6606C33.178 56.0772 32.8868 55.5353 32.4966 55.0678C32.1064 54.6002 31.6254 54.2168 31.0827 53.9406L18.5427 47.3706C18.2792 47.2258 17.9833 47.1501 17.6827 47.1506Z" fill="#dee5ef"/>
<path d="M1.25244 61.8602L0.782437 61.0002C0.370338 60.2382 0.114742 59.4014 0.0306746 58.5391C-0.0533932 57.6768 0.0357632 56.8065 0.292903 55.9792C0.550043 55.1518 0.969977 54.3843 1.52802 53.7216C2.08606 53.0589 2.77096 52.5144 3.54244 52.1202L16.0424 45.5902C16.9385 45.1221 17.9822 45.0233 18.9503 45.3148C19.9183 45.6063 20.7339 46.2651 21.2224 47.1502C21.4598 47.5896 21.607 48.072 21.6554 48.569C21.7038 49.066 21.6524 49.5677 21.5043 50.0447C21.3562 50.5216 21.1143 50.9641 20.7929 51.3463C20.4715 51.7285 20.0769 52.0426 19.6324 52.2702L1.25244 61.8602ZM17.8424 47.1502C17.5386 47.1494 17.2394 47.225 16.9724 47.3702L4.47244 53.8902C3.93207 54.1697 3.45294 54.5542 3.06314 55.0213C2.67334 55.4884 2.38072 56.0286 2.20244 56.6102C1.95733 57.4323 1.95733 58.3081 2.20244 59.1302L18.7424 50.5002C18.9547 50.3929 19.143 50.2436 19.296 50.0614C19.449 49.8792 19.5634 49.6679 19.6324 49.4402C19.6963 49.2175 19.7151 48.9842 19.6876 48.7541C19.6602 48.524 19.587 48.3017 19.4724 48.1002C19.3101 47.8109 19.0734 47.5703 18.7868 47.4032C18.5002 47.2362 18.1742 47.1488 17.8424 47.1502Z" fill="#dee5ef"/>
<path d="M75.0931 18.9305H58.713L58.473 18.6705C57.7541 18.1263 57.1586 17.4358 56.726 16.6446C56.2933 15.8534 56.0333 14.9795 55.963 14.0805C55.9351 13.3817 56.0512 12.6847 56.3041 12.0327C56.557 11.3807 56.9413 10.7877 57.433 10.2905C58.3619 9.35336 59.6236 8.82137 60.943 8.81051C61.4425 7.20432 62.4429 5.8001 63.7978 4.80328C65.1527 3.80646 66.791 3.26935 68.473 3.27051C71.643 3.27051 74.013 5.47051 74.573 8.84051H77.443L77.733 9.08051C78.4327 9.6344 79.008 10.3293 79.4215 11.1201C79.835 11.9109 80.0774 12.7799 80.1331 13.6705C80.156 14.3627 80.0375 15.0523 79.7848 15.6971C79.532 16.3419 79.1503 16.9283 78.663 17.4205C78.1985 17.8972 77.6434 18.2762 77.0303 18.5355C76.4173 18.7948 75.7587 18.9291 75.0931 18.9305ZM59.473 16.9305H75.0931C75.4926 16.9328 75.8886 16.8553 76.2579 16.7025C76.6271 16.5496 76.962 16.3246 77.243 16.0405C77.5373 15.7442 77.768 15.3909 77.9211 15.0023C78.0741 14.6137 78.1462 14.1979 78.1331 13.7805C78.0376 12.6418 77.499 11.5861 76.6331 10.8405H72.7031L72.643 9.90051C72.473 7.67051 71.313 5.27051 68.473 5.27051C65.933 5.27051 62.973 7.27051 62.803 9.90051L62.743 10.8405H60.963C60.5535 10.8398 60.1481 10.9229 59.7718 11.0848C59.3956 11.2467 59.0565 11.4839 58.7755 11.7818C58.4944 12.0798 58.2773 12.4321 58.1376 12.8171C57.9979 13.2021 57.9385 13.6117 57.963 14.0205C58.0645 15.1512 58.6069 16.1966 59.473 16.9305Z" fill="#dee5ef"/>
<path d="M28.5327 24.3105H12.1927C10.6863 24.3105 9.24154 23.7121 8.17633 22.6469C7.11112 21.5816 6.5127 20.1369 6.5127 18.6305C6.5127 17.1241 7.11112 15.6793 8.17633 14.6141C9.24154 13.5489 10.6863 12.9505 12.1927 12.9505C12.9727 9.42049 16.7327 6.50049 20.7727 6.50049C24.4127 6.50049 27.1027 9.05049 27.7027 12.9505H28.4827C29.9891 12.9505 31.4339 13.5489 32.4991 14.6141C33.5643 15.6793 34.1627 17.1241 34.1627 18.6305C34.1627 20.1369 33.5643 21.5816 32.4991 22.6469C31.4339 23.7121 29.9891 24.3105 28.4827 24.3105H28.5327ZM12.1927 14.9505C11.7023 14.9438 11.2156 15.0354 10.7612 15.22C10.3068 15.4045 9.89405 15.6783 9.54727 16.0251C9.20048 16.3718 8.92672 16.7846 8.74216 17.239C8.55759 17.6934 8.46597 18.1801 8.4727 18.6705C8.4727 19.6465 8.86041 20.5825 9.55054 21.2726C10.2407 21.9628 11.1767 22.3505 12.1527 22.3505H28.5327C29.0163 22.3518 29.4955 22.2575 29.9425 22.0731C30.3896 21.8886 30.7958 21.6176 31.1378 21.2756C31.4798 20.9336 31.7508 20.5274 31.9353 20.0803C32.1197 19.6332 32.214 19.1541 32.2127 18.6705C32.2127 17.6945 31.825 16.7585 31.1348 16.0683C30.4447 15.3782 29.5087 14.9905 28.5327 14.9905H25.9127L25.8527 14.0505C25.6827 11.3905 24.2727 8.54049 20.8527 8.54049C17.8527 8.54049 14.3427 10.9005 14.1327 14.0505L14.0727 14.9905L12.1927 14.9505Z" fill="#dee5ef"/>
</svg>
