<svg width="32" height="32" viewBox="0 0 32 32" fill="none" xmlns="http://www.w3.org/2000/svg">
<path d="M16 7H18C18.2652 7 18.5196 6.89464 18.7071 6.70711C18.8946 6.51957 19 6.26522 19 6C19 5.73478 18.8946 5.48043 18.7071 5.29289C18.5196 5.10536 18.2652 5 18 5H17C17 4.73478 16.8946 4.48043 16.7071 4.29289C16.5196 4.10536 16.2652 4 16 4C15.7348 4 15.4804 4.10536 15.2929 4.29289C15.1054 4.48043 15 4.73478 15 5V5.18C14.3386 5.41998 13.7826 5.88477 13.4292 6.49313C13.0758 7.10149 12.9475 7.81471 13.0666 8.50811C13.1857 9.20151 13.5448 9.83098 14.081 10.2865C14.6172 10.742 15.2965 10.9945 16 11C16.2652 11 16.5196 11.1054 16.7071 11.2929C16.8946 11.4804 17 11.7348 17 12C17 12.2652 16.8946 12.5196 16.7071 12.7071C16.5196 12.8946 16.2652 13 16 13H14C13.7348 13 13.4804 13.1054 13.2929 13.2929C13.1054 13.4804 13 13.7348 13 14C13 14.2652 13.1054 14.5196 13.2929 14.7071C13.4804 14.8946 13.7348 15 14 15H15C15 15.2652 15.1054 15.5196 15.2929 15.7071C15.4804 15.8946 15.7348 16 16 16C16.2652 16 16.5196 15.8946 16.7071 15.7071C16.8946 15.5196 17 15.2652 17 15V14.82C17.6614 14.58 18.2174 14.1152 18.5708 13.5069C18.9242 12.8985 19.0525 12.1853 18.9334 11.4919C18.8143 10.7985 18.4552 10.169 17.919 9.71352C17.3828 9.25801 16.7035 9.00546 16 9C15.7348 9 15.4804 8.89464 15.2929 8.70711C15.1054 8.51957 15 8.26522 15 8C15 7.73478 15.1054 7.48043 15.2929 7.29289C15.4804 7.10536 15.7348 7 16 7Z" fill="#dee5ef"/>
<path d="M31 24H28V3C28 2.20435 27.6839 1.44129 27.1213 0.87868C26.5587 0.31607 25.7956 0 25 0L3 0C2.20435 0 1.44129 0.31607 0.87868 0.87868C0.31607 1.44129 0 2.20435 0 3L0 9C0 9.26522 0.105357 9.51957 0.292893 9.70711C0.48043 9.89464 0.734784 10 1 10H4V29C4 29.7956 4.31607 30.5587 4.87868 31.1213C5.44129 31.6839 6.20435 32 7 32H29C29.7956 32 30.5587 31.6839 31.1213 31.1213C31.6839 30.5587 32 29.7956 32 29V25C32 24.7348 31.8946 24.4804 31.7071 24.2929C31.5196 24.1054 31.2652 24 31 24ZM2 3C2 2.73478 2.10536 2.48043 2.29289 2.29289C2.48043 2.10536 2.73478 2 3 2C3.26522 2 3.51957 2.10536 3.70711 2.29289C3.89464 2.48043 4 2.73478 4 3V8H2V3ZM8 25V29C7.99815 29.133 7.96978 29.2643 7.91655 29.3862C7.86332 29.5082 7.7863 29.6182 7.69 29.71C7.60135 29.8035 7.49424 29.8776 7.37546 29.9275C7.25668 29.9774 7.12883 30.0021 7 30C6.73478 30 6.48043 29.8946 6.29289 29.7071C6.10536 29.5196 6 29.2652 6 29V3C5.9973 2.65886 5.93642 2.32067 5.82 2H25C25.2652 2 25.5196 2.10536 25.7071 2.29289C25.8946 2.48043 26 2.73478 26 3V24H9C8.73478 24 8.48043 24.1054 8.29289 24.2929C8.10536 24.4804 8 24.7348 8 25ZM30 29C29.9982 29.133 29.9698 29.2643 29.9165 29.3862C29.8633 29.5082 29.7863 29.6182 29.69 29.71C29.6014 29.8035 29.4942 29.8776 29.3755 29.9275C29.2567 29.9774 29.1288 30.0021 29 30H9.83C9.94302 29.6787 10.0005 29.3406 10 29V26H30V29Z" fill="#dee5ef"/>
<path d="M17 19H9C8.73478 19 8.48043 19.1054 8.29289 19.2929C8.10536 19.4804 8 19.7348 8 20C8 20.2652 8.10536 20.5196 8.29289 20.7071C8.48043 20.8946 8.73478 21 9 21H17C17.2652 21 17.5196 20.8946 17.7071 20.7071C17.8946 20.5196 18 20.2652 18 20C18 19.7348 17.8946 19.4804 17.7071 19.2929C17.5196 19.1054 17.2652 19 17 19Z" fill="#dee5ef"/>
<path d="M23 19H21C20.7348 19 20.4804 19.1054 20.2929 19.2929C20.1054 19.4804 20 19.7348 20 20C20 20.2652 20.1054 20.5196 20.2929 20.7071C20.4804 20.8946 20.7348 21 21 21H23C23.2652 21 23.5196 20.8946 23.7071 20.7071C23.8946 20.5196 24 20.2652 24 20C24 19.7348 23.8946 19.4804 23.7071 19.2929C23.5196 19.1054 23.2652 19 23 19Z" fill="#dee5ef"/>
</svg>
