<svg width="58" height="58" viewBox="0 0 58 58" fill="none" xmlns="http://www.w3.org/2000/svg">
<path d="M29.0026 57.5L28.9984 57.5C28.9754 57.5001 28.9524 57.4985 28.9297 57.4952C21.0533 56.3362 13.8535 52.3916 8.63723 46.3774C3.42089 40.3632 0.533806 32.6781 0.5 24.7169V11C0.5 10.8674 0.552678 10.7402 0.646447 10.6464C0.740215 10.5527 0.867392 10.5 1 10.5H1.00055C3.51911 10.4972 5.9337 9.49548 7.71459 7.71459C9.49548 5.9337 10.4972 3.51911 10.5 1.00055V1C10.5 0.867392 10.5527 0.740215 10.6464 0.646447C10.7402 0.552678 10.8674 0.5 11 0.5H47C47.1326 0.5 47.2598 0.552679 47.3536 0.646447C47.4473 0.740214 47.5 0.867391 47.5 1V1.00055C47.5028 3.51911 48.5045 5.9337 50.2854 7.71459C52.0663 9.49548 54.4809 10.4972 56.9994 10.5H57C57.1326 10.5 57.2598 10.5527 57.3536 10.6464C57.4473 10.7402 57.5 10.8674 57.5 11L57.5 24.7159C57.5 24.7162 57.5 24.7165 57.5 24.7168C57.4663 32.6777 54.5795 40.3626 49.3635 46.3768C44.1476 52.391 36.9483 56.3358 29.0723 57.4952C29.0492 57.4985 29.0259 57.5001 29.0026 57.5ZM1.95397 11.4571L1.5 11.4991V11.955L1.5 24.718L1.5 24.7201C1.53237 32.4152 4.31396 39.8454 9.34287 45.67C14.3718 51.4946 21.3169 55.3301 28.925 56.4843L29 56.4957L29.075 56.4843C36.6831 55.3301 43.6282 51.4946 48.6571 45.67C53.686 39.8454 56.4676 32.4152 56.5 24.7201V24.718V11.955V11.4991L56.046 11.4571C53.6019 11.2311 51.3139 10.1573 49.5783 8.42172C47.8427 6.68611 46.7689 4.39806 46.5429 1.95397L46.5009 1.5H46.045H11.955H11.4991L11.4571 1.95397C11.2311 4.39806 10.1573 6.68611 8.42172 8.42172C6.68611 10.1573 4.39806 11.2311 1.95397 11.4571Z" stroke="#dee5ef"/>
<path d="M28.9138 51.4917L28.9102 51.491C22.6209 50.3508 16.9317 47.038 12.8359 42.1309C8.74001 37.2237 6.49758 31.034 6.5 24.6422V24.642V15C6.5 14.8674 6.55268 14.7402 6.64645 14.6464C6.74022 14.5527 6.86739 14.5 7 14.5H7.00064C8.98881 14.4974 10.8948 13.7065 12.3007 12.3007C13.7065 10.8948 14.4974 8.98881 14.5 7.00064V7C14.5 6.86739 14.5527 6.74021 14.6464 6.64645C14.7402 6.55268 14.8674 6.5 15 6.5H43C43.1326 6.5 43.2598 6.55268 43.3536 6.64645C43.4473 6.74021 43.5 6.86739 43.5 7V7.00064C43.5026 8.98881 44.2935 10.8948 45.6993 12.3007C47.1052 13.7065 49.0112 14.4974 50.9994 14.5H51C51.1326 14.5 51.2598 14.5527 51.3536 14.6464C51.4473 14.7402 51.5 14.8674 51.5 15V24.642V24.6422C51.5025 31.0338 49.2604 37.2232 45.1649 42.1303C41.0694 47.0374 35.3807 50.3504 29.0918 51.491L29.0882 51.4917C29.0594 51.4971 29.0301 51.4999 29.0008 51.5C28.9716 51.4999 28.9425 51.4971 28.9138 51.4917ZM7.94373 15.4472L7.5 15.4974V15.944V24.6439C7.5 24.6439 7.5 24.6439 7.5 24.644C7.49821 30.7696 9.63649 36.7034 13.5453 41.4198C17.4541 46.1362 22.8878 49.3389 28.9073 50.4743L29 50.4918L29.0927 50.4743C35.1125 49.3389 40.5465 46.1359 44.4554 41.419C48.3642 36.7022 50.5023 30.7679 50.5 24.642C50.5 24.6419 50.5 24.6419 50.5 24.6418V15.942V15.4954L50.0563 15.4452C48.1413 15.2283 46.3565 14.3683 44.9935 13.0057C43.6306 11.6431 42.7701 9.85855 42.5528 7.94361L42.5025 7.5H42.056H15.944H15.4974L15.4472 7.94373C15.2302 9.85901 14.37 11.644 13.007 13.007C11.644 14.37 9.85901 15.2302 7.94373 15.4472Z" stroke="#dee5ef"/>
<path d="M24.5 33V32.5H24H16C15.8674 32.5 15.7402 32.4473 15.6464 32.3536C15.5527 32.2598 15.5 32.1326 15.5 32V24C15.5 23.8674 15.5527 23.7402 15.6464 23.6464C15.7402 23.5527 15.8674 23.5 16 23.5H24H24.5V23V15C24.5 14.8674 24.5527 14.7402 24.6464 14.6464C24.7402 14.5527 24.8674 14.5 25 14.5H33C33.1326 14.5 33.2598 14.5527 33.3536 14.6464C33.4473 14.7402 33.5 14.8674 33.5 15V23V23.5H34H42C42.1326 23.5 42.2598 23.5527 42.3536 23.6464C42.4473 23.7402 42.5 23.8674 42.5 24V32C42.5 32.1326 42.4473 32.2598 42.3536 32.3536C42.2598 32.4473 42.1326 32.5 42 32.5H34H33.5V33V41C33.5 41.1326 33.4473 41.2598 33.3536 41.3536C33.2598 41.4473 33.1326 41.5 33 41.5H25C24.8674 41.5 24.7402 41.4473 24.6464 41.3536C24.5527 41.2598 24.5 41.1326 24.5 41V33ZM25.5 40V40.5H26H32H32.5V40V32C32.5 31.8674 32.5527 31.7402 32.6464 31.6464C32.7402 31.5527 32.8674 31.5 33 31.5H41H41.5V31V25V24.5H41H33C32.8674 24.5 32.7402 24.4473 32.6464 24.3536C32.5527 24.2598 32.5 24.1326 32.5 24V16V15.5H32H26H25.5V16V24C25.5 24.1326 25.4473 24.2598 25.3536 24.3536C25.2598 24.4473 25.1326 24.5 25 24.5H17H16.5V25V31V31.5H17H25C25.1326 31.5 25.2598 31.5527 25.3536 31.6464C25.4473 31.7402 25.5 31.8674 25.5 32V40Z" stroke="#dee5ef"/>
</svg>
