<svg width="58" height="54" viewBox="0 0 58 54" fill="none" xmlns="http://www.w3.org/2000/svg">
<path d="M57 33H1V38H57V33Z" stroke="#dee5ef" stroke-width="2" stroke-miterlimit="10" stroke-linecap="round" stroke-linejoin="round"/>
<path d="M53 38H5V53H53V38Z" stroke="#dee5ef" stroke-width="2" stroke-miterlimit="10" stroke-linecap="round" stroke-linejoin="round"/>
<path d="M17.9744 15.9749C19.3413 14.608 19.3413 12.392 17.9744 11.0251C16.6076 9.65829 14.3915 9.65829 13.0247 11.0251C11.6578 12.392 11.6578 14.608 13.0247 15.9749C14.3915 17.3417 16.6076 17.3417 17.9744 15.9749Z" stroke="#dee5ef" stroke-width="2" stroke-miterlimit="10" stroke-linecap="round" stroke-linejoin="round"/>
<path d="M5 31V33H26V31V31.5C26 25.701 21.299 21 15.5 21C9.70101 21 5 25.701 5 31.5V31Z" stroke="#dee5ef" stroke-width="2" stroke-miterlimit="10" stroke-linecap="round" stroke-linejoin="round"/>
<path d="M9 29H13C14.1046 29 15 29.8954 15 31C15 32.1046 14.1046 33 13 33H9" stroke="#dee5ef" stroke-width="2" stroke-miterlimit="10" stroke-linecap="round" stroke-linejoin="round"/>
<path d="M22 29H18C16.8954 29 16 29.8954 16 31C16 32.1046 16.8954 33 18 33H22" stroke="#dee5ef" stroke-width="2" stroke-miterlimit="10" stroke-linecap="round" stroke-linejoin="round"/>
<path d="M53 23H39V33H53V23Z" stroke="#dee5ef" stroke-width="2" stroke-miterlimit="10" stroke-linecap="round" stroke-linejoin="round"/>
<path d="M46 11C48.7614 11 51 8.76142 51 6C51 3.23858 48.7614 1 46 1C43.2386 1 41 3.23858 41 6C41 8.76142 43.2386 11 46 11Z" stroke="#dee5ef" stroke-width="2" stroke-miterlimit="10" stroke-linecap="round" stroke-linejoin="round"/>
<path d="M46 4V6" stroke="#dee5ef" stroke-width="2" stroke-miterlimit="10" stroke-linecap="round" stroke-linejoin="round"/>
<path d="M45 6H46" stroke="#dee5ef" stroke-width="2" stroke-miterlimit="10" stroke-linecap="round" stroke-linejoin="round"/>
</svg>
