<svg width="60" height="60" viewBox="0 0 60 60" fill="none" xmlns="http://www.w3.org/2000/svg">
<path d="M38.666 26.6115C38.28 26.9875 38.066 27.4915 38.062 28.0305C38.059 28.5695 38.267 29.0765 38.648 29.4575L39.894 30.7035C40.218 31.0275 40.617 31.2305 41.035 31.3135C41.119 31.7315 41.321 32.1305 41.644 32.4535L42.723 33.5315C43.145 33.9545 43.707 34.1865 44.305 34.1865C44.903 34.1865 45.465 33.9545 45.887 33.5315L54.743 24.6755C55.616 23.8035 55.616 22.3835 54.743 21.5115L53.665 20.4335C53.342 20.1105 52.944 19.9085 52.527 19.8245C52.442 19.3955 52.231 19.0005 51.915 18.6835L50.668 17.4355C50.291 17.0585 49.776 16.8235 49.234 16.8475C48.703 16.8505 48.209 17.0595 47.84 17.4365L37.923 7.5545C38.309 7.1785 38.523 6.6745 38.527 6.1355C38.531 5.5965 38.322 5.0895 37.941 4.7085L36.695 3.4625C36.382 3.1485 35.981 2.9525 35.558 2.8715C35.477 2.4465 35.273 2.0405 34.945 1.7125L33.867 0.6345C33.023 -0.2105 31.548 -0.2125 30.702 0.6345L21.846 9.4895C21.423 9.9125 21.191 10.4735 21.191 11.0715C21.191 11.6705 21.423 12.2315 21.846 12.6545L22.924 13.7325C23.24 14.0485 23.634 14.2585 24.063 14.3445C24.149 14.7725 24.358 15.1665 24.674 15.4825L25.92 16.7285C26.295 17.1035 26.813 17.3185 27.343 17.3185C27.347 17.3185 27.351 17.3185 27.355 17.3185C27.886 17.3155 28.381 17.1055 28.749 16.7285L30.345 18.3255C30.635 18.6145 30.635 19.0865 30.345 19.3755L23.092 26.6285L22.384 25.9205C21.213 24.7515 19.31 24.7515 18.141 25.9215C16.972 27.0915 16.972 28.9945 18.141 30.1645L18.848 30.8715L9.78 39.9395C9.253 40.4665 8.591 40.8415 7.866 41.0235L4.96 41.7495C3.885 42.0195 2.901 42.5755 2.117 43.3595L1.791 43.6845C0.637 44.8425 0 46.3785 0 48.0125C0 49.6465 0.637 51.1855 1.793 52.3415L3.036 53.5835C4.193 54.7395 5.73 55.3765 7.364 55.3765C8.999 55.3765 10.536 54.7395 11.693 53.5835L12.018 53.2585C12.802 52.4755 13.359 51.4915 13.628 50.4145L14.354 47.5095C14.535 46.7855 14.91 46.1235 15.438 45.5955L24.506 36.5275L25.213 37.2345C26.347 38.3675 28.323 38.3665 29.455 37.2355C30.022 36.6695 30.334 35.9155 30.334 35.1135C30.334 34.3125 30.022 33.5585 29.455 32.9925L28.748 32.2855L36.001 25.0325C36.291 24.7425 36.762 24.7425 37.051 25.0315L38.666 26.6115ZM53.399 23.0935C53.399 23.1385 53.387 23.2035 53.33 23.2615L44.474 32.1175C44.359 32.2325 44.253 32.2325 44.139 32.1175L43.06 31.0395C42.967 30.9465 42.967 30.7965 43.06 30.7035L51.916 21.8475C51.962 21.8015 52.023 21.7785 52.084 21.7785C52.145 21.7785 52.206 21.8015 52.252 21.8475L53.33 22.9255C53.387 22.9825 53.399 23.0485 53.399 23.0935ZM23.19 11.0715C23.19 11.0265 23.202 10.9615 23.259 10.9035L32.115 2.0485C32.173 1.9905 32.238 1.9795 32.283 1.9795C32.328 1.9795 32.393 1.9915 32.451 2.0485L33.529 3.1265C33.622 3.2195 33.622 3.3695 33.529 3.4625L24.673 12.3185C24.581 12.4115 24.43 12.4105 24.337 12.3185L23.259 11.2405C23.202 11.1825 23.19 11.1175 23.19 11.0715ZM34.588 23.6175L25.921 32.2855L28.042 34.4065C28.231 34.5955 28.335 34.8465 28.335 35.1135C28.335 35.3815 28.231 35.6315 28.042 35.8205C27.665 36.1995 27.006 36.1995 26.628 35.8205L24.506 33.6995L14.024 44.1815C13.239 44.9655 12.683 45.9495 12.414 47.0255L11.688 49.9305C11.507 50.6555 11.132 51.3165 10.604 51.8445L10.279 52.1695C9.5 52.9485 8.464 53.3775 7.364 53.3775C6.28 53.3775 5.218 52.9375 4.45 52.1705L3.208 50.9285C2.429 50.1485 2 49.1135 2 48.0125C2 46.9115 2.429 45.8775 3.207 45.0985L3.532 44.7735C4.061 44.2455 4.723 43.8705 5.447 43.6885L8.353 42.9625C9.43 42.6925 10.413 42.1365 11.196 41.3535L21.679 30.8715L19.557 28.7505C19.167 28.3605 19.167 27.7255 19.557 27.3355C19.752 27.1415 20.008 27.0435 20.264 27.0435C20.52 27.0435 20.776 27.1415 20.972 27.3355L23.093 29.4565L31.76 20.7895C32.829 19.7215 32.829 17.9805 31.76 16.9115L30.164 15.3145C29.786 14.9365 29.284 14.7285 28.75 14.7285C28.746 14.7285 28.741 14.7285 28.737 14.7285C28.198 14.7315 27.694 14.9465 27.335 15.3145L26.089 14.0685C26.031 14.0105 26.02 13.9455 26.02 13.9005C26.02 13.8555 26.032 13.7905 26.089 13.7325L34.946 4.8765C35.06 4.7615 35.166 4.7615 35.281 4.8765L36.527 6.1225C36.15 6.4905 35.941 6.9855 35.938 7.5175C35.935 8.0515 36.15 8.5745 36.528 8.9515L46.427 18.8505C46.805 19.2285 47.307 19.4365 47.841 19.4365C47.845 19.4365 47.849 19.4365 47.854 19.4365C48.393 19.4335 48.896 19.2185 49.255 18.8505L50.502 20.0985C50.559 20.1555 50.571 20.2205 50.571 20.2645C50.571 20.3105 50.559 20.3755 50.502 20.4335L41.645 29.2895C41.551 29.3805 41.402 29.3815 41.31 29.2895L40.065 28.0425C40.441 27.6745 40.65 27.1805 40.653 26.6485C40.656 26.1155 40.442 25.5915 40.064 25.2135L38.467 23.6165C37.396 22.5495 35.657 22.5495 34.588 23.6175Z" fill="#dee5ef"/>
<path d="M53 51.3774H44C40.14 51.3774 37 54.5184 37 58.3774V59.3774H60V58.3774C60 54.5174 56.86 51.3774 53 51.3774ZM39.101 57.3774C39.565 55.0984 41.586 53.3774 44 53.3774H53C55.415 53.3774 57.435 55.0984 57.899 57.3774H39.101Z" fill="#dee5ef"/>
<path d="M42 48.3774C41.448 48.3774 41 48.8244 41 49.3774C41 49.9304 41.448 50.3774 42 50.3774H55C55.552 50.3774 56 49.9304 56 49.3774C56 48.8244 55.552 48.3774 55 48.3774H42Z" fill="#dee5ef"/>
</svg>
