<svg width="200" height="53" viewBox="0 0 200 53" fill="none" xmlns="http://www.w3.org/2000/svg">
<path d="M0 23.2456L0 33.0088H9.25926V23.2456H0Z" fill="#00707A"/>
<path d="M0 6L0 22H9.26L9.26 6H0Z" fill="#005E66"/>
<path d="M9.25926 34.4036H0V42.3071H9.25926V34.4036Z" fill="#00838F"/>
<path d="M200 36.7281C200 33.6469 197.513 31.1492 194.444 31.1492C191.376 31.1492 188.889 33.6469 188.889 36.7281C188.889 39.8093 191.376 42.3071 194.444 42.3071C197.513 42.3071 200 39.8093 200 36.7281Z" fill="#00838F"/>
<path d="M26.375 42.6C23.9028 42.6 21.7362 42.1118 19.875 41.1355C18.0417 40.1313 16.6112 38.7645 15.5834 37.035C14.5834 35.3055 14.0834 33.3389 14.0834 31.1353C14.0834 28.9037 14.5695 26.9371 15.5417 25.2355C16.5417 23.506 17.9028 22.1531 19.625 21.1768C21.375 20.2005 23.3612 19.7124 25.5834 19.7124C27.75 19.7124 29.6806 20.1866 31.375 21.135C33.0695 22.0834 34.4028 23.4224 35.375 25.1518C36.3473 26.8813 36.8334 28.9176 36.8334 31.2608C36.8334 31.4839 36.8195 31.735 36.7917 32.0139C36.7917 32.2929 36.7778 32.5579 36.75 32.8089H18.2084V29.336H34L31.9584 30.4239C31.9862 29.1408 31.7223 28.011 31.1667 27.0347C30.6112 26.0584 29.8473 25.2913 28.875 24.7334C27.9306 24.1755 26.8334 23.8966 25.5834 23.8966C24.3056 23.8966 23.1806 24.1755 22.2084 24.7334C21.2639 25.2913 20.5139 26.0724 19.9584 27.0766C19.4306 28.0529 19.1667 29.2105 19.1667 30.5495V31.3863C19.1667 32.7253 19.4723 33.9108 20.0834 34.9429C20.6945 35.975 21.5556 36.77 22.6667 37.3279C23.7778 37.8858 25.0556 38.1647 26.5 38.1647C27.75 38.1647 28.875 37.9695 29.875 37.5789C30.875 37.1884 31.7639 36.5747 32.5417 35.7379L35.3334 38.9597C34.3334 40.1313 33.0695 41.0379 31.5417 41.6795C30.0417 42.2931 28.3195 42.6 26.375 42.6ZM54.9343 42.3071V37.7881L54.6426 36.8258V28.9176C54.6426 27.3834 54.1843 26.1979 53.2676 25.361C52.351 24.4963 50.9621 24.0639 49.101 24.0639C47.851 24.0639 46.6149 24.2592 45.3926 24.6497C44.1982 25.0403 43.1843 25.5842 42.351 26.2816L40.3093 22.4739C41.5037 21.5534 42.9204 20.87 44.5593 20.4237C46.226 19.9495 47.9482 19.7124 49.726 19.7124C52.9482 19.7124 55.4343 20.4934 57.1843 22.0555C58.9621 23.5897 59.851 25.9747 59.851 29.2105V42.3071H54.9343ZM47.9343 42.6C46.2676 42.6 44.8093 42.321 43.5593 41.7631C42.3093 41.1774 41.3371 40.3824 40.6426 39.3781C39.976 38.346 39.6426 37.1884 39.6426 35.9053C39.6426 34.65 39.9343 33.5203 40.5176 32.516C41.1287 31.5118 42.1149 30.7168 43.476 30.131C44.8371 29.5453 46.6426 29.2524 48.8926 29.2524H55.351V32.7253H49.2676C47.4899 32.7253 46.2954 33.0181 45.6843 33.6039C45.0732 34.1618 44.7676 34.8592 44.7676 35.696C44.7676 36.6445 45.1426 37.3976 45.8926 37.9555C46.6426 38.5134 47.6843 38.7924 49.0176 38.7924C50.2954 38.7924 51.4343 38.4995 52.4343 37.9137C53.4621 37.3279 54.1982 36.4632 54.6426 35.3195L55.5176 38.4576C55.0176 39.7687 54.1149 40.7868 52.8093 41.5121C51.5315 42.2374 49.9065 42.6 47.9343 42.6ZM66.5352 42.3071V19.9634H71.4936V26.1142L70.9102 24.315C71.5769 22.8087 72.6186 21.665 74.0352 20.8839C75.4797 20.1029 77.2713 19.7124 79.4102 19.7124V24.6916C79.188 24.6358 78.9797 24.6079 78.7852 24.6079C78.5908 24.58 78.3963 24.566 78.2019 24.566C76.2297 24.566 74.6602 25.1518 73.4936 26.3234C72.3269 27.4671 71.7436 29.1826 71.7436 31.47V42.3071H66.5352ZM96.4533 19.7124C98.2311 19.7124 99.8144 20.061 101.203 20.7584C102.62 21.4558 103.731 22.5297 104.537 23.9803C105.342 25.4029 105.745 27.2439 105.745 29.5034V42.3071H100.537V30.1729C100.537 28.1924 100.064 26.7139 99.1199 25.7376C98.2033 24.7613 96.9116 24.2731 95.245 24.2731C94.0227 24.2731 92.9394 24.5242 91.9949 25.0263C91.0505 25.5284 90.3144 26.2816 89.7866 27.2858C89.2866 28.2621 89.0366 29.5034 89.0366 31.0097V42.3071H83.8283V19.9634H88.7866V25.9887L87.9116 24.1476C88.6894 22.725 89.8144 21.6371 91.2866 20.8839C92.7866 20.1029 94.5088 19.7124 96.4533 19.7124ZM122.851 42.6C120.379 42.6 118.213 42.1118 116.351 41.1355C114.518 40.1313 113.088 38.7645 112.06 37.035C111.06 35.3055 110.56 33.3389 110.56 31.1353C110.56 28.9037 111.046 26.9371 112.018 25.2355C113.018 23.506 114.379 22.1531 116.101 21.1768C117.851 20.2005 119.838 19.7124 122.06 19.7124C124.226 19.7124 126.157 20.1866 127.851 21.135C129.546 22.0834 130.879 23.4224 131.851 25.1518C132.824 26.8813 133.31 28.9176 133.31 31.2608C133.31 31.4839 133.296 31.735 133.268 32.0139C133.268 32.2929 133.254 32.5579 133.226 32.8089H114.685V29.336H130.476L128.435 30.4239C128.463 29.1408 128.199 28.011 127.643 27.0347C127.088 26.0584 126.324 25.2913 125.351 24.7334C124.407 24.1755 123.31 23.8966 122.06 23.8966C120.782 23.8966 119.657 24.1755 118.685 24.7334C117.74 25.2913 116.99 26.0724 116.435 27.0766C115.907 28.0529 115.643 29.2105 115.643 30.5495V31.3863C115.643 32.7253 115.949 33.9108 116.56 34.9429C117.171 35.975 118.032 36.77 119.143 37.3279C120.254 37.8858 121.532 38.1647 122.976 38.1647C124.226 38.1647 125.351 37.9695 126.351 37.5789C127.351 37.1884 128.24 36.5747 129.018 35.7379L131.81 38.9597C130.81 40.1313 129.546 41.0379 128.018 41.6795C126.518 42.2931 124.796 42.6 122.851 42.6ZM138.313 42.3071V19.9634H143.271V26.1142L142.688 24.315C143.354 22.8087 144.396 21.665 145.813 20.8839C147.257 20.1029 149.049 19.7124 151.188 19.7124V24.6916C150.965 24.6358 150.757 24.6079 150.563 24.6079C150.368 24.58 150.174 24.566 149.979 24.566C148.007 24.566 146.438 25.1518 145.271 26.3234C144.104 27.4671 143.521 29.1826 143.521 31.47V42.3071H138.313ZM155.606 42.3071V11.2603H160.814V42.3071H155.606ZM169.483 50.7174C168.4 50.7174 167.317 50.536 166.233 50.1734C165.15 49.8108 164.247 49.3087 163.525 48.6671L165.608 44.8176C166.136 45.2918 166.733 45.6684 167.4 45.9474C168.067 46.2263 168.747 46.3658 169.442 46.3658C170.386 46.3658 171.15 46.1287 171.733 45.6545C172.317 45.1803 172.858 44.3853 173.358 43.2695L174.65 40.3405L175.067 39.7129L183.483 19.9634H188.483L178.067 44.1063C177.372 45.78 176.594 47.105 175.733 48.0813C174.9 49.0576 173.956 49.741 172.9 50.1316C171.872 50.5221 170.733 50.7174 169.483 50.7174ZM174.067 43.1021L164.025 19.9634H169.442L177.608 39.2526L174.067 43.1021Z" fill="#00838F"/>
</svg>
