<svg width="42" height="50" viewBox="0 0 42 50" fill="none" xmlns="http://www.w3.org/2000/svg">
<path d="M11.3 16.8C10.6492 16.8 10.258 16.7862 9.97139 16.6715L9.65549 16.5452C10.2181 16.7342 10.771 16.8 11.3 16.8ZM11.3 16.8C13.1237 16.8 14.6957 15.8086 15.5258 14.3144L15.8116 13.8H16.4C16.4177 13.8 16.4354 13.8002 16.453 13.8006C16.2477 13.7628 16.0545 13.7189 15.8887 13.6779C15.8591 13.6734 15.8385 13.6748 15.8263 13.6768C15.0826 15.53 13.3317 16.8 11.3 16.8ZM31.1 22.8191L29.6155 23.8886L20.3346 30.5748C20.3312 30.577 20.3277 30.5791 20.3243 30.581L20.3106 30.5719L20.2927 30.5674L19.797 24.2221L19.6715 22.6158L18.2877 23.4412L6.90768 30.2293C6.90576 30.2271 6.90437 30.2254 6.90342 30.2242C6.9026 30.2231 6.90205 30.2223 6.90172 30.2218C6.90125 30.2198 6.9 30.213 6.9 30.2V30.1689L8.41561 29.2568L19.6137 22.5181C19.6351 22.512 19.6554 22.5066 19.6747 22.5019C19.6854 22.4993 19.6953 22.4971 19.7044 22.4952L20.2031 28.7791L20.344 30.5535L21.7861 29.5102L31.1 22.7725V22.8191ZM31.2 30.5791V30.4888L32.721 29.2838L40.3718 23.2228C40.3791 23.2193 40.3887 23.2151 40.4005 23.2108C40.4083 23.2079 40.416 23.2054 40.4235 23.2032C40.4466 23.232 40.4693 23.2693 40.49 23.3192L38.979 24.5162L31.3282 30.5772C31.3209 30.5807 31.3113 30.5849 31.2995 30.5892C31.2805 30.5962 31.2618 30.6013 31.2452 30.6046C31.2257 30.5948 31.2109 30.5861 31.2 30.5791ZM6.9 17.299L7.13704 18.4842L6.9 18.6197V17.8V17.299ZM8.64742 17.2412L8.69443 17.1472C8.69945 17.1372 8.70529 17.1257 8.71181 17.1129C8.78189 16.9755 8.93034 16.6845 8.9819 16.3377C8.9832 16.3353 8.98448 16.3329 8.98572 16.3307C9.03657 16.3218 9.08472 16.3233 9.13648 16.3353C9.14727 16.3404 9.15806 16.3455 9.16884 16.3505L9.16347 16.3484L8.73176 17.1039C8.70505 17.1506 8.67694 17.1964 8.64742 17.2412ZM14.6378 1.60677C15.4703 1.21575 16.4055 1 17.4 1C16.4168 1 15.4784 1.21607 14.6378 1.60677ZM10.9796 7.00532L11.0164 6.78406C11.0107 6.85691 11.0063 6.93018 11.003 7.00384C10.9952 7.00432 10.9874 7.00481 10.9796 7.00532ZM8.58761 7.87133C7.31914 8.78171 6.5 10.2958 6.5 11.9V11.9012V11.9023V11.9035V11.9047V11.9058V11.907V11.9081V11.9093V11.9105V11.9116V11.9128V11.9139V11.915V11.9162V11.9173V11.9185V11.9196V11.9207V11.9219V11.923V11.9241V11.9252V11.9264V11.9275V11.9286V11.9297V11.9308V11.9319V11.9331V11.9342V11.9353V11.9364V11.9375V11.9386V11.9397V11.9408V11.9419V11.943V11.9441V11.9451V11.9462V11.9473V11.9484V11.9495V11.9506V11.9516V11.9527V11.9538V11.9548V11.9559V11.957V11.9581V11.9591V11.9602V11.9612V11.9623V11.9634V11.9644V11.9655V11.9665V11.9676V11.9686V11.9697V11.9707V11.9717V11.9728V11.9738V11.9749V11.9759V11.9769V11.978V11.979V11.98V11.9811V11.9821V11.9831V11.9841V11.9852V11.9862V11.9872V11.9882V11.9892V11.9902V11.9912V11.9923V11.9933V11.9943V11.9953V11.9963V11.9973V11.9983V11.9993V12.0003V12.0013V12.0023V12.0033V12.0043V12.0053V12.0062V12.0072V12.0082V12.0092V12.0102V12.0112V12.0122V12.0131V12.0141V12.0151V12.0161V12.017V12.018V12.019V12.02V12.0209V12.0219V12.0229V12.0238V12.0248V12.0258V12.0267V12.0277V12.0286V12.0296V12.0306V12.0315V12.0325V12.0334V12.0344V12.0353V12.0363V12.0372V12.0382V12.0391V12.0401V12.041V12.042V12.0429V12.0438V12.0448V12.0457V12.0467V12.0476V12.0485V12.0495V12.0504V12.0513V12.0523V12.0532V12.0541V12.0551V12.056V12.0569V12.0578V12.0588V12.0597V12.0606V12.0615V12.0625V12.0634V12.0643V12.0652V12.0661V12.0671V12.068V12.0689V12.0698V12.0707V12.0716V12.0726V12.0735V12.0744V12.0753V12.0762V12.0771V12.078V12.0789V12.0798V12.0807V12.0816V12.0825V12.0835V12.0844V12.0853V12.0862V12.0871V12.088V12.0889V12.0898V12.0907V12.0916V12.0925V12.0934V12.0943V12.0952V12.096V12.0969V12.0978V12.0987V12.0996V12.1005V12.1014V12.1023V12.1032V12.1041V12.105V12.1059V12.1068V12.1076V12.1085V12.1094V12.1103V12.1112V12.1121V12.113V12.1139V12.1147V12.1156V12.1165V12.1174V12.1183V12.1192V12.1201V12.1209V12.1218V12.1227V12.1236V12.1245V12.1254V12.1262V12.1271V12.128V12.1289V12.1298V12.1306V12.1315V12.1324V12.1333V12.1342V12.1351V12.1359V12.1368V12.1377V12.1386V12.1395V12.1403V12.1412V12.1421V12.143V12.1438V12.1447V12.1456V12.1465V12.1474V12.1482V12.1491V12.15V12.1509V12.1518V12.1526V12.1535V12.1544V12.1553V12.1562V12.157V12.1579V12.1588V12.1597V12.1605V12.1614V12.1623V12.1632V12.1641V12.1649V12.1658V12.1667V12.1676V12.1685V12.1694V12.1702V12.1711V12.172V12.1729V12.1738V12.1746V12.1755V12.1764V12.1773V12.1782V12.1791V12.1799V12.1808V12.1817V12.1826V12.1835V12.1844V12.1853V12.1861V12.187V12.1879V12.1888V12.1897V12.1906V12.1915V12.1924V12.1932V12.1941V12.195V12.1959V12.1968V12.1977V12.1986V12.1995V12.2004V12.2013V12.2022V12.2031V12.204V12.2048V12.2057V12.2066V12.2075V12.2084V12.2093V12.2102V12.2111V12.212V12.2129V12.2138V12.2147V12.2156V12.2165V12.2175V12.2184V12.2193V12.2202V12.2211V12.222V12.2229V12.2238V12.2247V12.2256V12.2265V12.2274V12.2284V12.2293V12.2302V12.2311V12.232V12.2329V12.2339V12.2348V12.2357V12.2366V12.2375V12.2385V12.2394V12.2403V12.2412V12.2422V12.2431V12.244V12.2449V12.2459V12.2468V12.2477V12.2487V12.2496V12.2505V12.2515V12.2524V12.2533V12.2543V12.2552V12.2562V12.2571V12.258V12.259V12.2599V12.2609V12.2618V12.2628V12.2637V12.2647V12.2656V12.2666V12.2675V12.2685V12.2694V12.2704V12.2714V12.2723V12.2733V12.2742V12.2752V12.2762V12.2771V12.2781V12.2791V12.28V12.281V12.282V12.283V12.2839V12.2849V12.2859V12.2869V12.2878V12.2888V12.2898V12.2908V12.2918V12.2928V12.2938V12.2947V12.2957V12.2967V12.2977V12.2987V12.2997V12.3007V12.3017V12.3027V12.3037V12.3047V12.3057V12.3067V12.3077V12.3088V12.3098V12.3108V12.3118V12.3128V12.3138V12.3148V12.3159V12.3169V12.3179V12.3189V12.32V12.321V12.322V12.3231V12.3241V12.3251V12.3262V12.3272V12.3283V12.3293V12.3303V12.3314V12.3324V12.3335V12.3345V12.3356V12.3366V12.3377V12.3388V12.3398V12.3409V12.3419V12.343V12.3441V12.3451V12.3462V12.3473V12.3484V12.3494V12.3505V12.3516V12.3527V12.3538V12.3549V12.3559V12.357V12.3581V12.3592V12.3603V12.3614V12.3625V12.3636V12.3647V12.3658V12.3669V12.3681V12.3692V12.3703V12.3714V12.3725V12.3736V12.3748V12.3759V12.377V12.3781V12.3793V12.3804V12.3815V12.3827V12.3838V12.385V12.3861V12.3872V12.3884V12.3895V12.3907V12.3919V12.393V12.3942V12.3953V12.3965V12.3977V12.3988V12.4C6.5 12.4365 6.49436 12.467 6.48786 12.4879C6.46696 12.4944 6.43651 12.5 6.4 12.5H6.39941H6.39883H6.39824H6.39766H6.39707H6.39648H6.3959H6.39531H6.39473H6.39414H6.39355H6.39297H6.39238H6.3918H6.39121H6.39062H6.39004H6.38945H6.38887H6.38828H6.38769H6.38711H6.38652H6.38594H6.38535H6.38477H6.38418H6.38359H6.38301H6.38242H6.38184H6.38125H6.38066H6.38008H6.37949H6.37891H6.37832H6.37773H6.37715H6.37656H6.37598H6.37539H6.3748H6.37422H6.37363H6.37305H6.37246H6.37187H6.37129H6.3707H6.37012H6.36953H6.36895H6.36836H6.36777H6.36719H6.3666H6.36602H6.36543H6.36484H6.36426H6.36367H6.36309H6.3625H6.36191H6.36133H6.36074H6.36016H6.35957H6.35898H6.3584H6.35781H6.35723H6.35664H6.35605H6.35547H6.35488H6.3543H6.35371H6.35312H6.35254H6.35195H6.35137H6.35078H6.35019H6.34961H6.34902H6.34844H6.34785H6.34727H6.34668H6.34609H6.34551H6.34492H6.34434H6.34375H6.34316H6.34258H6.34199H6.34141H6.34082H6.34023H6.33965H6.33906H6.33848H6.33789H6.3373H6.33672H6.33613H6.33555H6.33496H6.33437H6.33379H6.3332H6.33262H6.33203H6.33144H6.33086H6.33027H6.32969H6.3291H6.32852H6.32793H6.32734H6.32676H6.32617H6.32559H6.325H6.32441H6.32383H6.32324H6.32266H6.32207H6.32148H6.3209H6.32031H6.31973H6.31914H6.31855H6.31797H6.31738H6.3168H6.31621H6.31562H6.31504H6.31445H6.31387H6.31328H6.3127H6.31211H6.31152H6.31094H6.31035H6.30977H6.30918H6.30859H6.30801H6.30742H6.30684H6.30625H6.30566H6.30508H6.30449H6.30391H6.30332H6.30273H6.30215H6.30156H6.30098H6.30039H6.2998H6.29922H6.29863H6.29805H6.29746H6.29687H6.29629H6.2957H6.29512H6.29453H6.29394H6.29336H6.29277H6.29219H6.2916H6.29102H6.29043H6.28984H6.28926H6.28867H6.28809H6.2875H6.28691H6.28633H6.28574H6.28516H6.28457H6.28398H6.2834H6.28281H6.28223H6.28164H6.28105H6.28047H6.27988H6.2793H6.27871H6.27812H6.27754H6.27695H6.27637H6.27578H6.27519H6.27461H6.27402H6.27344H6.27285H6.27226H6.27168H6.27109H6.27051H6.26992H6.26934H6.26875H6.26816H6.26758H6.26699H6.26641H6.26582H6.26523H6.26465H6.26406H6.26348H6.26289H6.2623H6.26172H6.26113H6.26055H6.25996H6.25937H6.25879H6.2582H6.25762H6.25703H6.25644H6.25586H6.25527H6.25469H6.2541H6.25352H6.25293H6.25234H6.25176H6.25117H6.25059H6.25H6.24941H6.24883H6.24824H6.24766H6.24707H6.24648H6.2459H6.24531H6.24473H6.24414H6.24355H6.24297H6.24238H6.2418H6.24121H6.24062H6.24004H6.23945H6.23887H6.23828H6.23769H6.23711H6.23652H6.23594H6.23535H6.23477H6.23418H6.23359H6.23301H6.23242H6.23184H6.23125H6.23066H6.23008H6.22949H6.22891H6.22832H6.22773H6.22715H6.22656H6.22598H6.22539H6.2248H6.22422H6.22363H6.22305H6.22246H6.22187H6.22129H6.2207H6.22012H6.21953H6.21895H6.21836H6.21777H6.21719H6.2166H6.21602H6.21543H6.21484H6.21426H6.21367H6.21309H6.2125H6.21191H6.21133H6.21074H6.21016H6.20957H6.20898H6.2084H6.20781H6.20723H6.20664H6.20605H6.20547H6.20488H6.2043H6.20371H6.20312H6.20254H6.20195H6.20137H6.20078H6.20019H6.19961H6.19902H6.19844H6.19785H6.19727H6.19668H6.19609H6.19551H6.19492H6.19434H6.19375H6.19316H6.19258H6.19199H6.19141H6.19082H6.19023H6.18965H6.18906H6.18848H6.18789H6.1873H6.18672H6.18613H6.18555H6.18496H6.18437H6.18379H6.1832H6.18262H6.18203H6.18144H6.18086H6.18027H6.17969H6.1791H6.17851H6.17793H6.17734H6.17676H6.17617H6.17559H6.175H6.17441H6.17383H6.17324H6.17266H6.17207H6.17148H6.1709H6.17031H6.16973H6.16914H6.16855H6.16797H6.16738H6.1668H6.16621H6.16562H6.16504H6.16445H6.16387H6.16328H6.16269H6.16211H6.16152H6.16094H6.16035H6.15977H6.15918H6.15859H6.15801H6.15742H6.15684H6.15625H6.15566H6.15508H6.15449H6.15391H6.15332H6.15273H6.15215H6.15156H6.15098H6.15039H6.1498H6.14922H6.14863H6.14805H6.14746H6.14687H6.14629H6.1457H6.14512H6.14453H6.14394H6.14336H6.14277H6.14219H6.1416H6.14102H6.14043H6.13984H6.13926H6.13867H6.13809H6.1375H6.13691H6.13633H6.13574H6.13516H6.13457H6.13398H6.1334H6.13281H6.13223H6.13164H6.13105H6.13047H6.12988H6.1293H6.12871H6.12812H6.12754H6.12695H6.12637H6.12578H6.12519H6.12461H6.12402H6.12344H6.12285H6.12226H6.12168H6.12109H6.12051H6.11992H6.11934H6.11875H6.11816H6.11758H6.11699H6.11641H6.11582H6.11523H6.11465H6.11406H6.11348H6.11289H6.1123H6.1118L6.33873 12.4642L6.39727 11.6739C6.51658 10.0631 7.35028 8.6836 8.58761 7.87133ZM1 20.4H2H5.9H6.9V20.5H5.9H2H1V20.4Z" stroke="#dee5ef" stroke-width="2"/>
<mask id="path-2-inside-1_2_160" fill="white">
<path d="M33 45.0002H37.3C37.9 45.0002 38.3 44.6002 38.3 44.0002V39.7002C38.3 39.1002 37.9 38.7002 37.3 38.7002H33C32.4 38.7002 32 39.1002 32 39.7002V44.0002C32 44.6002 32.4 45.0002 33 45.0002ZM34 40.7002H36.3V43.0002H34V40.7002Z"/>
</mask>
<path d="M34 40.7002V38.7002H32V40.7002H34ZM36.3 40.7002H38.3V38.7002H36.3V40.7002ZM36.3 43.0002V45.0002H38.3V43.0002H36.3ZM34 43.0002H32V45.0002H34V43.0002ZM33 47.0002H37.3V43.0002H33V47.0002ZM37.3 47.0002C38.0545 47.0002 38.8387 46.74 39.4392 46.1394C40.0398 45.5388 40.3 44.7547 40.3 44.0002H36.3C36.3 43.8457 36.3602 43.5615 36.6108 43.311C36.8613 43.0604 37.1455 43.0002 37.3 43.0002V47.0002ZM40.3 44.0002V39.7002H36.3V44.0002H40.3ZM40.3 39.7002C40.3 38.9457 40.0398 38.1615 39.4392 37.561C38.8387 36.9604 38.0545 36.7002 37.3 36.7002V40.7002C37.1455 40.7002 36.8613 40.64 36.6108 40.3894C36.3602 40.1389 36.3 39.8547 36.3 39.7002H40.3ZM37.3 36.7002H33V40.7002H37.3V36.7002ZM33 36.7002C32.2455 36.7002 31.4613 36.9604 30.8608 37.561C30.2602 38.1615 30 38.9457 30 39.7002H34C34 39.8547 33.9398 40.1389 33.6892 40.3894C33.4387 40.64 33.1545 40.7002 33 40.7002V36.7002ZM30 39.7002V44.0002H34V39.7002H30ZM30 44.0002C30 44.7547 30.2602 45.5388 30.8608 46.1394C31.4613 46.74 32.2455 47.0002 33 47.0002V43.0002C33.1545 43.0002 33.4387 43.0604 33.6892 43.311C33.9398 43.5615 34 43.8457 34 44.0002H30ZM34 42.7002H36.3V38.7002H34V42.7002ZM34.3 40.7002V43.0002H38.3V40.7002H34.3ZM36.3 41.0002H34V45.0002H36.3V41.0002ZM36 43.0002V40.7002H32V43.0002H36Z" fill="#dee5ef" mask="url(#path-2-inside-1_2_160)"/>
<mask id="path-4-inside-2_2_160" fill="white">
<path d="M20.3996 38.7002H16.0996C15.4996 38.7002 15.0996 39.1002 15.0996 39.7002V44.0002C15.0996 44.6002 15.4996 45.0002 16.0996 45.0002H20.3996C20.9996 45.0002 21.3996 44.6002 21.3996 44.0002V39.7002C21.3996 39.2002 20.8996 38.7002 20.3996 38.7002ZM19.3996 43.0002H17.0996V40.7002H19.3996V43.0002Z"/>
</mask>
<path d="M19.3996 43.0002V45.0002H21.3996V43.0002H19.3996ZM17.0996 43.0002H15.0996V45.0002H17.0996V43.0002ZM17.0996 40.7002V38.7002H15.0996V40.7002H17.0996ZM19.3996 40.7002H21.3996V38.7002H19.3996V40.7002ZM20.3996 36.7002H16.0996V40.7002H20.3996V36.7002ZM16.0996 36.7002C15.3451 36.7002 14.561 36.9604 13.9604 37.561C13.3598 38.1615 13.0996 38.9457 13.0996 39.7002H17.0996C17.0996 39.8547 17.0394 40.1389 16.7888 40.3894C16.5383 40.64 16.2541 40.7002 16.0996 40.7002V36.7002ZM13.0996 39.7002V44.0002H17.0996V39.7002H13.0996ZM13.0996 44.0002C13.0996 44.7547 13.3598 45.5388 13.9604 46.1394C14.561 46.74 15.3451 47.0002 16.0996 47.0002V43.0002C16.2541 43.0002 16.5383 43.0604 16.7888 43.311C17.0394 43.5615 17.0996 43.8457 17.0996 44.0002H13.0996ZM16.0996 47.0002H20.3996V43.0002H16.0996V47.0002ZM20.3996 47.0002C21.1541 47.0002 21.9383 46.74 22.5388 46.1394C23.1394 45.5388 23.3996 44.7547 23.3996 44.0002H19.3996C19.3996 43.8457 19.4598 43.5615 19.7104 43.311C19.961 43.0604 20.2451 43.0002 20.3996 43.0002V47.0002ZM23.3996 44.0002V39.7002H19.3996V44.0002H23.3996ZM23.3996 39.7002C23.3996 38.7997 22.9695 38.0667 22.5013 37.5985C22.0331 37.1303 21.3001 36.7002 20.3996 36.7002V40.7002C19.9991 40.7002 19.7661 40.5201 19.6729 40.4269C19.5797 40.3337 19.3996 40.1007 19.3996 39.7002H23.3996ZM19.3996 41.0002H17.0996V45.0002H19.3996V41.0002ZM19.0996 43.0002V40.7002H15.0996V43.0002H19.0996ZM17.0996 42.7002H19.3996V38.7002H17.0996V42.7002ZM17.3996 40.7002V43.0002H21.3996V40.7002H17.3996Z" fill="#dee5ef" mask="url(#path-4-inside-2_2_160)"/>
<path d="M8.7002 34.3998H7.7002V34.2998H11.9575C11.9576 34.2999 11.9578 34.3 11.9579 34.3001C11.965 34.3051 11.9728 34.3116 11.9806 34.3194C11.9884 34.3272 11.9949 34.335 11.9999 34.3421C12 34.3422 12.0001 34.3424 12.0002 34.3425V34.3998H11.0002H8.7002Z" stroke="#dee5ef" stroke-width="2"/>
<path d="M25.5 34.3998H24.5V34.2998H28.8V34.3998H27.8H25.5Z" stroke="#dee5ef" stroke-width="2"/>
</svg>
