<svg width="26" height="27" viewBox="0 0 26 27" fill="none" xmlns="http://www.w3.org/2000/svg">
<path d="M5 9C7.20914 9 9 7.20914 9 5C9 2.79086 7.20914 1 5 1C2.79086 1 1 2.79086 1 5C1 7.20914 2.79086 9 5 9Z" stroke="#dee5ef" stroke-width="2" stroke-miterlimit="10" stroke-linecap="round" stroke-linejoin="round"/>
<path d="M15 9C17.2091 9 19 7.20914 19 5C19 2.79086 17.2091 1 15 1C12.7909 1 11 2.79086 11 5C11 7.20914 12.7909 9 15 9Z" stroke="#dee5ef" stroke-width="2" stroke-miterlimit="10" stroke-linecap="round" stroke-linejoin="round"/>
<path d="M17 20H3C1.9 20 1 19.1 1 18V12C1 10.9 1.9 10 3 10H17C18.1 10 19 10.9 19 12V18C19 19.1 18.1 20 17 20Z" stroke="#dee5ef" stroke-width="2" stroke-miterlimit="10" stroke-linecap="round" stroke-linejoin="round"/>
<path d="M25 20L19 17V13L25 10V20Z" stroke="#dee5ef" stroke-width="2" stroke-miterlimit="10" stroke-linecap="round" stroke-linejoin="round"/>
<path d="M6 26L10 20L14 26" stroke="#dee5ef" stroke-width="2" stroke-miterlimit="10" stroke-linecap="round" stroke-linejoin="round"/>
<path d="M5 6C5.55228 6 6 5.55228 6 5C6 4.44772 5.55228 4 5 4C4.44772 4 4 4.44772 4 5C4 5.55228 4.44772 6 5 6Z" stroke="#dee5ef" stroke-miterlimit="10" stroke-linecap="round" stroke-linejoin="round"/>
<path d="M15 6C15.5523 6 16 5.55228 16 5C16 4.44772 15.5523 4 15 4C14.4477 4 14 4.44772 14 5C14 5.55228 14.4477 6 15 6Z" stroke="#dee5ef" stroke-miterlimit="10" stroke-linecap="round" stroke-linejoin="round"/>
</svg>
