<svg width="133" height="27" viewBox="0 0 133 27" fill="none" xmlns="http://www.w3.org/2000/svg">
<path d="M27.052 0.979998V26H22.948V8.864L15.316 26H12.472L4.804 8.864V26H0.7V0.979998H5.128L13.912 20.6L22.66 0.979998H27.052ZM43.8581 26.252C41.5301 26.252 39.3821 25.712 37.4141 24.632C35.4701 23.528 33.9221 22.004 32.7701 20.06C31.6421 18.092 31.0781 15.884 31.0781 13.436C31.0781 10.988 31.6421 8.792 32.7701 6.848C33.9221 4.904 35.4701 3.392 37.4141 2.312C39.3821 1.208 41.5301 0.655998 43.8581 0.655998C46.2101 0.655998 48.3581 1.208 50.3021 2.312C52.2701 3.392 53.8181 4.904 54.9461 6.848C56.0741 8.792 56.6381 10.988 56.6381 13.436C56.6381 15.884 56.0741 18.092 54.9461 20.06C53.8181 22.004 52.2701 23.528 50.3021 24.632C48.3581 25.712 46.2101 26.252 43.8581 26.252ZM43.8581 22.688C45.5141 22.688 46.9901 22.316 48.2861 21.572C49.5821 20.804 50.5901 19.724 51.3101 18.332C52.0541 16.916 52.4261 15.284 52.4261 13.436C52.4261 11.588 52.0541 9.968 51.3101 8.576C50.5901 7.184 49.5821 6.116 48.2861 5.372C46.9901 4.628 45.5141 4.256 43.8581 4.256C42.2021 4.256 40.7261 4.628 39.4301 5.372C38.1341 6.116 37.1141 7.184 36.3701 8.576C35.6501 9.968 35.2901 11.588 35.2901 13.436C35.2901 15.284 35.6501 16.916 36.3701 18.332C37.1141 19.724 38.1341 20.804 39.4301 21.572C40.7261 22.316 42.2021 22.688 43.8581 22.688ZM76.8406 0.979998V4.328H70.1806V26H66.0766V4.328H59.3806V0.979998H76.8406ZM85.1009 4.292V11.636H93.7409V14.984H85.1009V22.652H94.8209V26H80.9969V0.943999H94.8209V4.292H85.1009ZM103.98 22.688H112.44V26H99.8758V0.979998H103.98V22.688ZM124.116 26.252C122.436 26.252 120.924 25.964 119.58 25.388C118.236 24.788 117.18 23.948 116.412 22.868C115.644 21.788 115.26 20.528 115.26 19.088H119.652C119.748 20.168 120.168 21.056 120.912 21.752C121.68 22.448 122.748 22.796 124.116 22.796C125.532 22.796 126.636 22.46 127.428 21.788C128.22 21.092 128.616 20.204 128.616 19.124C128.616 18.284 128.364 17.6 127.86 17.072C127.38 16.544 126.768 16.136 126.024 15.848C125.304 15.56 124.296 15.248 123 14.912C121.368 14.48 120.036 14.048 119.004 13.616C117.996 13.16 117.132 12.464 116.412 11.528C115.692 10.592 115.332 9.344 115.332 7.784C115.332 6.344 115.692 5.084 116.412 4.004C117.132 2.924 118.14 2.096 119.436 1.52C120.732 0.943999 122.232 0.655998 123.936 0.655998C126.36 0.655998 128.34 1.268 129.876 2.492C131.436 3.692 132.3 5.348 132.468 7.46H127.932C127.86 6.548 127.428 5.768 126.636 5.12C125.844 4.472 124.8 4.148 123.504 4.148C122.328 4.148 121.368 4.448 120.624 5.048C119.88 5.648 119.508 6.512 119.508 7.64C119.508 8.408 119.736 9.044 120.192 9.548C120.672 10.028 121.272 10.412 121.992 10.7C122.712 10.988 123.696 11.3 124.944 11.636C126.6 12.092 127.944 12.548 128.976 13.004C130.032 13.46 130.92 14.168 131.64 15.128C132.384 16.064 132.756 17.324 132.756 18.908C132.756 20.18 132.408 21.38 131.712 22.508C131.04 23.636 130.044 24.548 128.724 25.244C127.428 25.916 125.892 26.252 124.116 26.252Z" fill="#1398F6"/>
</svg>
