<?xml version="1.0" encoding="UTF-8"?>
<svg xmlns="http://www.w3.org/2000/svg" xmlns:xlink="http://www.w3.org/1999/xlink" width="168px" height="px" viewBox="0 0 168 334" version="1.1">
<g id="surface1">
<path style="fill:none;stroke-width:4;stroke-linecap:butt;stroke-linejoin:miter;stroke:rgb(100%,100%,100%);stroke-opacity:1;stroke-miterlimit:4;" d="M 9 2 L 75 2 C 78.865234 2 82 5.134766 82 9 L 82 158 C 82 161.865234 78.865234 165 75 165 L 9 165 C 5.134766 165 2 161.865234 2 158 L 2 9 C 2 5.134766 5.134766 2 9 2 Z M 9 2 " transform="matrix(2,0,0,2,0,0)"/>
<path style=" stroke:none;fill-rule:nonzero;fill:rgb(100%,100%,100%);fill-opacity:1;" d="M 104 20 C 104 23.3125 101.3125 26 98 26 C 94.6875 26 92 23.3125 92 20 C 92 16.6875 94.6875 14 98 14 C 101.3125 14 104 16.6875 104 20 Z M 104 20 "/>
<path style=" stroke:none;fill-rule:nonzero;fill:rgb(100%,100%,100%);fill-opacity:1;" d="M 68 14 L 82 14 C 85.3125 14 88 16.6875 88 20 C 88 23.3125 85.3125 26 82 26 L 68 26 C 64.6875 26 62 23.3125 62 20 C 62 16.6875 64.6875 14 68 14 Z M 68 14 "/>
</g>
</svg>
