<svg width="122" height="149" viewBox="0 0 122 149" fill="none" xmlns="http://www.w3.org/2000/svg">
    <path
        d="M109.18 22.1719L111.637 23.8923L113.372 21.4137L110.879 19.6997L109.18 22.1719ZM102.07 32.3281L100.336 34.7762L102.798 36.5199L104.528 34.0485L102.07 32.3281ZM102.07 119.672L104.528 117.951L102.798 115.48L100.336 117.224L102.07 119.672ZM109.18 129.828L110.879 132.3L113.372 130.586L111.637 128.108L109.18 129.828ZM26.7871 121.83L24.6658 123.951L26.7871 121.83ZM26.7871 30.1699L24.6658 28.0486L26.7871 30.1699ZM106.722 20.4515L99.6126 30.6077L104.528 34.0485L111.637 23.8923L106.722 20.4515ZM103.804 29.8801C95.0964 23.7119 84.6487 20.6953 72.6172 20.6953V26.6953C83.6065 26.6953 92.7942 29.4339 100.336 34.7762L103.804 29.8801ZM72.6172 20.6953C57.5791 20.6953 44.5506 26.1911 33.6795 37.0623L37.9221 41.3049C47.702 31.525 59.2178 26.6953 72.6172 26.6953V20.6953ZM33.6795 37.0623C22.8083 47.9334 17.3125 60.9619 17.3125 76H23.3125C23.3125 62.6006 28.1422 51.0848 37.9221 41.3049L33.6795 37.0623ZM17.3125 76C17.3125 91.1188 23.296 104.171 35.0341 115.02L39.1065 110.613C28.5009 100.811 23.3125 89.3187 23.3125 76H17.3125ZM35.0341 115.02C46.6783 125.782 59.6548 131.305 73.8867 131.305V125.305C61.3739 125.305 49.8061 120.502 39.1065 110.613L35.0341 115.02ZM73.8867 131.305C85.1254 131.305 95.1357 128.26 103.804 122.12L100.336 117.224C92.7549 122.594 83.9762 125.305 73.8867 125.305V131.305ZM99.6126 121.392L106.722 131.549L111.637 128.108L104.528 117.951L99.6126 121.392ZM107.48 127.356C97.1626 134.449 85.5714 138 72.6172 138V144C86.7463 144 99.5301 140.103 110.879 132.3L107.48 127.356ZM72.6172 138C55.6544 138 41.1364 131.937 28.9084 119.709L24.6658 123.951C37.9977 137.283 54.0331 144 72.6172 144V138ZM28.9084 119.709C16.6804 107.481 10.6172 92.9628 10.6172 76H4.61719C4.61719 94.584 11.3339 110.62 24.6658 123.951L28.9084 119.709ZM10.6172 76C10.6172 59.0372 16.6804 44.5192 28.9084 32.2912L24.6658 28.0486C11.3339 41.3805 4.61719 57.416 4.61719 76H10.6172ZM28.9084 32.2912C41.1364 20.0632 55.6544 14 72.6172 14V8C54.0331 8 37.9977 14.7167 24.6658 28.0486L28.9084 32.2912ZM72.6172 14C85.5714 14 97.1626 17.5507 107.48 24.644L110.879 19.6997C99.5301 11.8972 86.7463 8 72.6172 8V14Z"
        stroke="url(#paint0_linear_135_2)" stroke-width="1.5px" />
    <path
        d="M87.4453 91.1016L85.324 88.9802L87.4453 91.1016ZM59.2422 91.1016L57.1209 93.2229L59.2422 91.1016ZM59.2422 62.8984L57.1209 60.7771L59.2422 62.8984ZM87.4453 62.8984L85.324 65.0198L87.4453 62.8984ZM84.6719 88.3281L82.5506 86.2068L84.6719 88.3281ZM90.3438 77C90.3438 81.6581 88.7043 85.5999 85.324 88.9802L89.5666 93.2229C94.0509 88.7386 96.3438 83.2794 96.3438 77H90.3438ZM85.324 88.9802C81.9436 92.3606 78.0019 94 73.3438 94V100C79.6231 100 85.0824 97.7071 89.5666 93.2229L85.324 88.9802ZM73.3438 94C68.6856 94 64.7439 92.3606 61.3635 88.9802L57.1209 93.2229C61.6051 97.7071 67.0644 100 73.3438 100V94ZM61.3635 88.9802C57.9832 85.5999 56.3438 81.6581 56.3438 77H50.3438C50.3438 83.2794 52.6366 88.7386 57.1209 93.2229L61.3635 88.9802ZM56.3438 77C56.3438 72.3419 57.9832 68.4001 61.3635 65.0198L57.1209 60.7771C52.6366 65.2614 50.3438 70.7206 50.3438 77H56.3438ZM61.3635 65.0198C64.7439 61.6394 68.6856 60 73.3438 60V54C67.0644 54 61.6051 56.2929 57.1209 60.7771L61.3635 65.0198ZM73.3438 60C78.0019 60 81.9436 61.6394 85.324 65.0198L89.5666 60.7771C85.0824 56.2929 79.6231 54 73.3438 54V60ZM85.324 65.0198C88.7043 68.4001 90.3438 72.3419 90.3438 77H96.3438C96.3438 70.7206 94.0509 65.2614 89.5666 60.7771L85.324 65.0198ZM92.4375 77C92.4375 71.8056 90.5159 67.2733 86.7932 63.5506L82.5506 67.7932C85.182 70.4247 86.4375 73.4444 86.4375 77H92.4375ZM86.7932 63.5506C83.0705 59.8279 78.5381 57.9062 73.3438 57.9062V63.9062C76.8994 63.9062 79.9191 65.1617 82.5506 67.7932L86.7932 63.5506ZM73.3438 57.9062C68.1494 57.9062 63.617 59.8279 59.8943 63.5506L64.1369 67.7932C66.7684 65.1617 69.7881 63.9062 73.3438 63.9062V57.9062ZM59.8943 63.5506C56.1716 67.2733 54.25 71.8056 54.25 77H60.25C60.25 73.4444 61.5055 70.4247 64.1369 67.7932L59.8943 63.5506ZM54.25 77C54.25 82.275 56.3663 86.8308 60.37 90.5313L64.4425 86.125C61.5712 83.4713 60.25 80.475 60.25 77H54.25ZM60.37 90.5313C64.2798 94.1449 68.7603 96.0938 73.7344 96.0938V90.0938C70.4793 90.0938 67.4077 88.8655 64.4425 86.125L60.37 90.5313ZM73.7344 96.0938C78.7217 96.0938 83.1105 94.1322 86.7932 90.4494L82.5506 86.2068C79.8791 88.8783 76.9762 90.0938 73.7344 90.0938V96.0938ZM86.7932 90.4494C90.5159 86.7267 92.4375 82.1944 92.4375 77H86.4375C86.4375 80.5556 85.182 83.5753 82.5506 86.2068L86.7932 90.4494Z"
        stroke="url(#paint1_linear_135_2)" stroke-width="1.5px" />
    <defs>
        <linearGradient id="paint0_linear_135_2" x1="174.127" y1="102.961" x2="28.3557" y2="117.593"
            gradientUnits="userSpaceOnUse">
            <stop offset="0.0366764" stop-color="#C932FB" />
            <stop offset="1" stop-color="#6893F4" />
        </linearGradient>
        <linearGradient id="paint1_linear_135_2" x1="115.227" y1="87.1685" x2="61.6254" y2="93.3289"
            gradientUnits="userSpaceOnUse">
            <stop offset="0.0366764" stop-color="#833B9B" />
            <stop offset="1" stop-color="#6893F4" />
        </linearGradient>
    </defs>
</svg>