<svg width="102" height="23" viewBox="0 0 102 23" fill="none" xmlns="http://www.w3.org/2000/svg">
<path d="M3.92188 4.55859V11.2852H7.28516C7.74609 11.2852 8.17969 11.1992 8.58594 11.0273C8.99219 10.8477 9.34766 10.6055 9.65234 10.3008C9.95703 9.99609 10.1953 9.64062 10.3672 9.23438C10.5469 8.82031 10.6367 8.38281 10.6367 7.92188C10.6367 7.46094 10.5469 7.02734 10.3672 6.62109C10.1953 6.20703 9.95703 5.84766 9.65234 5.54297C9.34766 5.23828 8.99219 5 8.58594 4.82812C8.17969 4.64844 7.74609 4.55859 7.28516 4.55859H3.92188ZM3.92188 18H0.558594V1.19531H7.28516C7.90234 1.19531 8.49609 1.27734 9.06641 1.44141C9.63672 1.59766 10.168 1.82422 10.6602 2.12109C11.1602 2.41016 11.6133 2.76172 12.0195 3.17578C12.4336 3.58203 12.7852 4.03516 13.0742 4.53516C13.3711 5.03516 13.5977 5.57031 13.7539 6.14062C13.918 6.71094 14 7.30469 14 7.92188C14 8.84375 13.8242 9.71484 13.4727 10.5352C13.1211 11.3477 12.6406 12.0586 12.0312 12.668C11.4219 13.2773 10.707 13.7578 9.88672 14.1094C9.07422 14.4609 8.20703 14.6367 7.28516 14.6367H3.92188V18ZM18.8398 18H15.6406V5.44922H16.4141L17.4688 6.9375C17.9844 6.46875 18.5703 6.10938 19.2266 5.85938C19.8828 5.60156 20.5625 5.47266 21.2656 5.47266H24.0898V8.66016H21.2656C20.9297 8.66016 20.6133 8.72266 20.3164 8.84766C20.0195 8.97266 19.7617 9.14453 19.543 9.36328C19.3242 9.58203 19.1523 9.83984 19.0273 10.1367C18.9023 10.4336 18.8398 10.75 18.8398 11.0859V18ZM37.4727 11.6133C37.4727 12.5508 37.3047 13.4258 36.9688 14.2383C36.6328 15.043 36.1758 15.7422 35.5977 16.3359C35.0195 16.9219 34.3398 17.3867 33.5586 17.7305C32.7852 18.0664 31.9531 18.2344 31.0625 18.2344C30.1797 18.2344 29.3477 18.0664 28.5664 17.7305C27.793 17.3867 27.1133 16.9219 26.5273 16.3359C25.9492 15.7422 25.4922 15.043 25.1562 14.2383C24.8203 13.4258 24.6523 12.5508 24.6523 11.6133C24.6523 10.6602 24.8203 9.77734 25.1562 8.96484C25.4922 8.15234 25.9492 7.45312 26.5273 6.86719C27.1133 6.27344 27.793 5.80859 28.5664 5.47266C29.3477 5.13672 30.1797 4.96875 31.0625 4.96875C31.9531 4.96875 32.7852 5.12891 33.5586 5.44922C34.3398 5.76172 35.0195 6.21094 35.5977 6.79688C36.1758 7.375 36.6328 8.07422 36.9688 8.89453C37.3047 9.70703 37.4727 10.6133 37.4727 11.6133ZM34.25 11.6133C34.25 11.0977 34.1641 10.6328 33.9922 10.2188C33.8281 9.79688 33.6016 9.4375 33.3125 9.14062C33.0234 8.83594 32.6836 8.60547 32.293 8.44922C31.9102 8.28516 31.5 8.20312 31.0625 8.20312C30.625 8.20312 30.2109 8.28516 29.8203 8.44922C29.4375 8.60547 29.1016 8.83594 28.8125 9.14062C28.5312 9.4375 28.3086 9.79688 28.1445 10.2188C27.9805 10.6328 27.8984 11.0977 27.8984 11.6133C27.8984 12.0977 27.9805 12.5469 28.1445 12.9609C28.3086 13.375 28.5312 13.7344 28.8125 14.0391C29.1016 14.3438 29.4375 14.5859 29.8203 14.7656C30.2109 14.9375 30.625 15.0234 31.0625 15.0234C31.5 15.0234 31.9102 14.9414 32.293 14.7773C32.6836 14.6133 33.0234 14.3828 33.3125 14.0859C33.6016 13.7891 33.8281 13.4297 33.9922 13.0078C34.1641 12.5859 34.25 12.1211 34.25 11.6133ZM42.4648 22.7812H39.2422V5.44922H40.0156L41.293 6.96094C41.582 6.6875 41.8984 6.42969 42.2422 6.1875C42.5859 5.94531 42.9414 5.73828 43.3086 5.56641C43.6836 5.38672 44.0703 5.24609 44.4688 5.14453C44.8672 5.04297 45.2695 4.99219 45.6758 4.99219C46.5586 4.99219 47.3867 5.15234 48.1602 5.47266C48.9414 5.78516 49.6211 6.23047 50.1992 6.80859C50.7852 7.38672 51.2461 8.08594 51.582 8.90625C51.918 9.71875 52.0859 10.6211 52.0859 11.6133C52.0859 12.6445 51.918 13.5742 51.582 14.4023C51.2461 15.2227 50.7852 15.9219 50.1992 16.5C49.6211 17.0703 48.9414 17.5078 48.1602 17.8125C47.3867 18.1172 46.5586 18.2695 45.6758 18.2695C45.3945 18.2695 45.1133 18.2383 44.832 18.1758C44.5586 18.1133 44.2852 18.0312 44.0117 17.9297C43.7461 17.8203 43.4805 17.6992 43.2148 17.5664C42.957 17.4336 42.707 17.2969 42.4648 17.1562V22.7812ZM48.875 11.6133C48.875 11.082 48.7891 10.6055 48.6172 10.1836C48.4531 9.76172 48.2266 9.40625 47.9375 9.11719C47.6484 8.82031 47.3086 8.59375 46.918 8.4375C46.5273 8.28125 46.1133 8.20312 45.6758 8.20312C45.2383 8.20312 44.8242 8.28125 44.4336 8.4375C44.0508 8.59375 43.7148 8.82031 43.4258 9.11719C43.1367 9.40625 42.9062 9.76172 42.7344 10.1836C42.5703 10.6055 42.4883 11.082 42.4883 11.6133C42.4883 12.1211 42.5703 12.5859 42.7344 13.0078C42.9062 13.4297 43.1367 13.7891 43.4258 14.0859C43.7148 14.3828 44.0508 14.6133 44.4336 14.7773C44.8242 14.9414 45.2383 15.0234 45.6758 15.0234C46.1133 15.0234 46.5273 14.9414 46.918 14.7773C47.3086 14.6133 47.6484 14.3828 47.9375 14.0859C48.2266 13.7891 48.4531 13.4297 48.6172 13.0078C48.7891 12.5859 48.875 12.1211 48.875 11.6133ZM60.0664 18C59.293 18 58.5664 17.8555 57.8867 17.5664C57.207 17.2695 56.6094 16.8672 56.0938 16.3594C55.5859 15.8438 55.1836 15.2461 54.8867 14.5664C54.5977 13.8867 54.4531 13.1602 54.4531 12.3867V8.66016H52.8945V5.47266H54.4531V0.457031H57.6406V5.47266H62.4922V8.66016H57.6406V12.3867C57.6406 12.7227 57.7031 13.0391 57.8281 13.3359C57.9531 13.625 58.125 13.8789 58.3438 14.0977C58.5625 14.3164 58.8203 14.4922 59.1172 14.625C59.4141 14.75 59.7305 14.8125 60.0664 14.8125H62.4922V18H60.0664ZM69.2891 14.9297C69.4141 14.9688 69.5391 14.9961 69.6641 15.0117C69.7891 15.0195 69.9141 15.0234 70.0391 15.0234C70.3516 15.0234 70.6523 14.9805 70.9414 14.8945C71.2305 14.8086 71.5 14.6875 71.75 14.5312C72.0078 14.3672 72.2344 14.1719 72.4297 13.9453C72.6328 13.7109 72.7969 13.4531 72.9219 13.1719L75.2656 15.5273C74.9688 15.9492 74.625 16.3281 74.2344 16.6641C73.8516 17 73.4336 17.2852 72.9805 17.5195C72.5352 17.7539 72.0625 17.9297 71.5625 18.0469C71.0703 18.1719 70.5625 18.2344 70.0391 18.2344C69.1562 18.2344 68.3242 18.0703 67.543 17.7422C66.7695 17.4141 66.0898 16.957 65.5039 16.3711C64.9258 15.7852 64.4688 15.0898 64.1328 14.2852C63.7969 13.4727 63.6289 12.582 63.6289 11.6133C63.6289 10.6211 63.7969 9.71484 64.1328 8.89453C64.4688 8.07422 64.9258 7.375 65.5039 6.79688C66.0898 6.21875 66.7695 5.76953 67.543 5.44922C68.3242 5.12891 69.1562 4.96875 70.0391 4.96875C70.5625 4.96875 71.0742 5.03125 71.5742 5.15625C72.0742 5.28125 72.5469 5.46094 72.9922 5.69531C73.4453 5.92969 73.8672 6.21875 74.2578 6.5625C74.6484 6.89844 74.9922 7.27734 75.2891 7.69922L69.2891 14.9297ZM70.9297 8.33203C70.7812 8.27734 70.6328 8.24219 70.4844 8.22656C70.3438 8.21094 70.1953 8.20312 70.0391 8.20312C69.6016 8.20312 69.1875 8.28516 68.7969 8.44922C68.4141 8.60547 68.0781 8.83203 67.7891 9.12891C67.5078 9.42578 67.2852 9.78516 67.1211 10.207C66.957 10.6211 66.875 11.0898 66.875 11.6133C66.875 11.7305 66.8789 11.8633 66.8867 12.0117C66.9023 12.1602 66.9219 12.3125 66.9453 12.4688C66.9766 12.6172 67.0117 12.7617 67.0508 12.9023C67.0898 13.043 67.1406 13.168 67.2031 13.2773L70.9297 8.33203ZM80.1289 18H76.9062V0.457031H80.1289V11.5195L84.8984 5.47266H88.5781L84.418 10.6992L88.5781 18H84.8984L82.3555 13.4414L80.1289 16.3945V18ZM93.0664 18H89.8438V0.457031H93.0664V11.5195L97.8359 5.47266H101.516L97.3555 10.6992L101.516 18H97.8359L95.293 13.4414L93.0664 16.3945V18Z" fill="#4828A5"/>
</svg>
