<svg width="70" height="70" viewBox="0 0 70 70" fill="none" xmlns="http://www.w3.org/2000/svg">
<path d="M45.0846 29.6801L45.0837 30.0781L43.5192 30.5418C40.2864 31.5023 37.9743 34.2886 37.6299 37.6409L37.5192 38.719H36.6452C35.9105 38.719 35.3161 39.3143 35.3161 40.0481C35.3161 40.782 35.9105 41.3772 36.6452 41.3772H38.1248L38.1266 41.8341C38.4779 46.5103 40.6472 51.2115 44.7375 53.205C44.2122 54.2814 43.2889 55.1114 42.1122 55.4748C40.9492 55.833 36.3588 56.8402 36.3588 56.8402C36.3579 56.8402 36.3553 56.8411 36.3544 56.8411L36.3509 56.842C35.6657 56.9933 29.8923 58.4124 29.2147 63.1535C28.8271 65.8619 28.3746 68.4335 28.3737 68.4405C28.3053 68.8264 28.4127 69.2245 28.6645 69.5257C28.9172 69.8268 29.2901 69.9999 29.683 69.9999H68.6702C69.063 69.9999 69.4359 69.8268 69.6878 69.5257C69.9405 69.2245 70.0477 68.8265 69.9795 68.4405C69.9777 68.4337 69.5252 65.8619 69.1376 63.1535C68.4592 58.3995 62.6547 56.9856 61.9945 56.8402C61.9945 56.8402 57.4041 55.833 56.2411 55.4748C55.0972 55.1217 54.186 54.3291 53.6313 53.2164C57.7397 51.2262 59.9195 46.4964 60.2751 41.7338V41.3772H61.7081C62.4419 41.3772 63.0372 40.782 63.0372 40.0481C63.0372 39.3143 62.4419 38.719 61.7081 38.719H60.8117L60.707 37.6668C60.3739 34.2991 58.0599 31.4989 54.8134 30.5367L53.2905 30.0851V29.6836C53.2905 28.9498 52.6952 28.3545 51.9613 28.3545H46.4139C45.6808 28.3545 45.0863 28.948 45.0846 29.6801ZM40.2744 37.9125C40.5081 35.6351 42.0794 33.7417 44.2756 33.0894L45.0777 32.8514L45.0656 38.719H40.1913L40.2744 37.9125ZM39.7742 58.8044L41.9479 67.3415H36.5812V59.5295C36.789 59.4699 39.0267 58.9758 39.7742 58.8044ZM31.8463 63.5308C32.0263 62.2692 32.9288 61.3554 33.923 60.7117V67.3417H31.2561C31.4224 66.3344 31.643 64.9516 31.8463 63.5308ZM44.6901 67.3415L42.3563 58.1718C42.5519 58.1173 43.5202 57.7937 43.8161 57.6553L48.3918 61.3501C48.6349 61.5474 48.9309 61.646 49.2268 61.646C49.5236 61.646 49.8204 61.5474 50.0645 61.3484L54.5823 57.6795C54.8634 57.8084 55.8067 58.119 56.0049 58.1736L53.7542 67.3415H44.6901ZM61.7711 59.5295V67.3415H56.4911L58.5868 58.8062C59.3328 58.9767 61.5643 59.4699 61.7711 59.5295ZM66.5069 63.5308C66.7093 64.9516 66.9308 66.3344 67.0971 67.3415H64.4293V60.7124C65.4245 61.3554 66.3269 62.27 66.5069 63.5308ZM52.3583 56.0615L49.2242 58.6071L46.02 56.019C46.5409 55.4418 46.9683 54.7695 47.2886 54.021C47.8977 54.1292 48.5277 54.2027 49.1991 54.2027C49.849 54.2027 50.4598 54.1325 51.0527 54.0305C51.371 54.7869 51.8132 55.4713 52.3583 56.0615ZM49.1991 51.5446C43.8965 51.5446 41.1484 46.5673 40.7815 41.7338V41.3772H57.6194L57.6203 41.6333C57.2491 46.5673 54.5009 51.5446 49.1991 51.5446ZM54.0578 33.0842C56.2636 33.7384 57.8349 35.6403 58.0615 37.9299L58.1394 38.719H53.2903V32.8565L54.0578 33.0842ZM50.6321 31.0126V38.719H47.7237L47.7402 31.0126H50.6321Z" fill="#dee5ef"/>
<path d="M3.10129 68.2274H24.367C25.1008 68.2274 25.6961 67.6322 25.6961 66.8983C25.6961 66.1645 25.1008 65.5692 24.367 65.5692H20.3796V6.4257C20.3796 6.26135 20.4678 6.1142 20.615 6.03282C22.4373 5.0187 27.4016 2.6581 34.1137 2.6581C40.7446 2.6581 45.7607 5.02206 47.6081 6.03968C47.7579 6.12105 47.8478 6.2698 47.8478 6.4343V22.5947C47.8478 23.3285 48.4431 23.9238 49.177 23.9238C49.9108 23.9238 50.5061 23.3285 50.5061 22.5947V6.43445C50.5061 5.30439 49.8875 4.26081 48.8906 3.71043C46.8614 2.59423 41.3608 0 34.1137 0C26.7786 0 21.3262 2.59423 19.3197 3.71218C18.3341 4.26256 17.7215 5.30264 17.7215 6.42584V23.038H3.10129C1.39139 23.038 0 24.4294 0 26.1393V65.1264C0 66.836 1.39139 68.2274 3.10129 68.2274ZM2.65825 26.1391C2.65825 25.8951 2.85731 25.6961 3.10129 25.6961H17.7215V65.5693H3.10129C2.85731 65.5693 2.65825 65.3703 2.65825 65.1263V26.1391Z" fill="#dee5ef"/>
<path d="M29.6836 13.2911H38.5443C39.2781 13.2911 39.8734 12.6958 39.8734 11.9619C39.8734 11.2281 39.2781 10.6328 38.5443 10.6328H29.6836C28.9498 10.6328 28.3545 11.2281 28.3545 11.9619C28.3545 12.6958 28.9499 13.2911 29.6836 13.2911Z" fill="#dee5ef"/>
<path d="M29.6836 23.9239H38.5443C39.2781 23.9239 39.8734 23.3286 39.8734 22.5947C39.8734 21.8609 39.2781 21.2656 38.5443 21.2656H29.6836C28.9498 21.2656 28.3545 21.8609 28.3545 22.5947C28.3546 23.3286 28.9499 23.9239 29.6836 23.9239Z" fill="#dee5ef"/>
<path d="M29.6836 34.5567H33.2279C33.9618 34.5567 34.5571 33.9614 34.5571 33.2276C34.5571 32.4937 33.9618 31.8984 33.2279 31.8984H29.6836C28.9498 31.8984 28.3545 32.4937 28.3545 33.2276C28.3546 33.9614 28.9499 34.5567 29.6836 34.5567Z" fill="#dee5ef"/>
<path d="M29.6836 45.1895H33.2279C33.9618 45.1895 34.5571 44.5942 34.5571 43.8604C34.5571 43.1265 33.9618 42.5312 33.2279 42.5312H29.6836C28.9498 42.5312 28.3545 43.1265 28.3545 43.8604C28.3545 44.5942 28.9499 45.1895 29.6836 45.1895Z" fill="#dee5ef"/>
<path d="M29.6836 55.8223H31.4558C32.1896 55.8223 32.7849 55.227 32.7849 54.4932C32.7849 53.7594 32.1896 53.1641 31.4558 53.1641H29.6836C28.9498 53.1641 28.3545 53.7594 28.3545 54.4932C28.3545 55.227 28.9499 55.8223 29.6836 55.8223Z" fill="#dee5ef"/>
<path d="M8.41799 36.3287H11.9623C12.6962 36.3287 13.2914 35.7334 13.2914 34.9995C13.2914 34.2657 12.6962 33.6704 11.9623 33.6704H8.41799C7.68416 33.6704 7.08887 34.2657 7.08887 34.9995C7.08887 35.7334 7.6843 36.3287 8.41799 36.3287Z" fill="#dee5ef"/>
<path d="M8.41799 46.962H11.9623C12.6962 46.962 13.2914 46.3667 13.2914 45.6328C13.2914 44.899 12.6962 44.3037 11.9623 44.3037H8.41799C7.68416 44.3037 7.08887 44.899 7.08887 45.6328C7.08887 46.3667 7.6843 46.962 8.41799 46.962Z" fill="#dee5ef"/>
<path d="M8.41799 57.5948H11.9623C12.6962 57.5948 13.2914 56.9995 13.2914 56.2656C13.2914 55.5318 12.6962 54.9365 11.9623 54.9365H8.41799C7.68416 54.9365 7.08887 55.5318 7.08887 56.2656C7.08887 56.9995 7.6843 57.5948 8.41799 57.5948Z" fill="#dee5ef"/>
</svg>
