<svg width="47" height="46" viewBox="0 0 47 46" fill="none" xmlns="http://www.w3.org/2000/svg">
<path d="M42.0154 17.009V43.731C42.0323 44.0493 41.9227 44.3613 41.7104 44.599C41.4982 44.8368 41.2005 44.9809 40.8824 45H5.14838C4.83025 44.9809 4.53257 44.8368 4.32031 44.599C4.10805 44.3613 3.99844 44.0493 4.01538 43.731V17" stroke="#dee5ef" stroke-width="2" stroke-miterlimit="10"/>
<path d="M9.33962 26H18.6916C19.0428 26 19.3795 26.1395 19.6278 26.3878C19.8761 26.6361 20.0156 26.9729 20.0156 27.324V45H8.01562V27.324C8.01563 26.9729 8.15512 26.6361 8.40342 26.3878C8.65171 26.1395 8.98848 26 9.33962 26Z" stroke="#dee5ef" stroke-width="2" stroke-miterlimit="10"/>
<path d="M15.0156 36H17.0156" stroke="#dee5ef" stroke-width="2" stroke-linecap="round" stroke-linejoin="round"/>
<path d="M37.7536 28H25.2776C24.5806 28 24.0156 28.565 24.0156 29.262V38.738C24.0156 39.435 24.5806 40 25.2776 40H37.7536C38.4506 40 39.0156 39.435 39.0156 38.738V29.262C39.0156 28.565 38.4506 28 37.7536 28Z" stroke="#dee5ef" stroke-width="2" stroke-miterlimit="10"/>
<path d="M43.9344 11H2.09636C1.91922 11.0004 1.74464 10.9577 1.58762 10.8758C1.4306 10.7938 1.29584 10.6749 1.19492 10.5293C1.09399 10.3837 1.02993 10.2158 1.00824 10.04C0.986541 9.86419 1.00786 9.68575 1.07036 9.52L3.25636 3.692C3.6062 3.09025 3.87709 2.44595 4.06236 1.775C4.12184 1.55451 4.25171 1.35947 4.43222 1.21958C4.61273 1.07968 4.834 1.00258 5.06236 1H40.9624C41.1907 1.00258 41.412 1.07968 41.5925 1.21958C41.773 1.35947 41.9029 1.55451 41.9624 1.775C42.1476 2.44595 42.4185 3.09025 42.7684 3.692L44.9544 9.52C45.0164 9.68528 45.0376 9.86311 45.0161 10.0383C44.9946 10.2136 44.9311 10.381 44.8309 10.5264C44.7307 10.6718 44.5969 10.7908 44.4408 10.8732C44.2846 10.9557 44.1109 10.9992 43.9344 11Z" stroke="#dee5ef" stroke-width="2" stroke-miterlimit="10"/>
<path d="M1.01562 11H45.0156V15C45.0156 15.5304 44.8049 16.0391 44.4298 16.4142C44.0548 16.7893 43.5461 17 43.0156 17H3.01562C2.48519 17 1.97648 16.7893 1.60141 16.4142C1.22634 16.0391 1.01562 15.5304 1.01562 15V11Z" stroke="#dee5ef" stroke-width="2" stroke-miterlimit="10"/>
<path d="M8.01562 11V17" stroke="#dee5ef" stroke-width="2" stroke-miterlimit="10"/>
<path d="M15.0156 11V17" stroke="#dee5ef" stroke-width="2" stroke-miterlimit="10"/>
<path d="M23.0156 11V17" stroke="#dee5ef" stroke-width="2" stroke-miterlimit="10"/>
<path d="M31.0156 11V17" stroke="#dee5ef" stroke-width="2" stroke-miterlimit="10"/>
<path d="M38.0156 11V17" stroke="#dee5ef" stroke-width="2" stroke-miterlimit="10"/>
<path d="M31.0156 30L28.0156 33" stroke="#dee5ef" stroke-width="2" stroke-miterlimit="10" stroke-linecap="round"/>
<path d="M35.0156 30L28.0156 37" stroke="#dee5ef" stroke-width="2" stroke-miterlimit="10" stroke-linecap="round"/>
</svg>
