<svg width="193" height="28" viewBox="0 0 193 28" fill="none" xmlns="http://www.w3.org/2000/svg">
    <g clip-path="url(#clip0_3985_34188)">
    <path d="M27.5509 13.7754C27.5509 6.16748 21.3834 0 13.7754 0C6.16748 0 0 6.16748 0 13.7754C0 21.3834 6.16748 27.5509 13.7754 27.5509C21.3834 27.5509 27.5509 21.3834 27.5509 13.7754Z" fill="#DEBD55"/>
    <path fill-rule="evenodd" clip-rule="evenodd" d="M9.64062 8.54102H17.3549V9.76549H15.2592C15.5678 10.1206 15.7992 10.5369 15.9342 10.99H17.3549V12.2145H16.0563C15.8956 13.9288 14.3784 15.2757 12.5335 15.2757H12.0642L16.3906 19.5614H14.6099L10.7427 15.7305V19.5613H9.64062V8.54102ZM12.5335 9.76549C13.4334 9.76549 14.2049 10.2675 14.5649 10.99H10.7427V9.76549H12.5335ZM10.7427 12.2145V14.0512H12.5335C13.6649 14.0512 14.6035 13.2553 14.7578 12.2145H10.7427Z" fill="#2B2B2B"/>
    <path fill-rule="evenodd" clip-rule="evenodd" d="M9.36719 8.26465H17.0814V9.48912H14.9858C15.2943 9.84425 15.5257 10.2605 15.6607 10.7136H17.0814V11.9381H15.7829C15.6222 13.6524 14.105 14.9993 12.26 14.9993H11.7907L16.1172 19.285H14.3364L10.4692 15.4542V19.2849H9.36719V8.26465ZM12.26 9.48912C13.16 9.48912 13.9314 9.99115 14.2915 10.7136H10.4692V9.48912H12.26ZM10.4692 11.9381V13.7748H12.26C13.3914 13.7748 14.33 12.9789 14.4843 11.9381H10.4692Z" fill="#9B5F0B"/>
    <path d="M18.3481 18.8997C18.3481 18.5953 18.1014 18.3486 17.7971 18.3486C17.4928 18.3486 17.2461 18.5953 17.2461 18.8997C17.2461 19.204 17.4928 19.4507 17.7971 19.4507C18.1014 19.4507 18.3481 19.204 18.3481 18.8997Z" fill="#2B2B2B"/>
    <path d="M18.1841 18.7346C18.1841 18.4303 17.9374 18.1836 17.633 18.1836C17.3287 18.1836 17.082 18.4303 17.082 18.7346C17.082 19.0389 17.3287 19.2856 17.633 19.2856C17.9374 19.2856 18.1841 19.0389 18.1841 18.7346Z" fill="#9B5F0B"/>
    <g filter="url(#filter0_f_3985_34188)">
    <path d="M13.7818 24.2443C19.5639 24.2443 24.2512 19.5571 24.2512 13.775C24.2512 7.99295 19.5639 3.30566 13.7818 3.30566C7.99978 3.30566 3.3125 7.99295 3.3125 13.775C3.3125 19.5571 7.99978 24.2443 13.7818 24.2443Z" stroke="#B16905" stroke-width="0.551018"/>
    </g>
    </g>
    <path d="M49.2349 18.3307L49.3604 20.8418C49.3772 21.6454 49.5446 22.2899 49.8627 22.7754H45.4933C45.2254 22.2732 45.0831 21.6203 45.0664 20.8167L44.991 18.8078C44.9575 17.8201 44.7315 17.142 44.313 16.7737C43.9112 16.3887 43.2583 16.1962 42.3543 16.1962H38.8889V22.7754H34.6451V4.896H43.1077C45.2003 4.896 46.7991 5.36475 47.904 6.30225C49.0256 7.223 49.5864 8.47858 49.5864 10.069C49.5864 12.1281 48.6238 13.5427 46.6986 14.3128C47.6194 14.6142 48.2555 15.0745 48.6071 15.6939C48.9754 16.3134 49.1846 17.1923 49.2349 18.3307ZM38.8889 8.28605V13.007H42.6305C43.4509 13.007 44.087 12.8061 44.539 12.4043C44.991 11.9858 45.217 11.3915 45.217 10.6214C45.217 9.06451 44.3298 8.28605 42.5552 8.28605H38.8889ZM64.2945 16.6733V17.4518H54.7019C54.8358 18.339 55.1623 19.017 55.6813 19.4858C56.2002 19.9545 56.8615 20.1889 57.6651 20.1889C58.9374 20.1889 59.8079 19.7034 60.2767 18.7324H63.9932C63.6416 20.0717 62.8966 21.1348 61.7582 21.9216C60.6199 22.6917 59.2555 23.0767 57.6651 23.0767C55.6562 23.0767 54.0323 22.4573 52.7934 21.2185C51.5546 19.9796 50.9352 18.339 50.9352 16.2966C50.9352 14.2375 51.5462 12.5969 52.7683 11.3748C53.9737 10.1359 55.5892 9.51652 57.6148 9.51652C59.6238 9.51652 61.2476 10.161 62.4865 11.4501C63.6918 12.7559 64.2945 14.497 64.2945 16.6733ZM57.5646 12.4043C55.9575 12.4043 55.0116 13.2581 54.727 14.9657H60.4524C60.3185 14.1621 60.0004 13.5344 59.4982 13.0824C58.996 12.6303 58.3515 12.4043 57.5646 12.4043ZM80.4561 13.9864L81.6615 9.81786H85.8551L81.6364 22.7754H77.5181L76.0867 17.9038C75.7519 16.8156 75.4254 15.6521 75.1074 14.4133C74.806 15.6186 74.4963 16.7821 74.1782 17.9038L72.7469 22.7754H68.6286L64.3847 9.81786H68.6035L69.8088 13.9864C70.2274 15.4428 70.6291 16.8993 71.0142 18.3558C71.3323 17.0332 71.7089 15.5684 72.1442 13.9613L73.3244 9.81786H76.9405L78.1207 13.9613C78.556 15.5684 78.9327 17.0332 79.2508 18.3558C79.6358 16.8993 80.0376 15.4428 80.4561 13.9864ZM98.8881 22.7754H94.9456C94.7447 22.3903 94.6359 21.9049 94.6192 21.3189C93.7487 22.4908 92.3675 23.0767 90.4758 23.0767C89.0528 23.0767 87.9061 22.7252 87.0355 22.022C86.1817 21.3189 85.7548 20.3479 85.7548 19.1091C85.7548 16.6984 87.4457 15.3508 90.8274 15.0662L92.8614 14.8904C93.983 14.7732 94.5439 14.3463 94.5439 13.6097C94.5439 12.7392 93.8826 12.3039 92.56 12.3039C91.7565 12.3039 91.1873 12.4295 90.8525 12.6806C90.5344 12.9149 90.3419 13.3586 90.2749 14.0115H86.3826C86.617 11.0148 88.6845 9.51652 92.5852 9.51652C96.4356 9.51652 98.3608 10.8474 98.3608 13.5092V20.3898C98.3608 21.478 98.5366 22.2732 98.8881 22.7754ZM91.656 20.44C92.5433 20.44 93.2464 20.214 93.7654 19.762C94.2844 19.2933 94.5439 18.5985 94.5439 17.6778V16.7235C94.3095 16.9746 93.8742 17.142 93.2381 17.2257L91.6309 17.4015C90.3753 17.5355 89.7476 18.0544 89.7476 18.9584C89.7476 19.4104 89.915 19.7704 90.2498 20.0382C90.5846 20.3061 91.0534 20.44 91.656 20.44ZM107.943 9.61696C108.01 9.61696 108.295 9.6337 108.797 9.66719V13.233H107.793C105.499 13.233 104.352 14.4049 104.352 16.7486V22.7754H100.435V9.81786H104.252V12.2286C104.854 10.4875 106.085 9.61696 107.943 9.61696ZM118.815 11.3748V4.896H122.733V22.7754H118.916V21.0929C118.045 22.4155 116.748 23.0767 115.023 23.0767C113.282 23.0767 111.91 22.4657 110.905 21.2436C109.884 20.0215 109.373 18.3725 109.373 16.2966C109.373 14.2207 109.884 12.5718 110.905 11.3497C111.91 10.1276 113.282 9.51652 115.023 9.51652C116.664 9.51652 117.928 10.1359 118.815 11.3748ZM116.103 19.9378C117.962 19.9378 118.891 18.7241 118.891 16.2966C118.891 13.8692 117.962 12.6555 116.103 12.6555C115.233 12.6555 114.555 12.9819 114.069 13.6348C113.584 14.271 113.341 15.1917 113.341 16.3971C113.341 18.7576 114.262 19.9378 116.103 19.9378ZM124.056 4.896H139.299V8.68784H133.799V22.7754H129.53V8.68784H124.056V4.896ZM154.539 4.896V8.68784H145.122V11.9272H153.685V15.4931H145.122V18.9836H154.514V22.7754H140.878V4.896H154.539ZM168.176 4.896H173.349L166.167 12.2034L173.349 22.7754H168.327L163.179 15.041L160.768 17.4266V22.7754H156.524V4.896H160.768V12.6303L168.176 4.896ZM186.176 4.896H191.349L184.167 12.2034L191.349 22.7754H186.326L181.179 15.041L178.768 17.4266V22.7754H174.524V4.896H178.768V12.6303L186.176 4.896Z" fill="white"/>
    <defs>
    <filter id="filter0_f_3985_34188" x="1.93312" y="1.92824" width="23.6963" height="23.6933" filterUnits="userSpaceOnUse" color-interpolation-filters="sRGB">
    <feFlood flood-opacity="0" result="BackgroundImageFix"/>
    <feBlend mode="normal" in="SourceGraphic" in2="BackgroundImageFix" result="shape"/>
    <feGaussianBlur stdDeviation="0.551018" result="effect1_foregroundBlur_3985_34188"/>
    </filter>
    <clipPath id="clip0_3985_34188">
    <rect width="27.5509" height="27.5509" fill="white"/>
    </clipPath>
    </defs>
    </svg>
    