<?xml version="1.0" encoding="UTF-8"?>
<svg xmlns="http://www.w3.org/2000/svg" xmlns:xlink="http://www.w3.org/1999/xlink" width="168px" height="px" viewBox="0 0 168 334" version="1.1">
<defs>
<filter id="alpha" filterUnits="objectBoundingBox" x="0%" y="0%" width="100%" height="100%">
  <feColorMatrix type="matrix" in="SourceGraphic" values="0 0 0 0 1 0 0 0 0 1 0 0 0 0 1 0 0 0 1 0"/>
</filter>
<mask id="mask0">
  <g filter="url(#alpha)">
<rect x="0" y="0" width="168" height="334" style="fill:rgb(0%,0%,0%);fill-opacity:0.823529;stroke:none;"/>
  </g>
</mask>
<clipPath id="clip1">
  <rect x="0" y="0" width="168" height="334"/>
</clipPath>
<g id="surface5" clip-path="url(#clip1)">
<path style="fill:none;stroke-width:2;stroke-linecap:butt;stroke-linejoin:miter;stroke:rgb(144,116,241);stroke-opacity:1;stroke-miterlimit:4;" d="M 12.613281 84.25 L 29.5 55 L 46.386719 84.25 Z M 12.613281 84.25 " transform="matrix(2,0,0,2,0,0)"/>
<path style="fill:none;stroke-width:2;stroke-linecap:butt;stroke-linejoin:miter;stroke:rgb(96,185,238);stroke-opacity:1;stroke-miterlimit:4;" d="M 72 60.5 C 72 69.060547 65.060547 76 56.5 76 C 47.939453 76 41 69.060547 41 60.5 C 41 51.939453 47.939453 45 56.5 45 C 65.060547 45 72 51.939453 72 60.5 Z M 72 60.5 " transform="matrix(2,0,0,2,0,0)"/>
<path style="fill:none;stroke-width:2;stroke-linecap:butt;stroke-linejoin:miter;stroke:rgb(182,89,236);stroke-opacity:1;stroke-miterlimit:4;" d="M 24 90 L 68 90 L 68 112 L 24 112 Z M 24 90 " transform="matrix(2,0,0,2,0,0)"/>
</g>
</defs>
<g id="surface1">
<use xlink:href="#surface5" mask="url(#mask0)"/>
</g>
</svg>
