<svg width="167" height="28" viewBox="0 0 167 28" fill="none" xmlns="http://www.w3.org/2000/svg">
    <path fill-rule="evenodd" clip-rule="evenodd" d="M13.0871 0.00489092C12.8947 -0.0187484 12.6937 0.0433042 12.5459 0.191049L9.5309 3.2061C9.27616 3.46083 9.27616 3.87383 9.5309 4.12857L13.158 7.75575C13.265 7.86274 13.3999 7.92479 13.5393 7.94191L14.6422 8.0522C14.5028 8.03508 14.3679 7.97302 14.2609 7.86603L10.6338 4.23885C10.379 3.98411 10.379 3.57112 10.6338 3.31639L13.6488 0.301335C13.7965 0.153591 13.9975 0.0915382 14.19 0.115177L13.0871 0.00489092Z" fill="#222222" fill-opacity="0.6"/>
    <path fill-rule="evenodd" clip-rule="evenodd" d="M13.5381 7.9419C13.7306 7.96554 13.9316 7.90349 14.0793 7.75574L17.0944 4.74068C17.3491 4.48594 17.3491 4.07296 17.0944 3.81822L13.4672 0.191041C13.3602 0.0840538 13.2253 0.0220009 13.0859 0.00488281L14.1888 0.115169C14.3282 0.132287 14.4631 0.19434 14.5701 0.301328L18.1972 3.9285C18.452 4.18324 18.452 4.59622 18.1972 4.85096L15.1822 7.86602C15.0345 8.01377 14.8335 8.07583 14.641 8.05219L13.5381 7.9419Z" fill="#7B7B7B"/>
    <path fill-rule="evenodd" clip-rule="evenodd" d="M8.35938 4.71191C8.50577 4.72536 8.64849 4.78812 8.76058 4.90019L22.027 18.1666C22.2817 18.4214 22.2817 18.8344 22.027 19.0891L18.7036 22.4125C18.561 22.5551 18.3687 22.6179 18.1824 22.6008L19.2852 22.7111C19.4716 22.7282 19.6639 22.6654 19.8065 22.5228L23.1299 19.1994C23.3846 18.9446 23.3846 18.5317 23.1299 18.2769L9.86345 5.01047C9.75136 4.8984 9.60864 4.83565 9.46224 4.8222L8.35938 4.71191Z" fill="#7B7B7B"/>
    <path fill-rule="evenodd" clip-rule="evenodd" d="M18.179 22.6006C18.0326 22.5871 17.8899 22.5244 17.7778 22.4123L4.51137 9.14588C4.25663 8.89114 4.25663 8.47812 4.51137 8.22338L7.83474 4.90004C7.9774 4.75739 8.16967 4.69462 8.356 4.71173L9.45887 4.82202C9.27254 4.80491 9.08027 4.86768 8.93761 5.01033L5.61424 8.33367C5.3595 8.58841 5.3595 9.00142 5.61424 9.25616L18.8807 22.5226C18.9927 22.6347 19.1355 22.6974 19.2819 22.7109L18.179 22.6006Z" fill="#222222" fill-opacity="0.6"/>
    <path fill-rule="evenodd" clip-rule="evenodd" d="M3.33594 9.73438C3.48234 9.74783 3.62506 9.81059 3.73714 9.92268L11.6081 17.7936C11.8628 18.0484 11.8628 18.4613 11.6081 18.7161L8.98553 21.3386C8.84288 21.4813 8.6506 21.5441 8.46428 21.5269L9.56715 21.6372C9.75347 21.6543 9.94575 21.5916 10.0884 21.4489L12.711 18.8264C12.9657 18.5716 12.9657 18.1586 12.711 17.9039L4.84001 10.033C4.72793 9.92088 4.58521 9.85811 4.43881 9.84466L3.33594 9.73438Z" fill="#7B7B7B"/>
    <path fill-rule="evenodd" clip-rule="evenodd" d="M8.46319 21.5277C8.31679 21.5143 8.17407 21.4515 8.06199 21.3394L0.191049 13.4685C-0.0636829 13.2137 -0.0636833 12.8008 0.191049 12.546L2.81359 9.92348C2.95624 9.78082 3.14853 9.71805 3.33485 9.73517L4.43772 9.84546C4.25139 9.82834 4.05911 9.89111 3.91646 10.0338L1.29392 12.6563C1.03919 12.9111 1.03919 13.324 1.29392 13.5788L9.16486 21.4497C9.27694 21.5618 9.41966 21.6246 9.56606 21.638L8.46319 21.5277Z" fill="#222222" fill-opacity="0.6"/>
    <path fill-rule="evenodd" clip-rule="evenodd" d="M18.1836 5.14648C18.33 5.15993 18.4727 5.2227 18.5848 5.33479L26.7047 13.4547C26.9595 13.7094 26.9595 14.1224 26.7047 14.3772L23.6887 17.3932C23.546 17.5359 23.3537 17.5987 23.1674 17.5815L24.2703 17.6918C24.4566 17.7089 24.6489 17.6462 24.7915 17.5035L27.8076 14.4875C28.0623 14.2327 28.0623 13.8197 27.8076 13.565L19.6877 5.44508C19.5756 5.33299 19.4329 5.27022 19.2865 5.25677L18.1836 5.14648Z" fill="#7B7B7B"/>
    <path fill-rule="evenodd" clip-rule="evenodd" d="M23.1692 17.5814C23.0228 17.5679 22.8801 17.5051 22.768 17.3931L14.6481 9.27313C14.3933 9.01839 14.3933 8.60541 14.6481 8.35067L17.6641 5.33461C17.8068 5.19196 17.9991 5.12919 18.1854 5.14631L19.2883 5.25659C19.1019 5.23947 18.9096 5.30224 18.767 5.4449L15.751 8.46096C15.4962 8.7157 15.4962 9.12868 15.751 9.38342L23.8709 17.5033C23.983 17.6154 24.1257 17.6782 24.2721 17.6916L23.1692 17.5814Z" fill="#222222" fill-opacity="0.6"/>
    <path fill-rule="evenodd" clip-rule="evenodd" d="M12.9287 19.3008C12.7363 19.2772 12.5353 19.3392 12.3875 19.4869L9.77309 22.1014C9.51835 22.3561 9.51835 22.7691 9.77309 23.0238L13.4639 26.7147C13.5709 26.8217 13.7058 26.8837 13.8452 26.9008L14.9481 27.0111C14.8087 26.994 14.6738 26.932 14.5668 26.825L10.876 23.1341C10.6212 22.8794 10.6212 22.4664 10.876 22.2117L13.4904 19.5972C13.6381 19.4495 13.8391 19.3874 14.0316 19.4111L12.9287 19.3008Z" fill="#222222" fill-opacity="0.6"/>
    <path fill-rule="evenodd" clip-rule="evenodd" d="M13.8422 26.9008C14.0347 26.9245 14.2357 26.8624 14.3834 26.7147L16.9979 24.1002C17.2526 23.8455 17.2526 23.4325 16.9979 23.1778L13.3071 19.4869C13.2001 19.3799 13.0652 19.3179 12.9258 19.3008L14.0287 19.4111C14.168 19.4282 14.3029 19.4902 14.4099 19.5972L18.1008 23.288C18.3555 23.5428 18.3555 23.9558 18.1008 24.2105L15.4863 26.825C15.3386 26.9727 15.1376 27.0348 14.9451 27.0111L13.8422 26.9008Z" fill="#7B7B7B"/>
    <path fill-rule="evenodd" clip-rule="evenodd" d="M13.4666 0.191049C13.2118 -0.0636828 12.7988 -0.0636832 12.5441 0.191049L9.52906 3.2061C9.27432 3.46083 9.27432 3.87383 9.52906 4.12857L13.1562 7.75575C13.4109 8.01049 13.824 8.01049 14.0787 7.75575L17.0937 4.74068C17.3485 4.48594 17.3485 4.07296 17.0937 3.81822L13.4666 0.191049ZM4.51254 9.14579C4.2578 8.89105 4.2578 8.47803 4.51254 8.22329L7.83592 4.89996C8.09066 4.64522 8.50364 4.64522 8.75838 4.89992L22.0248 18.1664C22.2795 18.4211 22.2795 18.8341 22.0248 19.0888L18.7014 22.4122C18.4467 22.6669 18.0337 22.6669 17.779 22.4122L4.51254 9.14579ZM0.191049 13.468C-0.0636829 13.2133 -0.0636833 12.8003 0.191049 12.5456L2.81359 9.92302C3.06832 9.66828 3.48133 9.66828 3.73606 9.92302L11.607 17.794C11.8617 18.0487 11.8617 18.4617 11.607 18.7164L8.98445 21.339C8.72971 21.5937 8.31673 21.5937 8.06199 21.339L0.191049 13.468ZM14.6476 9.27325C14.3929 9.01851 14.3929 8.60553 14.6476 8.35079L17.6637 5.33473C17.9184 5.07999 18.3314 5.07999 18.5861 5.33473L26.7061 13.4547C26.9608 13.7094 26.9608 14.1224 26.7061 14.3771L23.69 17.3932C23.4353 17.6479 23.0223 17.6479 22.7676 17.3932L14.6476 9.27325ZM13.3088 19.487C13.0541 19.2323 12.6411 19.2323 12.3864 19.487L9.77191 22.1014C9.51717 22.3562 9.51717 22.7691 9.77191 23.0239L13.4627 26.7147C13.7175 26.9695 14.1305 26.9695 14.3852 26.7147L16.9997 24.1003C17.2544 23.8455 17.2544 23.4325 16.9997 23.1778L13.3088 19.487Z" fill="url(#paint0_linear_3985_34198)"/>
    <path d="M40.3114 22.9096C37.8172 22.9096 35.8921 22.3572 34.5361 21.2523C33.1802 20.1475 32.4938 18.6074 32.4771 16.6321H36.5951C36.6119 17.7369 36.9299 18.507 37.5493 18.9422C38.1854 19.3774 39.1564 19.5951 40.4621 19.5951C42.4876 19.5951 43.5004 18.9087 43.5004 17.536C43.5004 16.9334 43.2744 16.4898 42.8224 16.2052C42.3872 15.9039 41.5418 15.636 40.2863 15.4017L38.8299 15.1255C34.8458 14.4559 32.8537 12.5894 32.8537 9.52594C32.8537 7.90216 33.4564 6.61318 34.6617 5.659C35.8837 4.70482 37.6079 4.22773 39.8343 4.22773C42.2114 4.22773 44.0277 4.72993 45.2832 5.73433C46.5387 6.73873 47.2083 8.17837 47.292 10.0533H43.2744C43.2242 9.18277 42.9312 8.54665 42.3955 8.14489C41.8766 7.74313 41.048 7.54225 39.9097 7.54225C38.085 7.54225 37.1727 8.14489 37.1727 9.35017C37.1727 9.95281 37.3903 10.4132 37.8255 10.7312C38.2775 11.0493 39.0727 11.3171 40.211 11.5347L41.7176 11.811C43.877 12.196 45.4422 12.8237 46.4131 13.6942C47.4008 14.5479 47.8946 15.7365 47.8946 17.2598C47.8946 19.0845 47.225 20.4823 45.8858 21.4532C44.5466 22.4241 42.6885 22.9096 40.3114 22.9096ZM56.6988 9.55105V12.4136H54.2129V18.4651C54.2129 18.9003 54.3217 19.2017 54.5394 19.3691C54.757 19.5197 55.142 19.5951 55.6944 19.5951H56.6988V22.5078C56.2301 22.5748 55.6275 22.6083 54.8909 22.6083C53.2671 22.6083 52.0953 22.3237 51.3755 21.7545C50.6557 21.1686 50.2958 20.2144 50.2958 18.892V12.4136H48.3623V9.55105H50.2958V5.70922H54.2129V9.55105H56.6988ZM69.3415 20.951C68.1028 22.1898 66.4539 22.8091 64.3948 22.8091C62.3358 22.8091 60.6869 22.1898 59.4482 20.951C58.2094 19.7122 57.59 18.0717 57.59 16.0294C57.59 13.9704 58.2094 12.3215 59.4482 11.0828C60.6702 9.86074 62.3191 9.24973 64.3948 9.24973C66.4706 9.24973 68.1195 9.86074 69.3415 11.0828C70.5635 12.3048 71.1745 13.9537 71.1745 16.0294C71.1745 18.0885 70.5635 19.729 69.3415 20.951ZM64.3948 19.6704C65.2988 19.6704 65.9935 19.3607 66.479 18.7413C66.9644 18.1219 67.2072 17.218 67.2072 16.0294C67.2072 14.8409 66.9644 13.9369 66.479 13.3176C65.9935 12.6982 65.2988 12.3885 64.3948 12.3885C63.4741 12.3885 62.7711 12.6982 62.2856 13.3176C61.8001 13.9369 61.5574 14.8409 61.5574 16.0294C61.5574 17.218 61.8001 18.1219 62.2856 18.7413C62.7711 19.3607 63.4741 19.6704 64.3948 19.6704ZM80.7883 9.24973C82.161 9.24973 83.2491 9.66823 84.0526 10.5052C84.8729 11.3255 85.283 12.4973 85.283 14.0206V22.5078H81.3659V14.799C81.3659 13.3259 80.6712 12.5894 79.2817 12.5894C78.5787 12.5894 77.9928 12.8237 77.524 13.2924C77.0553 13.7612 76.821 14.4224 76.821 15.2761V22.5078H72.9038V9.55105H76.7205V11.3841C77.7249 9.96118 79.0809 9.24973 80.7883 9.24973ZM100.374 16.4061V17.1845H90.7823C90.9162 18.0717 91.2427 18.7497 91.7616 19.2184C92.2805 19.6871 92.9418 19.9215 93.7453 19.9215C95.0175 19.9215 95.888 19.436 96.3567 18.4651H100.073C99.7215 19.8043 98.9765 20.8673 97.8382 21.6541C96.6999 22.4241 95.3356 22.8091 93.7453 22.8091C91.7365 22.8091 90.1127 22.1898 88.874 20.951C87.6352 19.7122 87.0158 18.0717 87.0158 16.0294C87.0158 13.9704 87.6268 12.3299 88.8488 11.1079C90.0541 9.86911 91.6695 9.24973 93.6951 9.24973C95.7039 9.24973 97.3277 9.89422 98.5664 11.1832C99.7717 12.4889 100.374 14.2299 100.374 16.4061ZM93.6449 12.1374C92.0378 12.1374 91.092 12.9911 90.8074 14.6986H96.5325C96.3986 13.8951 96.0805 13.2673 95.5783 12.8154C95.0761 12.3634 94.4316 12.1374 93.6449 12.1374ZM98.9513 4.62949H114.193V8.4211H108.694V22.5078H104.425V8.4211H98.9513V4.62949ZM129.432 4.62949V8.4211H120.016V11.6603H128.579V15.2259H120.016V18.7162H129.407V22.5078H115.773V4.62949H129.432ZM143.068 4.62949H148.241L141.06 11.9365L148.241 22.5078H143.219L138.072 14.7739L135.661 17.1594V22.5078H131.417V4.62949H135.661V12.3634L143.068 4.62949ZM161.067 4.62949H166.24L159.058 11.9365L166.24 22.5078H161.218L156.07 14.7739L153.66 17.1594V22.5078H149.416V4.62949H153.66V12.3634L161.067 4.62949Z" fill="white"/>
    <defs>
    <linearGradient id="paint0_linear_3985_34198" x1="13.3718" y1="26.7438" x2="13.0457" y2="0.163072" gradientUnits="userSpaceOnUse">
    <stop stop-color="#8D8D8D"/>
    <stop offset="0.699548"/>
    </linearGradient>
    </defs>
    </svg>
    