<?xml version="1.0" encoding="UTF-8"?>
<svg xmlns="http://www.w3.org/2000/svg" xmlns:xlink="http://www.w3.org/1999/xlink" width="116px" height="116px" viewBox="0 0 116 116" version="1.1">
<defs>
<linearGradient id="linear0" gradientUnits="userSpaceOnUse" x1="494.932" y1="869.87" x2="486.104" y2="150.414" gradientTransform="matrix(0.113281,0,0,0.113281,0,0)">
<stop offset="0" style="stop-color:rgb(55.294118%,55.294118%,55.294118%);stop-opacity:1;"/>
<stop offset="0.699548" style="stop-color:rgb(0%,0%,0%);stop-opacity:1;"/>
</linearGradient>
</defs>
<g id="surface1">
<path style=" stroke:none;fill-rule:evenodd;fill:rgb(13.333333%,13.333333%,13.333333%);fill-opacity:0.6;" d="M 55.1875 16.554688 C 54.597656 16.480469 53.980469 16.671875 53.527344 17.125 L 44.285156 26.371094 C 43.503906 27.152344 43.503906 28.417969 44.285156 29.199219 L 55.40625 40.320312 C 55.734375 40.648438 56.148438 40.835938 56.574219 40.890625 L 59.957031 41.226562 C 59.527344 41.175781 59.113281 40.984375 58.785156 40.65625 L 47.664062 29.535156 C 46.882812 28.753906 46.882812 27.488281 47.664062 26.707031 L 56.910156 17.464844 C 57.363281 17.011719 57.980469 16.820312 58.570312 16.890625 Z M 55.1875 16.554688 "/>
<path style=" stroke:none;fill-rule:evenodd;fill:rgb(48.235294%,48.235294%,48.235294%);fill-opacity:1;" d="M 56.574219 40.890625 C 57.164062 40.960938 57.78125 40.773438 58.234375 40.320312 L 67.476562 31.074219 C 68.257812 30.292969 68.257812 29.027344 67.476562 28.246094 L 56.355469 17.125 C 56.027344 16.796875 55.617188 16.605469 55.1875 16.554688 L 58.570312 16.890625 C 58.996094 16.945312 59.410156 17.136719 59.738281 17.464844 L 70.859375 28.585938 C 71.640625 29.367188 71.640625 30.632812 70.859375 31.414062 L 61.617188 40.65625 C 61.164062 41.109375 60.546875 41.300781 59.957031 41.226562 Z M 56.574219 40.890625 "/>
<path style=" stroke:none;fill-rule:evenodd;fill:rgb(48.235294%,48.235294%,48.235294%);fill-opacity:1;" d="M 40.691406 30.984375 C 41.140625 31.027344 41.578125 31.21875 41.921875 31.5625 L 82.597656 72.238281 C 83.378906 73.019531 83.378906 74.289062 82.597656 75.070312 L 72.40625 85.257812 C 71.96875 85.695312 71.382812 85.886719 70.808594 85.835938 L 74.191406 86.175781 C 74.761719 86.226562 75.351562 86.035156 75.789062 85.597656 L 85.980469 75.40625 C 86.761719 74.625 86.761719 73.359375 85.980469 72.578125 L 45.300781 31.902344 C 44.957031 31.558594 44.519531 31.363281 44.074219 31.324219 Z M 40.691406 30.984375 "/>
<path style=" stroke:none;fill-rule:evenodd;fill:rgb(13.333333%,13.333333%,13.333333%);fill-opacity:0.6;" d="M 70.808594 85.835938 C 70.359375 85.792969 69.921875 85.601562 69.578125 85.257812 L 28.902344 44.582031 C 28.121094 43.800781 28.121094 42.535156 28.902344 41.753906 L 39.09375 31.5625 C 39.53125 31.125 40.121094 30.933594 40.691406 30.984375 L 44.074219 31.324219 C 43.5 31.269531 42.910156 31.464844 42.472656 31.902344 L 32.285156 42.089844 C 31.503906 42.871094 31.503906 44.140625 32.285156 44.917969 L 72.960938 85.597656 C 73.304688 85.941406 73.742188 86.132812 74.191406 86.175781 Z M 70.808594 85.835938 "/>
<path style=" stroke:none;fill-rule:evenodd;fill:rgb(48.235294%,48.235294%,48.235294%);fill-opacity:1;" d="M 25.292969 46.386719 C 25.742188 46.429688 26.179688 46.621094 26.523438 46.964844 L 50.65625 71.097656 C 51.4375 71.878906 51.4375 73.144531 50.65625 73.925781 L 42.613281 81.96875 C 42.175781 82.40625 41.585938 82.597656 41.015625 82.546875 L 44.398438 82.882812 C 44.96875 82.9375 45.558594 82.742188 45.996094 82.304688 L 54.035156 74.265625 C 54.816406 73.484375 54.816406 72.21875 54.035156 71.4375 L 29.902344 47.304688 C 29.558594 46.960938 29.121094 46.765625 28.671875 46.726562 Z M 25.292969 46.386719 "/>
<path style=" stroke:none;fill-rule:evenodd;fill:rgb(13.333333%,13.333333%,13.333333%);fill-opacity:0.6;" d="M 41.015625 82.546875 C 40.566406 82.503906 40.128906 82.3125 39.785156 81.96875 L 15.652344 57.835938 C 14.871094 57.054688 14.871094 55.785156 15.652344 55.003906 L 23.691406 46.964844 C 24.128906 46.527344 24.71875 46.335938 25.292969 46.386719 L 28.671875 46.726562 C 28.101562 46.671875 27.511719 46.867188 27.074219 47.304688 L 19.035156 55.34375 C 18.253906 56.125 18.253906 57.390625 19.035156 58.171875 L 43.167969 82.304688 C 43.511719 82.648438 43.949219 82.84375 44.398438 82.882812 Z M 41.015625 82.546875 "/>
<path style=" stroke:none;fill-rule:evenodd;fill:rgb(48.235294%,48.235294%,48.235294%);fill-opacity:1;" d="M 70.824219 32.320312 C 71.273438 32.359375 71.710938 32.550781 72.054688 32.894531 L 96.953125 57.792969 C 97.734375 58.574219 97.734375 59.839844 96.953125 60.621094 L 87.703125 69.871094 C 87.265625 70.308594 86.675781 70.5 86.105469 70.445312 L 89.488281 70.785156 C 90.058594 70.835938 90.648438 70.644531 91.085938 70.207031 L 100.332031 60.960938 C 101.113281 60.179688 101.113281 58.914062 100.332031 58.132812 L 75.4375 33.234375 C 75.09375 32.890625 74.65625 32.699219 74.207031 32.65625 Z M 70.824219 32.320312 "/>
<path style=" stroke:none;fill-rule:evenodd;fill:rgb(13.333333%,13.333333%,13.333333%);fill-opacity:0.6;" d="M 86.105469 70.445312 C 85.65625 70.40625 85.21875 70.214844 84.875 69.871094 L 59.976562 44.972656 C 59.199219 44.191406 59.199219 42.925781 59.976562 42.144531 L 69.226562 32.894531 C 69.664062 32.457031 70.253906 32.265625 70.824219 32.320312 L 74.207031 32.65625 C 73.632812 32.605469 73.046875 32.796875 72.609375 33.234375 L 63.359375 42.480469 C 62.578125 43.261719 62.578125 44.53125 63.359375 45.308594 L 88.257812 70.207031 C 88.601562 70.550781 89.039062 70.742188 89.488281 70.785156 Z M 86.105469 70.445312 "/>
<path style=" stroke:none;fill-rule:evenodd;fill:rgb(13.333333%,13.333333%,13.333333%);fill-opacity:0.6;" d="M 54.703125 75.71875 C 54.113281 75.644531 53.496094 75.835938 53.046875 76.289062 L 45.027344 84.304688 C 44.246094 85.085938 44.246094 86.351562 45.027344 87.132812 L 56.34375 98.449219 C 56.671875 98.777344 57.085938 98.96875 57.515625 99.019531 L 60.894531 99.359375 C 60.46875 99.308594 60.054688 99.117188 59.726562 98.789062 L 48.410156 87.472656 C 47.628906 86.691406 47.628906 85.425781 48.410156 84.644531 L 56.425781 76.628906 C 56.878906 76.175781 57.496094 75.984375 58.085938 76.054688 Z M 54.703125 75.71875 "/>
<path style=" stroke:none;fill-rule:evenodd;fill:rgb(48.235294%,48.235294%,48.235294%);fill-opacity:1;" d="M 57.515625 99.019531 C 58.105469 99.09375 58.71875 98.902344 59.171875 98.449219 L 67.191406 90.433594 C 67.972656 89.652344 67.972656 88.386719 67.191406 87.605469 L 55.875 76.289062 C 55.546875 75.960938 55.132812 75.769531 54.703125 75.71875 L 58.085938 76.054688 C 58.511719 76.109375 58.925781 76.300781 59.253906 76.628906 L 70.570312 87.945312 C 71.351562 88.726562 71.351562 89.992188 70.570312 90.773438 L 62.554688 98.789062 C 62.101562 99.242188 61.484375 99.433594 60.894531 99.359375 Z M 57.515625 99.019531 "/>
<path style=" stroke:none;fill-rule:evenodd;fill:url(#linear0);" d="M 56.355469 17.125 C 55.574219 16.34375 54.308594 16.34375 53.527344 17.125 L 44.285156 26.371094 C 43.503906 27.152344 43.503906 28.417969 44.285156 29.199219 L 55.40625 40.320312 C 56.1875 41.101562 57.453125 41.101562 58.234375 40.320312 L 67.476562 31.074219 C 68.257812 30.292969 68.257812 29.027344 67.476562 28.246094 Z M 28.902344 44.582031 C 28.121094 43.800781 28.121094 42.535156 28.902344 41.753906 L 39.09375 31.5625 C 39.875 30.78125 41.140625 30.78125 41.921875 31.5625 L 82.597656 72.238281 C 83.378906 73.019531 83.378906 74.289062 82.597656 75.070312 L 72.40625 85.257812 C 71.625 86.039062 70.359375 86.039062 69.578125 85.257812 Z M 15.652344 57.835938 C 14.871094 57.054688 14.871094 55.785156 15.652344 55.003906 L 23.691406 46.964844 C 24.472656 46.183594 25.742188 46.183594 26.523438 46.964844 L 50.65625 71.097656 C 51.4375 71.878906 51.4375 73.144531 50.65625 73.925781 L 42.613281 81.96875 C 41.832031 82.75 40.566406 82.75 39.785156 81.96875 Z M 59.976562 44.972656 C 59.199219 44.191406 59.199219 42.925781 59.976562 42.144531 L 69.226562 32.894531 C 70.007812 32.113281 71.273438 32.113281 72.054688 32.894531 L 96.953125 57.792969 C 97.734375 58.574219 97.734375 59.839844 96.953125 60.621094 L 87.703125 69.871094 C 86.921875 70.648438 85.65625 70.648438 84.875 69.871094 Z M 55.875 76.289062 C 55.09375 75.507812 53.824219 75.507812 53.046875 76.289062 L 45.027344 84.304688 C 44.246094 85.085938 44.246094 86.351562 45.027344 87.132812 L 56.34375 98.449219 C 57.125 99.230469 58.394531 99.230469 59.171875 98.449219 L 67.191406 90.433594 C 67.972656 89.652344 67.972656 88.386719 67.191406 87.605469 Z M 55.875 76.289062 "/>
</g>
</svg>
