<svg width="54" height="62" viewBox="0 0 54 62" fill="none" xmlns="http://www.w3.org/2000/svg">
<g filter="url(#filter0_d_1223_7598)">
<path fill-rule="evenodd" clip-rule="evenodd" d="M20.7321 8.31184C20.7321 8.39868 20.9141 8.71278 21.9283 10.3753C22.0609 10.5927 22.407 11.166 22.6973 11.6491C23.5468 13.0625 24.3082 14.3243 24.5448 14.7109C24.7865 15.1057 25.5286 16.3347 26.1177 17.3159C26.3254 17.6617 26.586 18.088 26.6967 18.2631C26.8076 18.4383 26.946 18.6674 27.0045 18.7722C27.0959 18.9356 27.3986 19.4388 28.8847 21.8971C29.492 22.9018 29.6306 23.13 29.885 23.544C30.0368 23.791 30.4184 24.4243 30.7332 24.9513C31.0479 25.4783 31.4211 26.091 31.5624 26.3129C31.7038 26.5349 31.8195 26.7317 31.8195 26.7504C31.8195 26.7691 31.9198 26.9378 32.0424 27.1254C32.165 27.313 32.4212 27.7322 32.6116 28.0569C32.8021 28.3816 32.9883 28.6592 33.0254 28.6737C33.1059 28.7053 33.3594 28.5912 35.3392 27.6314C35.6458 27.4829 36.0945 27.2675 36.3365 27.1528C36.5785 27.038 36.9877 26.8423 37.2458 26.7179C37.5039 26.5935 37.9263 26.3911 38.1844 26.2681C38.4425 26.1452 38.8781 25.9374 39.1524 25.8064C39.4266 25.6756 39.8128 25.492 40.0104 25.3986C40.527 25.1546 41.849 24.5175 42.9776 23.9687C43.4664 23.731 43.6191 23.544 43.3242 23.544C43.2702 23.544 43.1879 23.4901 43.1414 23.4242C43.095 23.3583 43.0158 23.3044 42.9655 23.3044C42.9152 23.3044 42.836 23.2505 42.7895 23.1846C42.743 23.1188 42.6711 23.0649 42.6299 23.0649C42.5885 23.0649 42.5548 23.0379 42.5548 23.005C42.5548 22.9721 42.5152 22.9451 42.4668 22.9451C42.4184 22.9451 42.3788 22.9182 42.3788 22.8852C42.3788 22.8523 42.3392 22.8253 42.2908 22.8253C42.2424 22.8253 42.2028 22.7984 42.2028 22.7655C42.2028 22.7325 42.1632 22.7056 42.1148 22.7056C42.0664 22.7056 42.0268 22.6786 42.0268 22.6457C42.0268 22.6127 41.9993 22.5858 41.9657 22.5858C41.9321 22.5858 41.8479 22.5319 41.7787 22.466C41.7095 22.4002 41.6181 22.3463 41.5759 22.3463C41.5335 22.3463 41.4989 22.3226 41.4989 22.2937C41.4989 22.2647 41.4197 22.2075 41.3229 22.1666C41.2261 22.1257 41.1469 22.0718 41.1469 22.0468C41.1469 22.0218 41.0677 21.9679 40.9709 21.9271C40.8741 21.8862 40.7949 21.8308 40.7949 21.804C40.7949 21.7773 40.7423 21.7384 40.6779 21.7176C40.6137 21.6968 40.5279 21.6477 40.4872 21.6086C40.3639 21.4897 39.9214 21.2084 39.8576 21.2084C39.8246 21.2084 39.7977 21.1815 39.7977 21.1485C39.7977 21.1156 39.7581 21.0887 39.7097 21.0887C39.6613 21.0887 39.6217 21.0617 39.6217 21.0288C39.6217 20.9958 39.5821 20.9689 39.5337 20.9689C39.4853 20.9689 39.4457 20.9464 39.4457 20.9192C39.4457 20.8918 39.3731 20.8312 39.2843 20.7844C39.1956 20.7376 39.0718 20.6523 39.0094 20.5946C38.9467 20.537 38.8609 20.4898 38.8187 20.4898C38.7763 20.4898 38.7417 20.4674 38.7417 20.4401C38.7417 20.4127 38.6691 20.3521 38.5804 20.3054C38.4917 20.2585 38.3679 20.1732 38.3054 20.1155C38.2428 20.0579 38.1629 20.0107 38.1277 20.0107C38.0925 20.0107 38.0256 19.9568 37.9791 19.891C37.9326 19.8251 37.8607 19.7712 37.8195 19.7712C37.7782 19.7712 37.7444 19.7442 37.7444 19.7113C37.7444 19.6784 37.7048 19.6514 37.6564 19.6514C37.608 19.6514 37.5685 19.6245 37.5685 19.5915C37.5685 19.5586 37.5289 19.5316 37.4805 19.5316C37.4321 19.5316 37.3925 19.5047 37.3925 19.4718C37.3925 19.4388 37.3595 19.4119 37.3191 19.4119C37.2788 19.4117 37.17 19.3451 37.0773 19.2638C36.9846 19.1824 36.8592 19.0999 36.7986 19.0801C36.7381 19.0605 36.6885 19.0235 36.6885 18.9978C36.6885 18.972 36.5829 18.9024 36.4538 18.843C36.3248 18.7835 36.2192 18.7121 36.2192 18.6841C36.2192 18.6563 36.1723 18.6334 36.1148 18.6334C36.0574 18.6334 35.9724 18.5795 35.9259 18.5136C35.8794 18.4477 35.8002 18.3938 35.7499 18.3938C35.6996 18.3938 35.6204 18.3399 35.5739 18.2741C35.5274 18.2082 35.4556 18.1543 35.4143 18.1543C35.373 18.1543 35.3392 18.1273 35.3392 18.0944C35.3392 18.0615 35.2997 18.0345 35.2513 18.0345C35.2029 18.0345 35.1633 18.0076 35.1633 17.9746C35.1633 17.9417 35.1237 17.9147 35.0753 17.9147C35.0269 17.9147 34.9873 17.8923 34.9873 17.865C34.9873 17.8376 34.9147 17.777 34.8259 17.7303C34.7372 17.6834 34.6134 17.5981 34.551 17.5405C34.4883 17.4828 34.4025 17.4357 34.3603 17.4357C34.3179 17.4357 34.2833 17.4132 34.2833 17.386C34.2833 17.3586 34.2107 17.2979 34.122 17.2512C34.0333 17.2044 33.9095 17.119 33.847 17.0614C33.7844 17.0037 33.6986 16.9566 33.6564 16.9566C33.614 16.9566 33.5794 16.9341 33.5794 16.9069C33.5794 16.8795 33.5068 16.8188 33.418 16.7721C33.3293 16.7254 33.2435 16.6727 33.2274 16.6549C33.1645 16.5851 32.3485 16.0583 32.3036 16.0583C32.2775 16.0583 32.2179 16.0044 32.1714 15.9385C32.125 15.8727 32.0458 15.8188 31.9955 15.8188C31.9452 15.8188 31.866 15.7649 31.8195 15.699C31.773 15.6331 31.6938 15.5792 31.6435 15.5792C31.5932 15.5792 31.514 15.5253 31.4675 15.4594C31.421 15.3936 31.3418 15.3397 31.2915 15.3397C31.2412 15.3397 31.162 15.2858 31.1155 15.2199C31.069 15.154 30.9936 15.1001 30.9482 15.1001C30.9026 15.1001 30.8226 15.0528 30.7704 14.9949C30.7182 14.9371 30.6029 14.8516 30.5142 14.8052C30.4255 14.7586 30.3529 14.6982 30.3529 14.6708C30.3529 14.6435 30.3253 14.6211 30.2917 14.6211C30.2581 14.6211 30.174 14.5672 30.1047 14.5013C30.0355 14.4354 29.9442 14.3815 29.9019 14.3815C29.8595 14.3815 29.8249 14.3589 29.8249 14.3312C29.8249 14.3037 29.7579 14.2498 29.6761 14.2117C29.5942 14.1737 29.4952 14.115 29.4561 14.0815C29.2914 13.9403 28.9344 13.7228 28.8674 13.7228C28.8275 13.7228 28.7568 13.6689 28.7103 13.603C28.6638 13.5371 28.5846 13.4832 28.5343 13.4832C28.484 13.4832 28.4048 13.4293 28.3583 13.3635C28.3118 13.2976 28.24 13.2437 28.1988 13.2437C28.1574 13.2437 28.1237 13.2167 28.1237 13.1838C28.1237 13.1509 28.0841 13.1239 28.0357 13.1239C27.9873 13.1239 27.9477 13.097 27.9477 13.064C27.9477 13.0311 27.9081 13.0042 27.8597 13.0042C27.8113 13.0042 27.7717 12.9817 27.7717 12.9544C27.7717 12.9271 27.6991 12.8666 27.6104 12.82C27.5217 12.7736 27.4064 12.6881 27.3542 12.6303C27.302 12.5724 27.222 12.5251 27.1764 12.5251C27.131 12.5251 27.0556 12.4712 27.0091 12.4053C26.9626 12.3394 26.8834 12.2855 26.8331 12.2855C26.7828 12.2855 26.7036 12.2316 26.6571 12.1658C26.6106 12.0999 26.5314 12.046 26.4811 12.046C26.4308 12.046 26.3516 11.9921 26.3051 11.9262C26.2586 11.8603 26.1736 11.8064 26.1162 11.8064C26.0587 11.8064 26.0115 11.7862 26.0114 11.7615C26.0111 11.7368 25.8461 11.6091 25.6447 11.4778C25.4432 11.3464 25.2697 11.2184 25.259 11.1934C25.2482 11.1682 25.1946 11.1477 25.1399 11.1477C25.0852 11.1477 25.0024 11.0938 24.9559 11.0279C24.9094 10.9621 24.8302 10.9082 24.7799 10.9082C24.7296 10.9082 24.6504 10.8543 24.6039 10.7884C24.5574 10.7225 24.4782 10.6686 24.4279 10.6686C24.3776 10.6686 24.2984 10.6147 24.2519 10.5489C24.2054 10.483 24.1262 10.4291 24.0759 10.4291C24.0256 10.4291 23.9464 10.3752 23.8999 10.3093C23.8535 10.2434 23.7781 10.1895 23.7326 10.1895C23.687 10.1895 23.6071 10.1422 23.5549 10.0843C23.5026 10.0265 23.3874 9.94102 23.2986 9.89461C23.2099 9.84805 23.1373 9.78757 23.1373 9.76017C23.1373 9.73292 23.1098 9.71046 23.0762 9.71046C23.0426 9.71046 22.9584 9.65657 22.8892 9.59069C22.82 9.52482 22.7286 9.47092 22.6863 9.47092C22.644 9.47092 22.6094 9.44847 22.6094 9.42122C22.6094 9.39382 22.5368 9.33319 22.448 9.28648C22.3593 9.23962 22.2355 9.15428 22.173 9.09664C22.1104 9.039 22.0246 8.99184 21.9824 8.99184C21.94 8.99184 21.9054 8.96894 21.9054 8.94109C21.9054 8.91309 21.7998 8.84168 21.6707 8.78224C21.5417 8.72281 21.4361 8.65139 21.4361 8.6234C21.4361 8.59555 21.3892 8.57264 21.3317 8.57264C21.2743 8.57264 21.1893 8.51875 21.1428 8.45287C21.0963 8.387 21.0112 8.3331 20.9539 8.3331C20.8964 8.3331 20.8495 8.30616 20.8495 8.27322C20.8495 8.24028 20.8231 8.21333 20.7908 8.21333C20.7585 8.21333 20.7321 8.25765 20.7321 8.31184ZM14.1023 23.7086C14.1017 24.0304 14.084 24.1452 14.0445 24.0829C13.9964 24.007 13.9875 24.0102 13.9868 24.1031C13.9863 24.1636 13.902 24.3323 13.7995 24.478C13.571 24.8027 13.4493 24.6629 14.9245 25.7693C15.1665 25.9507 15.734 26.3773 16.1857 26.7171C16.6374 27.0571 17.1578 27.4456 17.342 27.5805L17.677 27.8258L17.8805 28.4845C17.9924 28.8468 18.2854 29.8304 18.5317 30.6703C18.7779 31.5102 19.0023 32.2647 19.0305 32.3471C19.0585 32.4294 19.1394 32.6989 19.2101 32.9459C19.2807 33.193 19.3849 33.5433 19.4415 33.7245C19.4982 33.9056 19.6029 34.2559 19.6741 34.503C19.9466 35.4466 19.9176 35.3993 20.4681 35.7995C22.3706 37.1825 22.58 37.2834 23.0021 37.0208C23.6603 36.6111 23.561 35.9773 22.751 35.4174C22.5547 35.2816 22.1874 35.0193 21.9349 34.8343C21.6823 34.6494 21.4406 34.478 21.3977 34.4536C21.3548 34.429 21.0926 33.642 20.8149 32.7043C20.5372 31.7668 20.2576 30.8245 20.1936 30.6104C20.1295 30.3963 20.056 30.1403 20.0302 30.0415C20.0046 29.9427 19.9441 29.7406 19.8962 29.5924C19.8482 29.4442 19.751 29.1208 19.68 28.8737C19.609 28.6267 19.5281 28.3572 19.5002 28.2749C19.4723 28.1926 19.3923 27.9231 19.3222 27.676C19.0721 26.7947 19.2128 26.9517 17.5737 25.7247C13.6773 22.8078 14.1035 23.0553 14.1023 23.7086ZM30.1769 35.8095C30.1769 35.8694 30.2146 36.0513 30.2606 36.2137C30.3068 36.3762 30.4811 37.0481 30.648 37.7068C31.0124 39.1451 31.1352 39.6246 31.2962 40.237C31.3632 40.4922 31.4404 40.7954 31.4675 40.9107C31.4946 41.026 31.5738 41.3359 31.6435 41.5994C31.7131 41.8629 31.7926 42.1728 31.8202 42.288C31.8478 42.4033 31.9003 42.6054 31.9368 42.7372C31.9733 42.8689 32.0254 43.071 32.0525 43.1863C32.0796 43.3016 32.1687 43.6519 32.2503 43.9648C32.5334 45.0486 32.9913 46.8694 32.992 46.9142C32.9924 46.9389 36.6243 46.9591 41.0627 46.9591C46.553 46.9591 49.1694 46.979 49.2471 47.0215C49.4202 47.1161 49.4555 46.941 49.3065 46.7273C49.239 46.6306 49.1837 46.5218 49.1837 46.4857C49.1837 46.4496 49.1573 46.4201 49.1251 46.4201C49.0928 46.4201 49.0664 46.3797 49.0664 46.3303C49.0664 46.2809 49.04 46.2405 49.0078 46.2405C48.9755 46.2405 48.9491 46.1866 48.9491 46.1207C48.9491 46.0548 48.9227 46.0009 48.8904 46.0009C48.8582 46.0009 48.8318 45.947 48.8318 45.8812C48.8318 45.8153 48.8054 45.7614 48.7731 45.7614C48.7408 45.7614 48.7144 45.7075 48.7144 45.6416C48.7144 45.5757 48.688 45.5218 48.6558 45.5218C48.6235 45.5218 48.5971 45.4865 48.5971 45.4432C48.5971 45.4001 48.5443 45.3069 48.4798 45.2362C48.4153 45.1655 48.3625 45.0661 48.3625 45.0154C48.3625 44.9646 48.3361 44.923 48.3038 44.923C48.2715 44.923 48.2451 44.8691 48.2451 44.8032C48.2451 44.7374 48.2187 44.6835 48.1865 44.6835C48.1542 44.6835 48.1278 44.6296 48.1278 44.5637C48.1278 44.4978 48.1064 44.4439 48.0801 44.4439C48.0539 44.4439 47.9961 44.3496 47.9518 44.2343C47.9075 44.119 47.8519 44.0247 47.8282 44.0247C47.8046 44.0247 47.7678 43.9439 47.7465 43.8451C47.7252 43.7463 47.6836 43.6654 47.6538 43.6654C47.6242 43.6654 47.5998 43.6115 47.5998 43.5456C47.5998 43.4798 47.5734 43.4259 47.5412 43.4259C47.5089 43.4259 47.4825 43.372 47.4825 43.3061C47.4825 43.2402 47.4627 43.1859 47.4385 43.1854C47.4143 43.1848 47.33 43.0501 47.2509 42.886C47.172 42.7218 47.0862 42.5875 47.0603 42.5875C47.0345 42.5875 47.0132 42.5336 47.0132 42.4677C47.0132 42.4018 46.9868 42.3479 46.9545 42.3479C46.9223 42.3479 46.8959 42.294 46.8959 42.2282C46.8959 42.1623 46.8695 42.1084 46.8372 42.1084C46.805 42.1084 46.7786 42.0545 46.7786 41.9886C46.7786 41.9227 46.7571 41.8688 46.7309 41.8688C46.7046 41.8688 46.6469 41.7745 46.6026 41.6592C46.5583 41.544 46.5005 41.4497 46.4742 41.4497C46.448 41.4497 46.4266 41.4092 46.4266 41.3598C46.4266 41.3104 46.4002 41.27 46.3679 41.27C46.3357 41.27 46.3093 41.2296 46.3093 41.1802C46.3093 41.1308 46.2829 41.0903 46.2506 41.0903C46.2183 41.0903 46.1919 41.0364 46.1919 40.9706C46.1919 40.9047 46.1655 40.8508 46.1333 40.8508C46.101 40.8508 46.0746 40.7969 46.0746 40.731C46.0746 40.6652 46.0482 40.6113 46.0159 40.6113C45.9837 40.6113 45.9573 40.5574 45.9573 40.4915C45.9573 40.4256 45.9309 40.3717 45.8986 40.3717C45.8663 40.3717 45.8399 40.3364 45.8399 40.2931C45.8399 40.25 45.7872 40.1567 45.7226 40.0861C45.6581 40.0154 45.6053 39.916 45.6053 39.8652C45.6053 39.8145 45.5789 39.7729 45.5466 39.7729C45.5144 39.7729 45.488 39.719 45.488 39.6531C45.488 39.5872 45.4616 39.5333 45.4293 39.5333C45.397 39.5333 45.3706 39.4938 45.3706 39.4456C45.3706 39.3974 45.3004 39.229 45.2146 39.0713C45.1288 38.9137 45.0298 38.7309 44.9946 38.665C44.9021 38.4916 44.8381 38.4573 44.6054 38.4563C44.4241 38.4555 44.0352 38.3855 42.9655 38.1612C42.8203 38.1308 42.5299 38.075 42.3202 38.0371C42.1104 37.9992 41.8333 37.945 41.7042 37.9164C41.5751 37.8878 41.298 37.8339 41.0882 37.7966C40.8785 37.7594 40.6013 37.7055 40.4723 37.6769C40.3432 37.6483 40.066 37.5941 39.8563 37.5562C39.6466 37.5183 39.3562 37.4625 39.211 37.4319C38.8387 37.3536 37.7811 37.1484 37.3631 37.0734C37.1695 37.0387 36.9056 36.9866 36.7765 36.9578C36.6474 36.9291 36.4495 36.8894 36.3365 36.8695C36.1614 36.8388 34.9766 36.61 32.1274 36.057C30.006 35.6451 30.1769 35.6667 30.1769 35.8095ZM17.353 45.6075C17.0139 45.7581 16.9104 46.0039 16.7455 47.0489C16.522 48.4661 16.3947 49.2163 16.3642 49.297C16.345 49.3478 15.8481 49.6286 15.2602 49.9213C11.6602 51.7126 11.698 51.6918 11.698 51.8724C11.698 51.9642 11.7225 52.0483 11.7523 52.0594C11.7822 52.0703 11.8152 52.1197 11.8256 52.1691C11.8542 52.304 12.2009 52.6482 12.3081 52.6482C12.3597 52.6482 12.402 52.6751 12.402 52.7081C12.402 52.741 12.4408 52.768 12.4882 52.768C12.5356 52.768 12.6676 52.8214 12.7815 52.8867C12.8955 52.952 12.9886 52.9791 12.9886 52.947C12.9886 52.9014 15.8841 51.4105 17.3153 50.7191C17.7752 50.4971 17.8308 50.3788 18.0338 49.1898C18.3135 47.5521 18.4919 46.2987 18.463 46.1771C18.3438 45.6774 17.811 45.4039 17.353 45.6075Z" fill="#676767"/>
<path fill-rule="evenodd" clip-rule="evenodd" d="M42.7261 24.1016C42.3847 24.2724 41.8831 24.518 41.6115 24.6473C41.3398 24.7765 40.8536 25.0093 40.5309 25.1644C39.1871 25.8108 37.1408 26.7891 36.6298 27.0294C36.4201 27.1281 35.9845 27.3378 35.6619 27.4956C35.3393 27.6534 34.8377 27.8954 34.5473 28.0332C34.2569 28.1711 33.7917 28.392 33.5135 28.524L33.0077 28.7643L32.6385 29.6424C32.4354 30.1253 32.1946 30.6898 32.1031 30.8964C32.0116 31.1031 31.9368 31.2843 31.9368 31.2991C31.9368 31.3139 31.8576 31.5025 31.7608 31.7183C31.664 31.934 31.5848 32.1236 31.5848 32.1396C31.5848 32.1556 31.5333 32.283 31.4704 32.4225C30.8311 33.8409 30.1417 35.5861 30.2011 35.6364C30.2383 35.668 30.4264 35.7209 30.6189 35.7537C30.8113 35.7866 31.7476 35.9647 32.6994 36.1496C33.6512 36.3347 34.562 36.5093 34.7233 36.5379C35.0376 36.5934 35.7879 36.7413 36.2192 36.8326C36.3644 36.8635 36.6548 36.9195 36.8645 36.9573C37.0742 36.9952 37.3514 37.0494 37.4805 37.078C37.6095 37.1066 37.8867 37.1605 38.0964 37.1978C38.3061 37.2351 38.5833 37.289 38.7124 37.3176C38.8414 37.3462 39.1186 37.4 39.3283 37.4373C39.5381 37.4746 39.8152 37.5285 39.9443 37.5571C40.0734 37.5857 40.3505 37.6396 40.5603 37.6769C40.77 37.7141 41.0472 37.7683 41.1762 37.7971C41.3053 37.8258 41.7013 37.9049 42.0562 37.9727C42.4111 38.0407 43.1096 38.1769 43.6085 38.2757C44.1075 38.3745 44.5904 38.4554 44.6818 38.4554H44.8478L44.8131 37.9913C44.7938 37.736 44.7645 37.2779 44.7478 36.9732C44.7311 36.6685 44.6926 36.4193 44.6627 36.4193C44.6327 36.4193 44.608 36.1649 44.608 35.854C44.608 35.5415 44.5818 35.272 44.5494 35.2515C44.4618 35.1963 44.4762 35.0265 44.564 35.0771C44.6227 35.1109 44.6227 35.1033 44.564 35.0388C44.5177 34.9877 44.4907 34.7765 44.4907 34.4646C44.4907 34.1932 44.4643 33.9544 44.432 33.934C44.3993 33.9134 44.3734 33.6352 44.3734 33.3052C44.3734 32.9798 44.3501 32.6988 44.3216 32.6808C44.2931 32.6628 44.264 32.3715 44.2568 32.0334C44.2496 31.6954 44.2421 31.3864 44.2401 31.3467C44.2382 31.3069 44.2145 31.2883 44.1876 31.3052C44.1607 31.3223 44.1387 31.0365 44.1387 30.6703C44.1387 30.3041 44.1167 30.0183 44.0899 30.0354C44.0629 30.0523 44.0409 30.0282 44.0409 29.9816C44.0409 29.9351 44.0629 29.9109 44.0899 29.9279C44.1167 29.9449 44.1387 29.9303 44.1387 29.8954C44.1387 29.8605 44.1123 29.8319 44.0801 29.8319C44.0456 29.8319 44.0214 29.6223 44.0214 29.3229C44.0214 29.0234 43.9972 28.8138 43.9627 28.8138C43.9272 28.8138 43.9041 28.556 43.9041 28.16C43.9041 27.6904 43.8834 27.4992 43.8307 27.4811C43.7749 27.4619 43.7782 27.4296 43.8454 27.3449C43.8961 27.2809 43.9023 27.2529 43.8601 27.2788C43.8037 27.3134 43.7867 27.2077 43.7867 26.8233C43.7867 26.5238 43.7595 26.2948 43.7188 26.2533C43.6674 26.2008 43.6709 26.1588 43.7335 26.0801C43.787 26.0127 43.7903 25.9921 43.7427 26.0212C43.686 26.056 43.6693 25.9266 43.6685 25.4489C43.6679 25.0281 43.6495 24.8601 43.6108 24.9213C43.565 24.9936 43.5537 24.984 43.553 24.8728C43.5524 24.778 43.5751 24.7487 43.6254 24.7795C43.683 24.8149 43.6836 24.8056 43.6283 24.7357C43.5896 24.6869 43.55 24.4596 43.5404 24.2307C43.5182 23.7077 43.5147 23.7071 42.7261 24.1016ZM34.7492 47.0035L33.0155 47.0208L32.8819 47.8732C32.6891 49.1031 32.6416 49.4045 32.5815 49.7737C32.552 49.9548 32.4992 50.2917 32.464 50.5223C32.3738 51.1141 32.2885 51.6658 32.2281 52.0493C32.1995 52.2305 32.1475 52.5673 32.1128 52.7979C32.078 53.0285 32.0252 53.3653 31.9955 53.5465C31.9657 53.7276 31.9148 54.051 31.8822 54.2651C31.8497 54.4792 31.7703 54.9912 31.7061 55.4029C31.6419 55.8146 31.5476 56.421 31.4965 56.7503C31.4455 57.0797 31.3653 57.5917 31.3182 57.8881C30.9737 60.0555 30.7741 61.4696 30.802 61.5437C30.8391 61.6423 30.9395 61.6624 30.9395 61.5711C30.9395 61.5381 30.9725 61.5106 31.0128 61.5099C31.0532 61.5091 31.188 61.4149 31.3123 61.3006C31.4367 61.1862 31.5627 61.108 31.5924 61.1267C31.6221 61.1455 31.6391 61.1287 31.6303 61.0895C31.6213 61.0502 31.6574 61.0106 31.7105 61.0014C31.7634 60.9923 31.885 60.9011 31.9808 60.7989C32.0766 60.6966 32.1865 60.6129 32.2253 60.6129C32.264 60.6129 32.2794 60.586 32.2594 60.553C32.2395 60.5201 32.2712 60.4931 32.3298 60.4931C32.3885 60.4931 32.4695 60.4393 32.5098 60.3734C32.5501 60.3075 32.6372 60.2536 32.7034 60.2536C32.7695 60.2536 32.8073 60.2267 32.7874 60.1937C32.7675 60.1608 32.7856 60.1335 32.8279 60.1332C32.8701 60.1329 32.9671 60.0521 33.0433 59.9536C33.1196 59.8551 33.22 59.7745 33.2668 59.7745C33.3135 59.7745 33.3353 59.7476 33.3154 59.7146C33.2954 59.6817 33.3202 59.6548 33.3705 59.6548C33.4208 59.6548 33.462 59.6278 33.462 59.5949C33.462 59.5619 33.506 59.535 33.5599 59.535C33.6135 59.535 33.6412 59.5184 33.6213 59.4979C33.5692 59.4447 33.7298 59.2954 33.8391 59.2954C33.8898 59.2954 33.9313 59.2685 33.9313 59.2356C33.9313 59.2026 33.9734 59.1757 34.0248 59.1757C34.0762 59.1757 34.1321 59.1218 34.149 59.0559C34.1658 58.99 34.2161 58.9361 34.2607 58.9361C34.3053 58.9361 34.4391 58.8424 34.5582 58.7277C34.6771 58.6132 34.7856 58.5307 34.7991 58.5445C34.8264 58.5722 34.9433 58.4835 35.0924 58.3223C35.1457 58.2647 35.2194 58.2175 35.2561 58.2175C35.2928 58.2175 35.3724 58.1501 35.433 58.0678C35.4935 57.9855 35.578 57.9181 35.6207 57.9181C35.6632 57.9181 35.6861 57.8979 35.6716 57.8732C35.6569 57.8485 35.6817 57.7935 35.7267 57.751C35.7833 57.6977 35.8086 57.695 35.8086 57.7425C35.8086 57.78 35.8851 57.7274 35.9787 57.6249C36.0724 57.5227 36.1795 57.439 36.2168 57.439C36.2542 57.439 36.2685 57.4121 36.2485 57.3791C36.2286 57.3462 36.256 57.3192 36.3095 57.3192C36.3631 57.3192 36.48 57.2393 36.5693 57.1417C36.6586 57.0441 36.7478 56.9806 36.7674 57.0005C36.7871 57.0206 36.8198 56.9927 36.84 56.9385C36.8604 56.8845 36.9138 56.8401 36.9588 56.8401C37.0037 56.8401 37.0405 56.8132 37.0405 56.7803C37.0405 56.7473 37.0999 56.7183 37.1725 56.7156C37.2451 56.713 37.2718 56.6975 37.2317 56.6809C37.136 56.6415 37.2851 56.4808 37.4175 56.4808C37.4683 56.4808 37.5098 56.4539 37.5098 56.421C37.5098 56.388 37.551 56.3611 37.6013 56.3611C37.6516 56.3611 37.6806 56.3409 37.6661 56.3162C37.6515 56.2915 37.6762 56.2365 37.7213 56.194C37.7663 56.1516 37.8031 56.1314 37.8031 56.1491C37.8031 56.1799 37.8461 56.1444 38.1803 55.8371C38.261 55.763 38.3616 55.7023 38.404 55.7023C38.4465 55.7023 38.5182 55.6499 38.5635 55.5857C38.6087 55.5216 38.6674 55.4829 38.6938 55.4995C38.7202 55.5161 38.7417 55.4861 38.7417 55.4328C38.7417 55.3795 38.7681 55.3526 38.8004 55.373C38.8326 55.3933 38.859 55.3798 38.859 55.343C38.859 55.3062 38.8806 55.2897 38.907 55.3063C38.9334 55.323 38.9921 55.2842 39.0372 55.2201C39.0825 55.1559 39.1732 55.103 39.2386 55.1026C39.337 55.1018 39.3424 55.0915 39.2697 55.0436C39.1999 54.9975 39.212 54.9852 39.3283 54.9837C39.4446 54.9822 39.4568 54.9699 39.387 54.9238C39.3131 54.875 39.3166 54.8656 39.4094 54.8648C39.4702 54.8644 39.5672 54.8082 39.625 54.7403C39.6828 54.6722 39.7519 54.6115 39.7786 54.6055C39.8051 54.5994 39.8204 54.5742 39.8123 54.5495C39.8042 54.5248 39.8381 54.5046 39.8875 54.5046C39.9371 54.5046 40.0675 54.417 40.1775 54.31C40.6818 53.8189 40.8536 53.6731 40.8536 53.7363C40.8536 53.7737 40.9024 53.7468 40.9623 53.6764C41.0219 53.6062 41.0847 53.5628 41.1017 53.5801C41.1187 53.5975 41.213 53.5297 41.3113 53.4294C41.4094 53.3291 41.5182 53.247 41.553 53.247C41.5878 53.247 41.6162 53.2201 41.6162 53.1871C41.6162 53.1542 41.6574 53.1273 41.7077 53.1273C41.758 53.1273 41.7871 53.1071 41.7725 53.0823C41.7412 53.0295 41.8507 52.9253 41.9642 52.8998C42.0079 52.89 42.1129 52.8091 42.1976 52.7202C42.3895 52.5184 42.705 52.2889 42.7905 52.2889C42.826 52.2889 42.8387 52.2619 42.8188 52.229C42.7988 52.196 42.8253 52.1691 42.8775 52.1691C42.9297 52.1691 42.9561 52.1421 42.9361 52.1092C42.9162 52.0763 42.9297 52.0493 42.9662 52.0493C43.0027 52.0493 43.0724 52.0086 43.1211 51.9589C43.1697 51.9092 43.2344 51.8843 43.2649 51.9035C43.2954 51.9227 43.3166 51.9162 43.312 51.8891C43.2902 51.761 43.3255 51.69 43.4113 51.69C43.4628 51.69 43.5778 51.6105 43.6668 51.5132C43.7558 51.416 43.8653 51.3285 43.9104 51.3186C43.9552 51.3088 44.0057 51.2873 44.0223 51.2708C44.2324 51.0629 44.4411 50.9007 44.4074 50.9714C44.3839 51.0208 44.4062 51.009 44.457 50.945C44.5079 50.881 44.5494 50.845 44.5494 50.865C44.5494 50.885 44.6394 50.82 44.7493 50.7206C44.8592 50.6212 44.9669 50.5444 44.9885 50.55C45.0371 50.5625 45.2533 50.3127 45.2533 50.2436C45.2533 50.2156 45.2879 50.1929 45.3303 50.1929C45.3725 50.1929 45.4639 50.139 45.5331 50.0731C45.6024 50.0072 45.6848 49.9533 45.7162 49.9533C45.7477 49.9533 45.7901 49.8994 45.8106 49.8336C45.8311 49.7677 45.893 49.7138 45.9483 49.7138C46.0035 49.7138 46.0868 49.6599 46.1333 49.594C46.1798 49.5282 46.2531 49.4743 46.2963 49.4743C46.3395 49.4743 46.3585 49.4473 46.3386 49.4144C46.3186 49.3814 46.345 49.3545 46.3972 49.3545C46.4495 49.3545 46.4759 49.3275 46.4559 49.2946C46.436 49.2617 46.4739 49.2347 46.5404 49.2347C46.6068 49.2347 46.6612 49.2096 46.6612 49.1789C46.6612 49.1482 46.714 49.106 46.7786 49.085C46.8431 49.064 46.8979 49.0016 46.9006 48.9462C46.9031 48.8908 46.9179 48.8772 46.9333 48.916C46.9507 48.9597 47.0258 48.9179 47.1301 48.8065C47.2228 48.7074 47.3391 48.6204 47.3884 48.613C47.4376 48.6056 47.5252 48.5453 47.583 48.4788C47.6406 48.4123 47.734 48.3406 47.7905 48.3192C47.847 48.2978 47.8932 48.239 47.8932 48.1887C47.8932 48.1382 47.9363 48.0969 47.9889 48.0969C48.0416 48.0969 48.134 48.0388 48.1942 47.968C48.2545 47.897 48.3038 47.8608 48.3038 47.8873C48.3038 47.9138 48.3566 47.8734 48.4211 47.7975C48.4857 47.7216 48.5384 47.6782 48.5384 47.7012C48.5384 47.7243 48.6062 47.674 48.6889 47.5895C48.7716 47.5049 48.8681 47.454 48.9033 47.4762C48.9416 47.5003 48.9504 47.4888 48.9253 47.4474C48.9023 47.4094 48.913 47.3783 48.9491 47.3783C48.9852 47.3783 48.9959 47.3471 48.9728 47.3091C48.9488 47.2694 48.9566 47.2561 48.9912 47.278C49.0663 47.3254 49.3358 47.0944 49.2763 47.0335C49.2343 46.9907 38.3217 46.9682 34.7492 47.0035Z" fill="#212121"/>
<path fill-rule="evenodd" clip-rule="evenodd" d="M20.3948 8.30305C20.3544 8.34991 20.3214 8.41833 20.3214 8.45516C20.3214 8.49214 20.2158 8.62583 20.0868 8.75249C19.9577 8.87915 19.8521 8.99817 19.8521 9.01718C19.8521 9.0362 19.7465 9.16285 19.6175 9.29864C19.4884 9.43443 19.3828 9.57187 19.3828 9.60406C19.3828 9.63625 19.3092 9.73401 19.2193 9.82144C19.1292 9.90873 18.9911 10.0745 18.912 10.1897C18.7683 10.3996 18.5964 10.6169 18.4589 10.7624C18.4185 10.8051 18.3855 10.8709 18.3855 10.9088C18.3855 10.9467 18.28 11.0811 18.1509 11.2078C18.0218 11.3344 17.9162 11.4535 17.9162 11.4725C17.9162 11.4915 17.8106 11.6182 17.6816 11.7539C17.5525 11.8897 17.4469 12.0245 17.4469 12.0534C17.4469 12.0823 17.3413 12.217 17.2123 12.3528C17.0832 12.4886 16.9776 12.6233 16.9776 12.6522C16.9776 12.6811 16.872 12.8159 16.743 12.9516C16.6139 13.0874 16.5083 13.2231 16.5083 13.2532C16.5083 13.2831 16.4159 13.4021 16.303 13.5174C16.1901 13.6327 16.0977 13.7498 16.0977 13.7776C16.0977 13.8055 15.9921 13.9393 15.863 14.0751C15.734 14.2109 15.6284 14.3456 15.6284 14.3745C15.6284 14.4034 15.5228 14.5382 15.3937 14.6739C15.2647 14.8097 15.1591 14.9434 15.1591 14.9711C15.1591 14.9988 15.0403 15.1497 14.8951 15.3066C14.7499 15.4635 14.6311 15.6152 14.6311 15.6436C14.6311 15.6719 14.5453 15.7836 14.4404 15.8919C14.1006 16.2422 14.1031 16.213 14.1031 19.8804C14.1031 22.6086 14.1177 23.2447 14.1797 23.2447C14.2518 23.2447 14.6216 23.515 17.5736 25.7249C19.2127 26.9519 19.072 26.7949 19.3221 27.6762C19.3922 27.9233 19.4723 28.1927 19.5001 28.2751C19.528 28.3574 19.609 28.6269 19.6799 28.8739C19.7509 29.121 19.8482 29.4443 19.8961 29.5926C19.9441 29.7408 20.0045 29.9429 20.0302 30.0417C20.056 30.1405 20.1295 30.3965 20.1935 30.6106C20.2575 30.8247 20.5372 31.767 20.8148 32.7045C21.0926 33.6422 21.3548 34.4292 21.3976 34.4537C21.4406 34.4781 21.6823 34.6496 21.9348 34.8345C22.1874 35.0195 22.5546 35.2818 22.751 35.4176C23.561 35.9775 23.6602 36.6113 23.002 37.021C22.58 37.2836 22.3705 37.1827 20.4681 35.7997C19.9168 35.3989 19.9536 35.4639 19.6137 34.2936C19.5849 34.1947 19.5113 33.9522 19.45 33.7546C19.3887 33.557 19.2806 33.1932 19.2101 32.9461C19.1394 32.6991 19.0584 32.4296 19.0304 32.3473C19.0022 32.2649 18.7779 31.5104 18.5316 30.6705C18.2854 29.8306 17.9924 28.847 17.8805 28.4847L17.6769 27.8259L17.3419 27.5807C17.1577 27.4458 16.6374 27.0573 16.1857 26.7173C15.734 26.3775 15.1664 25.9509 14.9244 25.7695C14.0779 25.1347 13.8386 24.9509 13.7616 24.8766C13.6442 24.7633 13.4578 24.872 13.4578 25.0537C13.4578 25.0982 13.405 25.1735 13.3405 25.2209C13.276 25.2684 13.2232 25.3492 13.2232 25.4006C13.2232 25.4519 13.1704 25.5328 13.1059 25.5802C13.0413 25.6277 12.9885 25.7086 12.9885 25.7599C12.9885 25.8113 12.9357 25.8921 12.8712 25.9396C12.8067 25.987 12.7539 26.0679 12.7539 26.1192C12.7539 26.1706 12.7011 26.2514 12.6366 26.2989C12.572 26.3463 12.5192 26.4197 12.5192 26.4618C12.5192 26.504 12.4928 26.5384 12.4606 26.5384C12.4283 26.5384 12.4019 26.5788 12.4019 26.6282C12.4019 26.6776 12.3755 26.7181 12.3432 26.7181C12.311 26.7181 12.2846 26.7462 12.2846 26.7805C12.2846 26.8148 12.2318 26.9007 12.1673 26.9714C12.1027 27.042 12.0499 27.1353 12.0499 27.1784C12.0499 27.2217 12.0268 27.257 11.9985 27.257C11.97 27.257 11.914 27.3379 11.8739 27.4367C11.8339 27.5355 11.7811 27.6163 11.7566 27.6163C11.7321 27.6163 11.6793 27.6972 11.6393 27.796C11.5992 27.8948 11.545 27.9757 11.5187 27.9757C11.4926 27.9757 11.4554 28.0264 11.4362 28.0882C11.417 28.1502 11.3492 28.2622 11.2855 28.3371C11.222 28.4118 11.17 28.5169 11.17 28.5705C11.17 28.6241 11.1172 28.7067 11.0527 28.7542C10.9881 28.8016 10.9353 28.875 10.9353 28.9171C10.9353 28.9593 10.9089 28.9937 10.8767 28.9937C10.8444 28.9937 10.818 29.0341 10.818 29.0835C10.818 29.1329 10.7916 29.1734 10.7593 29.1734C10.7271 29.1734 10.7007 29.2138 10.7007 29.2632C10.7007 29.3126 10.6787 29.353 10.652 29.353C10.6251 29.353 10.5658 29.4271 10.52 29.5177C10.4741 29.6083 10.3905 29.7346 10.334 29.7984C10.2776 29.8623 10.2314 29.9499 10.2314 29.993C10.2314 30.0363 10.2094 30.0716 10.1827 30.0716C10.1558 30.0716 10.0964 30.1458 10.0507 30.2363C10.0048 30.3269 9.92119 30.4533 9.86473 30.517C9.80826 30.581 9.76207 30.6685 9.76207 30.7117C9.76207 30.7549 9.73743 30.7903 9.70736 30.7903C9.6773 30.7903 9.63594 30.844 9.61555 30.9097C9.59517 30.9753 9.54237 31.0659 9.49837 31.1108C9.36917 31.2427 8.64747 32.3873 8.64747 32.4602C8.64747 32.4968 8.62547 32.5269 8.59878 32.5269C8.57194 32.5269 8.51254 32.601 8.46678 32.6916C8.42088 32.7822 8.33729 32.9086 8.28082 32.9723C8.22436 33.0363 8.17816 33.1114 8.17816 33.1396C8.17816 33.1677 8.12537 33.2486 8.06084 33.3192C7.99631 33.3899 7.94351 33.4832 7.94351 33.5263C7.94351 33.5695 7.92371 33.605 7.89951 33.6052C7.87531 33.6053 7.76312 33.7534 7.65019 33.9342C7.53727 34.1151 7.42507 34.2632 7.40088 34.2633C7.37668 34.2635 7.35688 34.3115 7.35688 34.3702C7.35688 34.4287 7.30408 34.5156 7.23955 34.563C7.17502 34.6105 7.12223 34.6874 7.12223 34.7339C7.12223 34.7804 7.07588 34.862 7.01912 34.9153C6.96251 34.9686 6.87877 35.0863 6.83331 35.1769C6.7877 35.2674 6.72845 35.3415 6.70161 35.3415C6.67492 35.3415 6.65292 35.3769 6.65292 35.4201C6.65292 35.4633 6.60672 35.5508 6.55026 35.6148C6.4938 35.6786 6.3948 35.8337 6.33027 35.9594C6.26574 36.0852 6.16675 36.2389 6.11029 36.3012C6.05382 36.3635 6.00763 36.45 6.00763 36.4936C6.00763 36.5372 5.95483 36.6116 5.8903 36.659C5.82577 36.7065 5.77297 36.7873 5.77297 36.8387C5.77297 36.89 5.72018 36.9709 5.65565 37.0183C5.59112 37.0658 5.53832 37.1466 5.53832 37.198C5.53832 37.2493 5.48552 37.3302 5.42099 37.3776C5.35647 37.4251 5.30367 37.5059 5.30367 37.5573C5.30367 37.6087 5.25087 37.6895 5.18634 37.737C5.12181 37.7844 5.06902 37.8653 5.06902 37.9166C5.06902 37.968 5.01622 38.0488 4.95169 38.0963C4.88716 38.1437 4.83436 38.2246 4.83436 38.2759C4.83436 38.3273 4.78157 38.4081 4.71704 38.4556C4.59414 38.546 4.55762 38.6951 4.65837 38.6951C4.69064 38.6951 4.71704 38.749 4.71704 38.8149C4.71704 38.8808 4.74344 38.9347 4.7757 38.9347C4.80797 38.9347 4.83436 38.9886 4.83436 39.0544C4.83436 39.1203 4.86076 39.1742 4.89303 39.1742C4.92529 39.1742 4.95169 39.2259 4.95169 39.289C4.95169 39.3521 4.97149 39.4127 4.99569 39.4238C5.05083 39.4488 5.24134 39.7677 5.28475 39.9078C5.30264 39.9654 5.34063 40.0126 5.36922 40.0126C5.39768 40.0126 5.42099 40.0665 5.42099 40.1324C5.42099 40.1982 5.44739 40.2521 5.47966 40.2521C5.51192 40.2521 5.53832 40.306 5.53832 40.3719C5.53832 40.4378 5.55973 40.4917 5.58598 40.4917C5.61224 40.4917 5.67002 40.586 5.71431 40.7013C5.7586 40.8166 5.81638 40.9109 5.84264 40.9109C5.86889 40.9109 5.8903 40.9513 5.8903 41.0007C5.8903 41.0501 5.9167 41.0905 5.94896 41.0905C5.98123 41.0905 6.00763 41.131 6.00763 41.1804C6.00763 41.2298 6.03402 41.2702 6.06629 41.2702C6.09855 41.2702 6.12495 41.3241 6.12495 41.39C6.12495 41.4558 6.15135 41.5097 6.18362 41.5097C6.21588 41.5097 6.24228 41.551 6.24228 41.6015C6.24228 41.7165 6.53251 42.3111 6.60174 42.3381C6.6299 42.3492 6.65292 42.4098 6.65292 42.4728C6.65292 42.536 6.67932 42.5877 6.71158 42.5877C6.74385 42.5877 6.77025 42.6393 6.77025 42.7025C6.77025 42.7655 6.79005 42.8262 6.81424 42.8372C6.83844 42.8482 6.92424 42.9919 7.00475 43.1566C7.08541 43.3213 7.19761 43.5082 7.25407 43.572C7.31068 43.636 7.35688 43.7235 7.35688 43.7667C7.35688 43.8099 7.38328 43.8453 7.41554 43.8453C7.44781 43.8453 7.4742 43.8991 7.4742 43.965C7.4742 44.0309 7.5006 44.0848 7.53287 44.0848C7.56513 44.0848 7.59153 44.1387 7.59153 44.2046C7.59153 44.2704 7.61793 44.3243 7.65019 44.3243C7.68246 44.3243 7.70886 44.3782 7.70886 44.4441C7.70886 44.51 7.73526 44.5639 7.76752 44.5639C7.79978 44.5639 7.82618 44.6055 7.82618 44.6562C7.82618 44.707 7.87898 44.8064 7.94351 44.8771C8.00804 44.9477 8.06084 45.041 8.06084 45.0841C8.06084 45.1274 8.08723 45.1627 8.1195 45.1627C8.15176 45.1627 8.17816 45.2166 8.17816 45.2825C8.17816 45.3484 8.20456 45.4023 8.23682 45.4023C8.26909 45.4023 8.29549 45.4562 8.29549 45.522C8.29549 45.5879 8.3169 45.6418 8.34315 45.6418C8.3694 45.6418 8.42719 45.7361 8.47148 45.8514C8.51577 45.9667 8.56842 46.061 8.58851 46.061C8.63221 46.061 8.82346 46.4914 8.82346 46.5901C8.82346 46.6284 8.84985 46.6599 8.88212 46.6599C8.91438 46.6599 8.94078 46.7115 8.94078 46.7747C8.94078 46.8377 8.96058 46.8983 8.98478 46.9094C9.00898 46.9204 9.09228 47.0573 9.17001 47.2138C9.24759 47.3702 9.33339 47.4983 9.36066 47.4983C9.3878 47.4983 9.41009 47.5521 9.41009 47.618C9.41009 47.6839 9.43649 47.7378 9.46875 47.7378C9.50102 47.7378 9.52741 47.7917 9.52741 47.8576C9.52741 47.9234 9.55381 47.9773 9.58608 47.9773C9.61834 47.9773 9.64474 48.0312 9.64474 48.0971C9.64474 48.163 9.66469 48.2169 9.68903 48.2169C9.71352 48.2169 9.77145 48.3045 9.8178 48.4115C9.86429 48.5185 9.94979 48.6584 10.0082 48.7222C10.0664 48.7861 10.114 48.8737 10.114 48.9168C10.114 48.9601 10.1404 48.9954 10.1727 48.9954C10.205 48.9954 10.2314 49.0493 10.2314 49.1152C10.2314 49.181 10.2578 49.2349 10.29 49.2349C10.3223 49.2349 10.3487 49.2888 10.3487 49.3547C10.3487 49.4206 10.3751 49.4745 10.4074 49.4745C10.4396 49.4745 10.466 49.5284 10.466 49.5942C10.466 49.6601 10.4924 49.714 10.5247 49.714C10.557 49.714 10.5833 49.7556 10.5833 49.8064C10.5833 49.8571 10.6361 49.9565 10.7007 50.0272C10.7652 50.0979 10.818 50.1911 10.818 50.2343C10.818 50.2775 10.8444 50.3129 10.8767 50.3129C10.9089 50.3129 10.9353 50.3668 10.9353 50.4326C10.9353 50.4985 10.9617 50.5524 10.994 50.5524C11.0263 50.5524 11.0527 50.604 11.0527 50.6672C11.0527 50.7303 11.0725 50.7909 11.0967 50.802C11.1209 50.8129 11.2058 50.9659 11.2853 51.142C11.3649 51.318 11.4765 51.517 11.5334 51.5839C11.5903 51.6508 11.6227 51.7291 11.6053 51.7579C11.588 51.7865 11.5994 51.81 11.6309 51.81C11.6625 51.81 11.6969 51.7835 11.7078 51.751C11.7257 51.6968 12.6652 51.2131 15.3191 49.8916C15.8749 49.6149 16.3452 49.3472 16.3643 49.2968C16.3948 49.2164 16.5223 48.4643 16.7455 47.0491C16.8684 46.2699 16.9332 46.0317 17.0744 45.8384C17.4553 45.3175 18.3075 45.5256 18.463 46.1773C18.4919 46.2989 18.3134 47.5523 18.0337 49.19C17.8307 50.379 17.7752 50.4973 17.3152 50.7193C16.2798 51.2195 12.9885 52.8954 12.9885 52.9225C12.9885 52.977 13.1512 53.1275 13.21 53.1275C13.2396 53.1275 13.4828 53.2368 13.7504 53.3702C14.0179 53.5037 14.3124 53.6283 14.4047 53.6471C14.4969 53.666 14.5724 53.7049 14.5724 53.7338C14.5724 53.7627 14.6252 53.7862 14.6898 53.7862C14.7543 53.7862 14.8071 53.8132 14.8071 53.8461C14.8071 53.879 14.8599 53.906 14.9244 53.906C14.9889 53.906 15.0417 53.9329 15.0417 53.9659C15.0417 53.9988 15.0945 54.0257 15.1591 54.0257C15.2236 54.0257 15.2764 54.0527 15.2764 54.0856C15.2764 54.1186 15.3292 54.1455 15.3937 54.1455C15.4583 54.1455 15.5111 54.1725 15.5111 54.2054C15.5111 54.2383 15.5638 54.2653 15.6284 54.2653C15.6929 54.2653 15.7457 54.2922 15.7457 54.3252C15.7457 54.3581 15.7963 54.3851 15.8582 54.3851C15.9199 54.3851 15.9793 54.4056 15.9902 54.4307C16.0009 54.4559 16.3001 54.6204 16.655 54.7966C17.0099 54.9727 17.4018 55.1678 17.5258 55.23C17.6499 55.2923 17.7885 55.3432 17.8338 55.3432C17.8791 55.3432 17.9162 55.3702 17.9162 55.4031C17.9162 55.436 17.969 55.463 18.0336 55.463C18.0981 55.463 18.1509 55.4899 18.1509 55.5229C18.1509 55.5558 18.2015 55.5828 18.2634 55.5828C18.3251 55.5828 18.3845 55.6043 18.3954 55.6308C18.4222 55.6968 19.3017 56.1217 19.4114 56.1217C19.4603 56.1217 19.5001 56.1487 19.5001 56.1816C19.5001 56.2146 19.5529 56.2415 19.6175 56.2415C19.682 56.2415 19.7348 56.2684 19.7348 56.3014C19.7348 56.3343 19.7876 56.3613 19.8521 56.3613C19.9167 56.3613 19.9694 56.3882 19.9694 56.4212C19.9694 56.4541 20.0222 56.481 20.0868 56.481C20.1513 56.481 20.2041 56.508 20.2041 56.5409C20.2041 56.5739 20.2569 56.6008 20.3214 56.6008C20.386 56.6008 20.4388 56.6278 20.4388 56.6607C20.4388 56.6936 20.4776 56.7206 20.525 56.7206C20.5724 56.7206 20.7052 56.7745 20.8201 56.8404C20.9349 56.9062 21.0678 56.9601 21.1151 56.9601C21.1625 56.9601 21.2014 56.9871 21.2014 57.02C21.2014 57.0529 21.2542 57.0799 21.3187 57.0799C21.3832 57.0799 21.436 57.1068 21.436 57.1398C21.436 57.1727 21.4888 57.1997 21.5534 57.1997C21.6179 57.1997 21.6707 57.2266 21.6707 57.2595C21.6707 57.2925 21.7235 57.3194 21.788 57.3194C21.8525 57.3194 21.9053 57.3464 21.9053 57.3793C21.9053 57.4123 21.9581 57.4392 22.0227 57.4392C22.0872 57.4392 22.14 57.4662 22.14 57.4991C22.14 57.532 22.1928 57.559 22.2573 57.559C22.3218 57.559 22.3746 57.5859 22.3746 57.6189C22.3746 57.6518 22.4274 57.6787 22.492 57.6787C22.5565 57.6787 22.6093 57.7057 22.6093 57.7386C22.6093 57.7716 22.6621 57.7985 22.7266 57.7985C22.7911 57.7985 22.8439 57.8255 22.8439 57.8584C22.8439 57.8913 22.8967 57.9183 22.9613 57.9183C23.0258 57.9183 23.0786 57.9452 23.0786 57.9782C23.0786 58.0111 23.1314 58.0381 23.1959 58.0381C23.2604 58.0381 23.3132 58.065 23.3132 58.0979C23.3132 58.1309 23.3477 58.1578 23.3899 58.1578C23.4322 58.1578 23.6462 58.2501 23.8656 58.3628C24.085 58.4754 24.3805 58.6026 24.5221 58.6453C24.6638 58.688 24.7798 58.744 24.7798 58.7697C24.7798 58.7955 24.8326 58.8166 24.8972 58.8166C24.9617 58.8166 25.0145 58.8435 25.0145 58.8764C25.0145 58.9094 25.0673 58.9363 25.1318 58.9363C25.1963 58.9363 25.2491 58.9633 25.2491 58.9962C25.2491 59.0292 25.3019 59.0561 25.3665 59.0561C25.431 59.0561 25.4838 59.0831 25.4838 59.116C25.4838 59.1489 25.5366 59.1759 25.6011 59.1759C25.6656 59.1759 25.7184 59.1977 25.7184 59.2245C25.7184 59.2513 25.8108 59.3103 25.9238 59.3555C26.0367 59.4007 26.1291 59.4597 26.1291 59.4865C26.1291 59.5133 26.1819 59.5352 26.2464 59.5352C26.3109 59.5352 26.3637 59.5621 26.3637 59.5951C26.3637 59.628 26.4165 59.655 26.4811 59.655C26.5456 59.655 26.5984 59.6819 26.5984 59.7148C26.5984 59.7478 26.6512 59.7747 26.7157 59.7747C26.7802 59.7747 26.833 59.8017 26.833 59.8346C26.833 59.8676 26.8701 59.8945 26.9155 59.8945C26.9608 59.8945 27.0994 59.947 27.2234 60.0114C27.6458 60.2303 27.9695 60.3736 28.0418 60.3736C28.0814 60.3736 28.1226 60.3951 28.1334 60.4216C28.1612 60.4901 29.5043 61.1521 29.6153 61.1521C29.666 61.1521 29.7075 61.179 29.7075 61.212C29.7075 61.2449 29.7603 61.2719 29.8249 61.2719C29.8894 61.2719 29.9422 61.2988 29.9422 61.3317C29.9422 61.3647 29.995 61.3916 30.0595 61.3916C30.124 61.3916 30.1768 61.4186 30.1768 61.4515C30.1768 61.4845 30.2296 61.5114 30.2942 61.5114C30.3587 61.5114 30.4115 61.5383 30.4115 61.5713C30.4115 61.6042 30.5067 61.6312 30.6231 61.6312C30.7843 61.6312 30.8268 61.6104 30.8019 61.5439C30.7739 61.4695 30.9768 60.034 31.3206 57.8734C31.3692 57.5687 31.4494 57.0567 31.499 56.7356C31.5485 56.4144 31.6418 55.8148 31.706 55.4031C31.7703 54.9914 31.8496 54.4794 31.8822 54.2653C31.9147 54.0512 31.9656 53.7278 31.9954 53.5467C32.0252 53.3655 32.078 53.0287 32.1127 52.7981C32.1475 52.5675 32.1994 52.2307 32.228 52.0495C32.2884 51.666 32.3738 51.1143 32.464 50.5225C32.4992 50.2919 32.552 49.955 32.5814 49.7739C32.6416 49.4047 32.6891 49.1033 32.8818 47.8734L33.0154 47.021L34.7492 47.0042L36.4831 46.9874L34.7379 46.9734C33.778 46.9656 32.9924 46.9391 32.9919 46.9144C32.9912 46.8696 32.5333 45.0488 32.2503 43.965C32.1686 43.6521 32.0796 43.3018 32.0524 43.1865C32.0253 43.0712 31.9732 42.8691 31.9367 42.7374C31.9002 42.6056 31.8477 42.4035 31.8201 42.2882C31.7926 42.173 31.7131 41.8631 31.6434 41.5996C31.5737 41.3361 31.4945 41.0262 31.4674 40.9109C31.4403 40.7956 31.3652 40.4992 31.3005 40.2521C31.1121 39.5319 30.9048 38.7263 30.6763 37.8268C30.5593 37.3657 30.397 36.7348 30.3157 36.4249C30.2345 36.115 30.1808 35.8118 30.1963 35.7512C30.2117 35.6907 30.2035 35.6279 30.178 35.6118C30.1403 35.588 31.0012 33.4637 31.4704 32.4227C31.5333 32.2832 31.5847 32.1558 31.5847 32.1398C31.5847 32.1238 31.6639 31.9342 31.7607 31.7185C31.8575 31.5028 31.9367 31.3143 31.9367 31.2996C31.9367 31.2849 31.9999 31.1306 32.0771 30.9567C32.1542 30.7828 32.3933 30.2236 32.6083 29.7138C32.8233 29.2042 33.0262 28.77 33.0594 28.7491C33.0971 28.7253 33.0893 28.6989 33.0389 28.6792C32.9943 28.6618 32.802 28.3818 32.6115 28.0571C32.4211 27.7324 32.1649 27.3132 32.0423 27.1256C31.9197 26.938 31.8194 26.7693 31.8194 26.7506C31.8194 26.7318 31.7037 26.5351 31.5623 26.3131C31.4211 26.0912 31.0478 25.4784 30.7331 24.9515C30.4184 24.4245 30.0368 23.7912 29.885 23.5441C29.7332 23.2971 29.4991 22.9131 29.3649 22.6908C29.2307 22.4685 29.0188 22.1181 28.8942 21.9123C27.8582 20.2023 27.0935 18.9316 27.0045 18.7723C26.946 18.6675 26.8075 18.4385 26.6966 18.2633C26.5859 18.0882 26.3253 17.6619 26.1176 17.3161C25.5285 16.3349 24.7864 15.1059 24.5447 14.7111C24.3082 14.3245 23.5467 13.0627 22.6973 11.6493C22.4069 11.1662 22.0608 10.5929 21.9282 10.3755C20.9141 8.71297 20.7321 8.39887 20.7321 8.31203C20.7321 8.18912 20.4984 8.18283 20.3948 8.30305ZM14.0213 23.8786C14.0016 23.9309 14.0113 24.0184 14.0426 24.0732C14.0879 24.1526 14.0999 24.1331 14.1014 23.9783C14.1033 23.7653 14.0764 23.7319 14.0213 23.8786ZM43.6852 26.1222C43.6806 26.1851 43.7015 26.2522 43.7317 26.2713C43.7619 26.2903 43.7867 26.252 43.7867 26.1861C43.7867 26.03 43.6963 25.9729 43.6852 26.1222ZM44.1387 31.2358C44.1387 31.3692 44.2305 31.3957 44.2401 31.2652C44.2448 31.2017 44.2239 31.1496 44.1936 31.1496C44.1634 31.1496 44.1387 31.1884 44.1387 31.2358ZM44.3733 33.8109C44.3733 33.8583 44.3997 33.9139 44.432 33.9342C44.4642 33.9546 44.4906 33.9158 44.4906 33.848C44.4906 33.7802 44.4642 33.7246 44.432 33.7246C44.3997 33.7246 44.3733 33.7634 44.3733 33.8109ZM43.2715 51.8113C43.2028 51.9236 43.2061 51.9269 43.3161 51.8569C43.3813 51.8152 43.4347 51.7607 43.4347 51.7357C43.4347 51.6492 43.3454 51.6907 43.2715 51.8113ZM40.7509 53.7597C40.6645 53.8555 40.6573 53.906 40.7299 53.906C40.7799 53.906 40.8736 53.7257 40.8402 53.6938C40.8314 53.6854 40.7912 53.7151 40.7509 53.7597Z" fill="#EEEEEE"/>
</g>
<defs>
<filter id="filter0_d_1223_7598" x="0.600098" y="0.213333" width="52.8" height="61.4178" filterUnits="userSpaceOnUse" color-interpolation-filters="sRGB">
<feFlood flood-opacity="0" result="BackgroundImageFix"/>
<feColorMatrix in="SourceAlpha" type="matrix" values="0 0 0 0 0 0 0 0 0 0 0 0 0 0 0 0 0 0 127 0" result="hardAlpha"/>
<feOffset dy="-4"/>
<feGaussianBlur stdDeviation="2"/>
<feComposite in2="hardAlpha" operator="out"/>
<feColorMatrix type="matrix" values="0 0 0 0 0 0 0 0 0 0 0 0 0 0 0 0 0 0 0.25 0"/>
<feBlend mode="normal" in2="BackgroundImageFix" result="effect1_dropShadow_1223_7598"/>
<feBlend mode="normal" in="SourceGraphic" in2="effect1_dropShadow_1223_7598" result="shape"/>
</filter>
</defs>
</svg>
