<svg id="svg" version="1.1" xmlns="http://www.w3.org/2000/svg" xmlns:xlink="http://www.w3.org/1999/xlink" width="400" height="226.1168384879725" viewBox="0, 0, 400,226.1168384879725"><g id="svgg"><path id="path0" d="M0.112 113.122 C 0.112 175.402,0.138 200.880,0.170 169.740 C 0.201 138.600,0.201 87.644,0.170 56.505 C 0.138 25.365,0.112 50.843,0.112 113.122 M7.617 7.391 C 7.534 7.474,7.466 55.070,7.466 113.160 L 7.466 218.778 200.000 218.778 L 392.534 218.778 392.478 113.066 L 392.421 7.353 200.094 7.296 C 94.315 7.265,7.700 7.307,7.617 7.391 M388.235 113.122 L 388.235 214.480 200.000 214.480 L 11.765 214.480 11.765 113.122 L 11.765 11.765 200.000 11.765 L 388.235 11.765 388.235 113.122 M364.992 16.865 C 357.124 18.984,354.581 28.701,360.435 34.284 C 366.301 39.879,376.125 36.893,377.800 29.005 C 379.382 21.553,372.346 14.884,364.992 16.865 M371.328 18.834 C 378.745 22.255,377.924 32.944,370.060 35.333 C 361.489 37.936,355.041 27.221,361.278 20.740 C 363.805 18.115,368.032 17.313,371.328 18.834 M362.896 26.904 L 362.896 32.805 364.140 32.805 L 365.385 32.805 365.385 30.317 L 365.385 27.828 365.940 27.828 C 367.032 27.828,367.675 28.377,369.167 30.583 L 370.670 32.805 372.108 32.805 C 373.522 32.805,373.541 32.797,373.277 32.304 C 372.570 30.982,371.358 29.217,370.642 28.466 L 369.848 27.633 370.633 27.306 C 372.804 26.398,373.251 23.518,371.484 21.823 L 370.786 21.154 366.841 21.079 L 362.896 21.003 362.896 26.904 M369.683 23.529 C 370.916 24.762,369.953 25.766,367.364 25.947 L 365.385 26.085 365.385 24.581 L 365.385 23.077 367.308 23.077 C 368.929 23.077,369.302 23.148,369.683 23.529 M62.659 26.204 C 50.676 33.822,38.443 48.292,33.702 60.456 C 27.235 77.051,29.858 89.097,45.442 114.367 C 52.960 126.555,55.413 131.063,57.772 137.019 C 65.442 156.383,60.876 169.678,40.769 186.528 C 38.994 188.016,37.570 189.348,37.605 189.488 C 37.723 189.956,45.810 200.428,46.064 200.440 C 47.381 200.506,60.273 188.460,64.331 183.371 C 76.948 167.549,79.233 150.188,71.164 131.448 C 69.024 126.479,66.193 121.521,59.278 110.633 C 53.683 101.825,52.000 99.012,50.321 95.665 C 42.473 80.015,43.780 66.533,54.442 53.167 C 57.317 49.563,65.136 42.105,68.241 40.006 L 69.118 39.413 79.695 39.308 L 90.271 39.203 90.271 106.103 C 90.271 142.897,90.339 179.128,90.422 186.614 L 90.572 200.226 97.662 200.226 L 104.751 200.226 104.751 119.683 L 104.751 39.140 113.210 39.140 L 121.669 39.140 124.619 45.645 C 126.241 49.222,129.040 55.509,130.839 59.615 C 133.949 66.713,139.918 80.173,140.923 82.353 L 141.393 83.371 141.398 141.799 L 141.403 200.226 148.529 200.226 L 155.656 200.226 155.656 141.660 L 155.656 83.094 157.021 80.207 C 158.504 77.068,162.242 68.802,168.300 55.259 C 175.062 40.145,175.388 39.480,176.027 39.480 L 176.584 39.480 176.641 119.854 L 176.697 200.228 202.206 200.171 L 227.715 200.113 233.311 166.403 C 236.388 147.862,238.964 132.361,239.034 131.957 L 239.161 131.222 248.766 131.222 C 254.049 131.222,258.371 131.267,258.371 131.322 C 258.371 131.378,260.001 141.024,261.992 152.759 C 263.984 164.494,266.605 179.974,267.818 187.160 L 270.023 200.226 282.618 200.226 L 295.213 200.226 295.333 199.604 C 295.399 199.262,295.562 198.066,295.694 196.946 C 295.826 195.826,297.456 182.896,299.315 168.213 C 304.409 127.989,311.764 69.325,311.772 68.854 C 311.791 67.698,312.439 70.273,315.714 84.502 C 317.662 92.964,319.666 101.592,320.167 103.676 L 321.079 107.466 325.315 107.466 L 329.551 107.466 333.922 88.518 C 338.464 68.827,338.562 68.435,338.762 69.005 C 338.827 69.191,340.320 80.848,342.079 94.910 C 344.956 117.899,348.561 146.559,353.576 186.312 L 355.317 200.113 362.387 200.173 C 366.276 200.206,369.457 200.187,369.457 200.132 C 369.457 200.076,368.748 193.941,367.880 186.497 C 367.013 179.054,365.642 167.262,364.833 160.294 C 361.083 127.988,357.071 93.627,355.218 77.941 C 352.592 55.716,349.095 25.880,349.095 25.703 C 349.095 25.628,346.356 25.566,343.009 25.566 L 336.922 25.566 336.091 29.016 C 334.985 33.607,327.371 65.446,326.298 69.968 C 325.755 72.258,325.395 73.392,325.291 73.136 C 325.203 72.917,323.647 66.629,321.835 59.163 C 320.022 51.697,317.444 41.109,316.105 35.633 L 313.671 25.679 307.583 25.679 L 301.496 25.679 299.169 45.475 C 297.178 62.423,293.167 96.916,290.040 123.982 C 288.904 133.816,285.361 164.290,283.990 176.018 L 282.919 185.181 282.309 185.251 C 281.776 185.313,281.684 185.228,281.573 184.573 C 280.231 176.644,260.167 55.691,258.950 48.190 C 258.011 42.404,256.786 35.023,256.227 31.787 C 255.668 28.552,255.209 25.829,255.207 25.735 C 255.205 25.642,252.350 25.566,248.863 25.566 L 242.523 25.566 242.339 26.075 C 242.238 26.355,241.419 31.063,240.518 36.538 C 239.617 42.014,233.696 77.633,227.359 115.693 C 221.022 153.753,215.837 184.983,215.837 185.094 C 215.837 185.208,210.475 185.294,203.394 185.294 L 190.951 185.294 190.894 105.486 L 190.837 25.679 178.615 25.620 L 166.392 25.562 161.048 37.837 C 150.783 61.417,148.528 66.491,148.385 66.334 C 148.306 66.248,147.037 63.428,145.565 60.068 C 144.093 56.708,140.069 47.596,136.622 39.819 L 130.355 25.679 97.010 25.621 L 63.666 25.564 62.659 26.204 M252.473 95.483 C 254.349 106.740,255.883 116.230,255.883 116.572 L 255.882 117.195 248.862 117.195 C 243.162 117.195,241.819 117.137,241.723 116.888 C 241.659 116.719,243.189 107.161,245.124 95.647 C 247.059 84.133,248.646 74.625,248.649 74.517 C 248.693 73.264,249.591 78.184,252.473 95.483 " stroke="none" fill="#fbfbfb" fill-rule="evenodd"></path><path id="path1" d="M0.226 113.122 L 0.226 226.244 200.113 226.244 L 400.000 226.244 400.000 113.122 L 400.000 0.000 200.113 0.000 L 0.226 0.000 0.226 113.122 M392.478 113.066 L 392.534 218.778 200.000 218.778 L 7.466 218.778 7.466 113.160 C 7.466 55.070,7.534 7.474,7.617 7.391 C 7.700 7.307,94.315 7.265,200.094 7.296 L 392.421 7.353 392.478 113.066 M11.765 113.122 L 11.765 214.480 200.000 214.480 L 388.235 214.480 388.235 113.122 L 388.235 11.765 200.000 11.765 L 11.765 11.765 11.765 113.122 M370.116 16.865 C 375.518 18.138,378.954 23.567,377.800 29.005 C 376.125 36.893,366.301 39.879,360.435 34.284 C 352.793 26.994,359.777 14.428,370.116 16.865 M364.920 18.415 C 355.812 21.914,357.290 34.868,366.889 35.673 C 375.048 36.357,379.664 26.467,373.884 20.687 C 371.642 18.445,367.545 17.407,364.920 18.415 M371.484 21.823 C 373.251 23.518,372.804 26.398,370.633 27.306 L 369.848 27.633 370.642 28.466 C 371.358 29.217,372.570 30.982,373.277 32.304 C 373.541 32.797,373.522 32.805,372.108 32.805 L 370.670 32.805 369.167 30.583 C 367.675 28.377,367.032 27.828,365.940 27.828 L 365.385 27.828 365.385 30.317 L 365.385 32.805 364.140 32.805 L 362.896 32.805 362.896 26.904 L 362.896 21.003 366.841 21.079 L 370.786 21.154 371.484 21.823 M365.385 24.581 L 365.385 26.085 367.364 25.947 C 371.367 25.667,371.316 23.077,367.308 23.077 L 365.385 23.077 365.385 24.581 M136.622 39.819 C 140.069 47.596,144.093 56.708,145.565 60.068 C 147.037 63.428,148.306 66.248,148.385 66.334 C 148.528 66.491,150.783 61.417,161.048 37.837 L 166.392 25.562 178.615 25.620 L 190.837 25.679 190.894 105.486 L 190.951 185.294 203.394 185.294 C 210.475 185.294,215.837 185.208,215.837 185.094 C 215.837 184.983,221.022 153.753,227.359 115.693 C 233.696 77.633,239.617 42.014,240.518 36.538 C 241.419 31.063,242.238 26.355,242.339 26.075 L 242.523 25.566 248.863 25.566 C 252.350 25.566,255.205 25.642,255.207 25.735 C 255.209 25.829,255.668 28.552,256.227 31.787 C 256.786 35.023,258.011 42.404,258.950 48.190 C 260.167 55.691,280.231 176.644,281.573 184.573 C 281.684 185.228,281.776 185.313,282.309 185.251 L 282.919 185.181 283.990 176.018 C 285.361 164.290,288.904 133.816,290.040 123.982 C 293.167 96.916,297.178 62.423,299.169 45.475 L 301.496 25.679 307.583 25.679 L 313.671 25.679 316.105 35.633 C 317.444 41.109,320.022 51.697,321.835 59.163 C 323.647 66.629,325.203 72.917,325.291 73.136 C 325.395 73.392,325.755 72.258,326.298 69.968 C 327.371 65.446,334.985 33.607,336.091 29.016 L 336.922 25.566 343.009 25.566 C 346.356 25.566,349.095 25.628,349.095 25.703 C 349.095 25.880,352.592 55.716,355.218 77.941 C 357.071 93.627,361.083 127.988,364.833 160.294 C 365.642 167.262,367.013 179.054,367.880 186.497 C 368.748 193.941,369.457 200.076,369.457 200.132 C 369.457 200.187,366.276 200.206,362.387 200.173 L 355.317 200.113 353.576 186.312 C 348.561 146.559,344.956 117.899,342.079 94.910 C 340.320 80.848,338.827 69.191,338.762 69.005 C 338.562 68.435,338.464 68.827,333.922 88.518 L 329.551 107.466 325.315 107.466 L 321.079 107.466 320.167 103.676 C 319.666 101.592,317.662 92.964,315.714 84.502 C 312.439 70.273,311.791 67.698,311.772 68.854 C 311.764 69.325,304.409 127.989,299.315 168.213 C 297.456 182.896,295.826 195.826,295.694 196.946 C 295.562 198.066,295.399 199.262,295.333 199.604 L 295.213 200.226 282.618 200.226 L 270.023 200.226 267.818 187.160 C 266.605 179.974,263.984 164.494,261.992 152.759 C 260.001 141.024,258.371 131.378,258.371 131.322 C 258.371 131.267,254.049 131.222,248.766 131.222 L 239.161 131.222 239.034 131.957 C 238.964 132.361,236.388 147.862,233.311 166.403 L 227.715 200.113 202.206 200.171 L 176.697 200.228 176.641 119.854 L 176.584 39.480 176.027 39.480 C 175.388 39.480,175.062 40.145,168.300 55.259 C 162.242 68.802,158.504 77.068,157.021 80.207 L 155.656 83.094 155.656 141.660 L 155.656 200.226 148.529 200.226 L 141.403 200.226 141.398 141.799 L 141.393 83.371 140.923 82.353 C 139.918 80.173,133.949 66.713,130.839 59.615 C 129.040 55.509,126.241 49.222,124.619 45.645 L 121.669 39.140 113.210 39.140 L 104.751 39.140 104.751 119.683 L 104.751 200.226 97.662 200.226 L 90.572 200.226 90.422 186.614 C 90.339 179.128,90.271 142.897,90.271 106.103 L 90.271 39.203 79.695 39.308 L 69.118 39.413 68.241 40.006 C 65.136 42.105,57.317 49.563,54.442 53.167 C 43.780 66.533,42.473 80.015,50.321 95.665 C 52.000 99.012,53.683 101.825,59.278 110.633 C 66.193 121.521,69.024 126.479,71.164 131.448 C 79.233 150.188,76.948 167.549,64.331 183.371 C 60.273 188.460,47.381 200.506,46.064 200.440 C 45.810 200.428,37.723 189.956,37.605 189.488 C 37.570 189.348,38.994 188.016,40.769 186.528 C 60.876 169.678,65.442 156.383,57.772 137.019 C 55.413 131.063,52.960 126.555,45.442 114.367 C 35.975 99.015,32.773 92.045,31.215 83.394 C 28.174 66.506,36.578 47.976,54.063 33.012 C 56.892 30.592,61.507 26.936,62.659 26.204 L 63.666 25.564 97.010 25.621 L 130.355 25.679 136.622 39.819 M248.649 74.517 C 248.646 74.625,247.059 84.133,245.124 95.647 C 243.189 107.161,241.659 116.719,241.723 116.888 C 241.819 117.137,243.162 117.195,248.862 117.195 L 255.882 117.195 255.883 116.572 C 255.884 114.745,248.703 72.993,248.649 74.517 " stroke="none" fill="#e42c24" fill-rule="evenodd"></path></g></svg>