<svg width="25" height="21" viewBox="0 0 25 21" fill="none" xmlns="http://www.w3.org/2000/svg">
<path d="M21.775 5.79619V6.42119C21.775 12.7149 17 19.9274 8.2625 19.9274C5.68309 19.933 3.15846 19.1834 1 17.7712C1.37486 17.8221 1.75298 17.8451 2.13125 17.8399C4.26938 17.8458 6.34739 17.1326 8.03125 15.8149C7.03792 15.8003 6.07448 15.473 5.27785 14.8794C4.48122 14.2859 3.89194 13.4563 3.59375 12.5087C3.88963 12.5714 4.19129 12.6028 4.49375 12.6024C4.9161 12.6025 5.33654 12.5458 5.74375 12.4337C4.66786 12.2192 3.69995 11.6375 3.00562 10.7881C2.3113 9.93876 1.93372 8.87449 1.9375 7.77744V7.71495C2.59575 8.08265 3.33373 8.2843 4.0875 8.30244C3.08412 7.64217 2.37074 6.62368 2.09311 5.45507C1.81547 4.28647 1.99455 3.05595 2.59375 2.01494C3.78766 3.48338 5.27724 4.68411 6.96565 5.53908C8.65407 6.39406 10.5035 6.88413 12.3937 6.97745C12.3002 6.62271 12.256 6.25676 12.2625 5.88995C12.2273 4.92051 12.4917 3.96379 13.0198 3.15004C13.5479 2.3363 14.3139 1.70508 15.2136 1.34233C16.1133 0.979584 17.1029 0.902938 18.0478 1.12283C18.9926 1.34272 19.8467 1.84846 20.4937 2.5712C21.5574 2.35655 22.5776 1.96576 23.5125 1.41494C23.158 2.53455 22.4038 3.48451 21.3938 4.0837C22.3373 3.95369 23.2571 3.68846 24.125 3.2962C23.496 4.26222 22.7003 5.10872 21.775 5.79619Z" stroke="#fafffd" stroke-width="1.1" stroke-linecap="round" stroke-linejoin="round"/>
</svg>
