<svg width="694" height="376" viewBox="0 0 694 376" fill="none" xmlns="http://www.w3.org/2000/svg">
<path d="M55.37 73.18C56.02 73.15 56.57 72.9 57.02 72.43C57.47 71.96 57.7 71.4 57.7 70.75C57.7 71.4 57.92 71.96 58.37 72.43C58.82 72.9 59.37 73.15 60.02 73.18C59.37 73.21 58.82 73.46 58.37 73.93C58.1524 74.1516 57.9811 74.4142 57.8661 74.7026C57.7511 74.9911 57.6946 75.2995 57.7 75.61C57.7 74.96 57.48 74.4 57.02 73.93C56.57 73.46 56.02 73.21 55.37 73.18ZM57.7 65.98C58.96 65.92 60.03 65.43 60.91 64.51C61.79 63.59 62.23 62.5 62.23 61.23C62.23 62.5 62.67 63.59 63.55 64.51C64.43 65.43 65.5 65.91 66.77 65.98C65.94 66.02 65.18 66.25 64.48 66.69C63.79 67.12 63.24 67.7 62.83 68.42C62.43 69.14 62.23 69.91 62.23 70.75C62.23 69.48 61.79 68.38 60.91 67.46C60.03 66.53 58.96 66.04 57.7 65.98ZM61.02 76.75C61.97 76.71 62.78 76.34 63.44 75.65C64.1 74.96 64.43 74.14 64.43 73.18C64.43 74.14 64.76 74.96 65.42 75.65C66.08 76.34 66.88 76.71 67.83 76.75C66.88 76.79 66.08 77.16 65.42 77.85C64.76 78.54 64.43 79.36 64.43 80.32C64.43 79.36 64.1 78.54 63.44 77.85C62.8092 77.1796 61.9399 76.7845 61.02 76.75ZM67.83 72.01C68.78 71.97 69.58 71.6 70.24 70.91C70.9 70.22 71.22 69.4 71.22 68.43C71.22 69.39 71.55 70.21 72.21 70.9C72.87 71.59 73.68 71.96 74.63 72C73.68 72.04 72.87 72.41 72.21 73.1C71.55 73.79 71.22 74.61 71.22 75.57C71.22 74.61 70.89 73.79 70.24 73.1C69.58 72.42 68.78 72.05 67.83 72.01Z" fill="#0FA958"/>
<path d="M115.37 79.18C116.02 79.15 116.57 78.9 117.02 78.43C117.47 77.96 117.7 77.4 117.7 76.75C117.7 77.4 117.92 77.96 118.37 78.43C118.82 78.9 119.37 79.15 120.02 79.18C119.37 79.21 118.82 79.46 118.37 79.93C118.152 80.1516 117.981 80.4142 117.866 80.7026C117.751 80.9911 117.695 81.2995 117.7 81.61C117.7 80.96 117.48 80.4 117.02 79.93C116.57 79.46 116.02 79.21 115.37 79.18ZM117.7 71.98C118.96 71.92 120.03 71.43 120.91 70.51C121.79 69.59 122.23 68.5 122.23 67.23C122.23 68.5 122.67 69.59 123.55 70.51C124.43 71.43 125.5 71.91 126.77 71.98C125.94 72.02 125.18 72.25 124.48 72.69C123.79 73.12 123.24 73.7 122.83 74.42C122.43 75.14 122.23 75.91 122.23 76.75C122.23 75.48 121.79 74.38 120.91 73.46C120.03 72.53 118.96 72.04 117.7 71.98ZM121.02 82.75C121.97 82.71 122.78 82.34 123.44 81.65C124.1 80.96 124.43 80.14 124.43 79.18C124.43 80.14 124.76 80.96 125.42 81.65C126.08 82.34 126.88 82.71 127.83 82.75C126.88 82.79 126.08 83.16 125.42 83.85C124.76 84.54 124.43 85.36 124.43 86.32C124.43 85.36 124.1 84.54 123.44 83.85C122.809 83.1796 121.94 82.7845 121.02 82.75ZM127.83 78.01C128.78 77.97 129.58 77.6 130.24 76.91C130.9 76.22 131.22 75.4 131.22 74.43C131.22 75.39 131.55 76.21 132.21 76.9C132.87 77.59 133.68 77.96 134.63 78C133.68 78.04 132.87 78.41 132.21 79.1C131.55 79.79 131.22 80.61 131.22 81.57C131.22 80.61 130.89 79.79 130.24 79.1C129.58 78.42 128.78 78.05 127.83 78.01Z" fill="#0FA958"/>
<path d="M186.37 79.18C187.02 79.15 187.57 78.9 188.02 78.43C188.47 77.96 188.7 77.4 188.7 76.75C188.7 77.4 188.92 77.96 189.37 78.43C189.82 78.9 190.37 79.15 191.02 79.18C190.37 79.21 189.82 79.46 189.37 79.93C189.152 80.1516 188.981 80.4142 188.866 80.7026C188.751 80.9911 188.695 81.2995 188.7 81.61C188.7 80.96 188.48 80.4 188.02 79.93C187.57 79.46 187.02 79.21 186.37 79.18ZM188.7 71.98C189.96 71.92 191.03 71.43 191.91 70.51C192.79 69.59 193.23 68.5 193.23 67.23C193.23 68.5 193.67 69.59 194.55 70.51C195.43 71.43 196.5 71.91 197.77 71.98C196.94 72.02 196.18 72.25 195.48 72.69C194.79 73.12 194.24 73.7 193.83 74.42C193.43 75.14 193.23 75.91 193.23 76.75C193.23 75.48 192.79 74.38 191.91 73.46C191.03 72.53 189.96 72.04 188.7 71.98ZM192.02 82.75C192.97 82.71 193.78 82.34 194.44 81.65C195.1 80.96 195.43 80.14 195.43 79.18C195.43 80.14 195.76 80.96 196.42 81.65C197.08 82.34 197.88 82.71 198.83 82.75C197.88 82.79 197.08 83.16 196.42 83.85C195.76 84.54 195.43 85.36 195.43 86.32C195.43 85.36 195.1 84.54 194.44 83.85C193.809 83.1796 192.94 82.7845 192.02 82.75ZM198.83 78.01C199.78 77.97 200.58 77.6 201.24 76.91C201.9 76.22 202.22 75.4 202.22 74.43C202.22 75.39 202.55 76.21 203.21 76.9C203.87 77.59 204.68 77.96 205.63 78C204.68 78.04 203.87 78.41 203.21 79.1C202.55 79.79 202.22 80.61 202.22 81.57C202.22 80.61 201.89 79.79 201.24 79.1C200.58 78.42 199.78 78.05 198.83 78.01Z" fill="#0FA958"/>
<path d="M49.37 120.18C50.02 120.15 50.57 119.9 51.02 119.43C51.47 118.96 51.7 118.4 51.7 117.75C51.7 118.4 51.92 118.96 52.37 119.43C52.82 119.9 53.37 120.15 54.02 120.18C53.37 120.21 52.82 120.46 52.37 120.93C52.1524 121.152 51.9811 121.414 51.8661 121.703C51.7511 121.991 51.6946 122.3 51.7 122.61C51.7 121.96 51.48 121.4 51.02 120.93C50.57 120.46 50.02 120.21 49.37 120.18ZM51.7 112.98C52.96 112.92 54.03 112.43 54.91 111.51C55.79 110.59 56.23 109.5 56.23 108.23C56.23 109.5 56.67 110.59 57.55 111.51C58.43 112.43 59.5 112.91 60.77 112.98C59.94 113.02 59.18 113.25 58.48 113.69C57.79 114.12 57.24 114.7 56.83 115.42C56.43 116.14 56.23 116.91 56.23 117.75C56.23 116.48 55.79 115.38 54.91 114.46C54.03 113.53 52.96 113.04 51.7 112.98ZM55.02 123.75C55.97 123.71 56.78 123.34 57.44 122.65C58.1 121.96 58.43 121.14 58.43 120.18C58.43 121.14 58.76 121.96 59.42 122.65C60.08 123.34 60.88 123.71 61.83 123.75C60.88 123.79 60.08 124.16 59.42 124.85C58.76 125.54 58.43 126.36 58.43 127.32C58.43 126.36 58.1 125.54 57.44 124.85C56.8092 124.18 55.9399 123.784 55.02 123.75ZM61.83 119.01C62.78 118.97 63.58 118.6 64.24 117.91C64.9 117.22 65.22 116.4 65.22 115.43C65.22 116.39 65.55 117.21 66.21 117.9C66.87 118.59 67.68 118.96 68.63 119C67.68 119.04 66.87 119.41 66.21 120.1C65.55 120.79 65.22 121.61 65.22 122.57C65.22 121.61 64.89 120.79 64.24 120.1C63.58 119.42 62.78 119.05 61.83 119.01Z" fill="#0FA958"/>
<path d="M115.37 120.18C116.02 120.15 116.57 119.9 117.02 119.43C117.47 118.96 117.7 118.4 117.7 117.75C117.7 118.4 117.92 118.96 118.37 119.43C118.82 119.9 119.37 120.15 120.02 120.18C119.37 120.21 118.82 120.46 118.37 120.93C118.152 121.152 117.981 121.414 117.866 121.703C117.751 121.991 117.695 122.3 117.7 122.61C117.7 121.96 117.48 121.4 117.02 120.93C116.57 120.46 116.02 120.21 115.37 120.18ZM117.7 112.98C118.96 112.92 120.03 112.43 120.91 111.51C121.79 110.59 122.23 109.5 122.23 108.23C122.23 109.5 122.67 110.59 123.55 111.51C124.43 112.43 125.5 112.91 126.77 112.98C125.94 113.02 125.18 113.25 124.48 113.69C123.79 114.12 123.24 114.7 122.83 115.42C122.43 116.14 122.23 116.91 122.23 117.75C122.23 116.48 121.79 115.38 120.91 114.46C120.03 113.53 118.96 113.04 117.7 112.98ZM121.02 123.75C121.97 123.71 122.78 123.34 123.44 122.65C124.1 121.96 124.43 121.14 124.43 120.18C124.43 121.14 124.76 121.96 125.42 122.65C126.08 123.34 126.88 123.71 127.83 123.75C126.88 123.79 126.08 124.16 125.42 124.85C124.76 125.54 124.43 126.36 124.43 127.32C124.43 126.36 124.1 125.54 123.44 124.85C122.809 124.18 121.94 123.784 121.02 123.75ZM127.83 119.01C128.78 118.97 129.58 118.6 130.24 117.91C130.9 117.22 131.22 116.4 131.22 115.43C131.22 116.39 131.55 117.21 132.21 117.9C132.87 118.59 133.68 118.96 134.63 119C133.68 119.04 132.87 119.41 132.21 120.1C131.55 120.79 131.22 121.61 131.22 122.57C131.22 121.61 130.89 120.79 130.24 120.1C129.58 119.42 128.78 119.05 127.83 119.01Z" fill="#0FA958"/>
<path d="M181.37 120.18C182.02 120.15 182.57 119.9 183.02 119.43C183.47 118.96 183.7 118.4 183.7 117.75C183.7 118.4 183.92 118.96 184.37 119.43C184.82 119.9 185.37 120.15 186.02 120.18C185.37 120.21 184.82 120.46 184.37 120.93C184.152 121.152 183.981 121.414 183.866 121.703C183.751 121.991 183.695 122.3 183.7 122.61C183.7 121.96 183.48 121.4 183.02 120.93C182.57 120.46 182.02 120.21 181.37 120.18ZM183.7 112.98C184.96 112.92 186.03 112.43 186.91 111.51C187.79 110.59 188.23 109.5 188.23 108.23C188.23 109.5 188.67 110.59 189.55 111.51C190.43 112.43 191.5 112.91 192.77 112.98C191.94 113.02 191.18 113.25 190.48 113.69C189.79 114.12 189.24 114.7 188.83 115.42C188.43 116.14 188.23 116.91 188.23 117.75C188.23 116.48 187.79 115.38 186.91 114.46C186.03 113.53 184.96 113.04 183.7 112.98ZM187.02 123.75C187.97 123.71 188.78 123.34 189.44 122.65C190.1 121.96 190.43 121.14 190.43 120.18C190.43 121.14 190.76 121.96 191.42 122.65C192.08 123.34 192.88 123.71 193.83 123.75C192.88 123.79 192.08 124.16 191.42 124.85C190.76 125.54 190.43 126.36 190.43 127.32C190.43 126.36 190.1 125.54 189.44 124.85C188.809 124.18 187.94 123.784 187.02 123.75ZM193.83 119.01C194.78 118.97 195.58 118.6 196.24 117.91C196.9 117.22 197.22 116.4 197.22 115.43C197.22 116.39 197.55 117.21 198.21 117.9C198.87 118.59 199.68 118.96 200.63 119C199.68 119.04 198.87 119.41 198.21 120.1C197.55 120.79 197.22 121.61 197.22 122.57C197.22 121.61 196.89 120.79 196.24 120.1C195.58 119.42 194.78 119.05 193.83 119.01Z" fill="#0FA958"/>
<path d="M247.37 120.18C248.02 120.15 248.57 119.9 249.02 119.43C249.47 118.96 249.7 118.4 249.7 117.75C249.7 118.4 249.92 118.96 250.37 119.43C250.82 119.9 251.37 120.15 252.02 120.18C251.37 120.21 250.82 120.46 250.37 120.93C250.152 121.152 249.981 121.414 249.866 121.703C249.751 121.991 249.695 122.3 249.7 122.61C249.7 121.96 249.48 121.4 249.02 120.93C248.57 120.46 248.02 120.21 247.37 120.18ZM249.7 112.98C250.96 112.92 252.03 112.43 252.91 111.51C253.79 110.59 254.23 109.5 254.23 108.23C254.23 109.5 254.67 110.59 255.55 111.51C256.43 112.43 257.5 112.91 258.77 112.98C257.94 113.02 257.18 113.25 256.48 113.69C255.79 114.12 255.24 114.7 254.83 115.42C254.43 116.14 254.23 116.91 254.23 117.75C254.23 116.48 253.79 115.38 252.91 114.46C252.03 113.53 250.96 113.04 249.7 112.98ZM253.02 123.75C253.97 123.71 254.78 123.34 255.44 122.65C256.1 121.96 256.43 121.14 256.43 120.18C256.43 121.14 256.76 121.96 257.42 122.65C258.08 123.34 258.88 123.71 259.83 123.75C258.88 123.79 258.08 124.16 257.42 124.85C256.76 125.54 256.43 126.36 256.43 127.32C256.43 126.36 256.1 125.54 255.44 124.85C254.809 124.18 253.94 123.784 253.02 123.75ZM259.83 119.01C260.78 118.97 261.58 118.6 262.24 117.91C262.9 117.22 263.22 116.4 263.22 115.43C263.22 116.39 263.55 117.21 264.21 117.9C264.87 118.59 265.68 118.96 266.63 119C265.68 119.04 264.87 119.41 264.21 120.1C263.55 120.79 263.22 121.61 263.22 122.57C263.22 121.61 262.89 120.79 262.24 120.1C261.58 119.42 260.78 119.05 259.83 119.01Z" fill="#0FA958"/>
<path d="M313.37 120.18C314.02 120.15 314.57 119.9 315.02 119.43C315.47 118.96 315.7 118.4 315.7 117.75C315.7 118.4 315.92 118.96 316.37 119.43C316.82 119.9 317.37 120.15 318.02 120.18C317.37 120.21 316.82 120.46 316.37 120.93C316.152 121.152 315.981 121.414 315.866 121.703C315.751 121.991 315.695 122.3 315.7 122.61C315.7 121.96 315.48 121.4 315.02 120.93C314.57 120.46 314.02 120.21 313.37 120.18ZM315.7 112.98C316.96 112.92 318.03 112.43 318.91 111.51C319.79 110.59 320.23 109.5 320.23 108.23C320.23 109.5 320.67 110.59 321.55 111.51C322.43 112.43 323.5 112.91 324.77 112.98C323.94 113.02 323.18 113.25 322.48 113.69C321.79 114.12 321.24 114.7 320.83 115.42C320.43 116.14 320.23 116.91 320.23 117.75C320.23 116.48 319.79 115.38 318.91 114.46C318.03 113.53 316.96 113.04 315.7 112.98ZM319.02 123.75C319.97 123.71 320.78 123.34 321.44 122.65C322.1 121.96 322.43 121.14 322.43 120.18C322.43 121.14 322.76 121.96 323.42 122.65C324.08 123.34 324.88 123.71 325.83 123.75C324.88 123.79 324.08 124.16 323.42 124.85C322.76 125.54 322.43 126.36 322.43 127.32C322.43 126.36 322.1 125.54 321.44 124.85C320.809 124.18 319.94 123.784 319.02 123.75ZM325.83 119.01C326.78 118.97 327.58 118.6 328.24 117.91C328.9 117.22 329.22 116.4 329.22 115.43C329.22 116.39 329.55 117.21 330.21 117.9C330.87 118.59 331.68 118.96 332.63 119C331.68 119.04 330.87 119.41 330.21 120.1C329.55 120.79 329.22 121.61 329.22 122.57C329.22 121.61 328.89 120.79 328.24 120.1C327.58 119.42 326.78 119.05 325.83 119.01Z" fill="#0FA958"/>
<path d="M379.37 120.18C380.02 120.15 380.57 119.9 381.02 119.43C381.47 118.96 381.7 118.4 381.7 117.75C381.7 118.4 381.92 118.96 382.37 119.43C382.82 119.9 383.37 120.15 384.02 120.18C383.37 120.21 382.82 120.46 382.37 120.93C382.152 121.152 381.981 121.414 381.866 121.703C381.751 121.991 381.695 122.3 381.7 122.61C381.7 121.96 381.48 121.4 381.02 120.93C380.57 120.46 380.02 120.21 379.37 120.18ZM381.7 112.98C382.96 112.92 384.03 112.43 384.91 111.51C385.79 110.59 386.23 109.5 386.23 108.23C386.23 109.5 386.67 110.59 387.55 111.51C388.43 112.43 389.5 112.91 390.77 112.98C389.94 113.02 389.18 113.25 388.48 113.69C387.79 114.12 387.24 114.7 386.83 115.42C386.43 116.14 386.23 116.91 386.23 117.75C386.23 116.48 385.79 115.38 384.91 114.46C384.03 113.53 382.96 113.04 381.7 112.98ZM385.02 123.75C385.97 123.71 386.78 123.34 387.44 122.65C388.1 121.96 388.43 121.14 388.43 120.18C388.43 121.14 388.76 121.96 389.42 122.65C390.08 123.34 390.88 123.71 391.83 123.75C390.88 123.79 390.08 124.16 389.42 124.85C388.76 125.54 388.43 126.36 388.43 127.32C388.43 126.36 388.1 125.54 387.44 124.85C386.809 124.18 385.94 123.784 385.02 123.75ZM391.83 119.01C392.78 118.97 393.58 118.6 394.24 117.91C394.9 117.22 395.22 116.4 395.22 115.43C395.22 116.39 395.55 117.21 396.21 117.9C396.87 118.59 397.68 118.96 398.63 119C397.68 119.04 396.87 119.41 396.21 120.1C395.55 120.79 395.22 121.61 395.22 122.57C395.22 121.61 394.89 120.79 394.24 120.1C393.58 119.42 392.78 119.05 391.83 119.01Z" fill="#0FA958"/>
<path d="M445.37 120.18C446.02 120.15 446.57 119.9 447.02 119.43C447.47 118.96 447.7 118.4 447.7 117.75C447.7 118.4 447.92 118.96 448.37 119.43C448.82 119.9 449.37 120.15 450.02 120.18C449.37 120.21 448.82 120.46 448.37 120.93C448.152 121.152 447.981 121.414 447.866 121.703C447.751 121.991 447.695 122.3 447.7 122.61C447.7 121.96 447.48 121.4 447.02 120.93C446.57 120.46 446.02 120.21 445.37 120.18ZM447.7 112.98C448.96 112.92 450.03 112.43 450.91 111.51C451.79 110.59 452.23 109.5 452.23 108.23C452.23 109.5 452.67 110.59 453.55 111.51C454.43 112.43 455.5 112.91 456.77 112.98C455.94 113.02 455.18 113.25 454.48 113.69C453.79 114.12 453.24 114.7 452.83 115.42C452.43 116.14 452.23 116.91 452.23 117.75C452.23 116.48 451.79 115.38 450.91 114.46C450.03 113.53 448.96 113.04 447.7 112.98ZM451.02 123.75C451.97 123.71 452.78 123.34 453.44 122.65C454.1 121.96 454.43 121.14 454.43 120.18C454.43 121.14 454.76 121.96 455.42 122.65C456.08 123.34 456.88 123.71 457.83 123.75C456.88 123.79 456.08 124.16 455.42 124.85C454.76 125.54 454.43 126.36 454.43 127.32C454.43 126.36 454.1 125.54 453.44 124.85C452.809 124.18 451.94 123.784 451.02 123.75ZM457.83 119.01C458.78 118.97 459.58 118.6 460.24 117.91C460.9 117.22 461.22 116.4 461.22 115.43C461.22 116.39 461.55 117.21 462.21 117.9C462.87 118.59 463.68 118.96 464.63 119C463.68 119.04 462.87 119.41 462.21 120.1C461.55 120.79 461.22 121.61 461.22 122.57C461.22 121.61 460.89 120.79 460.24 120.1C459.58 119.42 458.78 119.05 457.83 119.01Z" fill="#0FA958"/>
<path d="M511.37 120.18C512.02 120.15 512.57 119.9 513.02 119.43C513.47 118.96 513.7 118.4 513.7 117.75C513.7 118.4 513.92 118.96 514.37 119.43C514.82 119.9 515.37 120.15 516.02 120.18C515.37 120.21 514.82 120.46 514.37 120.93C514.152 121.152 513.981 121.414 513.866 121.703C513.751 121.991 513.695 122.3 513.7 122.61C513.7 121.96 513.48 121.4 513.02 120.93C512.57 120.46 512.02 120.21 511.37 120.18ZM513.7 112.98C514.96 112.92 516.03 112.43 516.91 111.51C517.79 110.59 518.23 109.5 518.23 108.23C518.23 109.5 518.67 110.59 519.55 111.51C520.43 112.43 521.5 112.91 522.77 112.98C521.94 113.02 521.18 113.25 520.48 113.69C519.79 114.12 519.24 114.7 518.83 115.42C518.43 116.14 518.23 116.91 518.23 117.75C518.23 116.48 517.79 115.38 516.91 114.46C516.03 113.53 514.96 113.04 513.7 112.98ZM517.02 123.75C517.97 123.71 518.78 123.34 519.44 122.65C520.1 121.96 520.43 121.14 520.43 120.18C520.43 121.14 520.76 121.96 521.42 122.65C522.08 123.34 522.88 123.71 523.83 123.75C522.88 123.79 522.08 124.16 521.42 124.85C520.76 125.54 520.43 126.36 520.43 127.32C520.43 126.36 520.1 125.54 519.44 124.85C518.809 124.18 517.94 123.784 517.02 123.75ZM523.83 119.01C524.78 118.97 525.58 118.6 526.24 117.91C526.9 117.22 527.22 116.4 527.22 115.43C527.22 116.39 527.55 117.21 528.21 117.9C528.87 118.59 529.68 118.96 530.63 119C529.68 119.04 528.87 119.41 528.21 120.1C527.55 120.79 527.22 121.61 527.22 122.57C527.22 121.61 526.89 120.79 526.24 120.1C525.58 119.42 524.78 119.05 523.83 119.01Z" fill="#0FA958"/>
<path d="M577.37 120.18C578.02 120.15 578.57 119.9 579.02 119.43C579.47 118.96 579.7 118.4 579.7 117.75C579.7 118.4 579.92 118.96 580.37 119.43C580.82 119.9 581.37 120.15 582.02 120.18C581.37 120.21 580.82 120.46 580.37 120.93C580.152 121.152 579.981 121.414 579.866 121.703C579.751 121.991 579.695 122.3 579.7 122.61C579.7 121.96 579.48 121.4 579.02 120.93C578.57 120.46 578.02 120.21 577.37 120.18ZM579.7 112.98C580.96 112.92 582.03 112.43 582.91 111.51C583.79 110.59 584.23 109.5 584.23 108.23C584.23 109.5 584.67 110.59 585.55 111.51C586.43 112.43 587.5 112.91 588.77 112.98C587.94 113.02 587.18 113.25 586.48 113.69C585.79 114.12 585.24 114.7 584.83 115.42C584.43 116.14 584.23 116.91 584.23 117.75C584.23 116.48 583.79 115.38 582.91 114.46C582.03 113.53 580.96 113.04 579.7 112.98ZM583.02 123.75C583.97 123.71 584.78 123.34 585.44 122.65C586.1 121.96 586.43 121.14 586.43 120.18C586.43 121.14 586.76 121.96 587.42 122.65C588.08 123.34 588.88 123.71 589.83 123.75C588.88 123.79 588.08 124.16 587.42 124.85C586.76 125.54 586.43 126.36 586.43 127.32C586.43 126.36 586.1 125.54 585.44 124.85C584.809 124.18 583.94 123.784 583.02 123.75ZM589.83 119.01C590.78 118.97 591.58 118.6 592.24 117.91C592.9 117.22 593.22 116.4 593.22 115.43C593.22 116.39 593.55 117.21 594.21 117.9C594.87 118.59 595.68 118.96 596.63 119C595.68 119.04 594.87 119.41 594.21 120.1C593.55 120.79 593.22 121.61 593.22 122.57C593.22 121.61 592.89 120.79 592.24 120.1C591.58 119.42 590.78 119.05 589.83 119.01Z" fill="#0FA958"/>
<path d="M643.37 120.18C644.02 120.15 644.57 119.9 645.02 119.43C645.47 118.96 645.7 118.4 645.7 117.75C645.7 118.4 645.92 118.96 646.37 119.43C646.82 119.9 647.37 120.15 648.02 120.18C647.37 120.21 646.82 120.46 646.37 120.93C646.152 121.152 645.981 121.414 645.866 121.703C645.751 121.991 645.695 122.3 645.7 122.61C645.7 121.96 645.48 121.4 645.02 120.93C644.57 120.46 644.02 120.21 643.37 120.18ZM645.7 112.98C646.96 112.92 648.03 112.43 648.91 111.51C649.79 110.59 650.23 109.5 650.23 108.23C650.23 109.5 650.67 110.59 651.55 111.51C652.43 112.43 653.5 112.91 654.77 112.98C653.94 113.02 653.18 113.25 652.48 113.69C651.79 114.12 651.24 114.7 650.83 115.42C650.43 116.14 650.23 116.91 650.23 117.75C650.23 116.48 649.79 115.38 648.91 114.46C648.03 113.53 646.96 113.04 645.7 112.98ZM649.02 123.75C649.97 123.71 650.78 123.34 651.44 122.65C652.1 121.96 652.43 121.14 652.43 120.18C652.43 121.14 652.76 121.96 653.42 122.65C654.08 123.34 654.88 123.71 655.83 123.75C654.88 123.79 654.08 124.16 653.42 124.85C652.76 125.54 652.43 126.36 652.43 127.32C652.43 126.36 652.1 125.54 651.44 124.85C650.809 124.18 649.94 123.784 649.02 123.75ZM655.83 119.01C656.78 118.97 657.58 118.6 658.24 117.91C658.9 117.22 659.22 116.4 659.22 115.43C659.22 116.39 659.55 117.21 660.21 117.9C660.87 118.59 661.68 118.96 662.63 119C661.68 119.04 660.87 119.41 660.21 120.1C659.55 120.79 659.22 121.61 659.22 122.57C659.22 121.61 658.89 120.79 658.24 120.1C657.58 119.42 656.78 119.05 655.83 119.01Z" fill="#0FA958"/>
<path d="M257.37 79.18C258.02 79.15 258.57 78.9 259.02 78.43C259.47 77.96 259.7 77.4 259.7 76.75C259.7 77.4 259.92 77.96 260.37 78.43C260.82 78.9 261.37 79.15 262.02 79.18C261.37 79.21 260.82 79.46 260.37 79.93C260.152 80.1516 259.981 80.4142 259.866 80.7026C259.751 80.9911 259.695 81.2995 259.7 81.61C259.7 80.96 259.48 80.4 259.02 79.93C258.57 79.46 258.02 79.21 257.37 79.18ZM259.7 71.98C260.96 71.92 262.03 71.43 262.91 70.51C263.79 69.59 264.23 68.5 264.23 67.23C264.23 68.5 264.67 69.59 265.55 70.51C266.43 71.43 267.5 71.91 268.77 71.98C267.94 72.02 267.18 72.25 266.48 72.69C265.79 73.12 265.24 73.7 264.83 74.42C264.43 75.14 264.23 75.91 264.23 76.75C264.23 75.48 263.79 74.38 262.91 73.46C262.03 72.53 260.96 72.04 259.7 71.98ZM263.02 82.75C263.97 82.71 264.78 82.34 265.44 81.65C266.1 80.96 266.43 80.14 266.43 79.18C266.43 80.14 266.76 80.96 267.42 81.65C268.08 82.34 268.88 82.71 269.83 82.75C268.88 82.79 268.08 83.16 267.42 83.85C266.76 84.54 266.43 85.36 266.43 86.32C266.43 85.36 266.1 84.54 265.44 83.85C264.809 83.1796 263.94 82.7845 263.02 82.75ZM269.83 78.01C270.78 77.97 271.58 77.6 272.24 76.91C272.9 76.22 273.22 75.4 273.22 74.43C273.22 75.39 273.55 76.21 274.21 76.9C274.87 77.59 275.68 77.96 276.63 78C275.68 78.04 274.87 78.41 274.21 79.1C273.55 79.79 273.22 80.61 273.22 81.57C273.22 80.61 272.89 79.79 272.24 79.1C271.58 78.42 270.78 78.05 269.83 78.01Z" fill="#0FA958"/>
<path d="M328.37 79.18C329.02 79.15 329.57 78.9 330.02 78.43C330.47 77.96 330.7 77.4 330.7 76.75C330.7 77.4 330.92 77.96 331.37 78.43C331.82 78.9 332.37 79.15 333.02 79.18C332.37 79.21 331.82 79.46 331.37 79.93C331.152 80.1516 330.981 80.4142 330.866 80.7026C330.751 80.9911 330.695 81.2995 330.7 81.61C330.7 80.96 330.48 80.4 330.02 79.93C329.57 79.46 329.02 79.21 328.37 79.18ZM330.7 71.98C331.96 71.92 333.03 71.43 333.91 70.51C334.79 69.59 335.23 68.5 335.23 67.23C335.23 68.5 335.67 69.59 336.55 70.51C337.43 71.43 338.5 71.91 339.77 71.98C338.94 72.02 338.18 72.25 337.48 72.69C336.79 73.12 336.24 73.7 335.83 74.42C335.43 75.14 335.23 75.91 335.23 76.75C335.23 75.48 334.79 74.38 333.91 73.46C333.03 72.53 331.96 72.04 330.7 71.98ZM334.02 82.75C334.97 82.71 335.78 82.34 336.44 81.65C337.1 80.96 337.43 80.14 337.43 79.18C337.43 80.14 337.76 80.96 338.42 81.65C339.08 82.34 339.88 82.71 340.83 82.75C339.88 82.79 339.08 83.16 338.42 83.85C337.76 84.54 337.43 85.36 337.43 86.32C337.43 85.36 337.1 84.54 336.44 83.85C335.809 83.1796 334.94 82.7845 334.02 82.75ZM340.83 78.01C341.78 77.97 342.58 77.6 343.24 76.91C343.9 76.22 344.22 75.4 344.22 74.43C344.22 75.39 344.55 76.21 345.21 76.9C345.87 77.59 346.68 77.96 347.63 78C346.68 78.04 345.87 78.41 345.21 79.1C344.55 79.79 344.22 80.61 344.22 81.57C344.22 80.61 343.89 79.79 343.24 79.1C342.58 78.42 341.78 78.05 340.83 78.01Z" fill="#0FA958"/>
<path d="M399.37 79.18C400.02 79.15 400.57 78.9 401.02 78.43C401.47 77.96 401.7 77.4 401.7 76.75C401.7 77.4 401.92 77.96 402.37 78.43C402.82 78.9 403.37 79.15 404.02 79.18C403.37 79.21 402.82 79.46 402.37 79.93C402.152 80.1516 401.981 80.4142 401.866 80.7026C401.751 80.9911 401.695 81.2995 401.7 81.61C401.7 80.96 401.48 80.4 401.02 79.93C400.57 79.46 400.02 79.21 399.37 79.18ZM401.7 71.98C402.96 71.92 404.03 71.43 404.91 70.51C405.79 69.59 406.23 68.5 406.23 67.23C406.23 68.5 406.67 69.59 407.55 70.51C408.43 71.43 409.5 71.91 410.77 71.98C409.94 72.02 409.18 72.25 408.48 72.69C407.79 73.12 407.24 73.7 406.83 74.42C406.43 75.14 406.23 75.91 406.23 76.75C406.23 75.48 405.79 74.38 404.91 73.46C404.03 72.53 402.96 72.04 401.7 71.98ZM405.02 82.75C405.97 82.71 406.78 82.34 407.44 81.65C408.1 80.96 408.43 80.14 408.43 79.18C408.43 80.14 408.76 80.96 409.42 81.65C410.08 82.34 410.88 82.71 411.83 82.75C410.88 82.79 410.08 83.16 409.42 83.85C408.76 84.54 408.43 85.36 408.43 86.32C408.43 85.36 408.1 84.54 407.44 83.85C406.809 83.1796 405.94 82.7845 405.02 82.75ZM411.83 78.01C412.78 77.97 413.58 77.6 414.24 76.91C414.9 76.22 415.22 75.4 415.22 74.43C415.22 75.39 415.55 76.21 416.21 76.9C416.87 77.59 417.68 77.96 418.63 78C417.68 78.04 416.87 78.41 416.21 79.1C415.55 79.79 415.22 80.61 415.22 81.57C415.22 80.61 414.89 79.79 414.24 79.1C413.58 78.42 412.78 78.05 411.83 78.01Z" fill="#0FA958"/>
<path d="M470.37 79.18C471.02 79.15 471.57 78.9 472.02 78.43C472.47 77.96 472.7 77.4 472.7 76.75C472.7 77.4 472.92 77.96 473.37 78.43C473.82 78.9 474.37 79.15 475.02 79.18C474.37 79.21 473.82 79.46 473.37 79.93C473.152 80.1516 472.981 80.4142 472.866 80.7026C472.751 80.9911 472.695 81.2995 472.7 81.61C472.7 80.96 472.48 80.4 472.02 79.93C471.57 79.46 471.02 79.21 470.37 79.18ZM472.7 71.98C473.96 71.92 475.03 71.43 475.91 70.51C476.79 69.59 477.23 68.5 477.23 67.23C477.23 68.5 477.67 69.59 478.55 70.51C479.43 71.43 480.5 71.91 481.77 71.98C480.94 72.02 480.18 72.25 479.48 72.69C478.79 73.12 478.24 73.7 477.83 74.42C477.43 75.14 477.23 75.91 477.23 76.75C477.23 75.48 476.79 74.38 475.91 73.46C475.03 72.53 473.96 72.04 472.7 71.98ZM476.02 82.75C476.97 82.71 477.78 82.34 478.44 81.65C479.1 80.96 479.43 80.14 479.43 79.18C479.43 80.14 479.76 80.96 480.42 81.65C481.08 82.34 481.88 82.71 482.83 82.75C481.88 82.79 481.08 83.16 480.42 83.85C479.76 84.54 479.43 85.36 479.43 86.32C479.43 85.36 479.1 84.54 478.44 83.85C477.809 83.1796 476.94 82.7845 476.02 82.75ZM482.83 78.01C483.78 77.97 484.58 77.6 485.24 76.91C485.9 76.22 486.22 75.4 486.22 74.43C486.22 75.39 486.55 76.21 487.21 76.9C487.87 77.59 488.68 77.96 489.63 78C488.68 78.04 487.87 78.41 487.21 79.1C486.55 79.79 486.22 80.61 486.22 81.57C486.22 80.61 485.89 79.79 485.24 79.1C484.58 78.42 483.78 78.05 482.83 78.01Z" fill="#0FA958"/>
<path d="M541.37 79.18C542.02 79.15 542.57 78.9 543.02 78.43C543.47 77.96 543.7 77.4 543.7 76.75C543.7 77.4 543.92 77.96 544.37 78.43C544.82 78.9 545.37 79.15 546.02 79.18C545.37 79.21 544.82 79.46 544.37 79.93C544.152 80.1516 543.981 80.4142 543.866 80.7026C543.751 80.9911 543.695 81.2995 543.7 81.61C543.7 80.96 543.48 80.4 543.02 79.93C542.57 79.46 542.02 79.21 541.37 79.18ZM543.7 71.98C544.96 71.92 546.03 71.43 546.91 70.51C547.79 69.59 548.23 68.5 548.23 67.23C548.23 68.5 548.67 69.59 549.55 70.51C550.43 71.43 551.5 71.91 552.77 71.98C551.94 72.02 551.18 72.25 550.48 72.69C549.79 73.12 549.24 73.7 548.83 74.42C548.43 75.14 548.23 75.91 548.23 76.75C548.23 75.48 547.79 74.38 546.91 73.46C546.03 72.53 544.96 72.04 543.7 71.98ZM547.02 82.75C547.97 82.71 548.78 82.34 549.44 81.65C550.1 80.96 550.43 80.14 550.43 79.18C550.43 80.14 550.76 80.96 551.42 81.65C552.08 82.34 552.88 82.71 553.83 82.75C552.88 82.79 552.08 83.16 551.42 83.85C550.76 84.54 550.43 85.36 550.43 86.32C550.43 85.36 550.1 84.54 549.44 83.85C548.809 83.1796 547.94 82.7845 547.02 82.75ZM553.83 78.01C554.78 77.97 555.58 77.6 556.24 76.91C556.9 76.22 557.22 75.4 557.22 74.43C557.22 75.39 557.55 76.21 558.21 76.9C558.87 77.59 559.68 77.96 560.63 78C559.68 78.04 558.87 78.41 558.21 79.1C557.55 79.79 557.22 80.61 557.22 81.57C557.22 80.61 556.89 79.79 556.24 79.1C555.58 78.42 554.78 78.05 553.83 78.01Z" fill="#0FA958"/>
<path d="M612.37 79.18C613.02 79.15 613.57 78.9 614.02 78.43C614.47 77.96 614.7 77.4 614.7 76.75C614.7 77.4 614.92 77.96 615.37 78.43C615.82 78.9 616.37 79.15 617.02 79.18C616.37 79.21 615.82 79.46 615.37 79.93C615.152 80.1516 614.981 80.4142 614.866 80.7026C614.751 80.9911 614.695 81.2995 614.7 81.61C614.7 80.96 614.48 80.4 614.02 79.93C613.57 79.46 613.02 79.21 612.37 79.18ZM614.7 71.98C615.96 71.92 617.03 71.43 617.91 70.51C618.79 69.59 619.23 68.5 619.23 67.23C619.23 68.5 619.67 69.59 620.55 70.51C621.43 71.43 622.5 71.91 623.77 71.98C622.94 72.02 622.18 72.25 621.48 72.69C620.79 73.12 620.24 73.7 619.83 74.42C619.43 75.14 619.23 75.91 619.23 76.75C619.23 75.48 618.79 74.38 617.91 73.46C617.03 72.53 615.96 72.04 614.7 71.98ZM618.02 82.75C618.97 82.71 619.78 82.34 620.44 81.65C621.1 80.96 621.43 80.14 621.43 79.18C621.43 80.14 621.76 80.96 622.42 81.65C623.08 82.34 623.88 82.71 624.83 82.75C623.88 82.79 623.08 83.16 622.42 83.85C621.76 84.54 621.43 85.36 621.43 86.32C621.43 85.36 621.1 84.54 620.44 83.85C619.809 83.1796 618.94 82.7845 618.02 82.75ZM624.83 78.01C625.78 77.97 626.58 77.6 627.24 76.91C627.9 76.22 628.22 75.4 628.22 74.43C628.22 75.39 628.55 76.21 629.21 76.9C629.87 77.59 630.68 77.96 631.63 78C630.68 78.04 629.87 78.41 629.21 79.1C628.55 79.79 628.22 80.61 628.22 81.57C628.22 80.61 627.89 79.79 627.24 79.1C626.58 78.42 625.78 78.05 624.83 78.01Z" fill="#0FA958"/>
<path d="M45.5 359.5C-54.5419 338.354 42.0375 16.3601 50.3743 2.26257C58.7112 -11.835 83.7216 44.5551 100.395 44.5551C117.069 44.5551 133.743 2.26257 150.416 2.26257C167.09 2.26257 183.764 44.5551 200.437 44.5551C217.111 44.5551 233.784 2.26257 250.458 2.26257C267.132 2.26257 283.805 44.5551 300.479 44.5551C317.153 44.5551 333.826 2.26257 350.5 2.26257C367.174 2.26257 383.847 44.5551 400.521 44.5551C417.195 44.5551 433.868 2.26257 450.542 2.26257C467.216 2.26257 483.889 44.5551 500.563 44.5551C517.237 44.5551 533.91 2.26257 550.584 2.26257C567.258 2.26257 583.931 44.5551 600.605 44.5551C617.278 44.5551 642.289 -11.835 650.626 2.26257C658.962 16.3601 745.793 338.354 645.751 359.5" fill="url(#paint0_linear_1_49)"/>
<path d="M50.355 2.13992C58.6883 8.80659 83.6883 42.1399 100.355 42.1399C117.022 42.1399 133.688 2.13992 150.355 2.13992C167.022 2.13992 183.688 42.1399 200.355 42.1399C217.022 42.1399 233.688 2.13992 250.355 2.13992C267.022 2.13992 283.688 42.1399 300.355 42.1399C317.022 42.1399 333.688 2.13992 350.355 2.13992C367.022 2.13992 383.688 42.1399 400.355 42.1399C417.022 42.1399 433.688 2.13992 450.355 2.13992C467.022 2.13992 483.688 42.1399 500.355 42.1399C517.022 42.1399 533.688 2.13992 550.355 2.13992C567.022 2.13992 583.688 42.1399 600.355 42.1399C617.022 42.1399 642.022 8.80659 650.355 2.13992" stroke="#0FA958" stroke-width="3" stroke-linecap="round" stroke-linejoin="round"/>
<defs>
<linearGradient id="paint0_linear_1_49" x1="3.99997" y1="5.84807e-08" x2="5.10052e-06" y2="366" gradientUnits="userSpaceOnUse">
<stop stop-color="#D1F1E6" stop-opacity="0.1"/>
<stop offset="1" stop-color="#D1F1E6" stop-opacity="0"/>
</linearGradient>
</defs>
</svg>
