<svg width="150" height="59" viewBox="0 0 150 59" fill="none" xmlns="http://www.w3.org/2000/svg">
<path d="M33.56 22.76C33.9333 23.88 34.12 25.3733 34.12 27.24C34.12 29.08 33.8933 30.8533 33.44 32.56C32.9867 34.2667 32.2933 35.8933 31.36 37.44C30.4533 38.96 29.1733 40.2 27.52 41.16C25.8933 42.0933 24.0133 42.56 21.88 42.56C18.68 42.56 16.5467 41.6667 15.48 39.88C13.56 41.6667 11.4133 42.56 9.04 42.56C5.84 42.56 3.64 41.88 2.44 40.52C1.64 39.6133 1.24 38.2667 1.24 36.48C1.24 35.5467 1.34667 34.5067 1.56 33.36L3.44 22.76H10.24L8.36 33.4C8.28 33.8 8.24 34.16 8.24 34.48C8.24 36 9.02667 36.76 10.6 36.76C11.6933 36.76 12.52 36.2933 13.08 35.36C13.64 34.4 14.12 32.7333 14.52 30.36L15.88 22.76H22.68L20.8 33.4C20.72 33.8 20.68 34.16 20.68 34.48C20.68 36 21.4667 36.76 23.04 36.76C25.8133 36.76 27.2 33.8533 27.2 28.04C27.2 26.68 27.0933 25.1733 26.88 23.52L26.76 22.76H33.56ZM55.7878 26.84C55.7878 27.7467 55.6278 28.6267 55.3078 29.48C55.0145 30.3333 54.7211 30.96 54.4278 31.36L53.9878 31.92H47.9478C48.6145 31.3067 48.9478 30.5467 48.9478 29.64C48.9478 29.16 48.7878 28.7733 48.4678 28.48C48.1745 28.16 47.7611 28 47.2278 28C46.3211 28 45.5345 28.4533 44.8678 29.36L42.6278 42H35.8278L39.2278 22.76H45.5478L45.0678 25.44C46.5878 23.28 48.4278 22.2 50.5878 22.2C52.3211 22.2 53.6145 22.6133 54.4678 23.44C55.3478 24.2667 55.7878 25.4 55.7878 26.84ZM76.0947 36.88C76.708 36.88 77.2547 36.7467 77.7347 36.48L77.5347 41C76.2814 42.04 74.748 42.56 72.9347 42.56C71.1214 42.56 69.7747 42.08 68.8947 41.12C68.0414 40.16 67.3747 38.5467 66.8947 36.28L66.7747 35.72C66.2147 35.8 65.3747 35.8667 64.2547 35.92L63.1747 42H56.3747L61.7347 11.64H68.5347L66.2147 24.8C67.788 23.0667 69.9214 22.2 72.6147 22.2C74.428 22.2 75.7614 22.6533 76.6147 23.56C77.4947 24.44 77.9347 25.6267 77.9347 27.12C77.9347 30 76.428 32.2533 73.4147 33.88L73.8547 35.36C74.148 36.3733 74.8947 36.88 76.0947 36.88ZM69.1747 27.64C67.7347 27.64 66.4547 28.32 65.3347 29.68L64.8947 32.32C68.8414 32.16 70.8147 31.1067 70.8147 29.16C70.8147 28.7067 70.668 28.3467 70.3747 28.08C70.108 27.7867 69.708 27.64 69.1747 27.64Z" fill="#9EFF7C"/>
<path d="M94.7172 22.2C97.3572 22.2 99.2105 22.9333 100.277 24.4C101.077 25.44 101.477 26.7067 101.477 28.2C101.477 28.8133 101.411 29.4533 101.277 30.12L100.477 34.6C100.024 37.16 98.8372 39.1333 96.9172 40.52C95.0239 41.88 92.6239 42.56 89.7172 42.56C86.8372 42.56 84.6239 41.9867 83.0772 40.84C81.8505 39.9333 81.2372 38.6667 81.2372 37.04C81.2372 36.6133 81.2772 36.1733 81.3572 35.72L85.5972 11.64H92.3972L90.3572 23.28C91.4772 22.56 92.9305 22.2 94.7172 22.2ZM94.3572 30.72C94.3839 30.5067 94.3972 30.2133 94.3972 29.84C94.3972 29.44 94.2239 29.0267 93.8772 28.6C93.5572 28.1467 92.8372 27.92 91.7172 27.92C90.6239 27.92 89.8372 28.2533 89.3572 28.92L88.1972 35.6C88.5172 36.4 89.1839 36.8 90.1972 36.8C92.2505 36.8 93.4639 35.7733 93.8372 33.72L94.3572 30.72ZM111.25 35.84C111.25 36.5333 111.596 36.88 112.29 36.88C113.01 36.88 113.61 36.7467 114.09 36.48L113.89 41C112.61 42.04 111.17 42.56 109.57 42.56C107.143 42.56 105.57 42 104.85 40.88C104.396 40.16 104.17 39.3733 104.17 38.52C104.17 37.6667 104.223 36.92 104.33 36.28L108.69 11.64H115.49L111.29 35.36C111.263 35.52 111.25 35.68 111.25 35.84ZM124.663 42.56C119.116 42.56 116.343 40.64 116.343 36.8C116.343 36.2667 116.396 35.6933 116.503 35.08L117.343 30.12C117.796 27.56 118.97 25.6 120.863 24.24C122.783 22.8533 125.316 22.16 128.463 22.16C133.823 22.16 136.503 24.1867 136.503 28.24C136.503 28.8267 136.45 29.4667 136.343 30.16L135.863 33H123.663L123.503 33.92C123.45 34.24 123.423 34.5333 123.423 34.8C123.423 36.2667 124.29 37 126.023 37C126.663 37 127.21 36.8 127.663 36.4C128.116 36 128.383 35.5333 128.463 35L135.103 35.08C134.223 40.0667 130.743 42.56 124.663 42.56ZM129.463 30.56C129.57 30.1067 129.623 29.6933 129.623 29.32C129.623 28.92 129.45 28.52 129.103 28.12C128.756 27.72 128.196 27.52 127.423 27.52C126.676 27.52 125.983 27.7733 125.343 28.28C124.73 28.7867 124.303 29.5467 124.063 30.56H129.463ZM137.973 39.68C137.973 37.9733 138.347 36.7333 139.093 35.96C139.84 35.16 141.027 34.76 142.653 34.76C144.893 34.76 146.013 35.7467 146.013 37.72C146.013 39.4 145.627 40.6267 144.853 41.4C144.107 42.1733 142.92 42.56 141.293 42.56C139.08 42.56 137.973 41.6 137.973 39.68Z" fill="white"/>
</svg>
