<svg width="33" height="32" viewBox="0 0 33 32" fill="none" xmlns="http://www.w3.org/2000/svg">
<path d="M16.1976 1.57466e-05C19.8995 -0.00104242 23.4872 1.28159 26.3494 3.62934C29.2116 5.97709 31.1711 9.24468 31.894 12.8753C32.617 16.5059 32.0586 20.2749 30.3141 23.54C28.5696 26.805 25.7469 29.3642 22.327 30.7812C18.9071 32.1983 15.1016 32.3857 11.559 31.3114C8.01639 30.2371 4.95592 27.9677 2.8991 24.8898C0.842287 21.8119 -0.0836075 18.116 0.2792 14.4319C0.642008 10.7478 2.27107 7.30354 4.88877 4.68598C6.37181 3.198 8.13445 2.01796 10.0753 1.21376C12.0161 0.409554 14.0967 -0.00293754 16.1976 1.57466e-05ZM16.096 19.3114L13.7661 25.7494C13.7088 25.9107 13.6199 26.059 13.5045 26.1855C13.3892 26.312 13.2498 26.4142 13.0944 26.4861C12.8611 26.5956 12.6005 26.6332 12.3457 26.5944C12.0909 26.5555 11.8533 26.4419 11.6632 26.2679C11.473 26.0939 11.3388 25.8674 11.2775 25.6171C11.2162 25.3667 11.2307 25.1038 11.319 24.8617L12.9434 20.3631C13.0723 20.0246 13.1742 19.6764 13.248 19.3218C13.3137 18.9618 13.3606 18.5986 13.3886 18.2336C13.4511 17.575 13.4953 16.8617 13.5292 16.177C13.563 15.4923 13.5864 14.8285 13.6047 14.2792C13.6281 13.5945 13.4433 13.5503 12.894 13.4201L12.7794 13.3941L8.09345 12.5115C7.92492 12.4818 7.76391 12.4192 7.61962 12.3271C7.47533 12.2351 7.35061 12.1155 7.25258 11.9753C7.10696 11.7628 7.02767 11.5118 7.02475 11.2542C7.02183 10.9966 7.09541 10.7439 7.23618 10.5282C7.37695 10.3124 7.57857 10.1433 7.81552 10.0422C8.05247 9.94112 8.31409 9.91261 8.56726 9.9603L13.6021 10.9053C13.8025 10.9235 13.9978 10.947 14.2034 10.9704C14.823 11.0553 15.4473 11.1014 16.0726 11.1084C16.851 11.0932 17.628 11.0349 18.4 10.9339C18.6343 10.9079 18.8556 10.8793 19.0768 10.8584L23.8279 9.96811C24.1649 9.89821 24.516 9.96467 24.8041 10.1529C24.947 10.2496 25.0692 10.3736 25.1636 10.5179C25.2581 10.6622 25.323 10.8238 25.3545 10.9933C25.3859 11.1629 25.3834 11.337 25.347 11.5056C25.3107 11.6741 25.2412 11.8338 25.1426 11.9753C25.0459 12.1164 24.9223 12.2371 24.7789 12.3305C24.6355 12.4239 24.4751 12.488 24.3069 12.5194L19.7667 13.3732C19.6157 13.4071 19.4804 13.4305 19.3606 13.4487C18.8868 13.5294 18.6525 13.5711 18.6811 14.2454C18.702 14.7374 18.7618 15.3257 18.8399 15.9401C18.9311 16.6612 19.0508 17.4266 19.1758 18.1269C19.2565 18.5877 19.332 18.9574 19.4361 19.3114C19.5402 19.6655 19.6418 20.0273 19.798 20.4621L21.3886 24.8617C21.4769 25.1038 21.4913 25.3667 21.43 25.6171C21.3687 25.8674 21.2345 26.0939 21.0444 26.2679C20.8542 26.4419 20.6167 26.5555 20.3619 26.5944C20.1071 26.6332 19.8465 26.5956 19.6131 26.4861C19.4578 26.4142 19.3183 26.312 19.203 26.1855C19.0877 26.059 18.9988 25.9107 18.9415 25.7494L16.6037 19.3244L16.3434 18.848L16.083 19.3114H16.096ZM16.1976 5.37846C16.7294 5.37801 17.245 5.56199 17.6564 5.89906C18.0678 6.23612 18.3496 6.70541 18.4537 7.22696C18.5579 7.7485 18.478 8.29003 18.2276 8.75927C17.9773 9.22851 17.572 9.59641 17.0808 9.8003C16.5895 10.0042 16.0428 10.0314 15.5338 9.8774C15.0247 9.72337 14.5848 9.39758 14.2891 8.95556C13.9933 8.51355 13.8599 7.98264 13.9117 7.45332C13.9635 6.924 14.1973 6.42902 14.5731 6.05272C14.786 5.83875 15.0392 5.66901 15.318 5.55329C15.5968 5.43757 15.8957 5.37815 16.1976 5.37846ZM25.6606 6.53173C23.4741 4.33792 20.5945 2.97023 17.5125 2.66176C14.4306 2.35328 11.337 3.12312 8.75905 4.84006C6.18111 6.557 4.27834 9.11479 3.37503 12.0775C2.47172 15.0402 2.62377 18.2245 3.80527 21.0877C4.98677 23.9508 7.1246 26.3157 9.8544 27.7792C12.5842 29.2427 15.7371 29.7142 18.7756 29.1135C21.8142 28.5128 24.5504 26.8769 26.5179 24.4848C28.4854 22.0926 29.5625 19.0921 29.5656 15.9948C29.5695 14.2381 29.2265 12.4979 28.5564 10.874C27.8863 9.25011 26.9022 7.77448 25.6606 6.53173Z" fill="#DEE5E5"/>
</svg>
