<svg width="26" height="30" viewBox="0 0 26 30" fill="none" xmlns="http://www.w3.org/2000/svg">
<path d="M5.18098 9.83142H20.9805V22.7063C20.9805 23.4712 20.3604 24.0913 19.5965 24.0913H18.014V28.0124C18.014 29.0081 17.2197 29.8151 16.2393 29.8151C15.2564 29.8151 14.4634 29.0081 14.4634 28.0124V24.0913H11.6995V28.0124C11.6995 29.0081 10.9037 29.8151 9.92333 29.8151C8.94317 29.8151 8.14744 29.0081 8.14744 28.0124V24.0913H6.5663C5.80219 24.0913 5.18092 23.4712 5.18092 22.7063L5.18098 9.83142ZM2.08482 9.72634C1.09444 9.72634 0.292236 10.541 0.292236 11.5468V18.6614C0.292236 19.6659 1.09444 20.482 2.08482 20.482C3.07537 20.482 3.8774 19.6659 3.8774 18.6614V11.5468C3.8774 10.541 3.07537 9.72634 2.08482 9.72634ZM20.9806 8.53403H5.18098C5.37597 6.28313 6.8361 4.34614 8.93803 3.2246L7.43584 1.01887C7.23326 0.721419 7.3097 0.31556 7.60773 0.113039C7.90541 -0.0894817 8.31046 -0.0124642 8.51403 0.284753L10.1513 2.6905C11.059 2.37659 12.0444 2.19636 13.0808 2.19636C14.1183 2.19636 15.1037 2.37659 16.0114 2.69091L17.6487 0.285628C17.8498 -0.0124059 18.2561 -0.0894234 18.5538 0.113098C18.8518 0.315619 18.9282 0.721477 18.7257 1.01893L17.2247 3.22466C19.3266 4.3455 20.7857 6.28249 20.9806 8.53403ZM10.6223 5.47556C10.6223 4.99285 10.2315 4.60135 9.74893 4.60135C9.26518 4.60135 8.87432 4.99285 8.87432 5.47556C8.87432 5.95802 9.26646 6.34935 9.74893 6.34935C10.2314 6.34935 10.6223 5.95802 10.6223 5.47556ZM17.3979 5.47556C17.3979 4.99285 17.0057 4.60135 16.5233 4.60135C16.0396 4.60135 15.6499 4.99285 15.6499 5.47556C15.6499 5.95802 16.0396 6.34935 16.5233 6.34935C17.0058 6.34935 17.3979 5.95802 17.3979 5.47556ZM24.0779 9.72383C23.0886 9.72383 22.2841 10.5397 22.2841 11.5455V18.6626C22.2841 19.6684 23.0886 20.4846 24.0779 20.4846C25.0685 20.4846 25.8692 19.6685 25.8692 18.6626V11.5455C25.8693 10.5397 25.0685 9.72383 24.0779 9.72383Z" fill="#DEE5E5"/>
</svg>
