<svg width="31" height="30" viewBox="0 0 31 30" fill="none" xmlns="http://www.w3.org/2000/svg">
<path d="M15.393 0.0002924C15.3102 -0.0020805 15.2276 0.0100054 15.1493 0.0359575L0.877535 4.78706C0.730335 4.83604 0.605117 4.93177 0.522734 5.05831C0.44035 5.18485 0.405772 5.33457 0.424757 5.48253L2.67932 23.1712C2.69249 23.2744 2.73127 23.3731 2.79243 23.4591C2.85358 23.545 2.93534 23.6158 3.03089 23.6654L15.0628 29.9208C15.1632 29.973 15.2756 30.0002 15.3899 30C15.5041 29.9998 15.6165 29.9721 15.7166 29.9195L27.8111 23.5788C27.906 23.529 27.9871 23.4583 28.0478 23.3726C28.1085 23.2869 28.1469 23.1886 28.16 23.0858L30.4146 5.39846C30.4337 5.24982 30.3987 5.09943 30.3155 4.97256C30.2323 4.84568 30.106 4.75005 29.9578 4.70172L15.5928 0.0346838C15.5284 0.0137529 15.4611 0.00216075 15.393 0.0002924ZM15.3771 1.34283L28.9937 5.76658L26.8483 22.5967L15.3877 28.605L3.99105 22.6795L1.84435 5.84683L15.3771 1.34283ZM15.4437 2.60894C15.3098 2.60453 15.1775 2.63794 15.0633 2.70499C14.9492 2.77204 14.8582 2.86977 14.8018 2.98597L5.93799 21.2465C5.88967 21.3459 5.86831 21.4553 5.87587 21.5646C5.88343 21.674 5.91967 21.7797 5.98125 21.8721C6.04283 21.9646 6.12775 22.0406 6.22819 22.0934C6.32862 22.1461 6.44133 22.1738 6.5559 22.1738H9.58151C9.71135 22.1738 9.83847 22.1382 9.94793 22.0715C10.0574 22.0047 10.1446 21.9094 10.1994 21.7968L11.9133 18.2659H18.926L20.6399 21.7968C20.6947 21.9094 20.782 22.0047 20.8914 22.0715C21.0009 22.1382 21.128 22.1738 21.2578 22.1738H24.2835C24.398 22.1738 24.5107 22.1461 24.6112 22.0934C24.7116 22.0406 24.7965 21.9646 24.8581 21.8721C24.9197 21.7797 24.9559 21.674 24.9635 21.5646C24.9711 21.4553 24.9497 21.3459 24.9014 21.2465L16.0376 2.98597C15.9846 2.87684 15.9011 2.78386 15.7962 2.71731C15.6914 2.65077 15.5694 2.61326 15.4437 2.60894ZM15.4197 4.80872L23.2154 20.8695H21.6933L19.9794 17.3386C19.9246 17.226 19.8374 17.1308 19.7279 17.064C19.6185 16.9972 19.4913 16.9617 19.3615 16.9616H11.4779C11.348 16.9617 11.2209 16.9972 11.1114 17.064C11.002 17.1308 10.9147 17.226 10.8599 17.3386L9.14472 20.8695H7.62392L15.4197 4.80872ZM15.4463 8.80448C15.3115 8.79953 15.1781 8.83295 15.0632 8.90052C14.9482 8.96809 14.8567 9.06677 14.8004 9.18406L12.1237 14.7351C12.076 14.8344 12.0551 14.9437 12.063 15.0528C12.0709 15.1619 12.1074 15.2673 12.169 15.3594C12.2307 15.4515 12.3156 15.5272 12.4159 15.5797C12.5162 15.6322 12.6286 15.6598 12.743 15.6598H18.0964C18.2107 15.6598 18.3232 15.6322 18.4235 15.5797C18.5238 15.5272 18.6087 15.4515 18.6703 15.3594C18.732 15.2673 18.7685 15.1619 18.7764 15.0528C18.7843 14.9437 18.7634 14.8344 18.7156 14.7351L16.0389 9.18406C15.9864 9.07464 15.9032 8.98126 15.7986 8.91426C15.694 8.84726 15.5721 8.80927 15.4463 8.80448ZM15.4197 11.0132L17.031 14.3555H13.8083L15.4197 11.0132Z" fill="#DEE5E5"/>
</svg>
