<svg width="31" height="25" viewBox="0 0 31 25" fill="none" xmlns="http://www.w3.org/2000/svg">
<path d="M30.2737 13.6201C30.0973 12.379 29.6675 11.202 28.9957 10.1222C28.4098 9.17984 27.658 8.34172 26.7607 7.62937L26.7631 7.62713L17.3392 0.388972C17.3313 0.382148 17.3233 0.375794 17.3179 0.372088C17.0045 0.132069 16.5803 0 16.1238 0C15.6668 0 15.226 0.132364 14.8833 0.372794C14.5148 0.630168 14.3042 0.971665 14.2895 1.33522C14.276 1.67431 14.4378 2.00063 14.7462 2.25506C15.3528 2.73357 15.958 3.22261 16.5639 3.71212C17.152 4.18745 17.758 4.67696 18.3611 5.15352L6.81821 5.1457C5.49816 5.1457 4.59933 5.76557 4.41443 6.80336C4.33319 7.25793 4.47655 7.75773 4.79705 8.14052C5.13708 8.54638 5.63076 8.77022 6.1871 8.77022L7.06705 8.77075C8.28268 8.77075 9.50366 8.76781 10.723 8.76487L11.8858 8.76216L1.40972 16.5127L1.36813 16.543C0.782968 16.9916 0.399879 17.6204 0.317226 18.2682C0.254574 18.7589 0.369053 19.2073 0.648428 19.5655C0.981396 19.9924 1.50126 20.2272 2.11237 20.2272C2.71271 20.2272 3.32529 19.9998 3.83803 19.5855L9.4953 14.9558C9.47113 15.1818 9.44177 15.5135 9.44512 15.7542C9.45148 16.1354 9.57384 16.9002 9.76756 17.521C10.1678 18.7971 10.8421 19.9645 11.7714 20.9898C12.7384 22.0564 13.9162 22.9022 15.2717 23.503C16.7048 24.1368 18.2453 24.4585 19.8507 24.4585H19.8655C21.476 24.4546 23.0214 24.1278 24.4591 23.4868C25.8169 22.8789 26.9941 22.0297 27.9575 20.9631C28.8857 19.9327 29.5589 18.7633 29.9584 17.4883C30.1558 16.8576 30.2831 16.2047 30.3359 15.5468C30.3852 14.9098 30.364 14.2615 30.2737 13.6201ZM19.9681 19.7358C16.43 19.7358 13.561 17.1693 13.561 14.0032C13.561 10.8373 16.4301 8.27083 19.9681 8.27083C23.5061 8.27083 26.3749 10.8373 26.3749 14.0032C26.3749 17.1693 23.5061 19.7358 19.9681 19.7358ZM23.6628 13.4994C23.715 14.4444 23.3375 15.3218 22.6748 15.9713C22.0005 16.633 21.0384 17.0486 19.9627 17.0486C18.8872 17.0486 17.925 16.633 17.2506 15.9713C16.588 15.3218 16.2114 14.4445 16.2632 13.5002C16.3141 12.5823 16.7618 11.772 17.4362 11.1984C18.0994 10.6343 18.9899 10.29 19.9626 10.29C20.9355 10.29 21.8257 10.6343 22.489 11.1984C23.1636 11.772 23.6115 12.5818 23.6628 13.4994Z" fill="#DEE5E5"/>
</svg>
