<svg width="30" height="29" viewBox="0 0 30 29" fill="none" xmlns="http://www.w3.org/2000/svg">
<path d="M4.8588 6.11975L0.385887 10.5981L7.28361 17.5166L0.35083 24.4703L4.80961 28.9508L11.7565 21.9951L18.6658 28.9011L23.1386 24.4226L4.8588 6.11975Z" fill="#DEE5E5"/>
<path d="M16.2409 17.5167L11.7561 21.9951L18.6654 28.9012L23.1382 24.4227L16.2409 17.5167Z" fill="#DEE5E5"/>
<path d="M16.2409 17.5167L11.7561 21.9951L13.4826 23.712L16.2409 17.5167Z" fill="black" fill-opacity="0.2"/>
<path d="M22.3536 11.4201L29.3005 4.46444L24.8257 0L17.881 6.94171L10.9711 0.0350569L6.49829 4.51363L24.7782 22.8165L29.251 18.338L22.3536 11.4201Z" fill="#DEE5E5"/>
<path d="M13.396 11.4203L17.8809 6.94183L10.9711 0.0354004L6.49829 4.51375L13.396 11.4203Z" fill="#DEE5E5"/>
<path d="M13.3962 11.4202L17.8811 6.94182L16.1543 5.22449L13.3962 11.4202Z" fill="black" fill-opacity="0.2"/>
</svg>
