<svg width="30" height="26" viewBox="0 0 30 26" fill="none" xmlns="http://www.w3.org/2000/svg">
<path d="M14.6066 0.0766219C15.2387 -0.241855 16.0102 0.496961 15.6744 1.10715C15.4794 1.60455 14.7399 1.73682 14.3622 1.35767C13.962 0.993801 14.0925 0.274602 14.6066 0.0766219ZM7.8083 0.784753C8.19226 0.63203 8.6783 0.971944 8.63915 1.37631C8.6799 1.81528 8.1244 2.13838 7.73304 1.92976C7.21452 1.7357 7.27383 0.922344 7.8083 0.784753ZM21.7321 1.94209C21.1321 1.87203 21.0371 0.960455 21.6148 0.776907C22.0629 0.565756 22.4739 0.961715 22.5395 1.37211C22.4455 1.72253 22.1419 2.04339 21.7321 1.94209ZM9.35516 3.58071C9.99708 3.18839 10.913 3.77266 10.8143 4.49312C10.781 5.22059 9.78103 5.64205 9.21683 5.15025C8.67134 4.76396 8.75399 3.87775 9.35516 3.58071ZM19.1544 3.99698C19.4408 3.28381 20.6013 3.26223 20.9272 3.95649C21.2494 4.49677 20.8531 5.16581 20.2791 5.34949C19.5187 5.48666 18.7964 4.69236 19.1544 3.99698ZM13.788 5.309C13.7817 4.69601 14.3596 4.23924 14.9625 4.19748C15.3624 4.27497 15.7983 4.4396 15.9698 4.82953C16.2895 5.36743 16.0056 6.10806 15.4279 6.35494C15.1637 6.498 14.8514 6.44434 14.5637 6.42766C14.1239 6.21903 13.7536 5.8099 13.788 5.309ZM3.67782 6.20222C4.2642 5.8539 5.05532 6.48959 4.83332 7.10511C4.71109 7.63754 3.97043 7.85415 3.54703 7.51424C3.09506 7.19576 3.16669 6.43004 3.67782 6.20222ZM25.388 6.2011C25.8855 5.82784 26.7065 6.25602 26.6472 6.86299C26.6805 7.41644 25.9708 7.83384 25.4769 7.54885C24.933 7.31262 24.8775 6.50402 25.388 6.2011ZM16.6311 7.30309C17.4521 7.0181 18.4273 7.35913 18.8952 8.06642C19.5124 8.93106 19.184 10.2478 18.2261 10.744C17.2336 11.3308 15.7843 10.8334 15.4178 9.76235C15.0016 8.80356 15.6079 7.60363 16.6311 7.30309ZM11.8142 7.39738C12.7241 6.98237 13.9486 7.33055 14.3881 8.22994C14.9053 9.10536 14.5054 10.3243 13.5808 10.7763C12.6549 11.2844 11.3488 10.8992 10.9007 9.95935C10.3983 9.05044 10.8445 7.8159 11.8142 7.39738ZM6.99108 8.99075C7.06024 8.42427 7.61327 8.05564 8.17123 8.01752C8.77241 8.08758 9.25265 8.53874 9.31804 9.12666C9.2786 9.70869 8.81315 10.2775 8.17486 10.274C7.47262 10.3325 6.85695 9.65741 6.99108 8.99075ZM21.2371 8.14068C21.958 7.7352 22.9591 8.32549 22.9271 9.12582C22.9765 9.97378 21.8686 10.5714 21.1507 10.074C20.4049 9.65979 20.4631 8.49335 21.2371 8.14068ZM9.85396 11.1293C10.6971 10.9051 11.6613 11.2892 12.0748 12.0381C12.5278 12.7919 12.3426 13.8391 11.6391 14.392C10.7367 15.2029 9.07256 14.8773 8.59232 13.7706C8.04044 12.756 8.71078 11.3963 9.85396 11.1293ZM18.9903 11.1251C19.81 10.8985 20.7729 11.2038 21.2136 11.9254C21.7962 12.7507 21.5181 13.9816 20.6507 14.5136C19.7421 15.1313 18.3348 14.807 17.8348 13.841C17.2287 12.8419 17.8386 11.4298 18.9903 11.1251ZM4.4308 12.0666C5.15914 11.8004 5.9665 12.5771 5.67143 13.2748C5.49119 13.9105 4.56406 14.1455 4.08512 13.6768C3.52469 13.2367 3.73219 12.2575 4.4308 12.0666ZM24.1726 13.0792C24.1516 12.4961 24.5931 11.9796 25.212 11.9474C25.7108 12.0238 26.1958 12.4126 26.1564 12.9373C26.202 13.6303 25.3378 14.1014 24.7268 13.7757C24.4404 13.6351 24.2935 13.3512 24.1726 13.0792ZM0.849582 12.4089C1.28777 12.2241 1.82978 12.5911 1.72973 13.0613C1.70624 13.5937 0.892792 13.7984 0.593946 13.3536C0.3299 13.0446 0.487951 12.5683 0.849582 12.4089ZM28.4784 12.3983C28.787 12.186 29.282 12.3386 29.4042 12.6869C29.6116 13.0673 29.2314 13.5886 28.7883 13.5242C28.1662 13.579 27.965 12.663 28.4784 12.3983ZM12.234 14.9541C13.387 14.6643 14.6265 15.5934 14.6338 16.7407C14.709 17.9 13.4883 18.928 12.308 18.6602C11.3956 18.5183 10.6797 17.6691 10.7093 16.7782C10.7069 15.9262 11.3723 15.1343 12.234 14.9541ZM16.8004 14.9517C17.9707 14.6356 19.2471 15.5814 19.2285 16.7551C19.2903 17.893 18.1077 18.8864 16.952 18.6606C15.8645 18.5247 15.0621 17.3702 15.3657 16.3505C15.519 15.6709 16.1065 15.1183 16.8004 14.9517ZM7.99607 15.6579C8.8059 15.5244 9.56512 16.3974 9.2367 17.1404C8.99716 17.9322 7.80467 18.147 7.27745 17.5002C6.65902 16.8791 7.12071 15.7436 7.99607 15.6579ZM21.3876 15.6928C22.1097 15.4005 22.9961 16.0041 22.9405 16.7614C22.9695 17.5951 21.8752 18.17 21.1691 17.6834C20.3693 17.2465 20.5148 15.9608 21.3876 15.6928ZM25.1306 19.3206C24.8479 18.8113 25.3615 18.1362 25.9467 18.2305C26.238 18.2257 26.4417 18.4475 26.6282 18.6336C26.6665 18.9354 26.7307 19.2955 26.4715 19.5281C26.1194 19.9587 25.3219 19.8358 25.1306 19.3206ZM3.67535 18.3723C4.22229 18.0205 5.00935 18.5452 4.88639 19.1631C4.821 19.7095 4.10861 20.0218 3.63939 19.7118C3.1358 19.4303 3.15436 18.6288 3.67535 18.3723ZM14.4808 19.5162C15.1968 19.2109 16.109 19.8132 16.0411 20.5753C16.0942 21.4174 14.966 22.0005 14.2659 21.4948C13.4883 21.0606 13.6179 19.7832 14.4808 19.5162ZM9.47609 20.6444C10.086 20.3343 10.9043 20.8698 10.8488 21.5293C10.8674 22.0709 10.3204 22.5324 9.7674 22.4524C9.30934 22.4429 9.01064 22.0461 8.86376 21.6687C8.8713 21.2575 9.04646 20.7995 9.47609 20.6444ZM19.6137 20.6539C20.2408 20.2794 21.1321 20.8173 21.0728 21.5226C21.0889 22.2597 20.0816 22.7319 19.4977 22.2477C18.9323 21.8681 19.0013 20.9557 19.6137 20.6539ZM21.3766 24.8653C21.0976 24.4574 21.426 23.966 21.879 23.873C22.2432 23.9446 22.6284 24.2093 22.5518 24.6173C22.4987 25.1695 21.6629 25.3388 21.3766 24.8653ZM7.38243 24.5111C7.4935 24.1878 7.76262 23.8665 8.15644 23.9506C8.7305 23.99 8.90088 24.826 8.39845 25.0837C7.94663 25.3781 7.42245 24.975 7.38243 24.5111ZM14.1338 24.8819C14.2437 24.4037 14.8843 24.1711 15.3066 24.4252C15.5855 24.5409 15.667 24.8426 15.7387 25.099C15.7004 25.2325 15.6662 25.3662 15.6325 25.4997C15.4597 25.6977 15.2375 25.8957 14.9499 25.8885C14.4152 25.949 13.933 25.365 14.1338 24.8819Z" fill="#DEE5E5"/>
</svg>
