<svg width="31" height="20" viewBox="0 0 31 20" fill="none" xmlns="http://www.w3.org/2000/svg">
<path d="M3.89086 16.6538C4.14887 16.6538 4.38343 16.7124 4.51244 16.8297C4.5359 17.0174 4.35998 17.3223 4.25442 17.3223C4.12542 17.2754 4.00814 17.2519 3.85567 17.2519C3.24582 17.2519 2.94089 17.8852 2.94089 18.5068C2.94089 18.8939 3.0699 19.1284 3.38655 19.1284C3.71494 19.1284 4.04332 18.9056 4.23097 18.7414C4.27788 18.7766 4.33652 18.8821 4.33652 18.9994C4.33652 19.1284 4.30134 19.2574 4.17233 19.3864C3.96122 19.5975 3.59766 19.7852 3.0699 19.7852C2.47177 19.7852 2.04956 19.4451 2.04956 18.6476C2.07302 17.592 2.75324 16.6538 3.89086 16.6538Z" fill="#DEE5E5"/>
<path d="M5.86096 19.0932C6.18934 19.0932 6.78747 18.5186 6.95166 17.4161C6.96339 17.3458 6.96339 17.334 6.97512 17.2637C6.90475 17.2402 6.7992 17.2168 6.70537 17.2168C6.45909 17.2168 6.20107 17.2871 5.97824 17.6038C5.74368 17.9322 5.63813 18.3426 5.63813 18.671C5.63813 18.9408 5.72022 19.0932 5.86096 19.0932ZM4.78198 18.7883C4.78198 18.3896 4.91099 17.7093 5.41529 17.205C5.84923 16.7594 6.36526 16.6538 6.84611 16.6538C7.16276 16.6538 7.58497 16.7594 7.85472 16.8063C7.78435 17.0995 7.63188 18.2136 7.54979 18.8587C7.5146 19.1284 7.50288 19.5154 7.5146 19.6562C7.29177 19.75 6.88129 19.7735 6.76401 19.7735C6.70537 19.7735 6.69365 19.5037 6.70537 19.234C6.7171 19.1519 6.72883 19.0229 6.72883 18.9642C6.47081 19.3982 5.95478 19.7617 5.41529 19.7617C5.02827 19.7735 4.78198 19.4451 4.78198 18.7883Z" fill="#DEE5E5"/>
<path d="M9.52042 16.6538C9.79017 16.6538 10.0599 16.7594 10.1772 16.8766C10.1655 17.0643 10.0247 17.3809 9.79017 17.2871C9.68461 17.2519 9.59079 17.2285 9.45005 17.2285C9.27413 17.2285 9.10994 17.3106 9.10994 17.4748C9.10994 17.6038 9.20377 17.6976 9.64943 18.0143C9.96609 18.2488 10.0951 18.4599 10.0951 18.7531C10.0951 19.2457 9.6377 19.7735 8.82847 19.7735C8.50009 19.7735 8.20689 19.6444 8.12479 19.5154C8.00751 19.3161 8.10134 18.9173 8.23034 18.9877C8.40626 19.0698 8.68774 19.1636 8.92229 19.1636C9.14513 19.1636 9.28586 19.058 9.28586 18.929C9.28586 18.8118 9.18031 18.7179 8.78156 18.4247C8.44145 18.1667 8.3359 17.9322 8.3359 17.6741C8.3359 17.1112 8.81674 16.6538 9.52042 16.6538Z" fill="#DEE5E5"/>
<path d="M11.831 16.6538C12.1007 16.6538 12.3705 16.7594 12.4877 16.8766C12.476 17.0643 12.3353 17.3809 12.1007 17.2871C11.9952 17.2519 11.9013 17.2285 11.7606 17.2285C11.5847 17.2285 11.4205 17.3106 11.4205 17.4748C11.4205 17.6038 11.5143 17.6976 11.96 18.0143C12.2766 18.2488 12.4056 18.4599 12.4056 18.7531C12.4056 19.2457 11.9482 19.7735 11.139 19.7735C10.8106 19.7735 10.5292 19.6444 10.4353 19.5154C10.3181 19.3161 10.4119 18.9173 10.5409 18.9877C10.7168 19.0698 10.9983 19.1636 11.2328 19.1636C11.4557 19.1636 11.5964 19.058 11.5964 18.929C11.5964 18.8118 11.4909 18.7179 11.0921 18.4247C10.752 18.1667 10.6464 17.9322 10.6464 17.6741C10.6464 17.1112 11.1273 16.6538 11.831 16.6538Z" fill="#DEE5E5"/>
<path d="M13.9298 19.0932C14.2582 19.0932 14.8563 18.5186 15.0205 17.4161C15.0322 17.3458 15.0322 17.334 15.044 17.2637C14.9736 17.2402 14.868 17.2168 14.7742 17.2168C14.5279 17.2168 14.2699 17.2871 14.0471 17.6038C13.8125 17.9322 13.707 18.3426 13.707 18.671C13.7187 18.9408 13.7891 19.0932 13.9298 19.0932ZM12.8508 18.7883C12.8508 18.3896 12.9798 17.7093 13.4841 17.205C13.9181 16.7594 14.4341 16.6538 14.915 16.6538C15.2316 16.6538 15.6538 16.7594 15.9236 16.8063C15.8532 17.0995 15.7007 18.2136 15.6186 18.8587C15.5835 19.1284 15.5717 19.5154 15.5835 19.6562C15.3606 19.75 14.9501 19.7735 14.8329 19.7735C14.7742 19.7735 14.7625 19.5037 14.7742 19.234C14.7859 19.1519 14.7977 19.0229 14.7977 18.9642C14.5397 19.3982 14.0236 19.7617 13.4841 19.7617C13.1088 19.7735 12.8508 19.4451 12.8508 18.7883Z" fill="#DEE5E5"/>
<path d="M17.4365 17.5217C17.7414 17.0291 18.1402 16.6538 18.7031 16.6538C19.184 16.6538 19.3364 17.0995 19.2426 17.7211C19.1957 18.0143 19.1136 18.4365 19.0667 18.8235C19.0198 19.1519 18.9846 19.4451 18.9963 19.6445C18.8204 19.7266 18.3161 19.7617 18.1988 19.7617C18.1519 19.7617 18.1402 19.3982 18.2105 19.0112C18.2692 18.6945 18.3747 18.1081 18.4334 17.768C18.4686 17.5686 18.4568 17.3341 18.2692 17.3341C18.0229 17.3341 17.4365 17.7328 17.1433 19.3513C17.1198 19.4803 17.0729 19.5624 16.9908 19.6093C16.8853 19.6679 16.6742 19.7266 16.2402 19.7266C16.3223 19.3161 16.4513 18.4834 16.5452 17.8618C16.6273 17.2989 16.6624 16.9353 16.6507 16.7946C16.768 16.7594 17.3661 16.6304 17.4248 16.6304C17.4951 16.6304 17.5069 16.8415 17.4482 17.3341C17.4365 17.381 17.4365 17.4513 17.4248 17.4982H17.4365V17.5217Z" fill="#DEE5E5"/>
<path d="M20.8378 19.0815C21.131 19.0815 21.7291 18.5303 21.8933 17.5568C21.905 17.4982 21.9168 17.4044 21.9285 17.3457C21.8464 17.2636 21.7291 17.2167 21.5415 17.2167C20.8613 17.2167 20.5681 18.0259 20.5681 18.6123C20.5798 18.9173 20.6853 19.0815 20.8378 19.0815ZM20.4039 19.7734C19.9699 19.7734 19.7119 19.3864 19.7119 18.7414C19.7119 17.6624 20.3921 16.6655 21.5298 16.6655C21.7291 16.6655 21.9168 16.7241 22.0223 16.7828C22.081 16.4779 22.2217 15.5279 22.2334 15.2464C22.4211 15.2112 22.8198 15.1526 23.0075 15.1526C23.0778 15.1526 23.1013 15.223 23.0778 15.3989C22.9137 16.4075 22.6322 18.3309 22.5735 18.7531C22.5384 19.1167 22.5266 19.4685 22.5384 19.6679C22.3273 19.7617 21.8933 19.7851 21.776 19.7851C21.7291 19.7851 21.7057 19.4802 21.7174 19.1987C21.7291 19.1167 21.7409 18.9876 21.7409 18.9642C21.3773 19.5037 20.9199 19.7734 20.4039 19.7734Z" fill="#DEE5E5"/>
<path d="M24.3214 17.6155C24.6733 16.8297 25.0955 16.6538 25.377 16.6538C25.4591 16.6538 25.5998 16.7125 25.6584 16.7711C25.6819 16.9939 25.506 17.4279 25.3535 17.6038C25.2714 17.5686 25.1776 17.5217 25.0603 17.5217C24.8375 17.5217 24.3801 17.8735 24.0986 19.3982C24.0752 19.5272 24.04 19.5741 23.9696 19.6093C23.8523 19.6796 23.4067 19.7266 23.1956 19.7383C23.3011 19.1871 23.4653 18.0729 23.5357 17.4161C23.5591 17.2519 23.5591 16.9353 23.5474 16.818C23.6764 16.7594 24.1807 16.6421 24.2863 16.6421C24.3449 16.6421 24.3918 17.0057 24.298 17.6038H24.3214V17.6155Z" fill="#DEE5E5"/>
<path d="M26.6786 19.0932C27.007 19.0932 27.6051 18.5186 27.7693 17.4161C27.781 17.3458 27.781 17.334 27.7927 17.2637C27.7224 17.2402 27.6168 17.2168 27.523 17.2168C27.2767 17.2168 27.0187 17.2871 26.7959 17.6038C26.5613 17.9322 26.4558 18.3426 26.4558 18.671C26.4675 18.9408 26.5378 19.0932 26.6786 19.0932ZM25.5996 18.7883C25.5996 18.3896 25.7286 17.7093 26.2329 17.205C26.6669 16.7594 27.1829 16.6538 27.6637 16.6538C27.9804 16.6538 28.4026 16.7594 28.6723 16.8063C28.602 17.0995 28.4495 18.2136 28.3674 18.8587C28.3322 19.1284 28.3205 19.5154 28.3322 19.6562C28.1094 19.75 27.6989 19.7735 27.5816 19.7735C27.523 19.7735 27.5113 19.5037 27.523 19.234C27.5347 19.1519 27.5465 19.0229 27.5465 18.9642C27.2884 19.3982 26.7724 19.7617 26.2329 19.7617C25.8576 19.7735 25.5996 19.4451 25.5996 18.7883Z" fill="#DEE5E5"/>
<path d="M24.3681 5.31269C24.591 7.88112 20.5448 10.3323 15.3259 10.7779C10.1069 11.2236 5.70891 9.49958 5.48607 6.93115C5.26324 4.36272 9.3094 1.91157 14.5284 1.46591C19.7356 1.02024 24.1453 2.73253 24.3681 5.31269Z" fill="#DEE5E5"/>
<path d="M14.6691 1.75918C12.6753 1.724 10.3532 2.5215 8.61741 3.26036C8.44149 3.7764 8.33594 4.32761 8.33594 4.90228C8.33594 7.95156 11.092 10.4262 14.4931 10.4262C17.8943 10.4262 20.6621 7.96329 20.6621 4.90228C20.6621 3.94059 20.3806 3.0258 19.8997 2.24003C18.5158 2.02892 16.6042 1.79436 14.6691 1.75918Z" fill="white"/>
<path d="M14.5051 1.75916C13.4027 1.68879 11.5028 2.26347 9.91949 2.83814C9.6732 3.40108 9.54419 4.02267 9.54419 4.67943C9.54419 7.35342 11.9719 9.5231 14.5286 9.5231C17.0736 9.5231 19.3253 7.35342 19.513 4.67943C19.5716 3.81156 19.2784 2.9906 18.8562 2.28692C17.226 2.00545 15.4903 1.82953 14.5051 1.75916Z" fill="white"/>
<path d="M11.6784 4.33926C11.8191 4.03433 12.0185 3.89359 12.2179 3.6473C12.1944 3.58866 12.1475 3.38929 12.1475 3.33065C12.1475 3.02572 12.3938 2.79116 12.687 2.79116C12.7573 2.79116 12.8277 2.80289 12.8864 2.82634C13.7894 2.13439 14.9739 1.84119 16.1702 2.11094C16.2757 2.13439 16.3813 2.16958 16.4868 2.19303C15.3141 2.02884 13.9771 2.45105 13.074 3.17818C13.0975 3.24855 13.1796 3.42447 13.1796 3.50657C13.1796 3.8115 12.9802 3.88186 12.687 3.88186C12.6166 3.88186 12.558 3.87014 12.4876 3.84668C12.2882 4.11642 12.0302 4.64418 11.9129 4.97257C12.4172 5.41823 12.8629 5.58242 13.4493 5.80525C13.4493 5.7818 13.4728 5.74661 13.4728 5.72316C13.4728 4.8201 14.2703 4.08124 15.1733 4.08124C15.9825 4.08124 16.6628 4.66764 16.7918 5.44169C17.2023 5.18367 17.5893 4.9843 17.8825 4.609C17.8121 4.5269 17.7417 4.28062 17.7417 4.16334C17.7417 3.89359 17.9646 3.67076 18.2343 3.67076C18.2695 3.67076 18.3047 3.67076 18.3516 3.68249C18.5041 3.36583 18.6213 3.03745 18.6917 2.69734C17.2726 1.64182 14.5283 1.79428 14.5283 1.79428C14.5283 1.79428 12.3469 1.677 10.8691 2.40414C10.9747 3.08436 11.2562 3.76458 11.6784 4.33926Z" fill="#373535"/>
<path d="M18.4568 3.9288C18.5624 4.02262 18.6093 4.09299 18.6562 4.17509C18.7852 4.40965 18.5272 4.63248 18.2457 4.63248C18.2223 4.63248 18.1871 4.63248 18.1636 4.62075C17.8587 5.1016 17.3192 5.71145 16.8384 6.02811C17.5772 6.14539 18.2692 6.43859 18.8087 6.89598C19.2074 6.18057 19.5124 5.13678 19.5124 4.25718C19.5124 3.58869 19.2192 3.09611 18.7735 2.73254C18.7618 3.09611 18.5624 3.60042 18.4568 3.9288Z" fill="#373535"/>
<path d="M12.4995 8.47929C12.7458 7.79907 13.3439 7.28304 13.9186 6.82564C13.8365 6.70836 13.7075 6.42689 13.6606 6.29788C12.9686 6.08678 12.3588 5.68803 11.8779 5.172C11.8779 5.18373 11.8662 5.20718 11.8662 5.21891C11.7724 5.61766 11.7607 6.02814 11.8076 6.41516C12.1359 6.4738 12.394 6.767 12.394 7.11884C12.394 7.32995 12.2063 7.62315 12.0656 7.76388C12.2063 8.06881 12.3119 8.233 12.4995 8.47929Z" fill="#373535"/>
<path d="M12.4527 9.04223C12.1595 8.74903 11.9602 8.17436 11.7725 7.81079C11.7373 7.81079 11.7021 7.82252 11.667 7.82252C11.2682 7.82252 10.8577 7.49413 10.9515 7.10711C10.9985 6.89601 11.1509 6.75527 11.3855 6.63799C11.3268 6.19233 11.3151 5.57074 11.4207 5.11335C11.4441 4.98434 11.5145 4.9257 11.5497 4.79669C11.1157 4.16338 10.8343 3.31897 10.8343 2.48628V2.39246C10.0954 2.76775 9.54419 3.34242 9.54419 4.25721C9.54419 6.28615 10.717 8.27991 12.4527 9.05396V9.04223Z" fill="#373535"/>
<path d="M16.7333 6.23926C16.5105 6.87257 15.9006 7.34169 15.1852 7.34169C14.7982 7.34169 14.4464 7.21268 14.1766 6.98985C13.6019 7.43551 13.0742 8.22129 12.8162 8.91324C12.9334 9.04225 13.0155 9.1478 13.1563 9.26508C13.555 9.37063 14.118 9.26508 14.5519 9.26508C16.2994 9.26508 17.8592 8.49103 18.7505 7.11886C18.1407 6.69665 17.437 6.2979 16.7333 6.23926Z" fill="#373535"/>
<path d="M11.631 4.5739C11.7717 4.26897 11.9359 3.99923 12.1353 3.74121C12.1118 3.68257 12.1001 3.61221 12.1001 3.55357C12.1001 3.24864 12.3464 3.01408 12.6396 3.01408C12.71 3.01408 12.7803 3.02581 12.839 3.04926C13.742 2.35731 14.9266 2.06411 16.1228 2.33386C16.2284 2.35731 16.3339 2.3925 16.4395 2.41595C15.2667 2.25176 14.047 2.61533 13.1439 3.34246C13.1674 3.41283 13.1908 3.4832 13.1908 3.55357C13.1908 3.85849 12.9445 4.09305 12.6513 4.09305C12.581 4.09305 12.5223 4.08133 12.452 4.05787C12.2526 4.32761 12.0767 4.63254 11.9594 4.96093C12.3933 5.41832 12.9211 5.79361 13.5075 6.00472V5.92262C13.5075 5.01957 14.2463 4.2807 15.1494 4.2807C15.9586 4.2807 16.6388 4.8671 16.7679 5.64115C17.1783 5.38313 17.5302 5.05475 17.8351 4.66773C17.7647 4.58563 17.7178 4.48008 17.7178 4.3628C17.7178 4.09305 17.9407 3.87022 18.2104 3.87022C18.2456 3.87022 18.2808 3.87022 18.3277 3.88195C18.4801 3.56529 18.5974 3.23691 18.6678 2.8968C17.2487 1.84128 14.5043 1.99374 14.5043 1.99374C14.5043 1.99374 12.3229 1.87646 10.8452 2.6036C10.9273 3.31901 11.2088 3.99923 11.631 4.5739Z" fill="#DEE5E5"/>
<path d="M18.5274 4.01095C18.6329 4.10478 18.6916 4.23379 18.6916 4.37452C18.6916 4.64427 18.4687 4.8671 18.199 4.8671C18.1755 4.8671 18.1404 4.8671 18.1169 4.85537C17.812 5.33622 17.4015 5.7467 16.9207 6.05163C17.6243 6.15718 18.2928 6.46211 18.844 6.9195C19.2428 6.20409 19.4774 5.3714 19.4774 4.4918C19.4774 3.82331 19.1842 3.33073 18.7385 2.96716C18.715 3.33073 18.6447 3.68257 18.5274 4.01095Z" fill="#DEE5E5"/>
<path d="M12.5697 8.63182C12.816 7.9516 13.2382 7.35347 13.8128 6.89608C13.7307 6.7788 13.6604 6.66152 13.6135 6.52078C12.9215 6.30968 12.3117 5.91093 11.8308 5.3949C11.8308 5.40663 11.8191 5.43008 11.8191 5.44181C11.7253 5.84056 11.7135 6.25104 11.7604 6.63806C12.0888 6.6967 12.3468 6.9899 12.3468 7.34174C12.3468 7.55285 12.253 7.7405 12.1123 7.8695C12.2296 8.13925 12.3938 8.39726 12.5697 8.63182Z" fill="#DEE5E5"/>
<path d="M12.4525 9.03056C12.1593 8.73736 11.913 8.40898 11.7254 8.04541C11.6902 8.04541 11.655 8.05714 11.6198 8.05714C11.2211 8.05714 10.9044 7.74048 10.9044 7.34173C10.9044 7.06026 11.0686 6.81397 11.3032 6.69669C11.2445 6.25103 11.268 5.80536 11.3735 5.34797C11.397 5.21896 11.4439 5.08995 11.4791 4.96095C11.0452 4.32763 10.7871 3.55359 10.7871 2.7209V2.62708C10.0483 3.00237 9.49707 3.57704 9.49707 4.49183C9.49707 6.52077 10.7051 8.26824 12.4408 9.04229C12.4525 9.04229 12.4525 9.04229 12.4525 9.03056Z" fill="#DEE5E5"/>
<path d="M16.6859 6.47388C16.4631 7.10719 15.8532 7.57631 15.1378 7.57631C14.7508 7.57631 14.3989 7.4473 14.1292 7.22447C13.5545 7.67013 13.1206 8.27999 12.8508 8.97194C12.9681 9.10095 13.0971 9.21823 13.2261 9.33551C13.6249 9.44106 14.0471 9.4997 14.481 9.4997C16.2285 9.4997 17.7766 8.59664 18.6679 7.22447C18.0815 6.80226 17.3896 6.53252 16.6859 6.47388Z" fill="#DEE5E5"/>
<path d="M16.7451 6.05161L18.258 5.68805L16.7333 5.60595L17.9765 4.66771L16.5692 5.17202L17.5191 3.84675L16.1939 4.72635L16.6513 3.17826L15.7482 4.45661L15.7247 2.83814L15.1266 4.28069L14.634 2.82642L14.6575 4.5387L13.8013 3.00234L14.2705 4.63253L12.8748 3.62392L13.9655 4.9961L12.2298 4.36278L13.5902 5.37139L11.8428 5.43003L13.6372 5.88742L11.8428 6.27445L13.6137 6.40345L12.1242 7.35342L13.6606 6.80221L12.5934 8.15093L13.9421 7.06022L13.4612 8.86633L14.505 7.38861L14.3643 9.12435L14.9507 7.54107L15.455 9.19472L15.5723 7.52934L16.3229 8.94843L15.8772 7.32997L17.2377 8.38549L16.3581 7.03677L17.8592 7.62317L16.7099 6.49728L18.2463 6.61456L16.7451 6.05161Z" fill="white"/>
<path d="M0.595215 8.94845C5.29814 4.24552 9.0511 2.79125 12.4639 2.13448C12.9096 2.05238 13.0034 1.0555 13.0034 1.0555C13.0034 1.0555 13.0621 1.78264 13.3787 1.87646C13.6954 1.97029 14.1059 0.738849 14.1059 0.738849C14.1059 0.738849 13.7306 1.84128 14.1059 1.91165C14.4812 1.97029 15.1848 0.832673 15.1848 0.832673C15.1848 0.832673 14.9034 1.8061 15.091 1.87646C15.2787 1.9351 16.2286 0.457377 16.2286 0.457377C16.2286 0.457377 15.6657 1.4308 16.1934 1.53635C16.7329 1.63018 17.5187 0.867857 17.5187 0.867857C17.5187 0.867857 16.9089 1.55981 17.1786 1.66536C18.3514 2.07584 19.2896 0.562929 19.2896 0.562929C19.2896 0.562929 19.0668 1.23142 18.5039 1.95856C19.7353 2.27522 20.6501 0.422193 20.6501 0.422193L19.7353 2.27522C20.2044 2.50978 22.0926 0.328369 22.0926 0.328369C22.0926 0.328369 21.1192 2.02893 20.5445 2.38077C20.8612 2.63878 21.9988 1.61845 21.9988 1.61845C21.9988 1.61845 21.084 2.75606 21.4359 2.8147C21.9402 3.22518 23.8049 0.703665 23.8049 0.703665C23.8049 0.703665 23.0778 2.19312 22.0105 3.35419C22.9019 3.81158 25.1302 0.938225 25.1302 0.938225C25.1302 0.938225 25.0715 1.85301 23.4531 3.30728C24.6493 3.15482 26.1974 0.879585 26.1974 0.879585C26.1974 0.879585 25.6345 2.58014 24.274 3.78813C25.4468 3.67085 27.335 0.762305 27.335 0.762305C27.335 0.762305 26.6079 2.77952 25.1302 3.95232C26.7721 4.31589 29.1412 1.86474 29.1412 1.86474C29.1412 1.86474 28.2146 3.60048 26.9949 4.31589C28.3554 4.83192 30.2201 2.6857 30.2201 2.6857C30.2201 2.6857 28.3554 5.55905 25.3882 5.43005C24.4148 5.38313 21.471 2.47459 15.1614 2.70915C6.81105 3.01408 5.05185 6.55593 0.595215 8.94845Z" fill="#373535" fill-opacity="0.35"/>
<path d="M0.782959 8.59662C5.48588 3.89369 9.23884 2.43942 12.6517 1.78266C13.0974 1.70056 13.1912 0.70368 13.1912 0.70368C13.1912 0.70368 13.2498 1.43082 13.5665 1.52464C13.8831 1.61846 14.2936 0.387024 14.2936 0.387024C14.2936 0.387024 13.9183 1.48946 14.2936 1.55982C14.6689 1.61846 15.3726 0.480848 15.3726 0.480848C15.3726 0.480848 15.0911 1.45427 15.2788 1.52464C15.4664 1.58328 16.4164 0.105552 16.4164 0.105552C16.4164 0.105552 15.8534 1.07898 16.3812 1.18453C16.9207 1.27835 17.7065 0.516032 17.7065 0.516032C17.7065 0.516032 17.0966 1.20798 17.3663 1.31354C18.5391 1.72402 19.4774 0.211104 19.4774 0.211104C19.4774 0.211104 19.2546 0.8796 18.6916 1.60674C19.923 1.92339 20.8378 0.070368 20.8378 0.070368L19.923 1.92339C20.3922 2.18141 22.2921 0 22.2921 0C22.2921 0 21.3187 1.70056 20.744 2.0524C21.0607 2.27523 22.1983 1.26662 22.1983 1.26662C22.1983 1.26662 21.2835 2.40424 21.6353 2.46288C22.1396 2.87336 24.0044 0.35184 24.0044 0.35184C24.0044 0.35184 23.2655 1.8413 22.1983 3.00237C23.0896 3.44803 25.3297 0.574672 25.3297 0.574672C25.3297 0.574672 25.271 1.48946 23.6525 2.94373C24.8488 2.79126 26.3969 0.516032 26.3969 0.516032C26.3969 0.516032 25.834 2.21659 24.4735 3.42457C25.6463 3.30729 27.5345 0.398752 27.5345 0.398752C27.5345 0.398752 26.8074 2.41597 25.3297 3.58877C26.9716 3.95233 29.3406 1.50118 29.3406 1.50118C29.3406 1.50118 28.4141 3.23693 27.1944 3.95233C28.5549 4.46837 30.4196 2.32214 30.4196 2.32214C30.4196 2.32214 28.5549 5.1955 25.5877 5.06649C24.6142 5.01958 21.6705 2.11104 15.3609 2.3456C7.01052 2.66225 5.2396 6.19238 0.782959 8.59662Z" fill="#DEE5E5"/>
<path d="M0.478027 9.46449C2.96436 10.7077 5.23959 9.27685 8.10122 10.0861C10.2826 10.6959 12.9332 11.4583 16.5337 10.9305C20.1341 10.4145 23.2069 8.84291 24.6846 6.05165C25.142 4.80848 27.0068 6.33312 27.0068 6.33312C27.0068 6.33312 25.6463 5.77018 25.6815 6.02819C25.7167 6.29794 27.7222 7.22445 27.7222 7.22445C27.7222 7.22445 25.9043 6.6615 26.0216 7.08371C26.1272 7.50592 28.2968 9.21821 28.2968 9.21821C28.2968 9.21821 25.8222 7.36518 25.6228 7.6232C25.4117 7.88121 26.6666 8.90155 26.6666 8.90155C26.6666 8.90155 24.6025 7.6232 23.8754 7.9985C23.3476 8.26824 26.0216 10.0157 26.0216 10.0157C26.0216 10.0157 24.2859 8.69045 23.8754 9.04229C23.4649 9.39413 25.834 12.2323 25.834 12.2323C25.834 12.2323 23.1365 9.32376 22.8668 9.46449C22.597 9.60523 23.6056 11.0009 23.6056 11.0009C23.6056 11.0009 22.2921 9.54659 21.9285 9.79288C21.565 10.0509 23.8285 13.8156 23.8285 13.8156C23.8285 13.8156 21.3773 9.95707 20.357 10.6021C21.9403 14.0853 21.3539 14.5779 21.3539 14.5779C21.3539 14.5779 21.1545 11.0243 19.1725 11.1181C18.1756 11.1651 19.6416 13.7687 19.6416 13.7687C19.6416 13.7687 18.2929 11.3879 17.3898 11.4348C19.0434 14.5779 18.457 15.8445 18.457 15.8445C18.457 15.8445 18.7268 13.1588 16.4867 11.6694C17.3429 12.4317 15.9473 15.8445 15.9473 15.8445C15.9473 15.8445 17.167 10.8132 15.0442 11.7749C14.7041 11.9274 15.0207 14.2847 15.0207 14.2847C15.0207 14.2847 14.5985 11.5873 13.9535 11.728C13.5782 11.8101 11.5844 15.4692 11.5844 15.4692C11.5844 15.4692 13.2146 11.5169 12.7221 11.6811C12.3585 11.7984 11.6783 13.4286 11.6783 13.4286C11.6783 13.4286 12.0066 11.8218 11.6783 11.728C11.3499 11.6342 9.49685 13.4286 9.49685 13.4286C9.49685 13.4286 10.869 11.8218 10.6345 11.4817C10.2709 10.9774 9.86042 10.9539 9.35612 11.1533C8.62898 11.4348 7.65556 12.7601 7.65556 12.7601C7.65556 12.7601 8.62898 11.4113 8.46479 10.9188C8.19505 10.1095 5.39206 12.4786 5.39206 12.4786C5.39206 12.4786 7.0457 10.9188 6.67041 10.5787C6.29511 10.2503 4.23099 10.3441 3.59767 10.3441C1.70947 10.3676 1.0527 9.92189 0.478027 9.46449Z" fill="#373535" fill-opacity="0.35"/>
<path d="M0.372559 9.183C2.85889 10.4262 5.13412 8.99535 7.99575 9.80458C10.1772 10.4144 12.8277 11.1768 16.4282 10.649C20.0287 10.133 23.1014 8.56142 24.5791 5.77015C25.0365 4.52699 26.9013 6.05163 26.9013 6.05163C26.9013 6.05163 25.5408 5.48868 25.576 5.7467C25.6112 6.01644 27.6167 6.94295 27.6167 6.94295C27.6167 6.94295 25.7988 6.38001 25.9161 6.80222C26.0217 7.22442 28.1914 8.93671 28.1914 8.93671C28.1914 8.93671 25.7402 7.07196 25.5408 7.32998C25.3415 7.58799 26.5846 8.60833 26.5846 8.60833C26.5846 8.60833 24.5205 7.32998 23.7934 7.70527C23.2656 7.97502 25.9396 9.72249 25.9396 9.72249C25.9396 9.72249 24.2038 8.39722 23.7934 8.74906C23.3829 9.1009 25.7519 11.9391 25.7519 11.9391C25.7519 11.9391 23.0662 9.03054 22.7965 9.17127C22.5267 9.31201 23.5353 10.7076 23.5353 10.7076C23.5353 10.7076 22.1984 9.2651 21.8348 9.51138C21.4712 9.7694 23.723 13.5341 23.723 13.5341C23.723 13.5341 21.2718 9.66385 20.2632 10.3089C21.8582 13.8038 21.2601 14.2964 21.2601 14.2964C21.2601 14.2964 21.0607 10.7428 19.0787 10.8366C18.0818 10.8836 19.5478 13.4872 19.5478 13.4872C19.5478 13.4872 18.2108 11.1181 17.3078 11.165C18.9614 14.3081 18.375 15.5748 18.375 15.5748C18.375 15.5748 18.6448 12.889 16.4047 11.3996C17.2609 12.1619 15.8652 15.5748 15.8652 15.5748C15.8652 15.5748 17.085 10.5434 14.9622 11.5051C14.6221 11.6576 14.9387 14.0149 14.9387 14.0149C14.9387 14.0149 14.5165 11.3175 13.8715 11.4582C13.4962 11.5403 11.5024 15.1995 11.5024 15.1995C11.5024 15.1995 13.1326 11.2471 12.64 11.4113C12.2765 11.5286 11.5962 13.1588 11.5962 13.1588C11.5962 13.1588 11.9246 11.5521 11.5962 11.4582C11.2679 11.3644 9.41484 13.1588 9.41484 13.1588C9.41484 13.1588 10.787 11.5521 10.5525 11.2119C10.1889 10.7076 9.77841 10.6842 9.27411 10.8836C8.54697 11.165 7.57355 12.4903 7.57355 12.4903C7.57355 12.4903 8.54697 11.1416 8.38278 10.649C8.11303 9.83977 5.31004 12.2088 5.31004 12.2088C5.31004 12.2088 6.96369 10.649 6.5884 10.3089C6.2131 9.9805 4.14897 10.0743 3.51566 10.0743C1.604 10.0861 0.94723 9.64039 0.372559 9.183Z" fill="#DEE5E5"/>
</svg>
