<svg width="30" height="29" viewBox="0 0 30 29" fill="none" xmlns="http://www.w3.org/2000/svg">
<mask id="mask0_3_247" style="mask-type:luminance" maskUnits="userSpaceOnUse" x="0" y="0" width="30" height="29">
<path d="M29.8125 0H0.8125V29H29.8125V0Z" fill="white"/>
</mask>
<g mask="url(#mask0_3_247)">
<path d="M14.3629 0.00780515C14.3005 0.0134747 14.102 0.0333183 13.9234 0.0474923C9.80448 0.418851 5.94632 2.64133 3.50272 6.05727C2.14202 7.95659 1.27174 10.111 0.942901 12.393C0.826674 13.1897 0.8125 13.4249 0.8125 14.505C0.8125 15.5851 0.826674 15.8203 0.942901 16.6169C1.73097 22.0626 5.60615 26.6379 10.8619 28.3331C11.803 28.6364 12.7952 28.8434 13.9234 28.9681C14.3629 29.0163 16.2621 29.0163 16.7016 28.9681C18.6491 28.7527 20.2989 28.2708 21.9261 27.4402C22.1756 27.3126 22.2237 27.2786 22.1897 27.2502C22.167 27.2332 21.104 25.8073 19.8283 24.0838L17.5095 20.9513L14.6038 16.651C13.0049 14.2867 11.6896 12.3534 11.6783 12.3534C11.6669 12.3505 11.6556 14.2612 11.6499 16.5942C11.6414 20.6792 11.6386 20.8436 11.5876 20.9399C11.5139 21.0789 11.4572 21.1356 11.3381 21.1979C11.2474 21.2433 11.168 21.2518 10.74 21.2518H10.2495L10.1191 21.1696C10.0341 21.1157 9.97174 21.0448 9.92922 20.9627L9.86968 20.8351L9.87535 15.1513L9.88386 9.46469L9.97174 9.35414C10.0171 9.29461 10.1135 9.21807 10.1815 9.18122C10.2977 9.12452 10.3431 9.11886 10.8335 9.11886C11.4118 9.11886 11.5082 9.14153 11.6584 9.30594C11.701 9.3513 13.2743 11.7212 15.1566 14.5759C17.0388 17.4305 19.6128 21.3283 20.8772 23.2418L23.1734 26.7201L23.2897 26.6436C24.3187 25.9746 25.4073 25.022 26.2689 24.0299C28.1031 21.9236 29.2852 19.3553 29.6821 16.6169C29.7984 15.8203 29.8125 15.5851 29.8125 14.505C29.8125 13.4249 29.7984 13.1897 29.6821 12.393C28.894 6.9474 25.0188 2.37203 19.7632 0.676818C18.8361 0.376329 17.8496 0.169389 16.7441 0.0446576C16.4719 0.0163096 14.5981 -0.0148733 14.3629 0.00780515ZM20.2989 8.77867C20.435 8.84672 20.5456 8.97711 20.5852 9.11318C20.6079 9.18689 20.6136 10.763 20.6079 14.315L20.5994 19.412L19.7008 18.0343L18.7993 16.6566V12.9515C18.7993 10.5561 18.8106 9.20957 18.8277 9.14436C18.873 8.98561 18.9722 8.86089 19.1082 8.78718C19.2245 8.72765 19.267 8.72198 19.7122 8.72198C20.1317 8.72198 20.2054 8.72765 20.2989 8.77867Z" fill="#DEE5E5"/>
</g>
</svg>
