<svg width="24" height="30" viewBox="0 0 24 30" fill="none" xmlns="http://www.w3.org/2000/svg">
<path d="M11.1945 26.6952H13.093C13.4376 26.6952 13.7186 26.9762 13.7186 27.3209V28.8414C13.7186 29.1853 13.4376 29.4664 13.093 29.4664H11.1945C10.8506 29.4664 10.5696 29.1853 10.5696 28.8414V27.3209C10.5696 26.9762 10.8506 26.6952 11.1945 26.6952ZM3.29408 8.39143C3.31784 13.0848 7.30377 20.4058 10.9883 25.4583H11.3509C8.5488 20.347 6.15902 14.0447 6.13791 9.07746C6.11825 4.57094 7.95895 1.71113 10.4432 0.0790578C9.89174 0.130379 9.3392 0.2069 8.79174 0.312137C5.72803 1.53035 3.27211 4.0444 3.29408 8.39143ZM11.4039 0.0145314C9.96821 1.94657 8.86076 4.68603 8.87062 8.66118C8.88383 13.8497 10.0977 20.017 11.6631 25.4583H12.6251C14.1906 20.0171 15.4044 13.8497 15.4177 8.66118C15.4275 4.68603 14.3201 1.94657 12.8844 0.0145314C12.3914 -0.0048438 11.8969 -0.0048438 11.4039 0.0145314ZM20.9941 8.39143C20.9704 13.0848 16.9845 20.4058 13.2999 25.4583H12.9374C15.7394 20.347 18.1293 14.0447 18.1501 9.07746C18.17 4.57099 16.3293 1.71113 13.845 0.0790578C14.3965 0.130379 14.9491 0.2069 15.4958 0.312137C18.5602 1.53035 21.016 4.0444 20.9941 8.39143ZM13.5501 25.4583C17.6746 21.1179 22.354 13.863 22.385 8.27247C22.4037 4.84409 20.7349 2.57056 18.3974 1.18212C21.2613 2.41083 23.4401 4.6786 23.419 8.36456C23.3854 14.0431 17.9427 21.5448 13.6218 25.4583H13.5501ZM10.7382 25.4583C6.61364 21.118 1.93424 13.863 1.90327 8.27247C1.88459 4.84409 3.55265 2.57056 5.89018 1.18212C3.02703 2.41089 0.848187 4.67865 0.869293 8.36456C0.902911 14.0431 6.34562 21.5448 10.6665 25.4583H10.7382Z" fill="#DEE5E5"/>
</svg>
