<svg width="30" height="21" viewBox="0 0 30 21" fill="none" xmlns="http://www.w3.org/2000/svg">
<path d="M28.9634 7.765C28.3699 7.37833 27.6408 7.14767 26.8575 7.14767C26.7674 7.14767 26.6783 7.15054 26.5902 7.15628L26.6018 7.15532C26.17 7.15628 25.7479 7.19456 25.3373 7.26539L25.3819 7.25869C25.1543 5.9599 24.3894 4.87071 23.3272 4.20457L23.3088 4.19404L22.8935 3.95667L22.6204 4.34717C22.2951 4.83721 22.0404 5.40765 21.8884 6.01732L21.8807 6.05465C21.7945 6.36475 21.7451 6.7208 21.7451 7.08833C21.7451 7.88368 21.9775 8.62448 22.3784 9.24947L22.3687 9.2332C21.7519 9.51937 21.0315 9.70027 20.2734 9.73472H20.2608H1.15823C0.658609 9.73568 0.253881 10.1348 0.251945 10.6277C0.250977 10.6813 0.250977 10.7454 0.250977 10.8096C0.250977 12.4854 0.557911 14.0905 1.1195 15.5731L1.08851 15.4793C1.62879 17.0422 2.64933 18.3267 3.97389 19.1938L4.001 19.2101C5.68963 20.0743 7.68809 20.5806 9.80565 20.5806C10.0061 20.5806 10.2046 20.5759 10.4031 20.5672L10.375 20.5682C10.3924 20.5682 10.4127 20.5682 10.4331 20.5682C11.6647 20.5682 12.8682 20.4524 14.035 20.2313L13.9159 20.2504C15.6539 19.9289 17.2031 19.3517 18.607 18.5535L18.5354 18.5908C19.7525 17.8874 20.7924 17.0394 21.6773 16.0526L21.689 16.0392C22.9719 14.5461 24.0157 12.8032 24.7341 10.9043L24.7738 10.7847H25.041C25.0943 10.7866 25.1563 10.7885 25.2182 10.7885C26.4053 10.7885 27.4839 10.3281 28.2808 9.57776L28.2789 9.57967C28.6439 9.23703 28.9334 8.82069 29.1241 8.35362L29.1329 8.33065L29.251 7.98705L28.9634 7.765ZM2.92818 9.18343H5.49017C5.61313 9.18247 5.71286 9.08389 5.71286 8.96234V6.70835C5.71286 6.5868 5.61313 6.48726 5.49017 6.48631H2.92818C2.80521 6.48726 2.70549 6.58585 2.70549 6.7074V8.96234C2.70549 9.08389 2.80521 9.18343 2.92818 9.18343ZM6.45648 9.18343H9.01653C9.13949 9.18343 9.24019 9.08485 9.24019 8.96234V6.70835C9.24019 6.5868 9.14046 6.48726 9.0175 6.48631H6.45551C6.33157 6.48631 6.23088 6.58584 6.23088 6.70835V8.96234C6.23185 9.08485 6.33254 9.18343 6.45648 9.18343ZM10.0371 9.18343H12.599C12.722 9.18247 12.8217 9.08389 12.8217 8.96234V6.70835C12.8217 6.5868 12.722 6.48726 12.599 6.48631H10.0371C9.91409 6.48726 9.81436 6.58585 9.81436 6.7074V8.96234C9.81436 9.08389 9.91409 9.18343 10.038 9.18343H10.0371ZM13.577 9.18343H16.1361C16.26 9.18343 16.3597 9.08485 16.3607 8.96234V6.70835C16.3607 6.58584 16.26 6.48631 16.1361 6.48631H13.577C13.454 6.48631 13.3533 6.58489 13.3533 6.7074V8.96234C13.3533 9.08389 13.453 9.18343 13.576 9.18343C13.576 9.18343 13.576 9.18343 13.577 9.18343ZM6.45648 5.94076H9.01653C9.14046 5.9398 9.24019 5.84122 9.24019 5.71871V3.46472C9.24019 3.34317 9.14046 3.24363 9.01653 3.24363H6.45648C6.33254 3.24363 6.23281 3.34221 6.23185 3.46472V5.71871C6.23281 5.84122 6.33254 5.9398 6.45648 5.94076ZM10.0371 5.94076H12.599C12.722 5.9398 12.8217 5.84026 12.8217 5.71871V3.46472C12.8217 3.34317 12.722 3.24363 12.5981 3.24363H10.039C9.91603 3.24363 9.81533 3.34221 9.81533 3.46472V5.71871C9.8163 5.84122 9.91506 5.9398 10.039 5.94076H10.0371ZM13.577 5.94076H16.1361C16.26 5.9398 16.3597 5.84122 16.3607 5.71871V3.46472C16.3597 3.34221 16.26 3.24363 16.1361 3.24363H13.577C13.454 3.24363 13.3533 3.34221 13.3533 3.46472V5.71871C13.3533 5.84122 13.453 5.9398 13.577 5.94076ZM13.577 2.69808H16.1361C16.26 2.69808 16.3607 2.59854 16.3607 2.47603V0.221091C16.3597 0.0985818 16.26 0 16.1361 0H13.577C13.454 0 13.3533 0.0985818 13.3533 0.221091V2.47603C13.3533 2.59759 13.453 2.69712 13.576 2.69712C13.576 2.69712 13.576 2.69712 13.577 2.69712V2.69808ZM17.1469 9.18343H19.707C19.8309 9.18343 19.9306 9.08485 19.9316 8.96234V6.70835C19.9316 6.58584 19.8309 6.48631 19.707 6.48631H17.1469C17.023 6.48631 16.9232 6.58489 16.9232 6.7074V8.96234C16.9232 9.08389 17.023 9.18343 17.1469 9.18343Z" fill="#DEE5E5"/>
</svg>
