<svg width="29" height="30" viewBox="0 0 29 30" fill="none" xmlns="http://www.w3.org/2000/svg">
<path d="M10.6375 5.27642C6.55194 4.52436 3.32083 5.31287 2.03427 7.56907C1.07181 9.25542 1.3468 11.4884 2.68901 13.8639C2.71494 13.9148 2.75077 13.9598 2.79436 13.9963C2.83794 14.0327 2.88837 14.0599 2.94261 14.0761C2.99684 14.0924 3.05376 14.0973 3.10994 14.0907C3.16611 14.0841 3.22038 14.066 3.26947 14.0376C3.31856 14.0091 3.36146 13.971 3.39558 13.9253C3.4297 13.8797 3.45434 13.8275 3.46801 13.772C3.48167 13.7164 3.48409 13.6586 3.47511 13.6021C3.46614 13.5456 3.44595 13.4915 3.41576 13.4431C2.19796 11.293 1.96225 9.36475 2.76103 7.9832C3.83152 6.108 6.71235 5.40563 10.4902 6.10138L10.5589 6.13451C10.6644 6.13668 10.7668 6.09851 10.8457 6.02762C10.9246 5.95672 10.9741 5.85832 10.9845 5.75206C10.9948 5.6458 10.9652 5.53951 10.9014 5.45441C10.8377 5.36931 10.7446 5.31166 10.6407 5.29299L10.6375 5.27642ZM4.6663 17.611C6.48852 19.5867 8.59816 21.2693 10.9223 22.6005C16.8476 26.0659 23.1593 27.0068 26.2725 24.8434C26.3312 24.8054 26.3794 24.7529 26.4126 24.6909C26.4458 24.6289 26.4629 24.5594 26.4624 24.4889C26.459 24.4135 26.4358 24.3403 26.3952 24.2769C26.3546 24.2136 26.2979 24.1624 26.2312 24.1286C26.1644 24.0949 26.09 24.0797 26.0155 24.0848C25.9411 24.0899 25.8693 24.115 25.8077 24.1576C22.9989 26.0659 17.0179 25.1847 11.3413 21.8683C9.09414 20.5797 7.05505 18.9507 5.29485 17.0378C5.253 16.9926 5.20222 16.9569 5.14582 16.9329C5.08941 16.909 5.02865 16.8973 4.96748 16.8987C4.85635 16.8987 4.74977 16.9433 4.67118 17.0229C4.5926 17.1024 4.54845 17.2103 4.54845 17.3227C4.54899 17.4288 4.58735 17.5312 4.65648 17.611H4.6663Z" fill="#DEE5E5"/>
<path d="M24.6223 16.3716C27.25 13.1833 28.1602 9.97178 26.9058 7.72836C25.9763 6.07636 24.0112 5.2008 21.4028 5.16776C21.2936 5.16776 21.1889 5.21232 21.1117 5.29163C21.0345 5.37094 20.9911 5.47851 20.9911 5.59067C20.9911 5.70284 21.0345 5.81041 21.1117 5.88972C21.1889 5.96903 21.2936 6.01358 21.4028 6.01358C23.7507 6.04332 25.4424 6.79663 26.2015 8.15127C27.25 10.0147 26.433 12.876 24.0015 15.8265C23.9312 15.9141 23.8976 16.0268 23.9081 16.1399C23.9187 16.253 23.9725 16.3571 24.0578 16.4294C24.1431 16.5017 24.2529 16.5363 24.363 16.5254C24.473 16.5146 24.5744 16.4592 24.6448 16.3716H24.6223ZM17.2248 5.01247C14.6453 5.61109 12.1709 6.61404 9.88846 7.98607C3.90295 11.561 -0.0337912 16.8243 0.512978 20.6371C0.528759 20.7484 0.586928 20.8487 0.67469 20.9159C0.762451 20.9831 0.872616 21.0118 0.980948 20.9956C1.08928 20.9794 1.18691 20.9196 1.25235 20.8294C1.3178 20.7393 1.3457 20.6261 1.32992 20.5148C0.84104 17.1282 4.5462 12.1458 10.313 8.73278C12.52 7.39908 14.9143 6.4239 17.4114 5.84178C17.5131 5.82313 17.6042 5.76587 17.6668 5.68138C17.7293 5.59688 17.7586 5.49133 17.7489 5.38566C17.7392 5.27999 17.6911 5.18194 17.6143 5.11097C17.5375 5.04001 17.4375 5.00131 17.3342 5.00256C17.3032 4.99915 17.2719 4.99915 17.2409 5.00256L17.2248 5.01247Z" fill="#DEE5E5"/>
<path d="M8.40244 23.8219C9.75968 27.6448 11.9815 30 14.483 30C16.3043 30 17.9794 28.7471 19.3049 26.5424C19.3455 26.4784 19.3665 26.4037 19.3653 26.3277C19.365 26.238 19.3355 26.1509 19.2814 26.0797C19.2272 26.0085 19.1515 25.9571 19.0656 25.9335C18.9798 25.9099 18.8886 25.9153 18.8061 25.9488C18.7236 25.9824 18.6543 26.0424 18.6088 26.1194C17.4264 28.103 15.9738 29.1797 14.4767 29.1797C12.4011 29.1797 10.4176 27.0808 9.16211 23.5463C9.13079 23.4548 9.06836 23.3774 8.98588 23.3278C8.90339 23.2782 8.80616 23.2596 8.7114 23.2753C8.61663 23.2911 8.53045 23.3401 8.46808 23.4137C8.40572 23.4874 8.37121 23.5809 8.37065 23.6777C8.36956 23.727 8.3782 23.776 8.39608 23.8219H8.40244ZM21.5744 22.7997C22.3139 20.3344 22.6815 17.7711 22.6646 15.1956C22.6646 8.40222 20.2966 2.54454 16.9432 1.03205C16.8938 1.01161 16.8409 1.00074 16.7875 1.00001C16.6946 0.999355 16.6044 1.03073 16.5316 1.08894C16.4589 1.14714 16.4081 1.22866 16.3877 1.31997C16.3673 1.41128 16.3785 1.50689 16.4194 1.59091C16.4603 1.67494 16.5285 1.74232 16.6126 1.78189C19.6037 3.13095 21.8446 8.69062 21.8446 15.1956C21.8633 17.6912 21.5108 20.1755 20.7988 22.5657C20.7861 22.6073 20.7796 22.6505 20.7797 22.6939C20.7797 22.8027 20.8226 22.907 20.8989 22.984C20.9752 23.0609 21.0787 23.1041 21.1866 23.1041C21.2745 23.1037 21.3599 23.0748 21.4303 23.0217C21.5007 22.9687 21.5523 22.8942 21.5776 22.8093L21.5744 22.7997ZM28.4623 22.1588C28.4661 21.7695 28.355 21.3878 28.1432 21.0623C27.9315 20.7367 27.6285 20.482 27.2728 20.3304C26.9171 20.1787 26.5248 20.1371 26.1456 20.2107C25.7663 20.2843 25.4174 20.4698 25.143 20.7438C24.8686 21.0177 24.6811 21.3677 24.6044 21.7492C24.5276 22.1308 24.5651 22.5267 24.712 22.8868C24.8589 23.2468 25.1086 23.5547 25.4294 23.7714C25.7502 23.9881 26.1277 24.1038 26.5139 24.1039C26.7696 24.1043 27.0229 24.0539 27.2593 23.9555C27.4956 23.8571 27.7105 23.7128 27.8914 23.5306C28.0724 23.3485 28.216 23.1321 28.3139 22.894C28.4119 22.6558 28.4623 22.4006 28.4623 22.1428V22.1588ZM27.6486 22.1588C27.6486 22.385 27.582 22.6062 27.4574 22.7943C27.3327 22.9825 27.1554 23.1291 26.9481 23.2157C26.7408 23.3023 26.5126 23.3249 26.2925 23.2808C26.0724 23.2366 25.8702 23.1277 25.7115 22.9677C25.5528 22.8077 25.4447 22.6039 25.4009 22.382C25.3571 22.1601 25.3796 21.93 25.4655 21.721C25.5514 21.512 25.6968 21.3333 25.8834 21.2076C26.07 21.0819 26.2894 21.0148 26.5139 21.0148C26.663 21.0144 26.8107 21.0437 26.9486 21.101C27.0865 21.1584 27.2117 21.2426 27.3172 21.3489C27.4226 21.4552 27.5062 21.5815 27.5631 21.7205C27.62 21.8595 27.649 22.0084 27.6486 22.1588ZM2.41086 24.6422C2.79623 24.6422 3.17294 24.527 3.49336 24.3112C3.81378 24.0953 4.06352 23.7885 4.211 23.4296C4.35847 23.0707 4.39706 22.6757 4.32187 22.2947C4.24669 21.9136 4.06112 21.5636 3.78862 21.2889C3.51613 21.0142 3.16895 20.8271 2.79098 20.7513C2.41302 20.6755 2.02125 20.7144 1.66522 20.8631C1.30918 21.0118 1.00488 21.2636 0.790777 21.5866C0.576678 21.9096 0.462402 22.2894 0.462402 22.6779C0.462402 23.1989 0.667685 23.6985 1.03309 24.0669C1.3985 24.4353 1.8941 24.6422 2.41086 24.6422ZM2.41086 23.8219C2.18643 23.8219 1.96704 23.7548 1.78043 23.6291C1.59382 23.5034 1.44838 23.3247 1.36249 23.1157C1.2766 22.9066 1.25413 22.6766 1.29792 22.4547C1.3417 22.2328 1.44978 22.029 1.60847 21.869C1.76717 21.709 1.96936 21.6 2.18948 21.5559C2.4096 21.5118 2.63776 21.5344 2.84511 21.621C3.05245 21.7076 3.22968 21.8542 3.35436 22.0423C3.47905 22.2305 3.5456 22.4516 3.5456 22.6779C3.5456 22.9813 3.42605 23.2723 3.21324 23.4868C3.00044 23.7014 2.71181 23.8219 2.41086 23.8219Z" fill="#DEE5E5"/>
<path d="M14.4624 3.87231C14.858 3.87231 15.2446 3.75876 15.5735 3.54601C15.9024 3.33326 16.1588 3.03088 16.3102 2.67709C16.4615 2.3233 16.5011 1.93401 16.424 1.55843C16.3468 1.18285 16.1563 0.837864 15.8766 0.567088C15.5969 0.296312 15.2405 0.111911 14.8526 0.0372036C14.4646 -0.0375034 14.0625 0.000838881 13.697 0.147382C13.3316 0.293925 13.0192 0.542087 12.7995 0.860486C12.5797 1.17889 12.4624 1.55322 12.4624 1.93616C12.4624 2.19027 12.5142 2.44188 12.6147 2.67661C12.7153 2.91134 12.8626 3.12457 13.0484 3.30411C13.2341 3.48365 13.4546 3.62596 13.6973 3.72292C13.9399 3.81988 14.1999 3.86957 14.4624 3.86915V3.87231ZM14.4624 3.06374C14.2319 3.06436 14.0064 2.99876 13.8144 2.87524C13.6224 2.75172 13.4726 2.57584 13.384 2.36986C13.2953 2.16387 13.2718 1.93706 13.3164 1.71812C13.3609 1.49918 13.4716 1.29797 13.6344 1.13996C13.7971 0.981948 14.0047 0.874242 14.2307 0.830478C14.4567 0.786713 14.6911 0.808857 14.9041 0.894108C15.1171 0.979358 15.2992 1.12388 15.4274 1.30938C15.5555 1.49488 15.6239 1.71301 15.6239 1.93616C15.6239 2.23437 15.5015 2.52037 15.2837 2.73124C15.0659 2.94211 14.7705 3.06058 14.4624 3.06058V3.06374ZM14.7658 14.9681C14.5803 15.0071 14.3887 15.0104 14.2018 14.9777C14.015 14.945 13.8367 14.877 13.677 14.7776C13.5173 14.6781 13.3794 14.5492 13.2713 14.3982C13.1631 14.2472 13.0867 14.077 13.0464 13.8974C13.0257 13.7996 13.0148 13.7002 13.0138 13.6005C13.0138 13.3365 13.091 13.0779 13.2365 12.8545C13.3819 12.6312 13.5896 12.4523 13.8357 12.3384C14.0817 12.2245 14.356 12.1803 14.6268 12.211C14.8977 12.2416 15.1541 12.3458 15.3664 12.5115C15.5787 12.6772 15.7382 12.8977 15.8265 13.1475C15.9149 13.3972 15.9284 13.6661 15.8656 13.923C15.8028 14.1799 15.6662 14.4143 15.4716 14.5993C15.277 14.7842 15.0323 14.9121 14.7658 14.9681Z" fill="#DEE5E5"/>
</svg>
