<svg width="19" height="30" viewBox="0 0 19 30" fill="none" xmlns="http://www.w3.org/2000/svg">
<path d="M9.28516 21.9695V29.2927L18.2509 16.6311L9.28516 21.9695Z" fill="#DEE5E5"/>
<mask id="path-2-inside-1_1_48" fill="white">
<path d="M9.28518 0L18.251 14.9201L9.28518 20.2585L0.250977 14.9201"/>
</mask>
<path d="M9.28518 0L18.251 14.9201L9.28518 20.2585L0.250977 14.9201" fill="#DEE5E5"/>
<path d="M18.2509 14.9201L18.7626 15.7794L19.6253 15.2657L19.1081 14.4051L18.2509 14.9201ZM9.28518 20.2585L8.77645 21.1194L9.28712 21.4212L9.79678 21.1177L9.28518 20.2585ZM8.42804 0.515074L17.3938 15.4352L19.1081 14.4051L10.1423 -0.515074L8.42804 0.515074ZM17.7394 14.0609L8.77359 19.3993L9.79678 21.1177L18.7626 15.7794L17.7394 14.0609ZM9.79391 19.3976L0.759706 14.0592L-0.257753 15.7811L8.77645 21.1194L9.79391 19.3976Z" fill="#B1B1B1" mask="url(#path-2-inside-1_1_48)"/>
<path d="M9.28518 0V10.8137L0.250977 14.9201M0.250977 16.6312L9.28518 21.9696V29.2927" fill="#DEE5E5"/>
<path d="M9.28516 10.8137V20.2586L18.2509 14.9202" fill="#DEE5E5"/>
<mask id="path-6-inside-2_1_48" fill="white">
<path d="M0.250977 14.9202L9.28518 10.8137V20.2586"/>
</mask>
<path d="M0.250977 14.9202L9.28518 10.8137V20.2586" fill="#DEE5E5"/>
<path d="M9.28518 10.8137H10.2852V9.26072L8.87138 9.90335L9.28518 10.8137ZM0.66478 15.8305L9.69899 11.7241L8.87138 9.90335L-0.162826 14.0098L0.66478 15.8305ZM8.28518 10.8137V20.2586H10.2852V10.8137H8.28518Z" fill="#DEE5E5" mask="url(#path-6-inside-2_1_48)"/>
</svg>
