<svg width="30" height="18" viewBox="0 0 30 18" fill="none" xmlns="http://www.w3.org/2000/svg">
<path d="M30 17.5161C29.5634 17.6868 29.0814 17.6864 28.645 17.515C28.2087 17.3436 27.8481 17.0129 27.6313 16.5854L23.3188 10.4186L22.6938 9.55645L17.69 16.5932C17.4862 17.0027 17.1452 17.3215 16.7306 17.4899C16.3161 17.6584 15.8564 17.6649 15.4375 17.5083L21.885 8.56376L15.8875 0.483939C16.3188 0.32324 16.7904 0.32111 17.223 0.477906C17.6555 0.634702 18.0227 0.940846 18.2625 1.34479L22.7325 7.58787L27.2275 1.37064C27.4328 0.968375 27.774 0.658161 28.186 0.498969C28.5981 0.339778 29.0524 0.342708 29.4625 0.507205L27.135 3.70113L23.9825 7.94462C23.895 8.02537 23.8249 8.12435 23.7769 8.23506C23.729 8.34577 23.7042 8.46571 23.7042 8.58703C23.7042 8.70834 23.729 8.82828 23.7769 8.93899C23.8249 9.0497 23.895 9.14868 23.9825 9.22943L29.9875 17.5174L30 17.5161ZM0.00251499 8.4526L0.527515 5.77053C1.97001 0.467136 7.85001 -1.73927 11.895 1.54384C14.2638 3.46847 14.855 6.1932 14.7388 9.26433H1.39501C1.17876 14.7487 5.00626 18.0602 9.90001 16.3683C10.6933 16.073 11.4034 15.5788 11.9667 14.93C12.53 14.2813 12.9288 13.4982 13.1275 12.6508C13.3863 11.79 13.8125 11.6426 14.595 11.8908C14.4646 12.9409 14.1056 13.9467 13.5451 14.8326C12.9846 15.7185 12.237 16.4614 11.3588 17.0055C9.90803 17.8261 8.24355 18.1513 6.60329 17.9347C4.96304 17.7181 3.43101 16.9708 2.22626 15.7995C1.03505 14.4131 0.31511 12.6618 0.176265 10.8128C0.176265 10.5091 0.076265 10.2247 0.00876499 9.95197C0.00268003 9.45264 -0.000236696 8.95327 1.49953e-05 8.45389L0.00251499 8.4526ZM1.41126 8.08293H13.4788C13.4038 4.107 10.9775 1.28662 7.74126 1.26077C4.13876 1.20907 1.56126 3.9674 1.40251 8.06483L1.41126 8.08293Z" fill="#DEE5E5"/>
</svg>
