<svg width="20" height="28" viewBox="0 0 20 28" fill="none" xmlns="http://www.w3.org/2000/svg">
<path d="M5.58669 17.67H9.75419M5.58669 17.67C3.28505 17.67 1.41919 19.5358 1.41919 21.8375C1.41919 24.1392 3.28505 26.005 5.58669 26.005C7.8884 26.005 9.75419 24.1392 9.75419 21.8375V17.67M5.58669 17.67C3.28505 17.67 1.41919 15.8042 1.41919 13.5025C1.41919 11.2008 3.28505 9.335 5.58669 9.335M9.75419 17.67V13.5025M5.58669 9.335H9.75419M5.58669 9.335C3.28505 9.335 1.41919 7.46914 1.41919 5.1675C1.41919 2.86586 3.28505 1 5.58669 1H9.75419M9.75419 13.5025V9.335M9.75419 13.5025C9.75419 15.8042 11.62 17.67 13.9217 17.67C16.2234 17.67 18.0892 15.8042 18.0892 13.5025C18.0892 11.2008 16.2234 9.335 13.9217 9.335M9.75419 13.5025C9.75419 11.2008 11.62 9.335 13.9217 9.335M9.75419 9.335V1M9.75419 9.335H13.9217M9.75419 1H13.9217C16.2234 1 18.0892 2.86586 18.0892 5.1675C18.0892 7.46914 16.2234 9.335 13.9217 9.335" stroke="#DEE5E5" stroke-width="2" stroke-linecap="round" stroke-linejoin="round"/>
</svg>
