<svg width="31" height="27" viewBox="0 0 31 27" fill="none" xmlns="http://www.w3.org/2000/svg">
<path d="M21.2037 0.00119925L7.61865 1.27115C7.59201 1.07251 7.48912 0.890543 7.33008 0.760811C7.17104 0.631079 6.96729 0.562906 6.75865 0.569617C6.52428 0.572719 6.30041 0.663418 6.13467 0.822425C5.96893 0.981431 5.87439 1.1962 5.87115 1.42104C5.87115 1.72804 6.04615 1.96668 6.27865 2.11658L0.594904 13.9454L0.536154 13.9982C0.461154 14.0701 0.462404 14.0701 0.462404 14.1421C0.462404 14.1421 0.462404 14.2116 0.536154 14.2116L8.45865 24.9732C8.32308 25.1231 8.24578 25.3133 8.2399 25.5117C8.2399 26.0093 8.68365 26.3631 9.1274 26.3631C9.24017 26.3671 9.35264 26.3495 9.45825 26.3114C9.56386 26.2732 9.6605 26.2153 9.74253 26.141C9.82456 26.0666 9.89034 25.9773 9.93603 25.8784C9.98172 25.7794 10.0064 25.6727 10.0087 25.5644L23.3337 24.3173L23.4987 24.3748C23.5252 24.3529 23.5472 24.3265 23.5637 24.2969C23.6099 24.2921 23.6487 24.2801 23.6487 24.2321L29.3362 12.3889C29.4137 12.4105 29.4924 12.4356 29.5737 12.4356C30.0187 12.4356 30.4624 12.0099 30.4624 11.5842C30.4601 11.3587 30.366 11.1431 30.2002 10.9833C30.0343 10.8235 29.8099 10.7323 29.5749 10.7292C29.462 10.73 29.3503 10.752 29.2462 10.7939L21.3499 0.0719517C21.2749 7.59449e-08 21.2749 0 21.2024 0L21.2037 0.00119925ZM20.5512 0.336974L14.3612 3.58799L7.56865 1.67168C7.59247 1.61328 7.61128 1.55312 7.6249 1.4918L20.5512 0.336974ZM21.0562 0.356161L22.7562 7.4398L18.8624 5.12176C18.9573 4.99234 19.0229 4.84528 19.0549 4.69005C19.0517 4.4652 18.9571 4.25043 18.7914 4.09143C18.6256 3.93242 18.4018 3.84172 18.1674 3.83862C17.9818 3.84064 17.8016 3.89842 17.6521 4.00382C17.5025 4.10923 17.3911 4.25695 17.3337 4.42622L14.7462 3.69712L21.0562 0.356161ZM21.3962 0.648764L28.9737 10.9702C28.9362 11.0038 28.9087 11.0422 28.8787 11.0818L23.0337 7.60409L21.3962 0.648764ZM7.52865 1.7808L14.2024 3.67193L9.6474 6.06432L7.3024 2.06022C7.39473 1.9812 7.47227 1.88646 7.52865 1.7808ZM7.05365 2.21611L9.3599 6.15546L9.3749 6.22621L6.75865 8.52507V2.27367C6.85995 2.27301 6.96014 2.25346 7.05365 2.21611ZM6.51615 2.2281C6.57115 2.24489 6.62865 2.25568 6.6849 2.26048V8.59222L1.16365 13.4466L6.51615 2.2281ZM14.5862 3.78106L17.3062 4.55214C17.2962 4.59891 17.2762 4.64328 17.2762 4.69005C17.2762 4.88911 17.3599 5.0546 17.4737 5.19371L14.3112 7.81755L9.85615 6.28498L14.5862 3.78106ZM17.5099 5.24408C17.5915 5.33507 17.6921 5.40874 17.8051 5.46036C17.9181 5.51198 18.041 5.54042 18.1662 5.54387C18.1937 5.54387 18.2199 5.53788 18.2474 5.53428L19.0287 9.44005L14.3749 7.84033L17.5099 5.24408ZM18.7587 5.26566L22.8149 7.68443L23.6149 11.017L19.1174 9.47004L18.3424 5.51869C18.5033 5.47373 18.6476 5.38601 18.7587 5.26566ZM9.72115 6.46725L14.1299 7.96744L10.6262 10.8743L9.72115 6.46725ZM9.44615 6.57278L10.3812 11.077L7.40615 13.5425C7.32193 13.4602 7.22103 13.3953 7.10968 13.3517C6.99832 13.3082 6.87886 13.287 6.75865 13.2895V8.93399L9.44615 6.57278ZM23.0912 7.84992L28.7724 11.2388C28.7537 11.2784 28.7449 11.318 28.7324 11.3588L23.8362 11.017L23.0912 7.84992ZM14.1937 7.99023L19.0712 9.64991L19.9549 14.0749L16.1087 17.2408L11.6287 15.7562L10.6374 10.9319L14.1937 7.99023ZM6.6849 8.99755V13.2967C6.46443 13.3167 6.2594 13.414 6.10903 13.57C5.95867 13.726 5.87353 13.9297 5.8699 14.1421C5.87282 14.3674 5.96739 14.5826 6.13344 14.7419C6.29948 14.9012 6.52385 14.9919 6.75865 14.9947C6.79615 14.9947 6.82865 14.9791 6.8649 14.9743L7.37365 17.549L0.906154 14.0713L6.6849 8.99755ZM19.1599 9.67869L23.4987 11.1573L20.0112 14.0282L19.1599 9.67869ZM10.3924 11.1345L11.3324 15.6579L7.56365 14.4095C7.60284 14.324 7.63096 14.2342 7.6474 14.1421C7.64913 13.9373 7.57366 13.7389 7.4349 13.5833L10.3924 11.1345ZM23.8674 11.3024L28.6899 11.6418C28.7032 11.7801 28.7535 11.9127 28.8362 12.0267L23.7512 16.3966L23.8674 11.3024ZM23.6412 11.4679L23.5224 16.592L21.5649 18.2745C21.4042 18.135 21.1965 18.0558 20.9799 18.0515C20.9174 18.0515 20.8637 18.0719 20.8049 18.0814L20.0849 14.4023L23.6412 11.4679ZM28.9824 12.209C29.0149 12.2378 29.0562 12.2534 29.0924 12.2773L23.5837 23.7608L23.7462 16.6376L28.9824 12.209ZM20.0299 14.4467L20.7574 18.0898C20.6213 18.1162 20.4945 18.1754 20.3888 18.2619C20.2832 18.3483 20.2023 18.4591 20.1537 18.5839L16.4887 17.3679L20.0299 14.4467ZM7.5199 14.5126L11.3574 15.7862L12.2699 20.18L7.4724 17.6018L6.93865 14.9587C7.06333 14.929 7.17982 14.8737 7.28015 14.7967C7.38047 14.7197 7.46226 14.6228 7.5199 14.5126ZM1.11615 14.527L7.45365 17.9447L8.7974 24.7238C8.7599 24.7394 8.7299 24.7646 8.69615 24.7837L1.11615 14.527ZM11.6537 15.8845L16.0062 17.326L12.5374 20.1824L11.6537 15.8845ZM23.5174 16.8295L23.3512 24.0211L16.2649 21.5987L20.2624 19.3742C20.3417 19.4882 20.4481 19.5824 20.5729 19.6492C20.6976 19.7159 20.8371 19.7532 20.9799 19.7579C21.2152 19.7548 21.4398 19.6637 21.6061 19.504C21.7723 19.3443 21.867 19.1286 21.8699 18.9029C21.8661 18.7153 21.7945 18.5347 21.6674 18.392L23.5174 16.8295ZM16.3874 17.4519L20.1324 18.693C20.1162 18.7626 20.0924 18.8273 20.0924 18.9029C20.0924 19.0348 20.1274 19.1547 20.1812 19.2639L16.0874 21.5375L12.7962 20.4139L16.3874 17.4519ZM7.55115 17.9987L12.2837 20.553L9.5174 24.7418C9.32615 24.652 9.10698 24.6337 8.9024 24.6902L7.55115 17.9987ZM12.5312 20.6573L15.7224 21.7402L9.8399 25.0056C9.80865 24.9636 9.78115 24.9181 9.7399 24.8821L12.5312 20.6573ZM15.9024 21.8013L22.8187 24.1458L9.97615 25.2934C9.9624 25.237 9.94865 25.1807 9.92365 25.1291L15.9024 21.8013Z" fill="#DEE5E5"/>
</svg>
