<svg width="30" height="16" viewBox="0 0 30 16" fill="none" xmlns="http://www.w3.org/2000/svg">
<path d="M2.36882 3.11209C1.44283 3.11209 0.8125 2.44247 0.8125 1.55627C0.8125 0.649838 1.46284 0 2.36882 0C3.31432 0 3.94415 0.649838 3.94415 1.55627C3.94415 2.50171 3.27475 3.11209 2.36882 3.11209ZM3.84584 4.55004V15.5206H0.93082V4.55004H3.84584ZM18.5786 7.76055C18.5786 13.0391 15.8999 15.7377 12.138 15.7377C8.1394 15.7377 5.87466 12.389 5.87466 7.99691C5.87466 3.46655 8.37621 0.138049 12.3346 0.138049C16.5303 0.137994 18.5786 3.72286 18.5786 7.76055ZM8.92751 7.93756C8.92751 10.9117 10.0899 13.354 12.2362 13.354C14.4031 13.354 15.5257 10.9314 15.5257 7.87854C15.5257 5.10106 14.4816 2.52099 12.2559 2.52099C9.97154 2.52099 8.92751 5.16064 8.92751 7.93756ZM20.7061 12.4285C21.4939 12.9012 22.7545 13.2751 23.9756 13.2751C25.5907 13.2751 26.4377 12.507 26.4377 11.3844C26.4377 10.3008 25.7091 9.65099 24.0347 8.92235C21.75 7.93756 20.332 6.51934 20.332 4.55004C20.332 2.068 22.2815 0.157499 25.5513 0.157499C26.9891 0.157499 28.0921 0.492171 28.8012 0.847075L28.1906 3.23058C27.6588 2.9547 26.7329 2.58029 25.4924 2.58029C23.9562 2.58029 23.2665 3.4077 23.2665 4.25466C23.2665 5.3377 24.0152 5.83049 25.8666 6.67745C28.2892 7.76055 29.3725 9.15876 29.3725 11.1483C29.3725 13.7874 27.3832 15.7175 23.8573 15.7175C22.3605 15.7175 20.8437 15.3038 20.1351 14.8705L20.7061 12.4285Z" fill="#DEE5E5"/>
</svg>
