<svg width="29" height="30" viewBox="0 0 29 30" fill="none" xmlns="http://www.w3.org/2000/svg">
<path d="M5.86826 4.0249C8.63902 1.81302 12.1527 0.74836 15.6852 1.05035C19.2177 1.35234 22.4997 2.99796 24.8548 5.64805C27.2099 8.29813 28.4586 11.7507 28.3436 15.2942C28.2286 18.8377 26.7586 22.202 24.2365 24.6938C21.7145 27.1856 18.3327 28.6149 14.7881 28.6871C11.2435 28.7594 7.80619 27.4691 5.18472 25.0822C2.56324 22.6952 0.957342 19.3936 0.698004 15.8578C0.438666 12.3219 1.54565 8.8213 3.79081 6.07744" stroke="#DEE5E5" stroke-linecap="round" stroke-linejoin="round"/>
<path d="M18.4217 16.5789C18.4217 16.5789 16.7885 17.1157 16.7529 18.2589" stroke="#DEE5E5" stroke-linecap="round" stroke-linejoin="round"/>
<path d="M13.8227 15.9128C13.8227 15.9128 13.2769 13.1594 15.9623 13.7021" stroke="#DEE5E5" stroke-linecap="round" stroke-linejoin="round"/>
<path d="M17.9899 23.384C23.8531 19.1705 18.4218 16.5821 18.4218 16.5821C18.4218 16.5821 16.0774 14.0172 15.9599 13.7021C15.8522 13.4133 16.1001 12.1016 12.1929 8.79887C8.28563 5.49614 1.47611 1.02932 1.47611 1.02932C1.36248 0.996468 1.24259 0.991611 1.12668 1.01516C1.01077 1.03871 0.90228 1.08996 0.810478 1.16454C0.738847 1.25869 0.691078 1.36877 0.671252 1.4854C0.651426 1.60202 0.660134 1.72171 0.696631 1.83423C0.696631 1.83423 5.3766 8.49912 8.80109 12.3001C12.2256 16.1011 13.5288 15.8118 13.8208 15.9103C14.1395 16.0178 16.7522 18.2589 16.7522 18.2589C16.7246 18.6973 16.7935 19.1364 16.9542 19.5453C17.1148 19.9542 17.3633 20.3228 17.6821 20.6251C17.6821 20.6251 19.3314 21.912 17.9899 23.3846V23.384Z" stroke="#DEE5E5" stroke-linecap="round" stroke-linejoin="round"/>
</svg>
