<svg width="26" height="30" viewBox="0 0 26 30" fill="none" xmlns="http://www.w3.org/2000/svg">
<path d="M12.0698 7.07718C12.0445 7.14919 11.9271 7.13819 11.8603 7.15919C11.8006 7.1902 11.752 7.24421 11.6832 7.24421C11.6204 7.24421 11.5192 7.2192 11.5111 7.15919C11.4989 7.07718 11.6224 6.99316 11.7004 6.99316C11.751 6.96916 11.8097 6.95616 11.8714 6.95616C11.9281 6.95616 11.9817 6.96716 12.0303 6.98816L12.0273 6.98716C12.0496 6.99617 12.0657 7.01717 12.0657 7.04217C12.0657 7.04517 12.0657 7.04717 12.0647 7.05018V7.07518H12.0688L12.0698 7.07718ZM12.7662 7.07718V7.05018C12.7581 7.02517 12.7823 6.99817 12.8026 6.98816C12.8491 6.96816 12.9038 6.95616 12.9615 6.95616C13.0232 6.95616 13.0819 6.97016 13.1336 6.99417L13.1315 6.99316C13.2115 6.99316 13.334 7.07718 13.3208 7.16219C13.3137 7.2232 13.2135 7.24421 13.1498 7.24421C13.0799 7.24421 13.0334 7.1902 12.9716 7.15919C12.9058 7.13619 12.7874 7.14919 12.7651 7.07818L12.7662 7.07718ZM14.1346 9.05551C13.5961 9.39256 12.9595 9.6296 12.2773 9.72162L12.253 9.72462C11.6396 9.68962 11.0819 9.47658 10.6265 9.13652L10.6336 9.14152C10.4392 8.9745 10.2793 8.80647 10.1619 8.72245C9.95441 8.55543 9.97971 8.30638 10.0688 8.30638C10.2064 8.32639 10.2317 8.47341 10.3208 8.55643C10.4423 8.63844 10.5931 8.80647 10.7763 8.9725C11.1781 9.30055 11.6862 9.51359 12.2439 9.55559L12.253 9.55659C12.9149 9.49958 13.5172 9.28955 14.0374 8.96449L14.0212 8.9745C14.2682 8.80547 14.584 8.55743 14.8411 8.3904C15.0384 8.22037 15.0293 8.05634 15.1943 8.05634C15.3562 8.07635 15.2378 8.22337 15.0081 8.47141C14.7591 8.65944 14.4747 8.85248 14.1801 9.03151L14.1356 9.05651L14.1346 9.05551ZM5.07992 20.3964H5.09206C5.1619 20.3964 5.23073 20.4034 5.29753 20.4154L5.29044 20.4144C5.84105 20.5544 6.29449 20.8925 6.57891 21.3456L6.58397 21.3546L7.73478 23.4339L7.73882 23.4379C8.20137 24.211 8.69834 24.8801 9.25401 25.4972L9.24287 25.4842C9.73882 26.0043 10.0728 26.6804 10.1629 27.4306L10.1649 27.4466V27.4546C10.1528 28.2717 9.54449 28.9458 8.75198 29.0708L8.74287 29.0718C8.54044 29.1028 8.30563 29.1199 8.06777 29.1199C7.20036 29.1199 6.38862 28.8868 5.69226 28.4797L5.71352 28.4917C4.64773 28.0507 3.41089 27.7776 2.11534 27.7396H2.10016C1.72364 27.7146 1.39571 27.5246 1.18822 27.2435L1.18619 27.2405C1.13154 27.0665 1.10016 26.8665 1.10016 26.6584C1.10016 26.3084 1.18923 25.9793 1.34712 25.6923L1.34206 25.7033V25.6983L1.3451 25.6943C1.3866 25.5063 1.41089 25.2892 1.41089 25.0672C1.41089 24.7931 1.37445 24.5281 1.30563 24.276L1.31069 24.297C1.26919 24.147 1.2449 23.974 1.2449 23.795C1.2449 23.5529 1.28842 23.3219 1.36939 23.1079L1.36534 23.1219C1.56777 22.7048 1.86635 22.6218 2.23781 22.4557C2.68113 22.3227 3.06676 22.1217 3.40279 21.8626L3.39469 21.8686H3.39672V21.8656C3.72061 21.5306 3.95947 21.1145 4.24186 20.8185C4.43923 20.5694 4.73984 20.4084 5.0789 20.3984H5.08093L5.07992 20.3964ZM18.7581 20.3354C18.757 20.3524 18.757 20.3734 18.757 20.3944C18.757 21.1375 19.2115 21.7756 19.8613 22.0527L19.8734 22.0577C19.922 22.0607 19.9787 22.0627 20.0354 22.0627C20.8765 22.0627 21.6295 21.6916 22.1356 21.1055L22.1386 21.1015L22.4058 21.0895C22.4595 21.0815 22.5212 21.0775 22.584 21.0775C22.9291 21.0775 23.2439 21.2095 23.4777 21.4256L23.4767 21.4246L23.4807 21.4286C23.7328 21.7296 23.9079 22.1017 23.9736 22.5108L23.9757 22.5238C24.0313 23.0288 24.2166 23.4839 24.4989 23.864L24.4939 23.856C24.9149 24.212 25.2074 24.7061 25.2965 25.2672L25.2985 25.2802L25.3026 25.2712V25.2932L25.2985 25.2782C25.2793 25.6053 25.0647 25.7733 24.669 26.0223C23.4706 26.5194 22.4413 27.1805 21.5546 27.9907L21.5617 27.9847C20.9463 28.7768 20.0425 29.3239 19.0081 29.4709L18.9868 29.4729C18.9119 29.4829 18.8249 29.4889 18.7368 29.4889C17.9595 29.4889 17.2915 29.0248 17 28.3627L16.9949 28.3507L16.9888 28.3467C16.8947 28.0607 16.841 27.7316 16.841 27.3906C16.841 26.9745 16.921 26.5774 17.0678 26.2124L17.0597 26.2344C17.2965 25.5663 17.5 24.7681 17.6346 23.946L17.6457 23.863C17.6619 23.0508 17.751 22.2697 17.9068 21.5126L17.8927 21.5956C17.9787 21.0775 18.2783 20.6414 18.6963 20.3704L18.7034 20.3664L18.7601 20.3394L18.7581 20.3354ZM15.9939 9.13952C16.6012 11.2869 17.3491 13.1422 18.2682 14.8975L18.1882 14.7305C18.8087 15.8206 19.2915 17.0858 19.5678 18.4261L19.5819 18.5101C19.5911 18.5101 19.6022 18.5101 19.6133 18.5101C19.833 18.5101 20.0455 18.5391 20.2479 18.5941L20.2307 18.5901C20.3421 18.195 20.4058 17.742 20.4058 17.2739C20.4058 15.8476 19.8117 14.5574 18.8542 13.6343L18.8532 13.6333C18.5749 13.3832 18.5597 13.2142 18.6973 13.2142C19.6801 14.1244 20.4068 15.2925 20.7672 16.6088L20.7793 16.6598C20.8694 16.9888 20.921 17.3669 20.921 17.757C20.921 18.108 20.8795 18.4501 20.8006 18.7771L20.8066 18.7471C20.8815 18.7851 20.9686 18.8141 21.0607 18.8301L21.0668 18.8311C22.3724 19.4982 22.8542 20.0033 22.6224 20.7525V20.6984C22.5465 20.6944 22.4706 20.6984 22.3947 20.6984H22.3745C22.5657 20.1144 22.1447 19.6673 21.0273 19.1682C19.8704 18.6681 18.9453 18.7481 18.7884 19.7493C18.7773 19.7983 18.7692 19.8553 18.7662 19.9143V19.9173C18.6923 19.9473 18.6042 19.9753 18.5131 19.9953L18.502 19.9973C17.9878 20.3334 17.6214 20.8565 17.501 21.4666L17.4989 21.4806C17.3491 22.1757 17.255 22.9808 17.2398 23.804V23.816V23.82C17.1477 24.4571 17.007 25.0272 16.8168 25.5733L16.837 25.5073C15.8421 26.3114 14.5587 26.7975 13.1589 26.7975C12.0151 26.7975 10.9483 26.4724 10.0485 25.9103L10.0728 25.9243C9.92506 25.6713 9.75603 25.4522 9.56372 25.2572L9.56473 25.2582C9.46656 25.0982 9.35117 24.9612 9.21858 24.8431L9.21656 24.8421C9.42607 24.8421 9.6285 24.8111 9.8198 24.7541L9.80461 24.7581C9.9868 24.6731 10.1265 24.5261 10.2004 24.3461L10.2024 24.3411C10.2206 24.248 10.2317 24.142 10.2317 24.033C10.2317 23.5879 10.0546 23.1849 9.76514 22.8868L9.76615 22.8878C9.13963 22.1267 8.39065 21.4926 7.54348 21.0075L7.50502 20.9875C6.82587 20.5994 6.3117 19.9923 6.05765 19.2652L6.05056 19.2432C5.95644 18.9252 5.90178 18.5591 5.90178 18.181C5.90178 17.828 5.94935 17.4859 6.03741 17.1599L6.03133 17.1869C6.41291 15.8726 6.96352 14.7255 7.67101 13.6903L7.64267 13.7333C7.7783 13.6523 7.68923 13.9023 7.12648 14.9505C6.64672 15.6636 6.36028 16.5408 6.36028 17.4839C6.36028 18.3241 6.587 19.1112 6.98376 19.7903L6.97162 19.7683C7.02425 18.4591 7.32081 17.2309 7.81575 16.1087L7.79044 16.1737C8.85826 14.2714 9.66696 12.062 10.0931 9.72062L10.1133 9.5896C10.174 9.63461 10.3876 9.75863 10.4787 9.84164C10.754 10.0077 10.9595 10.2577 11.2247 10.4227C11.4949 10.6828 11.8653 10.8428 12.2722 10.8428C12.2935 10.8428 12.3147 10.8428 12.336 10.8418H12.333C12.3825 10.8458 12.4281 10.8498 12.4716 10.8498C12.9362 10.8408 13.3694 10.7178 13.7459 10.5078L13.7328 10.5148C14.0991 10.3477 14.3906 10.0977 14.669 10.0147H14.6751C15.2166 9.86965 15.67 9.56059 15.9908 9.14552L15.9949 9.13952H15.9939ZM12.4524 6.46208C12.4554 6.46208 12.4585 6.46208 12.4615 6.46208C13.0374 6.46208 13.5688 6.64911 13.9969 6.96516L13.9898 6.96016C14.3724 7.1942 14.8137 7.39323 15.2803 7.53426L15.3208 7.54426H15.3249C15.5738 7.65428 15.7793 7.8253 15.9261 8.03834L15.9291 8.04334V7.87931C15.9757 7.97133 16.004 8.08035 16.004 8.19537C16.004 8.29338 15.9838 8.3864 15.9483 8.47141L15.9504 8.46641C15.6589 8.9735 15.1862 9.35056 14.6214 9.51459L14.6052 9.51859V9.52059C14.2662 9.68961 13.9716 9.93666 13.6255 10.1017C13.2712 10.3117 12.8451 10.4357 12.3886 10.4357C12.3734 10.4357 12.3583 10.4357 12.3431 10.4357H12.3451C12.3228 10.4367 12.2965 10.4377 12.2702 10.4377C12.0941 10.4377 11.924 10.4067 11.7682 10.3487L11.7783 10.3517C11.6174 10.2647 11.4848 10.1827 11.3562 10.0947L11.3704 10.1047C11.1406 9.90565 10.8876 9.71462 10.6224 9.53959L10.5961 9.52359V9.51759H10.59C10.2105 9.31855 9.9119 9.0135 9.72769 8.64144L9.72263 8.62944C9.6953 8.56243 9.68012 8.48441 9.68012 8.4034C9.68012 8.18536 9.79348 7.99333 9.96453 7.88131L9.96656 7.88031C10.25 7.71129 10.4473 7.54126 10.5779 7.46024C10.7095 7.36823 10.7591 7.33322 10.8006 7.29622H10.8026V7.29222C11.0738 6.95316 11.4332 6.69312 11.8471 6.54609L11.8633 6.54109C12.0394 6.49108 12.2419 6.46208 12.4514 6.46008L12.4524 6.46208ZM10.7196 4.32972H10.7651C10.9554 4.33372 11.1305 4.39673 11.2722 4.49975L11.2702 4.49775C11.4514 4.65678 11.5991 4.84981 11.7004 5.06784L11.7044 5.07885C11.8188 5.32389 11.8896 5.60893 11.8977 5.90898V5.91199V5.91699C11.9018 5.96299 11.9038 6.016 11.9038 6.06901C11.9038 6.13202 11.9008 6.19503 11.8947 6.25704L11.8957 6.24904V6.34906C11.8583 6.35806 11.8249 6.37106 11.7904 6.37906C11.5971 6.45808 11.4342 6.54209 11.2793 6.63711L11.2935 6.6291C11.3016 6.5741 11.3056 6.51109 11.3056 6.44707C11.3056 6.39407 11.3026 6.34106 11.2965 6.28905L11.2975 6.29505V6.27605C11.2793 6.12202 11.2429 5.981 11.1892 5.84797L11.1933 5.85898C11.1518 5.72695 11.0789 5.61494 10.9838 5.52592C10.9281 5.47591 10.8542 5.44491 10.7722 5.44491C10.7651 5.44491 10.7581 5.44491 10.751 5.44591H10.752H10.7257C10.6214 5.45691 10.5344 5.52092 10.4908 5.60893L10.4898 5.61093C10.4119 5.70395 10.3583 5.81897 10.338 5.94499V5.94899C10.3147 6.03501 10.3026 6.13402 10.3026 6.23604C10.3026 6.28005 10.3046 6.32405 10.3097 6.36706V6.36206V6.38106C10.3259 6.53509 10.3623 6.67711 10.4149 6.80913L10.4109 6.79813C10.4534 6.93015 10.5253 7.04317 10.6204 7.13319C10.6325 7.14519 10.6467 7.15519 10.6629 7.16319H10.6639C10.5799 7.2162 10.507 7.27221 10.4402 7.33422L10.4413 7.33322C10.3957 7.37323 10.34 7.40323 10.2783 7.41724L10.2753 7.41824C10.1508 7.27121 10.0354 7.10618 9.93619 6.93215L9.9281 6.91615C9.81372 6.67111 9.74287 6.38706 9.73174 6.08601V6.08201C9.72769 6.03401 9.72567 5.978 9.72567 5.92099C9.72567 5.67995 9.76514 5.44791 9.837 5.23087L9.83295 5.24687C9.90785 4.98883 10.0303 4.76579 10.1933 4.57576L10.1913 4.57876C10.3198 4.42874 10.5081 4.33372 10.7196 4.32872H10.7206L10.7196 4.32972ZM14.4666 4.25571H14.4828C14.4838 4.25571 14.4848 4.25571 14.4868 4.25571C14.7651 4.25571 15.0202 4.34872 15.2247 4.50475L15.2216 4.50275C15.4534 4.67978 15.6396 4.90282 15.7702 5.15786L15.7753 5.16886C15.8977 5.43491 15.9736 5.74396 15.9848 6.07001V6.07401C15.9848 6.04901 15.9919 6.024 15.9919 5.999V6.13002L15.9868 6.10402L15.9817 6.07401C15.9787 6.39407 15.9099 6.69612 15.7864 6.97116L15.7925 6.95716C15.7297 7.12019 15.6386 7.26021 15.5232 7.37623C15.4929 7.35823 15.4554 7.34122 15.418 7.32622L15.4119 7.32422C15.2753 7.28221 15.1558 7.2252 15.0475 7.15519L15.0526 7.15819C14.9747 7.12619 14.8815 7.09818 14.7854 7.07718L14.7742 7.07518C14.8562 6.99917 14.9321 6.91815 15.002 6.83214L15.006 6.82714C15.0698 6.67911 15.1093 6.50808 15.1174 6.32805V6.32505V6.30005C15.1174 6.29205 15.1174 6.28405 15.1174 6.27505C15.1174 6.10502 15.089 5.94199 15.0364 5.78997L15.0394 5.80097C14.9757 5.64194 14.8977 5.50492 14.8046 5.3799L14.8087 5.3849C14.7206 5.29688 14.6042 5.23687 14.4736 5.21987H14.4706H14.4504C14.4493 5.21987 14.4473 5.21987 14.4463 5.21987C14.3127 5.21987 14.1933 5.28488 14.1204 5.3839L14.1194 5.3849C14.002 5.49792 13.9129 5.63794 13.8623 5.79497L13.8603 5.80197C13.7965 5.94899 13.755 6.12002 13.7469 6.29805V6.30105V6.32505C13.7489 6.44507 13.7581 6.56109 13.7742 6.67411L13.7722 6.65911C13.5283 6.5751 13.2186 6.49008 13.004 6.40707C12.9919 6.33406 12.9838 6.24804 12.9817 6.16003V6.15703V6.13202C12.9807 6.11202 12.9807 6.08901 12.9807 6.06601C12.9807 5.74196 13.0506 5.43491 13.1771 5.15786L13.171 5.17186C13.2783 4.89282 13.4676 4.66378 13.7095 4.50875L13.7145 4.50575C13.921 4.34972 14.1832 4.25571 14.4666 4.25571ZM13.7975 0C13.6012 0 13.3987 0.0100017 13.1902 0.0260044C7.8451 0.442074 9.26312 6.03401 9.18113 7.89732C9.13052 9.32355 8.64065 10.6268 7.84004 11.6899L7.8532 11.6719C6.42911 13.2742 5.26716 15.1465 4.4615 17.1959L4.41797 17.3229C4.15684 18.008 4.00502 18.7991 4.00502 19.6253C4.00502 19.9103 4.02324 20.1914 4.05765 20.4664L4.05461 20.4334C3.99793 20.4794 3.95036 20.5354 3.91696 20.5994L3.91595 20.6024C3.587 20.9375 3.34712 21.3526 3.07688 21.6506C2.79044 21.8676 2.45441 22.0387 2.09004 22.1447L2.06878 22.1497C1.59915 22.2887 1.21656 22.5918 0.980727 22.9908L0.975666 22.9998C0.870403 23.2119 0.808662 23.4609 0.808662 23.725C0.808662 23.735 0.808662 23.744 0.808662 23.754C0.810686 23.992 0.834978 24.222 0.882548 24.4461L0.8785 24.4231C0.93518 24.6421 0.967569 24.8941 0.967569 25.1532C0.967569 25.3232 0.953399 25.4902 0.926071 25.6533L0.928095 25.6353C0.759067 25.9483 0.660889 26.3204 0.660889 26.7155C0.660889 26.9935 0.709472 27.2595 0.799553 27.5066L0.794492 27.4906C1.07081 27.8786 1.48882 28.1527 1.97263 28.2397L1.98376 28.2417C3.27324 28.3487 4.46453 28.6148 5.58801 29.0218L5.49287 28.9918C6.19935 29.4069 7.05056 29.6519 7.95846 29.6519C8.25603 29.6519 8.54753 29.6259 8.83093 29.5749L8.80158 29.5789C9.47668 29.4279 10.0273 28.9928 10.3238 28.4097L10.3299 28.3967C11.0728 28.3927 11.8856 28.0607 13.1882 27.9797C14.0718 27.9077 15.1791 28.3137 16.4473 28.2297C16.4848 28.3887 16.5344 28.5278 16.5971 28.6588L16.5911 28.6458L16.5951 28.6498C16.9838 29.4539 17.7996 30 18.7449 30C18.8269 30 18.9079 29.996 18.9878 29.988L18.9777 29.989C20.1427 29.819 21.1427 29.2209 21.8249 28.3657L21.8319 28.3567C22.6852 27.5886 23.6811 26.9555 24.7722 26.5034L24.84 26.4784C25.2773 26.2874 25.5911 25.8933 25.6599 25.4192L25.6609 25.4122C25.6012 24.7181 25.2641 24.113 24.7621 23.6959L24.7581 23.6929V23.5719L24.754 23.5679C24.5374 23.2379 24.3856 22.8458 24.3279 22.4257L24.3259 22.4107C24.2722 21.8976 24.0445 21.4446 23.7034 21.1035H23.6994C23.6245 21.0365 23.5435 21.0195 23.4615 20.9345C23.3947 20.8875 23.3117 20.8585 23.2216 20.8545C23.419 20.2524 23.5323 19.5603 23.5323 18.8411C23.5323 17.901 23.337 17.0058 22.9848 16.1937L23.002 16.2377C22.2894 14.5654 21.3633 13.1262 20.2368 11.868L20.251 11.885C19.1325 10.8028 18.4008 9.33356 18.2793 7.69728L18.2783 7.67628C18.3117 4.98683 18.5769 0.0110019 13.7955 0.00400073L13.7975 0Z" fill="#DEE5E5"/>
</svg>
