<svg width="29" height="25" viewBox="0 0 29 25" fill="none" xmlns="http://www.w3.org/2000/svg">
<path d="M17.0332 3.25012V2.87512C12.0965 2.87512 16.5585 6.06261 17.0332 3.25012ZM19.3117 1.56262C19.9762 -0.406117 23.394 -0.593616 23.7737 1.84387H22.8243C22.5395 0.437629 20.1661 0.34388 20.1661 2.87512C20.1661 4.28136 22.3497 5.12511 22.8243 3.43762H23.7737C23.2041 6.53135 18.1724 5.40636 19.3117 1.56262ZM5.45086 0.0626308H6.40023V0.906377C6.87491 -0.218618 8.96353 -0.312368 9.34328 1.00013C10.0078 -0.406117 12.6661 -0.312368 12.6661 1.65637V5.12511H11.6218V1.93762C11.6218 0.531379 9.53315 0.531379 9.53315 2.03137V5.12511H8.48884V1.84387C8.25653 0.966377 7.07286 0.791065 6.5901 1.56262L6.40023 2.03137V5.12511H5.45086V0.0626308ZM7.63441 24.3438C3.17237 24.3438 0.419189 21.25 0.419189 16.2813C0.419189 11.3126 3.17237 8.3126 7.63441 8.3126C12.0965 8.3126 14.9446 11.4063 14.9446 16.2813C14.9446 21.1563 12.1914 24.3438 7.63441 24.3438ZM15.9889 5.12511C13.2357 5.78136 12.856 2.31262 15.7041 2.21887L17.0332 2.12512V1.75012C17.1281 0.625128 15.2294 0.531379 14.9446 1.56262H13.9952C13.9988 1.33117 14.0643 1.10476 14.1851 0.906377C14.9446 -0.406117 18.0775 -0.406117 18.0775 1.65637V5.12511H17.1281V4.28136C17.0108 4.49462 16.8483 4.6804 16.6517 4.82601C16.4551 4.97161 16.229 5.07364 15.9889 5.12511ZM22.4446 24.3438C19.0269 24.1563 16.6534 22.5625 16.4636 19.75H18.7421C20.9256 26.5 32.6029 19.2813 21.1155 16.9376C19.3117 16.5626 17.9826 15.7188 17.4129 14.6876C13.8053 7.7501 27.7611 5.68761 28.1408 12.8126H25.9573C25.2927 8.21885 16.6534 10.7501 19.7864 13.9376C21.1155 15.2501 23.8687 15.1563 25.8623 16.0001C30.6092 18.1563 28.3307 24.5313 22.4446 24.3438ZM7.63441 10.2813C4.59642 10.2813 2.69768 12.6251 2.69768 16.2813C2.69768 19.9375 4.59642 22.2813 7.63441 22.2813C10.6724 22.2813 12.6661 20.0313 12.6661 16.2813C12.6661 12.5313 10.7673 10.2813 7.63441 10.2813Z" fill="#DEE5E5"/>
</svg>
