<svg width="14" height="30" viewBox="0 0 14 30" fill="none" xmlns="http://www.w3.org/2000/svg">
<path d="M6.53321 0.0805664L7.32046 1.5592C7.49746 1.83207 7.6892 2.07359 7.91505 2.29852C8.57417 2.95764 9.2001 3.6481 9.76243 4.38742C11.0963 6.13892 11.9961 8.08401 12.6386 10.1877C13.0239 11.4727 13.2332 12.7909 13.2488 14.1239C13.3134 18.1091 11.9472 21.531 9.19273 24.3748C8.74287 24.8247 8.26167 25.2414 7.74544 25.612C7.47257 25.612 7.34351 25.4027 7.23105 25.21C7.02179 24.857 6.89365 24.4541 6.82912 24.0531C6.73233 23.571 6.66872 23.0889 6.70006 22.5911V22.3661C6.67794 22.3182 6.43734 0.193953 6.53321 0.0805664Z" fill="#DEE5E5"/>
<path d="M6.53318 0.0317142C6.50091 -0.0328149 6.46865 0.0160429 6.43638 0.0473855C6.45206 0.370031 6.33959 0.657646 6.16352 0.932356C5.96993 1.20522 5.71366 1.41448 5.45646 1.63941C4.02761 2.87652 2.90296 4.37083 2.00232 6.04214C0.803918 8.29143 0.186283 10.7021 0.0111329 13.2399C-0.0690676 14.1553 0.300592 17.3854 0.589129 18.3174C1.37638 20.7916 2.79049 22.8649 4.6222 24.6643C5.07206 25.0976 5.55326 25.4995 6.05105 25.8857C6.19578 25.8857 6.21145 25.7567 6.24464 25.6608C6.30809 25.4557 6.35647 25.2462 6.38937 25.034L6.71202 22.6243L6.53318 0.0317142Z" fill="#DEE5E5"/>
<path d="M7.32016 26.5909C7.35242 26.2222 7.52942 25.9161 7.72208 25.611C7.5285 25.5308 7.38469 25.3713 7.27222 25.1934C7.17543 25.033 7.09523 24.8404 7.03254 24.6634C6.80761 23.9886 6.75968 23.2806 6.69515 22.5911V22.1735C6.61495 22.238 6.59836 22.7837 6.59836 22.8648C6.55145 23.5936 6.45473 24.3184 6.3089 25.0339C6.26096 25.3234 6.2287 25.6119 6.05078 25.8691C6.05078 25.9014 6.05078 25.9337 6.06645 25.9816C6.35591 26.8334 6.43519 27.7008 6.48405 28.5849V28.9075C6.48405 29.2929 6.46838 29.2117 6.78826 29.3408C6.91731 29.3887 7.06112 29.4053 7.19018 29.5012C7.28697 29.5012 7.30265 29.421 7.30265 29.3565L7.25471 28.8264V27.3478C7.23904 27.0897 7.28697 26.8334 7.31924 26.5919L7.32016 26.5909Z" fill="#DEE5E5"/>
</svg>
