<svg width="31" height="29" viewBox="0 0 31 29" fill="none" xmlns="http://www.w3.org/2000/svg">
<path d="M17.9859 0C17.7697 0 17.5684 0.0448841 17.3822 0.105538C17.7772 0.360286 17.9947 0.69995 18.1022 1.08328C18.1109 1.13545 18.1259 1.17305 18.1334 1.22522C18.1427 1.26999 18.1481 1.31543 18.1497 1.36108C18.1797 2.02221 17.9709 2.10592 17.8247 2.49653C17.5997 2.99996 17.6622 3.54099 17.9322 3.97649C17.9569 4.03489 17.9879 4.0906 18.0247 4.14268C17.7309 2.24057 19.3659 1.95549 19.6672 1.36108C19.6909 0.841881 19.2497 0.496152 18.9009 0.255961C18.6269 0.0888331 18.3096 0.00050433 17.9859 0.00121309V0ZM20.4497 0.428219C20.4197 0.60169 20.4422 0.556806 20.4347 0.646574C20.4272 0.707228 20.4272 0.78244 20.4197 0.841881C20.4034 0.902535 20.3884 0.963189 20.3647 1.02263C20.3497 1.08328 20.3272 1.14394 20.3022 1.20338L20.2184 1.37564C20.1934 1.40597 20.1797 1.43629 20.1559 1.46662L20.1097 1.53334C20.0728 1.58482 20.034 1.63499 19.9934 1.68376C19.9472 1.72986 19.9084 1.78202 19.8534 1.81963V1.82691C19.8072 1.86451 19.7609 1.9094 19.7059 1.94821C19.5434 2.06831 19.3584 2.15808 19.1872 2.27089C19.1334 2.30729 19.0784 2.33883 19.0322 2.38371C18.9796 2.41961 18.9302 2.45978 18.8847 2.50381C18.8309 2.54869 18.7922 2.59358 18.7459 2.64695C18.7072 2.69184 18.6609 2.744 18.6297 2.79737C18.5908 2.84817 18.5545 2.9008 18.5209 2.95507C18.4897 3.01573 18.4672 3.06789 18.4359 3.12733C18.4122 3.18799 18.3897 3.24015 18.3734 3.3008C18.3529 3.36276 18.335 3.42548 18.3197 3.48883C18.3122 3.51916 18.3122 3.55676 18.3047 3.58588C18.2959 3.61621 18.2959 3.64653 18.2884 3.67686C18.2884 3.73751 18.2809 3.80423 18.2809 3.86489C18.2809 3.90977 18.2809 3.95466 18.2884 3.99954C18.2884 4.06019 18.2959 4.12085 18.3122 4.18757C18.3197 4.24822 18.3347 4.30888 18.3497 4.36953C18.3747 4.42897 18.3897 4.48841 18.4122 4.54907C18.4284 4.58546 18.4509 4.62428 18.4672 4.65461L16.6847 3.98498C16.3834 3.90249 16.0884 3.82728 15.7859 3.75935L15.2985 3.64653C14.8335 3.55676 14.361 3.48883 13.8885 3.44395C13.8722 3.44395 13.8647 3.43667 13.8497 3.43667C13.0513 3.35905 12.2475 3.3489 11.4472 3.40634C10.9747 3.43667 10.5022 3.49611 10.0297 3.57132C9.67861 3.63004 9.32965 3.70044 8.9835 3.7824L8.63475 3.87217C8.51975 3.91705 8.40975 3.96921 8.30225 4.01531L8.04601 4.12813C8.03101 4.13541 8.01601 4.13541 8.00851 4.14268C7.92976 4.18029 7.86101 4.21062 7.79101 4.24822C7.69036 4.29131 7.59191 4.33908 7.49601 4.39137C7.44226 4.4132 7.38851 4.44353 7.34101 4.46658C7.31881 4.47995 7.29586 4.4921 7.27226 4.50297C7.20226 4.54179 7.13226 4.57939 7.06976 4.617C7.00597 4.65122 6.94421 4.68889 6.88476 4.72982C6.82976 4.76621 6.77601 4.79654 6.72976 4.83414C6.72227 4.84263 6.71352 4.84263 6.70602 4.84991C6.65977 4.88024 6.60602 4.91785 6.55852 4.95545L6.54352 4.97001L6.42727 5.05978C6.41227 5.06827 6.39602 5.08283 6.38102 5.0901C6.34227 5.12043 6.30352 5.15804 6.26477 5.18715C6.25727 5.20292 6.24102 5.21141 6.23352 5.21748C6.18727 5.26357 6.14102 5.30118 6.09477 5.34606C6.08602 5.34606 6.08602 5.35334 6.07852 5.36062C6.03035 5.40148 5.98405 5.44439 5.93977 5.48921C5.93102 5.49649 5.93102 5.50377 5.92352 5.50377C5.88283 5.54241 5.84404 5.58289 5.80727 5.62507C5.79227 5.63963 5.76977 5.65419 5.75352 5.66874C5.71201 5.7164 5.66778 5.76176 5.62102 5.80461C5.61352 5.81917 5.59852 5.82766 5.59102 5.841C5.52852 5.90166 5.47477 5.96231 5.41227 6.02297L5.38977 6.0448C5.26478 6.17339 5.13353 6.30076 4.99353 6.41358C4.85478 6.53489 4.70728 6.64649 4.55978 6.74475C4.26363 6.95005 3.94401 7.12142 3.60729 7.25546C3.44479 7.32339 3.27354 7.38405 3.10354 7.43621C2.77854 7.50414 2.4448 7.63152 2.15855 7.65456C2.09605 7.65456 2.0273 7.66912 1.9648 7.6764L1.77105 7.72128L1.5848 7.78922C1.5223 7.81227 1.46105 7.84259 1.3998 7.87171C1.3448 7.90931 1.28356 7.93964 1.22856 7.97725C1.1734 8.01599 1.12157 8.05899 1.07356 8.10583C1.01981 8.14222 0.964808 8.1956 0.918558 8.24048C0.872308 8.29265 0.826059 8.33753 0.787309 8.39091C0.748559 8.45156 0.70231 8.50372 0.67106 8.56438C0.630345 8.61903 0.593989 8.67661 0.562311 8.73664C0.531061 8.80457 0.499811 8.86522 0.477311 8.93194C0.453561 8.9926 0.431062 9.06053 0.407312 9.12725C0.392312 9.1879 0.376062 9.24856 0.369812 9.30921C0.369812 9.31528 0.361062 9.32377 0.361062 9.33105C0.346062 9.39898 0.346062 9.48875 0.337312 9.53363C0.329812 9.58701 0.322312 9.63068 0.322312 9.68405C0.320874 9.81487 0.352642 9.94403 0.414812 10.0601V10.0674C0.438562 10.1123 0.469811 10.1584 0.501061 10.2033C0.531061 10.2481 0.563561 10.293 0.60106 10.3379C0.63981 10.3755 0.68606 10.4216 0.733559 10.4592C0.778726 10.5032 0.827651 10.5434 0.879808 10.5793C1.06606 10.737 1.11231 10.7892 1.3523 10.9093C1.39105 10.9323 1.4298 10.9469 1.4773 10.9699C1.4848 10.9699 1.4923 10.9772 1.4998 10.9772C1.4998 10.993 1.4998 11.0003 1.5073 11.0148C1.5254 11.1388 1.55898 11.2602 1.6073 11.3763C1.6323 11.4212 1.6473 11.4661 1.6698 11.511C1.67855 11.5267 1.68605 11.5413 1.6948 11.5486C1.7248 11.6092 1.75605 11.6614 1.78605 11.7148L1.9023 11.8725C1.94105 11.9173 1.98855 11.9695 2.0348 12.0156C2.08105 12.0605 2.1273 12.0981 2.1823 12.143C2.1823 12.143 2.1898 12.1503 2.1973 12.1503C2.24355 12.1879 2.2898 12.2255 2.3373 12.2558C2.3912 12.2925 2.44805 12.325 2.5073 12.3528C2.56105 12.3832 2.62355 12.4135 2.6848 12.4365C2.73474 12.4584 2.78662 12.4759 2.83979 12.4887C2.84854 12.496 2.85604 12.496 2.87104 12.5033C2.90229 12.5118 2.94104 12.519 2.97104 12.5263C2.94854 12.9327 2.94104 13.3148 3.00354 13.4507C3.07229 13.6011 3.41354 13.1426 3.75354 12.6161C3.70854 13.1353 3.67729 13.7442 3.75354 13.925C3.83979 14.113 4.30353 13.5259 4.70728 12.8793C10.201 11.6468 15.2135 15.3298 15.7397 20.5339C15.6397 19.7211 14.6085 19.2711 14.136 19.3839C13.9035 19.9395 13.5085 20.654 12.8735 21.098C12.9272 20.6006 12.9047 20.0911 12.796 19.5937C12.6225 20.2861 12.2943 20.9329 11.8347 21.4886C11.0997 21.5407 10.3635 21.195 9.97599 20.6758C9.94474 20.654 9.93724 20.6091 9.91349 20.5788C9.89099 20.5266 9.86724 20.4732 9.85099 20.4211C9.8285 20.3707 9.81295 20.3177 9.80474 20.2634C9.79724 20.21 9.79724 20.1578 9.79724 20.0972V19.9844C9.80649 19.931 9.81944 19.8783 9.83599 19.8267C9.85224 19.7745 9.86724 19.7223 9.89099 19.669C9.92099 19.6168 9.94474 19.5634 9.98349 19.5113C10.1147 19.1498 10.1147 18.8562 9.87474 18.6839C9.82813 18.6544 9.77874 18.6292 9.72724 18.6087C9.69724 18.6014 9.65849 18.5869 9.62724 18.5784L9.56474 18.5566C9.51168 18.5399 9.45735 18.5273 9.40225 18.519C9.34945 18.504 9.29475 18.4962 9.23975 18.4959C9.18348 18.4873 9.12669 18.4825 9.06975 18.4813C9.031 18.4813 8.99225 18.4886 8.9535 18.4886C8.89557 18.4883 8.8379 18.4961 8.78225 18.5117C8.7285 18.519 8.67475 18.5262 8.61975 18.5408C8.56446 18.5552 8.51018 18.573 8.45725 18.5942C8.4035 18.616 8.35725 18.639 8.30225 18.6621C8.256 18.6839 8.20975 18.7143 8.15475 18.7373C6.34977 19.88 7.42726 22.5561 8.6585 23.3313C8.1935 23.4137 7.72101 23.5108 7.58976 23.6091L7.57351 23.6236C7.90726 23.8189 8.256 23.9851 8.61975 24.1283C9.116 24.286 9.64224 24.4279 9.87474 24.4885V24.4958C10.5167 24.6237 11.1731 24.6694 11.8272 24.6317C15.2597 24.3988 18.0722 21.8646 18.5834 18.5262L18.6297 18.7215C18.6534 18.8574 18.6834 19.0005 18.6997 19.1425V19.1498C18.7147 19.2177 18.7222 19.2856 18.7309 19.3463V19.3754C18.7384 19.4433 18.7459 19.5113 18.7459 19.5719C18.7534 19.6544 18.7609 19.7369 18.7609 19.8194V19.9407C18.7609 19.9771 18.7697 20.022 18.7697 20.0596C18.7697 20.1057 18.7609 20.1505 18.7609 20.1954V20.301C18.7609 20.3531 18.7534 20.398 18.7534 20.4514C18.7534 20.4817 18.7534 20.512 18.7459 20.5484C18.7459 20.6018 18.7384 20.654 18.7384 20.7146C18.7309 20.7365 18.7309 20.7595 18.7309 20.7814L18.7059 20.9548C18.7059 20.9779 18.7059 20.9997 18.6997 21.0228C18.6909 21.098 18.6759 21.1659 18.6684 21.2411V21.2557L18.6222 21.4667V21.4886L18.5759 21.6912C18.5759 21.6997 18.5672 21.7154 18.5672 21.7215C18.5529 21.7903 18.535 21.8583 18.5134 21.9253V21.9471C18.4897 22.0223 18.4672 22.0903 18.4509 22.1582C18.4434 22.1655 18.4434 22.1728 18.4434 22.1728L18.3734 22.3984C18.3434 22.4736 18.3197 22.5415 18.2884 22.6168C18.2572 22.692 18.2347 22.7672 18.2034 22.8351C18.1722 22.9103 18.1409 22.977 18.1109 23.0535H18.1022C18.0722 23.1202 18.0397 23.1954 18.0022 23.2633C17.9957 23.2813 17.9877 23.2987 17.9784 23.3155C17.9709 23.3228 17.9709 23.3313 17.9634 23.3385C17.451 24.334 16.7052 25.1991 15.7859 25.8642C15.7234 25.9018 15.6622 25.9479 15.5997 25.9928C15.5847 26.0073 15.5622 26.0146 15.546 26.0292C15.4905 26.0689 15.4338 26.1069 15.376 26.1432L15.3985 26.1881H15.4072L15.7322 26.1432H15.7397C15.9409 26.1129 16.1422 26.0753 16.3434 26.0376C16.3984 26.0304 16.4597 26.0146 16.5147 26L16.6234 25.977C16.6772 25.9697 16.7309 25.9552 16.7859 25.9479C16.8322 25.9321 16.8784 25.9236 16.9247 25.9103C17.6997 25.7283 18.4509 25.4808 19.1722 25.1885C17.927 26.8344 16.2709 28.146 14.3597 29C15.2522 28.9393 16.1422 28.7974 17.0022 28.556C20.1149 27.6679 22.7439 25.6292 24.3234 22.8788C24.0044 24.6199 23.2928 26.271 22.2397 27.7141C22.9905 27.2335 23.6843 26.6737 24.3084 26.0449C26.0426 24.2879 27.1811 22.0578 27.5709 19.6544C27.8334 20.8432 27.9109 22.0684 27.7959 23.2779C33.3883 15.707 28.2596 7.85715 26.1134 5.79005C26.1059 5.77428 26.0984 5.767 26.0984 5.75245C26.0909 5.75973 26.0909 5.75973 26.0909 5.767C26.0909 5.75973 26.0909 5.75973 26.0821 5.75245C26.0821 5.84222 26.0746 5.93198 26.0671 6.02297C26.0456 6.19138 26.0198 6.35924 25.9896 6.5264C25.9521 6.69138 25.9046 6.85757 25.8584 7.02376C25.8034 7.18146 25.7421 7.34644 25.6709 7.50414C25.6001 7.65989 25.5229 7.81286 25.4396 7.96269C25.2667 8.25743 25.0671 8.53672 24.8434 8.79729C24.7271 8.93194 24.6034 9.05204 24.4784 9.17335C24.4053 9.23817 24.3303 9.30088 24.2534 9.36137L24.0759 9.5118C23.9376 9.61773 23.7927 9.71537 23.6421 9.80415C23.4941 9.8967 23.3414 9.98213 23.1846 10.0601C23.0221 10.1353 22.8596 10.2033 22.6971 10.2712C22.3662 10.3934 22.0237 10.484 21.6747 10.5417C21.4959 10.572 21.3184 10.5866 21.1472 10.6024C21.0236 10.6108 20.8998 10.6157 20.7759 10.6169C20.5997 10.6146 20.4237 10.6044 20.2484 10.5866C20.0714 10.5731 19.8956 10.548 19.7222 10.5114C19.5465 10.4804 19.3731 10.4379 19.2034 10.384H19.1947C19.3659 10.3682 19.5359 10.3537 19.7072 10.3234C20.056 10.2647 20.3984 10.1741 20.7297 10.0528C20.8997 9.99218 21.0622 9.91697 21.2172 9.84176C21.3797 9.76654 21.5272 9.68406 21.6822 9.59429C21.8297 9.49724 21.9759 9.39898 22.1159 9.29344C22.2559 9.1879 22.3872 9.07509 22.5109 8.95499C22.6421 8.84217 22.7584 8.7148 22.8746 8.58621C22.9909 8.45156 23.0996 8.3157 23.1996 8.18104C23.2159 8.15799 23.2321 8.12767 23.2471 8.10583C23.3246 7.98452 23.4021 7.86443 23.4721 7.74433C23.6429 7.44509 23.7828 7.13018 23.8896 6.80419C23.9446 6.64649 23.9834 6.48151 24.0221 6.31532C24.0534 6.14306 24.0846 5.97808 24.0996 5.81189C24.1146 5.63963 24.1309 5.46616 24.1309 5.30118C24.1309 5.17987 24.1221 5.05978 24.1146 4.93968C24.0992 4.77128 24.0783 4.60339 24.0521 4.43625C24.022 4.26677 23.9836 4.09878 23.9371 3.93282C23.8821 3.77512 23.8284 3.60893 23.7659 3.45123C23.7034 3.29352 23.6271 3.13582 23.5496 2.9854C23.4634 2.83498 23.3784 2.68456 23.2859 2.54141C23.1869 2.40088 23.0836 2.26333 22.9759 2.12896C22.8596 2.00038 22.7434 1.87179 22.6196 1.74442C22.5544 1.67988 22.4873 1.61717 22.4184 1.55639C22.0684 1.29315 21.7059 1.04568 21.3409 0.820045C21.2908 0.791983 21.2391 0.766867 21.1859 0.744834C20.9561 0.608281 20.7085 0.500992 20.4497 0.428219Z" fill="#DEE5E5"/>
</svg>
