<svg width="28" height="31" viewBox="0 0 28 31" fill="none" xmlns="http://www.w3.org/2000/svg">
<path fill-rule="evenodd" clip-rule="evenodd" d="M17.2015 21.9682C12.3217 21.9682 11.2987 19.6876 11.2987 17.7728C11.2987 17.5911 11.4424 17.4448 11.6207 17.4448H13.0624C13.2209 17.4448 13.3546 17.5634 13.3794 17.7223C13.5974 19.2183 14.2439 19.9727 17.1966 19.9727C19.5473 19.9727 20.5456 19.4328 20.5456 18.1613C20.5456 17.4297 20.2607 16.8872 16.6095 16.524C13.5553 16.2162 11.6678 15.5325 11.6678 13.0424C11.6678 10.7517 13.5652 9.38685 16.7457 9.38685C20.3177 9.38685 22.0863 10.6483 22.3092 13.3628C22.3167 13.4562 22.2845 13.547 22.2225 13.6151C22.1606 13.6807 22.0739 13.7211 21.9847 13.7211H20.5381C20.387 13.7211 20.2557 13.6126 20.226 13.4663C19.8768 11.8946 19.0346 11.39 16.7408 11.39C14.1746 11.39 13.8773 12.3007 13.8773 12.9819C13.8773 13.8094 14.2291 14.0516 17.692 14.5183C21.1202 14.9825 22.7477 15.6359 22.7477 18.0906C22.7477 20.5655 20.7214 21.9834 17.1867 21.9834L17.2015 21.9682ZM13.7559 31C13.3472 31 12.9435 30.8915 12.5868 30.6821L8.86373 28.4368C8.30639 28.1189 8.57887 28.0079 8.76217 27.9423C9.50281 27.6774 9.65391 27.6194 10.4466 27.1602C10.5308 27.1123 10.6398 27.13 10.724 27.1804L13.585 28.9086C13.6891 28.9666 13.8352 28.9666 13.9318 28.9086L25.086 22.3517C25.1901 22.2912 25.2569 22.1701 25.2569 22.0439V8.93778C25.2569 8.8066 25.1901 8.69055 25.0835 8.62495L13.9318 2.07314C13.8278 2.01007 13.6915 2.01007 13.5875 2.07314L2.4407 8.62495C2.33171 8.68802 2.26483 8.80912 2.26483 8.93526V22.0439C2.26483 22.1701 2.33171 22.2886 2.43822 22.3492L5.49244 24.1454C7.1496 24.9906 8.1652 23.9941 8.1652 22.995V10.0554C8.1652 9.87123 8.30639 9.72743 8.48969 9.72743H9.90162C10.0775 9.72743 10.2236 9.86871 10.2236 10.0554V23.0001C10.2236 25.253 9.01731 26.5447 6.92171 26.5447C6.27767 26.5447 5.7674 26.5447 4.35052 25.8332L1.42015 24.1152C0.696848 23.6888 0.250977 22.8941 0.250977 22.0439V8.93526C0.250977 8.08254 0.696848 7.28532 1.42015 6.86401L12.5843 0.304633C13.2902 -0.101544 14.229 -0.101544 14.9301 0.304633L26.0818 6.86653C26.8026 7.29037 27.251 8.08254 27.251 8.93778V22.0464C27.251 22.8966 26.8026 23.6888 26.0818 24.1177L14.9301 30.6771C14.5734 30.8865 14.1671 30.995 13.7559 30.995V31Z" fill="#DEE5E5"/>
</svg>
