<svg width="33" height="32" viewBox="0 0 33 32" fill="none" xmlns="http://www.w3.org/2000/svg">
<path d="M26.9671 0H5.63388C2.70053 0 0.300537 2.4 0.300537 5.33334V26.6667C0.300537 29.6 2.70053 32 5.63388 32H26.9672C29.9005 32 32.3005 29.6 32.3005 26.6667V5.33334C32.3005 2.4 29.9005 0 26.9671 0ZM15.6323 16.2833C14.5216 17.3939 12.776 17.9155 10.8039 17.9155C10.2825 17.9155 9.80652 17.8927 9.44375 17.8247V23.5824H6.67842V8.50804C7.6758 8.32675 9.05863 8.19061 10.9399 8.19061C12.9802 8.19061 14.4763 8.62132 15.4511 9.43748C16.3579 10.1856 16.9471 11.387 16.9471 12.8151C16.9471 14.2659 16.4938 15.4672 15.6323 16.2833ZM21.4343 23.8093C20.0968 23.8093 18.8955 23.4919 18.0794 23.0385L18.6234 21.021C19.2581 21.4064 20.4596 21.8145 21.457 21.8145C22.681 21.8145 23.2252 21.3158 23.2252 20.5903C23.2252 19.8424 22.7719 19.4569 21.4117 18.9809C19.258 18.2328 18.3516 17.0541 18.3742 15.7619C18.3742 13.8124 19.9836 12.2937 22.5451 12.2937C23.7693 12.2937 24.8347 12.6112 25.4692 12.951L24.9252 14.9232C24.4492 14.6513 23.565 14.2885 22.5903 14.2885C21.5929 14.2885 21.0489 14.7646 21.0489 15.4445C21.0489 16.1474 21.5703 16.4875 22.9758 16.9861C24.9705 17.7114 25.9 18.7315 25.9227 20.3638C25.9226 22.3586 24.3586 23.8093 21.4343 23.8093ZM14.1588 12.9283C14.1588 14.7192 12.8893 15.7393 10.8039 15.7393C10.2372 15.7393 9.78385 15.7166 9.44375 15.626V10.4575C9.73858 10.3896 10.2826 10.3216 11.0534 10.3216C12.9802 10.3216 14.1588 11.2283 14.1588 12.9283Z" fill="#DEE5E5"/>
</svg>
