<svg width="30" height="29" viewBox="0 0 30 29" fill="none" xmlns="http://www.w3.org/2000/svg">
<path d="M23.154 13.098C23.1975 13.3704 23.2421 13.6428 23.2956 13.909H25.9269V13.098H23.154ZM23.59 15.1243C23.6444 15.3106 23.702 15.496 23.7658 15.6805C23.9186 15.7567 24.0675 15.8416 24.2115 15.9362H27.5471V15.1243H23.59ZM18.1744 15.501C18.0492 15.5466 17.9266 15.5997 17.8065 15.6576V15.6588C17.9269 15.6006 18.0489 15.5466 18.1744 15.501ZM6.0542 25.6589V26.4699H15.7969V25.6589H6.0542ZM11.7282 27.6852V28.4939H19.749V27.6852H11.7282Z" fill="#DEE5E5"/>
<path d="M10.1186 1.04002L10.1186 1.03993C7.89854 1.85255 6.16637 4.08647 5.65162 6.82504L5.65057 6.83058L5.65051 6.83057C5.32987 8.34714 5.16717 9.71038 5.01479 10.9871C5.00334 11.083 4.99195 11.1785 4.98056 11.2734C4.84535 12.4004 4.7092 13.4663 4.46524 14.5017C4.64061 14.4069 4.82268 14.3244 5.01015 14.255C5.59415 14.0246 6.53471 13.9182 7.46453 13.9182C8.39869 13.9182 9.37416 14.026 10.0241 14.2524L10.0277 14.2537L10.0277 14.2537C11.4062 14.7574 12.484 16.011 12.9697 17.5542H15.4922C16.1012 16.4919 17.007 15.6625 18.0869 15.2674C18.708 15.0221 19.7119 14.9089 20.7053 14.9091C21.6701 14.9092 22.6727 15.0164 23.3641 15.2413C23.0206 14.0784 22.8502 12.8882 22.6951 11.6234C22.6692 11.4118 22.6437 11.1981 22.6179 10.9819C22.4656 9.70672 22.3032 8.34573 21.9829 6.83056L21.9817 6.82503L21.9817 6.82501C21.4674 4.08723 19.7355 1.85374 17.5165 1.04058C16.5989 0.720647 15.1609 0.553884 13.7309 0.553589L10.1186 1.04002ZM10.1186 1.04002L10.1251 1.03745M10.1186 1.04002L10.1251 1.03745M10.1251 1.03745C10.9217 0.720479 12.2965 0.553593 13.7308 0.553589L10.1251 1.03745Z" stroke="#DEE5E5" stroke-width="0.5"/>
<path d="M9.07467 10.155C8.81428 10.1554 8.56466 10.2646 8.38064 10.4587C8.19662 10.6528 8.09326 10.9159 8.09326 11.1902C8.09326 11.4646 8.19662 11.7277 8.38064 11.9218C8.56466 12.1159 8.81428 12.2251 9.07467 12.2254C9.33512 12.2252 9.58482 12.116 9.7689 11.9219C9.95298 11.7278 10.0564 11.4646 10.0564 11.1902C10.0564 10.9159 9.95302 10.6528 9.769 10.4587C9.58499 10.2646 9.33507 10.1554 9.07467 10.155ZM19.0034 10.155C18.743 10.1554 18.4934 10.2646 18.3094 10.4587C18.1253 10.6528 18.022 10.9159 18.022 11.1902C18.022 11.4646 18.1253 11.7277 18.3094 11.9218C18.4934 12.1159 18.743 12.2251 19.0034 12.2254C19.1326 12.2256 19.2605 12.199 19.38 12.1471C19.4994 12.0952 19.6079 12.019 19.6993 11.9229C19.7908 11.8267 19.8633 11.7125 19.9128 11.5868C19.9623 11.4611 19.9877 11.3263 19.9877 11.1902C19.9877 11.0541 19.9623 10.9194 19.9128 10.7936C19.8633 10.6679 19.7908 10.5537 19.6993 10.4576C19.6079 10.3614 19.4994 10.2852 19.38 10.2333C19.2605 10.1814 19.1326 10.1548 19.0034 10.155Z" fill="#E7E8E9"/>
<path d="M10.7304 10.4247L7.07861 11.4037L7.18322 11.7951L10.8356 10.8161L10.7304 10.4247ZM17.6414 10.4247L17.5362 10.8161L21.1877 11.7951L21.2929 11.4037L17.6414 10.4247ZM11.0959 11.0147L7.42328 13.1359L7.62603 13.4865L11.2981 11.3655L11.0959 11.0147ZM17.278 11.0147L17.0752 11.3655L20.7476 13.4865L20.9503 13.1359L17.278 11.0147ZM11.3645 11.7184L8.83546 14.251C9.00765 14.2728 9.17161 14.3001 9.32822 14.3306L11.651 12.0046L11.3645 11.7184ZM17.0091 11.7184L16.7229 12.0046L19.899 15.1857C20.0788 15.174 20.2624 15.166 20.4484 15.1622L17.0091 11.7184ZM11.4873 12.6405L10.3246 14.6562C10.4454 14.7159 10.5638 14.7814 10.6787 14.8537L11.8385 12.8427L11.4873 12.6405ZM16.8866 12.6405L16.5354 12.8427L18.0889 15.5365C18.1177 15.5251 18.1457 15.5116 18.175 15.501C18.2661 15.4649 18.3704 15.4325 18.4797 15.4023L16.8866 12.6405Z" fill="#A7A9AC"/>
<path d="M17.2988 10.4644C17.2988 10.8587 17.2173 11.2491 17.0588 11.6134C16.9002 11.9776 16.6679 12.3086 16.3749 12.5874C16.082 12.8662 15.7342 13.0874 15.3515 13.2383C14.9687 13.3892 14.5585 13.4668 14.1442 13.4668C13.7299 13.4669 13.3196 13.3892 12.9368 13.2384C12.554 13.0875 12.2062 12.8663 11.9132 12.5875C11.6203 12.3087 11.3879 11.9777 11.2293 11.6134C11.0708 11.2491 10.9892 10.8587 10.9893 10.4644C10.9893 10.0701 11.0709 9.67973 11.2294 9.31548C11.388 8.95122 11.6204 8.62026 11.9133 8.34148C12.2063 8.06271 12.5541 7.84158 12.9369 7.69072C13.3196 7.53987 13.7299 7.46224 14.1442 7.46228C14.9808 7.46235 15.7831 7.77868 16.3746 8.34168C16.9662 8.90468 17.2988 9.66824 17.2988 10.4644Z" fill="white"/>
<path d="M15.4907 9.92315C15.3849 9.649 15.3849 9.10071 15.0676 9.10071C14.7502 9.10071 14.4564 8.89502 14.1443 8.89502C13.832 8.89502 13.539 9.10071 13.2211 9.10071C12.9038 9.10071 12.9038 9.649 12.798 9.92345C12.6922 10.1973 14.1443 11.0882 14.1443 11.0882C14.1443 11.0882 15.5965 10.1973 15.4907 9.92315Z" fill="#DEE5E5"/>
<path d="M12.6382 17.3549C12.7351 17.6152 12.8115 17.8868 12.8712 18.1662H15.4567C15.5868 17.8803 15.7382 17.6088 15.9077 17.3546L12.6382 17.3549ZM25.619 17.3552C25.7905 17.613 25.9411 17.8842 26.0691 18.1662H29.3225V17.3552H25.619Z" fill="#DEE5E5"/>
<path d="M5.19108 14.7209C5.67012 14.5313 6.4984 14.4248 7.38165 14.4185H7.46415C8.3743 14.4185 9.28376 14.525 9.85718 14.7243C11.2413 15.2308 12.3318 16.6259 12.6556 18.3472L12.6555 18.3473L12.6567 18.3529C12.8079 19.0651 12.9017 19.7206 12.98 20.345H2.06062C2.13939 19.7209 2.23496 19.065 2.38615 18.3529L2.38622 18.353L2.38728 18.3473C2.71159 16.6249 3.80044 15.2292 5.18487 14.7233L5.1849 14.7234L5.19108 14.7209Z" stroke="#DEE5E5" stroke-width="0.5"/>
<path d="M4.4879 20.4548C4.3539 20.4591 4.2247 20.5082 4.11914 20.595H4.87136C4.76178 20.5051 4.62693 20.4559 4.4879 20.4551V20.4548ZM10.8406 20.4548C10.7065 20.459 10.5772 20.5081 10.4716 20.595H11.2244C11.1146 20.505 10.9796 20.4558 10.8403 20.4551L10.8406 20.4548Z" fill="#E7E8E9"/>
<path d="M5.52894 20.5568L5.38672 20.595H5.53951L5.52894 20.5568ZM9.98702 20.5568L9.97673 20.595H10.1295L9.98702 20.5568Z" fill="#A7A9AC"/>
<path d="M7.73084 18.7388C7.20745 18.7401 6.70508 18.9345 6.32976 19.2808C5.95444 19.6271 5.73553 20.0983 5.71924 20.5949H9.7395C9.72323 20.0988 9.50473 19.628 9.13004 19.2817C8.75535 18.9355 8.25373 18.7408 7.73084 18.7388Z" fill="white"/>
<path d="M7.7317 19.6514C7.53189 19.6514 7.34472 19.7836 7.14168 19.7836C6.93864 19.7836 6.93717 20.1327 6.86958 20.3075C6.84608 20.3686 6.94833 20.4788 7.08555 20.5949H8.37726C8.51477 20.4788 8.61468 20.3686 8.59088 20.3075C8.52329 20.1327 8.52447 19.7836 8.32143 19.7836C8.11868 19.7836 7.93151 19.6514 7.7317 19.6514Z" fill="#DEE5E5"/>
<mask id="path-13-inside-1_1_93" fill="white">
<path d="M27.1092 23.6567C26.9312 22.4449 26.8448 21.1268 26.516 19.5762C26.1552 17.661 24.9372 16.0796 23.352 15.5007C22.0438 15.0453 19.3273 15.0441 18.1757 15.5007C16.5905 16.0796 15.3725 17.661 15.0117 19.5762C14.6832 21.1271 14.5965 22.4449 14.4185 23.6567"/>
</mask>
<path d="M26.516 19.5762L26.0245 19.6688L26.0269 19.6799L26.516 19.5762ZM23.352 15.5007L23.5235 15.031L23.5164 15.0285L23.352 15.5007ZM18.1757 15.5007L18.3473 15.9706L18.36 15.9655L18.1757 15.5007ZM15.0117 19.5762L15.501 19.6799L15.5031 19.6688L15.0117 19.5762ZM27.6039 23.584C27.4336 22.4248 27.3373 21.0392 27.0051 19.4725L26.0269 19.6799C26.3522 21.2144 26.4288 22.4651 26.6145 23.7294L27.6039 23.584ZM27.0073 19.4837C26.6204 17.4299 25.3051 15.6816 23.5235 15.031L23.1805 15.9704C24.5693 16.4775 25.6899 17.8921 26.0246 19.6688L27.0073 19.4837ZM23.5164 15.0285C22.7853 14.774 21.7147 14.6588 20.7052 14.6587C19.7017 14.6585 18.6574 14.7719 17.9914 15.0359L18.36 15.9655C18.8457 15.7729 19.7354 15.6585 20.705 15.6587C21.6688 15.6588 22.6104 15.772 23.1876 15.9729L23.5164 15.0285ZM18.0042 15.031C16.2226 15.6816 14.9073 17.4299 14.5204 19.4837L15.5031 19.6688C15.8378 17.8921 16.9584 16.4775 18.3472 15.9704L18.0042 15.031ZM14.5226 19.4726C14.1906 21.0396 14.0941 22.4246 13.9238 23.584L14.9131 23.7294C15.0989 22.4653 15.1758 21.2146 15.5009 19.6798L14.5226 19.4726Z" fill="#DEE5E5" mask="url(#path-13-inside-1_1_93)"/>
<path d="M17.5218 21.8793C17.4335 21.8793 17.3461 21.8976 17.2646 21.9332C17.1831 21.9687 17.109 22.0208 17.0466 22.0865C16.9842 22.1521 16.9348 22.2301 16.9011 22.3158C16.8673 22.4016 16.85 22.4935 16.8501 22.5862C16.85 22.679 16.8673 22.7709 16.9011 22.8567C16.9348 22.9424 16.9842 23.0203 17.0466 23.086C17.109 23.1517 17.1831 23.2037 17.2646 23.2393C17.3461 23.2748 17.4335 23.2932 17.5218 23.2932C17.7 23.293 17.8709 23.2185 17.9968 23.0859C18.1227 22.9533 18.1934 22.7736 18.1932 22.5862C18.1934 22.3989 18.1227 22.2192 17.9968 22.0866C17.8709 21.954 17.7 21.8794 17.5218 21.8793ZM24.3124 21.8793C24.2241 21.8793 24.1367 21.8976 24.0552 21.9332C23.9736 21.9687 23.8996 22.0208 23.8372 22.0865C23.7748 22.1521 23.7253 22.2301 23.6916 22.3158C23.6579 22.4016 23.6406 22.4935 23.6407 22.5862C23.6406 22.679 23.6579 22.7709 23.6916 22.8567C23.7253 22.9424 23.7748 23.0203 23.8372 23.086C23.8996 23.1517 23.9736 23.2037 24.0552 23.2393C24.1367 23.2748 24.2241 23.2932 24.3124 23.2932C24.4906 23.293 24.6614 23.2185 24.7874 23.0859C24.9133 22.9533 24.9839 22.7736 24.9838 22.5862C24.9839 22.3989 24.9133 22.2192 24.7874 22.0866C24.6614 21.954 24.4906 21.8794 24.3124 21.8793Z" fill="#E7E8E9"/>
<path d="M18.6373 22.0015L16.1396 22.6705L16.2448 23.0619L18.7419 22.3929L18.6373 22.0015ZM23.3962 22.0015L23.291 22.3929L25.7886 23.0619L25.8938 22.6705L23.3962 22.0015ZM18.8711 22.4105L16.3606 23.8579L16.5628 24.2085L19.073 22.7616L18.8711 22.4105ZM23.1626 22.4105L22.9599 22.7616L25.4701 24.2085L25.6729 23.8579L23.1626 22.4105Z" fill="#A7A9AC"/>
<path d="M23.146 22.0914C23.146 22.6345 22.9188 23.1554 22.5142 23.5395C22.1096 23.9235 21.5609 24.1393 20.9887 24.1394C20.4165 24.1394 19.8676 23.9236 19.463 23.5396C19.0584 23.1555 18.8311 22.6345 18.8311 22.0914C18.8311 21.5482 19.0584 21.0273 19.463 20.6432C19.8676 20.2591 20.4165 20.0433 20.9887 20.0433C21.5609 20.0434 22.1096 20.2592 22.5142 20.6433C22.9188 21.0274 23.146 21.5482 23.146 22.0914Z" fill="white"/>
<path d="M21.9082 21.7218C21.8359 21.535 21.8359 21.1606 21.6188 21.1606C21.4019 21.1606 21.2015 21.0208 20.9876 21.0208C20.774 21.0208 20.5733 21.1609 20.3562 21.1609C20.1393 21.1609 20.1393 21.535 20.0668 21.7221C19.9945 21.909 20.9876 22.5167 20.9876 22.5167C20.9876 22.5167 21.9808 21.909 21.9082 21.7218Z" fill="#DEE5E5"/>
<path d="M14.1448 7.1593C12.2463 7.1593 10.6864 8.63495 10.6864 10.4655C10.6864 12.2961 12.2463 13.7718 14.1448 13.7718C16.0436 13.7718 17.6036 12.2961 17.6036 10.4655C17.6036 8.63495 16.043 7.1593 14.1448 7.1593ZM14.1448 7.76725C15.7309 7.76725 16.9959 8.9802 16.9959 10.4655C16.9959 11.9512 15.7309 13.1635 14.1448 13.1635C12.559 13.1635 11.2937 11.9512 11.2937 10.4655C11.2937 8.9802 12.559 7.76725 14.1448 7.76725ZM7.73097 18.4335C6.48099 18.4335 5.44492 19.3914 5.41113 20.595H6.01908C6.05199 19.737 6.79393 19.0412 7.73097 19.0412C8.66831 19.0412 9.40936 19.737 9.44227 20.595H10.0499C10.0167 19.3917 8.98036 18.4335 7.73097 18.4335ZM20.9886 19.7402C19.6413 19.7402 18.5262 20.7862 18.5262 22.0903C18.5262 23.3949 19.6413 24.4427 20.9886 24.4427C22.3361 24.4427 23.4506 23.3946 23.4506 22.0903C23.4506 20.7862 22.3364 19.7402 20.9886 19.7402ZM20.9886 20.3481C22.0243 20.3481 22.8427 21.1318 22.8427 22.0906C22.8427 23.0485 22.0243 23.8351 20.9886 23.8351C19.9531 23.8351 19.1345 23.0485 19.1345 22.0903C19.1345 21.1324 19.9531 20.3481 20.9886 20.3481Z" fill="#DEE5E5"/>
<path d="M0.462402 20.5948V21.4058H14.7023C14.7376 21.1423 14.7766 20.8722 14.8216 20.5948H0.462402ZM7.67725 23.634V24.4426H28.7347V23.634H27.1054L27.1083 23.6563H14.417L14.4199 23.634H7.67725Z" fill="#DEE5E5"/>
<mask id="path-21-inside-2_1_93" fill="white">
<path d="M13.7293 0H13.7287C12.2648 0 10.8403 0.159847 9.92202 0.52391C7.48817 1.41805 5.65317 3.82222 5.10751 6.7168C4.6221 9.01313 4.4934 10.9551 4.23511 12.7134C4.12493 13.465 3.98888 14.1811 3.79553 14.881C2.80795 15.6612 2.09863 16.8691 1.83917 18.2455C1.65817 19.1014 1.55797 19.8733 1.4707 20.595H2.08129C2.16592 19.8986 2.26465 19.1669 2.43478 18.3648L2.43713 18.3618V18.3565C2.75741 16.6573 3.83873 15.2736 5.20154 14.7761L5.20683 14.7732L5.20918 14.7708C5.67138 14.5875 6.56288 14.4729 7.46232 14.4729C8.36057 14.4729 9.28733 14.5848 9.83769 14.7758C11.1993 15.2742 12.2798 16.6582 12.5997 18.3565V18.3618L12.6021 18.3648C12.7725 19.1669 12.871 19.8989 12.9556 20.595H13.5665C13.4792 19.8727 13.3793 19.0993 13.198 18.2425C12.8425 16.3602 11.646 14.7888 10.0437 14.2037H10.0413L10.039 14.2008C9.36549 13.9669 8.40817 13.8658 7.46202 13.8652C6.51763 13.8652 5.60263 13.9631 4.98822 14.2061C4.83601 14.2619 4.6885 14.3295 4.54394 14.4024C4.66287 13.8731 4.76089 13.3394 4.83777 12.8024C5.10075 11.0095 5.22417 9.09041 5.69989 6.84139L5.70282 6.83845V6.83375C6.21292 4.1187 7.93774 1.89554 10.1356 1.09101L10.1386 1.08866H10.143C10.9084 0.784248 12.31 0.607947 13.7293 0.608241C15.1464 0.608241 16.5983 0.779547 17.4933 1.09101C19.6912 1.89524 21.416 4.11841 21.9255 6.83345L21.9285 6.83933V6.84139C22.4039 9.09041 22.5302 11.0095 22.7932 12.8024C22.9116 13.6099 23.0653 14.3921 23.2869 15.1634C22.5834 14.9507 21.6402 14.8549 20.7026 14.8549C19.6947 14.8549 18.7201 14.9607 18.068 15.2187C16.3656 15.8416 15.0929 17.5106 14.7136 19.5142C14.3798 21.0886 14.2911 22.4171 14.1154 23.6112L14.718 23.7002C14.8987 22.4711 14.9819 21.1656 15.3057 19.6385L15.3086 19.6356V19.6335C15.6518 17.8103 16.8139 16.3202 18.2793 15.7855H18.2814L18.2867 15.7825C18.7862 15.5845 19.74 15.4622 20.7029 15.4622C21.6652 15.4622 22.6563 15.5818 23.2487 15.7878H23.2516C24.714 16.3244 25.8732 17.8123 26.2164 19.6335V19.6385C26.5399 21.1653 26.6254 22.4711 26.8061 23.6999L27.4094 23.6112C27.234 22.4168 27.1449 21.0883 26.8114 19.514C26.4747 17.7342 25.4327 16.2192 24.0112 15.4658C23.7162 14.5804 23.5352 13.6754 23.3938 12.7134C23.1361 10.9563 23.0083 9.01577 22.5238 6.72209C21.979 3.82251 20.1428 1.4113 17.7043 0.518621H17.699C16.6811 0.163079 15.1955 0.000293836 13.7293 0ZM9.15422 3.66208C8.84208 3.66037 8.53375 3.73063 8.25316 3.86741C7.97258 4.00418 7.72729 4.20379 7.53636 4.45074L7.35036 4.68992L7.83402 5.06133L8.01943 4.8195C8.14632 4.65832 8.30607 4.52599 8.48804 4.4313C8.67002 4.33661 8.87007 4.28174 9.07489 4.27032C9.45688 4.25416 9.85355 4.40784 10.1251 4.67728L10.3413 4.89355L10.7712 4.46102L10.5549 4.2474C10.1811 3.87839 9.67862 3.66878 9.15334 3.66267L9.15422 3.66208ZM18.9601 3.66208C18.4348 3.66835 17.9323 3.87818 17.5585 4.2474L17.3423 4.46102L17.7698 4.89355L17.9863 4.67728C18.125 4.54229 18.2895 4.43667 18.4699 4.36674C18.6504 4.29681 18.8431 4.26402 19.0365 4.27032C19.4405 4.28795 19.8475 4.49863 20.0943 4.81979L20.2803 5.06133L20.761 4.68992L20.575 4.45074C20.3847 4.2039 20.1399 4.00433 19.8598 3.86754C19.5797 3.73075 19.2718 3.66044 18.9601 3.66208ZM9.13865 6.3404C8.7359 6.34056 8.3497 6.50485 8.06494 6.79715C7.78018 7.08946 7.62018 7.48585 7.62011 7.8992C7.62011 8.31259 7.78008 8.70906 8.06484 9.00143C8.34961 9.2938 8.73585 9.45813 9.13865 9.45829C9.33827 9.45849 9.53597 9.41831 9.72045 9.34004C9.90493 9.26178 10.0726 9.14697 10.2138 9.00218C10.355 8.85738 10.467 8.68544 10.5435 8.49618C10.6199 8.30693 10.6593 8.10407 10.6593 7.8992C10.6592 7.69435 10.6198 7.49152 10.5434 7.3023C10.4669 7.11308 10.3549 6.94117 10.2137 6.79641C10.0725 6.65164 9.90484 6.53686 9.72038 6.45861C9.53592 6.38037 9.33825 6.3402 9.13865 6.3404ZM18.9728 6.3404C18.5701 6.34064 18.1839 6.50496 17.8992 6.79726C17.6145 7.08956 17.4546 7.48591 17.4545 7.8992C17.4545 8.31254 17.6144 8.70896 17.8991 9.00132C18.1838 9.29368 18.57 9.45805 18.9728 9.45829C19.3756 9.45813 19.7618 9.2938 20.0466 9.00143C20.3313 8.70906 20.4913 8.31259 20.4913 7.8992C20.4912 7.48591 20.3313 7.08956 20.0466 6.79726C19.7619 6.50496 19.3755 6.34064 18.9728 6.3404ZM14.1436 8.59118C13.9208 8.59118 13.7384 8.65964 13.5867 8.71077C13.4348 8.76219 13.3135 8.79716 13.22 8.79716C13.0534 8.79716 12.8898 8.88854 12.8007 8.99579C12.712 9.10275 12.67 9.21323 12.6377 9.31842C12.573 9.52793 12.5416 9.74096 12.5131 9.81501C12.4478 9.98367 12.5101 10.118 12.5618 10.2061C12.6133 10.2943 12.6761 10.3636 12.747 10.4353C12.8892 10.5781 13.069 10.7212 13.2506 10.8546C13.4366 10.9909 13.6232 11.1149 13.7619 11.2054L13.7545 11.3277C13.6861 11.3835 13.5195 11.5313 13.2432 11.6247C13.0799 11.68 12.9153 11.6997 12.7725 11.6632C12.6512 11.6321 12.5304 11.5251 12.4064 11.3632C12.4143 11.2992 12.4173 11.273 12.4317 11.1675C12.4572 10.983 12.4943 10.76 12.511 10.6939L11.9207 10.5464C11.8854 10.6874 11.8555 10.8931 11.829 11.0838C11.8026 11.2742 11.7832 11.4373 11.7832 11.4373L11.7705 11.546L11.829 11.6374C12.0432 11.9741 12.3288 12.1783 12.6227 12.2533C12.9165 12.3285 13.2015 12.2829 13.4395 12.2027C13.7481 12.0978 13.9996 11.9295 14.1383 11.8237C14.2773 11.9295 14.5273 12.0984 14.835 12.2027C15.073 12.2832 15.355 12.3285 15.6489 12.2533C15.9427 12.178 16.2286 11.9741 16.4425 11.6374L16.5013 11.5463L16.4884 11.4373C16.4884 11.4373 16.469 11.2742 16.4425 11.0838C16.4161 10.8928 16.3855 10.6874 16.3509 10.5464L15.7608 10.6939C15.7773 10.76 15.8143 10.983 15.8402 11.1675C15.8543 11.2716 15.8578 11.2968 15.8651 11.3609C15.7406 11.5243 15.6213 11.6321 15.499 11.6635C15.3562 11.6997 15.192 11.68 15.0286 11.6247C14.7524 11.5313 14.5855 11.3835 14.5173 11.3277L14.512 11.2134C14.6528 11.1223 14.8435 10.9959 15.0359 10.8549C15.2175 10.7212 15.3974 10.5778 15.5399 10.4347C15.6104 10.3633 15.6739 10.294 15.725 10.2061C15.777 10.118 15.8387 9.98367 15.7735 9.81471C15.745 9.74126 15.7112 9.52793 15.6465 9.31813C15.6142 9.21352 15.5754 9.10245 15.4864 8.9952C15.3974 8.88825 15.2337 8.79716 15.0668 8.79716C14.9736 8.79716 14.8523 8.7619 14.7007 8.71077C14.5488 8.65964 14.3666 8.59118 14.1436 8.59118ZM14.1436 9.19913C14.2332 9.19913 14.3522 9.2338 14.505 9.28522C14.6454 9.33282 14.822 9.38513 15.0233 9.39482C15.0301 9.40511 15.0483 9.4389 15.0668 9.49913C15.0994 9.60491 15.1326 9.76652 15.1785 9.92373C15.1638 9.94371 15.1461 9.96868 15.1076 10.0075C15.0071 10.1085 14.8432 10.2399 14.6748 10.3633C14.4162 10.5534 14.2546 10.6524 14.1436 10.7221C14.0334 10.6527 13.8685 10.5546 13.6091 10.3636C13.4407 10.2402 13.28 10.1085 13.1795 10.0075C13.1407 9.96868 13.1237 9.94371 13.109 9.92373C13.1542 9.76652 13.1877 9.60521 13.22 9.49913C13.2302 9.46268 13.2449 9.42764 13.2638 9.39482C13.4648 9.38542 13.639 9.33282 13.7798 9.28522C13.932 9.2338 14.0542 9.19913 14.1436 9.19913ZM4.46401 16.2027C4.05264 16.2203 3.66772 16.4213 3.41619 16.7475L3.23108 16.989L3.7112 17.3604L3.8972 17.1183C3.9693 17.0282 4.05952 16.9543 4.16202 16.9013C4.26453 16.8483 4.37702 16.8174 4.49222 16.8107C4.60085 16.8076 4.70901 16.8263 4.81033 16.8656C4.91165 16.9049 5.00409 16.964 5.08224 17.0396L5.29851 17.2532L5.72545 16.8209L5.50919 16.6073C5.37201 16.4718 5.20845 16.366 5.02865 16.2964C4.84885 16.2268 4.65666 16.1949 4.46401 16.2027ZM10.8808 16.2027C10.6885 16.1949 10.4966 16.2267 10.3171 16.2963C10.1376 16.366 9.97442 16.4718 9.83769 16.6073L9.62172 16.8209L10.0487 17.2529L10.2652 17.0396C10.3433 16.964 10.4357 16.9048 10.537 16.8655C10.6382 16.8261 10.7463 16.8074 10.8549 16.8104C10.9702 16.817 11.0828 16.8479 11.1854 16.901C11.2879 16.954 11.3782 17.0281 11.4503 17.1183L11.6333 17.3604L12.1164 16.989L11.9307 16.7475C11.8057 16.5859 11.647 16.4535 11.4657 16.3595C11.2844 16.2654 11.0848 16.2119 10.8808 16.2027ZM24.2809 17.3522H24.2803C23.8963 17.3567 23.5289 17.5101 23.2557 17.78L23.0395 17.9933L23.467 18.4253L23.6827 18.212C23.7683 18.1294 23.8696 18.0648 23.9807 18.0221C24.0917 17.9793 24.2102 17.9593 24.3291 17.9631C24.5759 17.9734 24.8289 18.1032 24.9797 18.2986L25.1656 18.5402L25.6467 18.1691L25.4607 17.9275C25.3294 17.7574 25.1626 17.618 24.9719 17.519C24.7811 17.42 24.5711 17.3639 24.3564 17.3545C24.3314 17.3537 24.3065 17.3522 24.2809 17.3522ZM17.5744 17.3522C17.5488 17.3522 17.5236 17.3534 17.498 17.3548C17.283 17.3642 17.0726 17.4202 16.8815 17.5191C16.6904 17.618 16.5232 17.7574 16.3914 17.9275L16.2063 18.1691L16.6894 18.5405L16.8745 18.2986C16.9528 18.2001 17.0511 18.1192 17.1629 18.0614C17.2748 18.0036 17.3976 17.9701 17.5233 17.9631C17.6425 17.9593 17.7613 17.9794 17.8726 18.0221C17.984 18.0648 18.0857 18.1294 18.1718 18.212L18.388 18.4256L18.8156 17.9936L18.5993 17.78C18.326 17.5101 17.9585 17.3565 17.5744 17.3522ZM4.52748 18.0216C4.26992 18.0216 4.02292 18.1264 3.84077 18.3129C3.65861 18.4993 3.55621 18.7522 3.55606 19.0159C3.55579 19.1467 3.58072 19.2763 3.62942 19.3972C3.67812 19.5181 3.74962 19.628 3.83985 19.7206C3.93008 19.8132 4.03726 19.8867 4.15525 19.9369C4.27324 19.987 4.39973 20.0128 4.52748 20.0129C4.65523 20.0128 4.78172 19.987 4.89971 19.9369C5.01771 19.8867 5.12488 19.8132 5.21511 19.7206C5.30534 19.628 5.37684 19.5181 5.42554 19.3972C5.47424 19.2763 5.49917 19.1467 5.4989 19.0159C5.49875 18.7522 5.39635 18.4993 5.21419 18.3129C5.03204 18.1264 4.78504 18.0216 4.52748 18.0216ZM10.8191 18.0216C10.6913 18.0212 10.5648 18.0467 10.4467 18.0965C10.3285 18.1464 10.2211 18.2195 10.1307 18.3119C10.0402 18.4043 9.9684 18.514 9.91939 18.6348C9.87038 18.7556 9.84511 18.8851 9.84503 19.0159C9.84477 19.1469 9.86978 19.2767 9.91865 19.3978C9.96751 19.5189 10.0393 19.629 10.1298 19.7216C10.2203 19.8142 10.3278 19.8877 10.4461 19.9376C10.5644 19.9876 10.6911 20.0132 10.8191 20.0129C10.9469 20.0128 11.0733 19.987 11.1913 19.9369C11.3093 19.8867 11.4165 19.8132 11.5067 19.7206C11.597 19.628 11.6685 19.5181 11.7172 19.3972C11.7659 19.2763 11.7908 19.1467 11.7905 19.0159C11.7904 18.7522 11.688 18.4993 11.5058 18.3129C11.3237 18.1264 11.0767 18.0216 10.8191 18.0216ZM17.5635 19.278C17.2884 19.2785 17.0247 19.3906 16.8303 19.5899C16.6358 19.7891 16.5265 20.0592 16.5263 20.3408C16.5264 20.6225 16.6357 20.8926 16.8302 21.0919C17.0246 21.2912 17.2884 21.4034 17.5635 21.4039C17.7 21.4041 17.8352 21.3767 17.9614 21.3233C18.0875 21.27 18.2022 21.1917 18.2988 21.093C18.3954 20.9943 18.472 20.877 18.5243 20.748C18.5767 20.6189 18.6036 20.4805 18.6037 20.3408C18.6036 20.2011 18.5766 20.0628 18.5243 19.9337C18.4719 19.8047 18.3953 19.6875 18.2987 19.5888C18.2021 19.4901 18.0874 19.4119 17.9613 19.3585C17.8352 19.3052 17.7 19.2778 17.5635 19.278ZM24.2903 19.278C24.1538 19.2778 24.0187 19.3052 23.8925 19.3585C23.7664 19.4119 23.6518 19.4901 23.5552 19.5888C23.4586 19.6875 23.3819 19.8047 23.3296 19.9337C23.2772 20.0628 23.2502 20.2011 23.2501 20.3408C23.2502 20.4805 23.2772 20.6189 23.3295 20.748C23.3818 20.877 23.4585 20.9943 23.5551 21.093C23.6517 21.1917 23.7663 21.27 23.8925 21.3233C24.0186 21.3767 24.1538 21.4041 24.2903 21.4039C24.5656 21.4036 24.8295 21.2915 25.024 21.0921C25.2186 20.8928 25.328 20.6226 25.3281 20.3408C25.3279 20.0591 25.2185 19.7889 25.0239 19.5897C24.8294 19.3904 24.5655 19.2783 24.2903 19.278ZM7.72941 19.3491C7.5631 19.3491 7.4344 19.3982 7.33743 19.4308C7.24047 19.4631 7.17553 19.479 7.13939 19.479C7.00129 19.479 6.85819 19.5601 6.7859 19.6471C6.71362 19.7337 6.68394 19.8175 6.66132 19.8909C6.61548 20.0387 6.59403 20.1745 6.58492 20.1986C6.52439 20.3552 6.58198 20.4748 6.62312 20.5447C6.63429 20.5641 6.64663 20.5785 6.65838 20.5953H7.5869C7.54116 20.5651 7.49619 20.5337 7.45203 20.5012C7.34684 20.4237 7.24429 20.3423 7.18758 20.2853V20.2823C7.20609 20.2059 7.22783 20.1143 7.24106 20.0711C7.24253 20.0664 7.24223 20.0705 7.24399 20.0667C7.35154 20.0508 7.45938 20.0293 7.53078 20.005C7.62833 19.9723 7.69591 19.9571 7.72941 19.9571C7.76262 19.9571 7.82755 19.9723 7.92511 20.0052C7.99651 20.0293 8.10523 20.0508 8.21248 20.0667C8.21395 20.0705 8.21336 20.0667 8.21483 20.0711C8.22835 20.1143 8.25244 20.2053 8.27066 20.2826L8.26831 20.2853C8.2116 20.3423 8.10964 20.4237 8.00415 20.5009C7.96064 20.5331 7.91655 20.5644 7.87192 20.595H8.80044C8.8122 20.5788 8.82454 20.5638 8.83541 20.5447C8.87655 20.4748 8.93443 20.3552 8.87361 20.1986C8.8648 20.1748 8.84041 20.0387 8.79427 19.8909C8.77074 19.8017 8.72836 19.7185 8.66998 19.6471C8.5977 19.5601 8.45754 19.479 8.31944 19.479C8.28329 19.479 8.21777 19.4634 8.1208 19.4308C8.02384 19.3982 7.89572 19.3491 7.72941 19.3491ZM20.987 20.7175C20.8136 20.7175 20.6785 20.7692 20.5748 20.8042C20.471 20.8392 20.3993 20.8571 20.3561 20.8571C20.2145 20.8571 20.0694 20.9379 19.9947 21.0275C19.9207 21.1165 19.8892 21.2044 19.8654 21.282C19.8172 21.4371 19.7931 21.5826 19.7817 21.6125C19.7203 21.7712 19.7799 21.8917 19.8219 21.9634C19.8643 22.0357 19.913 22.0868 19.9647 22.1391C20.0685 22.2428 20.1942 22.3412 20.3206 22.4338C20.4249 22.5102 20.5266 22.5795 20.6132 22.6377C20.5559 22.6833 20.4798 22.7456 20.3406 22.7926C20.2407 22.8264 20.1478 22.8343 20.0738 22.8155C20.0197 22.8017 19.9589 22.7388 19.8983 22.6709C19.903 22.6336 19.9042 22.6313 19.911 22.5842C19.9286 22.4594 19.9536 22.3045 19.9618 22.2716L19.3721 22.1241C19.345 22.2322 19.3265 22.3692 19.3083 22.4999C19.2901 22.6313 19.2778 22.7444 19.2778 22.7444L19.2651 22.851L19.3239 22.943C19.4805 23.1893 19.6991 23.3482 19.9233 23.4055C20.1481 23.4628 20.36 23.4264 20.5342 23.3676C20.6935 23.3118 20.8442 23.2337 20.9817 23.1358C21.0869 23.2098 21.2423 23.3041 21.4295 23.3679C21.6038 23.4267 21.815 23.4628 22.0395 23.4055C22.2643 23.3482 22.4829 23.1893 22.6398 22.943L22.6986 22.851L22.6857 22.7444C22.6857 22.7444 22.6707 22.6316 22.6525 22.5005C22.6345 22.3695 22.6163 22.2322 22.5893 22.1241L21.9993 22.2716C22.0075 22.3045 22.0354 22.4597 22.0527 22.5842C22.0586 22.6313 22.0577 22.6336 22.0624 22.6709C22.0022 22.7385 21.9434 22.8017 21.8897 22.8155C21.8156 22.8343 21.7222 22.8264 21.6223 22.7926C21.4871 22.7467 21.4128 22.6856 21.3555 22.6398C21.4436 22.5816 21.5465 22.5117 21.6531 22.4341C21.7795 22.3412 21.9052 22.2431 22.009 22.1391C22.0641 22.0871 22.112 22.028 22.1515 21.9634C22.1938 21.8914 22.2508 21.7709 22.1897 21.6125C22.1779 21.5826 22.1535 21.4371 22.1053 21.282C22.0818 21.2044 22.0525 21.1165 21.9787 21.0272C21.9041 20.9379 21.7592 20.8568 21.6176 20.8568C21.5747 20.8568 21.503 20.8392 21.399 20.8039C21.2952 20.7686 21.1604 20.7175 20.987 20.7175ZM20.987 21.3252C21.0273 21.3252 21.099 21.3434 21.2033 21.3786C21.3071 21.41 21.4135 21.432 21.5212 21.4445C21.525 21.4527 21.5212 21.4474 21.5256 21.4621C21.5415 21.5135 21.567 21.6122 21.5894 21.7016L21.5791 21.7118C21.4896 21.7961 21.3944 21.8741 21.2944 21.9454C21.146 22.0542 21.0757 22.0953 20.987 22.1514C20.8989 22.0956 20.8283 22.0548 20.6794 21.9457C20.5791 21.8743 20.4837 21.7962 20.394 21.7118C20.3876 21.7051 20.3899 21.7048 20.3843 21.6986C20.4061 21.6111 20.4296 21.5129 20.4452 21.4624C20.4499 21.4468 20.4487 21.4527 20.4525 21.4447C20.5595 21.4323 20.6651 21.4102 20.7681 21.3786C20.8724 21.3434 20.9465 21.3252 20.9867 21.3252H20.987Z"/>
</mask>
<path d="M13.7293 0H13.7287C12.2648 0 10.8403 0.159847 9.92202 0.52391C7.48817 1.41805 5.65317 3.82222 5.10751 6.7168C4.6221 9.01313 4.4934 10.9551 4.23511 12.7134C4.12493 13.465 3.98888 14.1811 3.79553 14.881C2.80795 15.6612 2.09863 16.8691 1.83917 18.2455C1.65817 19.1014 1.55797 19.8733 1.4707 20.595H2.08129C2.16592 19.8986 2.26465 19.1669 2.43478 18.3648L2.43713 18.3618V18.3565C2.75741 16.6573 3.83873 15.2736 5.20154 14.7761L5.20683 14.7732L5.20918 14.7708C5.67138 14.5875 6.56288 14.4729 7.46232 14.4729C8.36057 14.4729 9.28733 14.5848 9.83769 14.7758C11.1993 15.2742 12.2798 16.6582 12.5997 18.3565V18.3618L12.6021 18.3648C12.7725 19.1669 12.871 19.8989 12.9556 20.595H13.5665C13.4792 19.8727 13.3793 19.0993 13.198 18.2425C12.8425 16.3602 11.646 14.7888 10.0437 14.2037H10.0413L10.039 14.2008C9.36549 13.9669 8.40817 13.8658 7.46202 13.8652C6.51763 13.8652 5.60263 13.9631 4.98822 14.2061C4.83601 14.2619 4.6885 14.3295 4.54394 14.4024C4.66287 13.8731 4.76089 13.3394 4.83777 12.8024C5.10075 11.0095 5.22417 9.09041 5.69989 6.84139L5.70282 6.83845V6.83375C6.21292 4.1187 7.93774 1.89554 10.1356 1.09101L10.1386 1.08866H10.143C10.9084 0.784248 12.31 0.607947 13.7293 0.608241C15.1464 0.608241 16.5983 0.779547 17.4933 1.09101C19.6912 1.89524 21.416 4.11841 21.9255 6.83345L21.9285 6.83933V6.84139C22.4039 9.09041 22.5302 11.0095 22.7932 12.8024C22.9116 13.6099 23.0653 14.3921 23.2869 15.1634C22.5834 14.9507 21.6402 14.8549 20.7026 14.8549C19.6947 14.8549 18.7201 14.9607 18.068 15.2187C16.3656 15.8416 15.0929 17.5106 14.7136 19.5142C14.3798 21.0886 14.2911 22.4171 14.1154 23.6112L14.718 23.7002C14.8987 22.4711 14.9819 21.1656 15.3057 19.6385L15.3086 19.6356V19.6335C15.6518 17.8103 16.8139 16.3202 18.2793 15.7855H18.2814L18.2867 15.7825C18.7862 15.5845 19.74 15.4622 20.7029 15.4622C21.6652 15.4622 22.6563 15.5818 23.2487 15.7878H23.2516C24.714 16.3244 25.8732 17.8123 26.2164 19.6335V19.6385C26.5399 21.1653 26.6254 22.4711 26.8061 23.6999L27.4094 23.6112C27.234 22.4168 27.1449 21.0883 26.8114 19.514C26.4747 17.7342 25.4327 16.2192 24.0112 15.4658C23.7162 14.5804 23.5352 13.6754 23.3938 12.7134C23.1361 10.9563 23.0083 9.01577 22.5238 6.72209C21.979 3.82251 20.1428 1.4113 17.7043 0.518621H17.699C16.6811 0.163079 15.1955 0.000293836 13.7293 0ZM9.15422 3.66208C8.84208 3.66037 8.53375 3.73063 8.25316 3.86741C7.97258 4.00418 7.72729 4.20379 7.53636 4.45074L7.35036 4.68992L7.83402 5.06133L8.01943 4.8195C8.14632 4.65832 8.30607 4.52599 8.48804 4.4313C8.67002 4.33661 8.87007 4.28174 9.07489 4.27032C9.45688 4.25416 9.85355 4.40784 10.1251 4.67728L10.3413 4.89355L10.7712 4.46102L10.5549 4.2474C10.1811 3.87839 9.67862 3.66878 9.15334 3.66267L9.15422 3.66208ZM18.9601 3.66208C18.4348 3.66835 17.9323 3.87818 17.5585 4.2474L17.3423 4.46102L17.7698 4.89355L17.9863 4.67728C18.125 4.54229 18.2895 4.43667 18.4699 4.36674C18.6504 4.29681 18.8431 4.26402 19.0365 4.27032C19.4405 4.28795 19.8475 4.49863 20.0943 4.81979L20.2803 5.06133L20.761 4.68992L20.575 4.45074C20.3847 4.2039 20.1399 4.00433 19.8598 3.86754C19.5797 3.73075 19.2718 3.66044 18.9601 3.66208ZM9.13865 6.3404C8.7359 6.34056 8.3497 6.50485 8.06494 6.79715C7.78018 7.08946 7.62018 7.48585 7.62011 7.8992C7.62011 8.31259 7.78008 8.70906 8.06484 9.00143C8.34961 9.2938 8.73585 9.45813 9.13865 9.45829C9.33827 9.45849 9.53597 9.41831 9.72045 9.34004C9.90493 9.26178 10.0726 9.14697 10.2138 9.00218C10.355 8.85738 10.467 8.68544 10.5435 8.49618C10.6199 8.30693 10.6593 8.10407 10.6593 7.8992C10.6592 7.69435 10.6198 7.49152 10.5434 7.3023C10.4669 7.11308 10.3549 6.94117 10.2137 6.79641C10.0725 6.65164 9.90484 6.53686 9.72038 6.45861C9.53592 6.38037 9.33825 6.3402 9.13865 6.3404ZM18.9728 6.3404C18.5701 6.34064 18.1839 6.50496 17.8992 6.79726C17.6145 7.08956 17.4546 7.48591 17.4545 7.8992C17.4545 8.31254 17.6144 8.70896 17.8991 9.00132C18.1838 9.29368 18.57 9.45805 18.9728 9.45829C19.3756 9.45813 19.7618 9.2938 20.0466 9.00143C20.3313 8.70906 20.4913 8.31259 20.4913 7.8992C20.4912 7.48591 20.3313 7.08956 20.0466 6.79726C19.7619 6.50496 19.3755 6.34064 18.9728 6.3404ZM14.1436 8.59118C13.9208 8.59118 13.7384 8.65964 13.5867 8.71077C13.4348 8.76219 13.3135 8.79716 13.22 8.79716C13.0534 8.79716 12.8898 8.88854 12.8007 8.99579C12.712 9.10275 12.67 9.21323 12.6377 9.31842C12.573 9.52793 12.5416 9.74096 12.5131 9.81501C12.4478 9.98367 12.5101 10.118 12.5618 10.2061C12.6133 10.2943 12.6761 10.3636 12.747 10.4353C12.8892 10.5781 13.069 10.7212 13.2506 10.8546C13.4366 10.9909 13.6232 11.1149 13.7619 11.2054L13.7545 11.3277C13.6861 11.3835 13.5195 11.5313 13.2432 11.6247C13.0799 11.68 12.9153 11.6997 12.7725 11.6632C12.6512 11.6321 12.5304 11.5251 12.4064 11.3632C12.4143 11.2992 12.4173 11.273 12.4317 11.1675C12.4572 10.983 12.4943 10.76 12.511 10.6939L11.9207 10.5464C11.8854 10.6874 11.8555 10.8931 11.829 11.0838C11.8026 11.2742 11.7832 11.4373 11.7832 11.4373L11.7705 11.546L11.829 11.6374C12.0432 11.9741 12.3288 12.1783 12.6227 12.2533C12.9165 12.3285 13.2015 12.2829 13.4395 12.2027C13.7481 12.0978 13.9996 11.9295 14.1383 11.8237C14.2773 11.9295 14.5273 12.0984 14.835 12.2027C15.073 12.2832 15.355 12.3285 15.6489 12.2533C15.9427 12.178 16.2286 11.9741 16.4425 11.6374L16.5013 11.5463L16.4884 11.4373C16.4884 11.4373 16.469 11.2742 16.4425 11.0838C16.4161 10.8928 16.3855 10.6874 16.3509 10.5464L15.7608 10.6939C15.7773 10.76 15.8143 10.983 15.8402 11.1675C15.8543 11.2716 15.8578 11.2968 15.8651 11.3609C15.7406 11.5243 15.6213 11.6321 15.499 11.6635C15.3562 11.6997 15.192 11.68 15.0286 11.6247C14.7524 11.5313 14.5855 11.3835 14.5173 11.3277L14.512 11.2134C14.6528 11.1223 14.8435 10.9959 15.0359 10.8549C15.2175 10.7212 15.3974 10.5778 15.5399 10.4347C15.6104 10.3633 15.6739 10.294 15.725 10.2061C15.777 10.118 15.8387 9.98367 15.7735 9.81471C15.745 9.74126 15.7112 9.52793 15.6465 9.31813C15.6142 9.21352 15.5754 9.10245 15.4864 8.9952C15.3974 8.88825 15.2337 8.79716 15.0668 8.79716C14.9736 8.79716 14.8523 8.7619 14.7007 8.71077C14.5488 8.65964 14.3666 8.59118 14.1436 8.59118ZM14.1436 9.19913C14.2332 9.19913 14.3522 9.2338 14.505 9.28522C14.6454 9.33282 14.822 9.38513 15.0233 9.39482C15.0301 9.40511 15.0483 9.4389 15.0668 9.49913C15.0994 9.60491 15.1326 9.76652 15.1785 9.92373C15.1638 9.94371 15.1461 9.96868 15.1076 10.0075C15.0071 10.1085 14.8432 10.2399 14.6748 10.3633C14.4162 10.5534 14.2546 10.6524 14.1436 10.7221C14.0334 10.6527 13.8685 10.5546 13.6091 10.3636C13.4407 10.2402 13.28 10.1085 13.1795 10.0075C13.1407 9.96868 13.1237 9.94371 13.109 9.92373C13.1542 9.76652 13.1877 9.60521 13.22 9.49913C13.2302 9.46268 13.2449 9.42764 13.2638 9.39482C13.4648 9.38542 13.639 9.33282 13.7798 9.28522C13.932 9.2338 14.0542 9.19913 14.1436 9.19913ZM4.46401 16.2027C4.05264 16.2203 3.66772 16.4213 3.41619 16.7475L3.23108 16.989L3.7112 17.3604L3.8972 17.1183C3.9693 17.0282 4.05952 16.9543 4.16202 16.9013C4.26453 16.8483 4.37702 16.8174 4.49222 16.8107C4.60085 16.8076 4.70901 16.8263 4.81033 16.8656C4.91165 16.9049 5.00409 16.964 5.08224 17.0396L5.29851 17.2532L5.72545 16.8209L5.50919 16.6073C5.37201 16.4718 5.20845 16.366 5.02865 16.2964C4.84885 16.2268 4.65666 16.1949 4.46401 16.2027ZM10.8808 16.2027C10.6885 16.1949 10.4966 16.2267 10.3171 16.2963C10.1376 16.366 9.97442 16.4718 9.83769 16.6073L9.62172 16.8209L10.0487 17.2529L10.2652 17.0396C10.3433 16.964 10.4357 16.9048 10.537 16.8655C10.6382 16.8261 10.7463 16.8074 10.8549 16.8104C10.9702 16.817 11.0828 16.8479 11.1854 16.901C11.2879 16.954 11.3782 17.0281 11.4503 17.1183L11.6333 17.3604L12.1164 16.989L11.9307 16.7475C11.8057 16.5859 11.647 16.4535 11.4657 16.3595C11.2844 16.2654 11.0848 16.2119 10.8808 16.2027ZM24.2809 17.3522H24.2803C23.8963 17.3567 23.5289 17.5101 23.2557 17.78L23.0395 17.9933L23.467 18.4253L23.6827 18.212C23.7683 18.1294 23.8696 18.0648 23.9807 18.0221C24.0917 17.9793 24.2102 17.9593 24.3291 17.9631C24.5759 17.9734 24.8289 18.1032 24.9797 18.2986L25.1656 18.5402L25.6467 18.1691L25.4607 17.9275C25.3294 17.7574 25.1626 17.618 24.9719 17.519C24.7811 17.42 24.5711 17.3639 24.3564 17.3545C24.3314 17.3537 24.3065 17.3522 24.2809 17.3522ZM17.5744 17.3522C17.5488 17.3522 17.5236 17.3534 17.498 17.3548C17.283 17.3642 17.0726 17.4202 16.8815 17.5191C16.6904 17.618 16.5232 17.7574 16.3914 17.9275L16.2063 18.1691L16.6894 18.5405L16.8745 18.2986C16.9528 18.2001 17.0511 18.1192 17.1629 18.0614C17.2748 18.0036 17.3976 17.9701 17.5233 17.9631C17.6425 17.9593 17.7613 17.9794 17.8726 18.0221C17.984 18.0648 18.0857 18.1294 18.1718 18.212L18.388 18.4256L18.8156 17.9936L18.5993 17.78C18.326 17.5101 17.9585 17.3565 17.5744 17.3522ZM4.52748 18.0216C4.26992 18.0216 4.02292 18.1264 3.84077 18.3129C3.65861 18.4993 3.55621 18.7522 3.55606 19.0159C3.55579 19.1467 3.58072 19.2763 3.62942 19.3972C3.67812 19.5181 3.74962 19.628 3.83985 19.7206C3.93008 19.8132 4.03726 19.8867 4.15525 19.9369C4.27324 19.987 4.39973 20.0128 4.52748 20.0129C4.65523 20.0128 4.78172 19.987 4.89971 19.9369C5.01771 19.8867 5.12488 19.8132 5.21511 19.7206C5.30534 19.628 5.37684 19.5181 5.42554 19.3972C5.47424 19.2763 5.49917 19.1467 5.4989 19.0159C5.49875 18.7522 5.39635 18.4993 5.21419 18.3129C5.03204 18.1264 4.78504 18.0216 4.52748 18.0216ZM10.8191 18.0216C10.6913 18.0212 10.5648 18.0467 10.4467 18.0965C10.3285 18.1464 10.2211 18.2195 10.1307 18.3119C10.0402 18.4043 9.9684 18.514 9.91939 18.6348C9.87038 18.7556 9.84511 18.8851 9.84503 19.0159C9.84477 19.1469 9.86978 19.2767 9.91865 19.3978C9.96751 19.5189 10.0393 19.629 10.1298 19.7216C10.2203 19.8142 10.3278 19.8877 10.4461 19.9376C10.5644 19.9876 10.6911 20.0132 10.8191 20.0129C10.9469 20.0128 11.0733 19.987 11.1913 19.9369C11.3093 19.8867 11.4165 19.8132 11.5067 19.7206C11.597 19.628 11.6685 19.5181 11.7172 19.3972C11.7659 19.2763 11.7908 19.1467 11.7905 19.0159C11.7904 18.7522 11.688 18.4993 11.5058 18.3129C11.3237 18.1264 11.0767 18.0216 10.8191 18.0216ZM17.5635 19.278C17.2884 19.2785 17.0247 19.3906 16.8303 19.5899C16.6358 19.7891 16.5265 20.0592 16.5263 20.3408C16.5264 20.6225 16.6357 20.8926 16.8302 21.0919C17.0246 21.2912 17.2884 21.4034 17.5635 21.4039C17.7 21.4041 17.8352 21.3767 17.9614 21.3233C18.0875 21.27 18.2022 21.1917 18.2988 21.093C18.3954 20.9943 18.472 20.877 18.5243 20.748C18.5767 20.6189 18.6036 20.4805 18.6037 20.3408C18.6036 20.2011 18.5766 20.0628 18.5243 19.9337C18.4719 19.8047 18.3953 19.6875 18.2987 19.5888C18.2021 19.4901 18.0874 19.4119 17.9613 19.3585C17.8352 19.3052 17.7 19.2778 17.5635 19.278ZM24.2903 19.278C24.1538 19.2778 24.0187 19.3052 23.8925 19.3585C23.7664 19.4119 23.6518 19.4901 23.5552 19.5888C23.4586 19.6875 23.3819 19.8047 23.3296 19.9337C23.2772 20.0628 23.2502 20.2011 23.2501 20.3408C23.2502 20.4805 23.2772 20.6189 23.3295 20.748C23.3818 20.877 23.4585 20.9943 23.5551 21.093C23.6517 21.1917 23.7663 21.27 23.8925 21.3233C24.0186 21.3767 24.1538 21.4041 24.2903 21.4039C24.5656 21.4036 24.8295 21.2915 25.024 21.0921C25.2186 20.8928 25.328 20.6226 25.3281 20.3408C25.3279 20.0591 25.2185 19.7889 25.0239 19.5897C24.8294 19.3904 24.5655 19.2783 24.2903 19.278ZM7.72941 19.3491C7.5631 19.3491 7.4344 19.3982 7.33743 19.4308C7.24047 19.4631 7.17553 19.479 7.13939 19.479C7.00129 19.479 6.85819 19.5601 6.7859 19.6471C6.71362 19.7337 6.68394 19.8175 6.66132 19.8909C6.61548 20.0387 6.59403 20.1745 6.58492 20.1986C6.52439 20.3552 6.58198 20.4748 6.62312 20.5447C6.63429 20.5641 6.64663 20.5785 6.65838 20.5953H7.5869C7.54116 20.5651 7.49619 20.5337 7.45203 20.5012C7.34684 20.4237 7.24429 20.3423 7.18758 20.2853V20.2823C7.20609 20.2059 7.22783 20.1143 7.24106 20.0711C7.24253 20.0664 7.24223 20.0705 7.24399 20.0667C7.35154 20.0508 7.45938 20.0293 7.53078 20.005C7.62833 19.9723 7.69591 19.9571 7.72941 19.9571C7.76262 19.9571 7.82755 19.9723 7.92511 20.0052C7.99651 20.0293 8.10523 20.0508 8.21248 20.0667C8.21395 20.0705 8.21336 20.0667 8.21483 20.0711C8.22835 20.1143 8.25244 20.2053 8.27066 20.2826L8.26831 20.2853C8.2116 20.3423 8.10964 20.4237 8.00415 20.5009C7.96064 20.5331 7.91655 20.5644 7.87192 20.595H8.80044C8.8122 20.5788 8.82454 20.5638 8.83541 20.5447C8.87655 20.4748 8.93443 20.3552 8.87361 20.1986C8.8648 20.1748 8.84041 20.0387 8.79427 19.8909C8.77074 19.8017 8.72836 19.7185 8.66998 19.6471C8.5977 19.5601 8.45754 19.479 8.31944 19.479C8.28329 19.479 8.21777 19.4634 8.1208 19.4308C8.02384 19.3982 7.89572 19.3491 7.72941 19.3491ZM20.987 20.7175C20.8136 20.7175 20.6785 20.7692 20.5748 20.8042C20.471 20.8392 20.3993 20.8571 20.3561 20.8571C20.2145 20.8571 20.0694 20.9379 19.9947 21.0275C19.9207 21.1165 19.8892 21.2044 19.8654 21.282C19.8172 21.4371 19.7931 21.5826 19.7817 21.6125C19.7203 21.7712 19.7799 21.8917 19.8219 21.9634C19.8643 22.0357 19.913 22.0868 19.9647 22.1391C20.0685 22.2428 20.1942 22.3412 20.3206 22.4338C20.4249 22.5102 20.5266 22.5795 20.6132 22.6377C20.5559 22.6833 20.4798 22.7456 20.3406 22.7926C20.2407 22.8264 20.1478 22.8343 20.0738 22.8155C20.0197 22.8017 19.9589 22.7388 19.8983 22.6709C19.903 22.6336 19.9042 22.6313 19.911 22.5842C19.9286 22.4594 19.9536 22.3045 19.9618 22.2716L19.3721 22.1241C19.345 22.2322 19.3265 22.3692 19.3083 22.4999C19.2901 22.6313 19.2778 22.7444 19.2778 22.7444L19.2651 22.851L19.3239 22.943C19.4805 23.1893 19.6991 23.3482 19.9233 23.4055C20.1481 23.4628 20.36 23.4264 20.5342 23.3676C20.6935 23.3118 20.8442 23.2337 20.9817 23.1358C21.0869 23.2098 21.2423 23.3041 21.4295 23.3679C21.6038 23.4267 21.815 23.4628 22.0395 23.4055C22.2643 23.3482 22.4829 23.1893 22.6398 22.943L22.6986 22.851L22.6857 22.7444C22.6857 22.7444 22.6707 22.6316 22.6525 22.5005C22.6345 22.3695 22.6163 22.2322 22.5893 22.1241L21.9993 22.2716C22.0075 22.3045 22.0354 22.4597 22.0527 22.5842C22.0586 22.6313 22.0577 22.6336 22.0624 22.6709C22.0022 22.7385 21.9434 22.8017 21.8897 22.8155C21.8156 22.8343 21.7222 22.8264 21.6223 22.7926C21.4871 22.7467 21.4128 22.6856 21.3555 22.6398C21.4436 22.5816 21.5465 22.5117 21.6531 22.4341C21.7795 22.3412 21.9052 22.2431 22.009 22.1391C22.0641 22.0871 22.112 22.028 22.1515 21.9634C22.1938 21.8914 22.2508 21.7709 22.1897 21.6125C22.1779 21.5826 22.1535 21.4371 22.1053 21.282C22.0818 21.2044 22.0525 21.1165 21.9787 21.0272C21.9041 20.9379 21.7592 20.8568 21.6176 20.8568C21.5747 20.8568 21.503 20.8392 21.399 20.8039C21.2952 20.7686 21.1604 20.7175 20.987 20.7175ZM20.987 21.3252C21.0273 21.3252 21.099 21.3434 21.2033 21.3786C21.3071 21.41 21.4135 21.432 21.5212 21.4445C21.525 21.4527 21.5212 21.4474 21.5256 21.4621C21.5415 21.5135 21.567 21.6122 21.5894 21.7016L21.5791 21.7118C21.4896 21.7961 21.3944 21.8741 21.2944 21.9454C21.146 22.0542 21.0757 22.0953 20.987 22.1514C20.8989 22.0956 20.8283 22.0548 20.6794 21.9457C20.5791 21.8743 20.4837 21.7962 20.394 21.7118C20.3876 21.7051 20.3899 21.7048 20.3843 21.6986C20.4061 21.6111 20.4296 21.5129 20.4452 21.4624C20.4499 21.4468 20.4487 21.4527 20.4525 21.4447C20.5595 21.4323 20.6651 21.4102 20.7681 21.3786C20.8724 21.3434 20.9465 21.3252 20.9867 21.3252H20.987Z" stroke="#DEE5E5" mask="url(#path-21-inside-2_1_93)"/>
<path d="M9.13924 6.03772C8.89878 6.03782 8.66081 6.08643 8.43957 6.18064C8.21833 6.27485 8.01837 6.41273 7.85165 6.58602C7.64237 6.80037 7.48768 7.06188 7.40062 7.34852C7.33677 7.55755 7.30992 7.77611 7.32128 7.99437C7.33551 8.28048 7.41495 8.55954 7.55352 8.81025C7.69209 9.06095 7.88613 9.27667 8.12081 9.44093C8.24271 9.52527 8.37444 9.59444 8.51308 9.64691C8.94598 9.81038 9.42554 9.79878 9.85003 9.61459C10.0131 9.54398 10.1647 9.4495 10.2999 9.33427C10.4587 9.20042 10.5938 9.04079 10.6995 8.86207C10.9222 8.48783 11.008 8.04787 10.9422 7.61738C10.9058 7.37692 10.8233 7.14575 10.6992 6.93657C10.5625 6.70717 10.3785 6.50953 10.1594 6.35683C10.0374 6.27257 9.9056 6.2035 9.76688 6.15114C9.5664 6.07586 9.35397 6.03743 9.13983 6.03772H9.13924ZM18.9739 6.03772C18.76 6.03817 18.5478 6.07688 18.3475 6.15202C18.181 6.21447 18.0248 6.30142 17.8841 6.41001C17.7197 6.53599 17.5776 6.68876 17.4639 6.86193C17.1894 7.27724 17.0909 7.78449 17.1901 8.27234C17.2615 8.62694 17.4337 8.95341 17.6861 9.21262C17.8099 9.33941 17.9512 9.44785 18.1056 9.53466C18.2624 9.6219 18.4312 9.68528 18.6066 9.72272C18.7886 9.76133 18.9755 9.77095 19.1605 9.75122C19.5196 9.71376 19.8588 9.56804 20.1331 9.33339C20.3144 9.18002 20.4647 8.99329 20.5756 8.78333C20.7507 8.45444 20.8238 8.08086 20.7857 7.71024C20.7582 7.43726 20.6716 7.17356 20.5319 6.93745C20.38 6.68256 20.17 6.46727 19.9189 6.30923C19.7672 6.21482 19.6023 6.14333 19.4297 6.09708C19.2811 6.05759 19.1277 6.03763 18.9739 6.03772ZM9.13924 6.64302H9.13983C9.2018 6.64319 9.26367 6.64791 9.32495 6.65713C9.46352 6.67851 9.59716 6.72449 9.71957 6.79288C9.82326 6.85039 9.91791 6.92286 10.0005 7.00797C10.1126 7.12282 10.2014 7.25833 10.262 7.407C10.3179 7.54279 10.3498 7.68725 10.3563 7.83394C10.3633 7.9832 10.3452 8.13259 10.3028 8.27587C10.2561 8.43083 10.1802 8.57545 10.0792 8.70193C9.97984 8.82532 9.85776 8.92855 9.71957 9.00605C9.48676 9.13497 9.2176 9.18254 8.95471 9.14122C8.65723 9.09494 8.38828 8.93779 8.20191 8.70135C8.10057 8.57513 8.02473 8.43043 7.97859 8.27528C7.94184 8.15331 7.92342 8.02656 7.92394 7.89917C7.92421 7.77182 7.94271 7.64517 7.97889 7.52306C8.02559 7.36824 8.10138 7.22373 8.2022 7.09729C8.30123 6.97409 8.42291 6.87096 8.56068 6.79347C8.71923 6.70532 8.8958 6.65447 9.07695 6.64479C9.09752 6.64361 9.11838 6.64302 9.13924 6.64302ZM18.9739 6.64302C19.0966 6.64317 19.2185 6.6621 19.3354 6.69915C19.4864 6.74719 19.6263 6.82502 19.7467 6.92804C19.8685 7.03093 19.969 7.15646 20.0429 7.29769C20.1204 7.44433 20.1682 7.60477 20.1837 7.76988C20.2082 8.02217 20.1592 8.27616 20.0426 8.50124C19.9683 8.64208 19.8679 8.76752 19.7467 8.87089C19.6564 8.94741 19.5555 9.01037 19.447 9.05777C19.2978 9.12267 19.1369 9.15616 18.9742 9.15616C18.8116 9.15616 18.6506 9.12267 18.5014 9.05777C18.3562 8.99499 18.2249 8.90401 18.1151 8.79008C18.0031 8.67518 17.9145 8.53967 17.8541 8.39105C17.7984 8.25533 17.7666 8.11098 17.7601 7.9644C17.7549 7.8571 17.7627 7.74956 17.7833 7.64412C17.8151 7.48379 17.8773 7.33101 17.9664 7.19397C18.0534 7.0615 18.1649 6.94682 18.2949 6.85605C18.4092 6.77694 18.5364 6.71819 18.6707 6.6824C18.7697 6.65624 18.8716 6.643 18.9739 6.64302ZM4.49575 17.7183C4.48478 17.7179 4.4738 17.718 4.46284 17.7186C3.78849 17.7538 3.25488 18.328 3.25488 19.0156C3.25488 19.7255 3.82404 20.3152 4.52896 20.3152C5.23387 20.3152 5.80538 19.7255 5.80538 19.0156C5.80538 18.3057 5.23387 17.7186 4.52896 17.7186L4.49575 17.7183ZM10.7877 17.7183C10.7766 17.7179 10.7655 17.718 10.7545 17.7186C10.0801 17.7538 9.54386 18.328 9.54386 19.0156C9.54386 19.7255 10.1157 20.3152 10.8206 20.3152C11.5258 20.3152 12.0946 19.7255 12.0946 19.0156C12.0946 18.3057 11.5255 17.7186 10.8206 17.7186L10.7877 17.7183ZM4.52896 18.3265C4.89743 18.3265 5.19743 18.6265 5.19743 19.0156C5.19743 19.4046 4.89743 19.7073 4.52896 19.7073C4.16049 19.7073 3.86224 19.4046 3.86224 19.0156C3.86224 18.6265 4.16049 18.3265 4.52896 18.3265ZM10.8206 18.3265C11.189 18.3265 11.487 18.6265 11.487 19.0156C11.487 19.4046 11.189 19.7073 10.8206 19.7073C10.4521 19.7073 10.1518 19.4046 10.1518 19.0156C10.1518 18.6265 10.4521 18.3265 10.8206 18.3265ZM17.565 18.9724C16.8231 18.9724 16.2222 19.5927 16.2222 20.3405C16.2222 21.0886 16.8231 21.7089 17.565 21.7089C18.3072 21.7089 18.9078 21.0889 18.9078 20.3405C18.9078 19.5927 18.3072 18.9724 17.565 18.9724ZM24.2918 18.9724C23.5498 18.9724 22.949 19.5927 22.949 20.3405C22.949 21.0886 23.5498 21.7089 24.2918 21.7089C25.034 21.7089 25.6346 21.0889 25.6346 20.3405C25.6346 19.5927 25.034 18.9724 24.2918 18.9724ZM17.5462 19.58L17.5653 19.5803C17.9708 19.5803 18.2999 19.9135 18.2999 20.3405C18.2999 20.7677 17.9708 21.1009 17.5653 21.1009C17.1598 21.1009 16.8301 20.7677 16.8301 20.3405C16.8301 19.9268 17.1386 19.6 17.5271 19.5803C17.5335 19.5801 17.5398 19.5798 17.5462 19.58ZM24.2727 19.58L24.2921 19.5803C24.6976 19.5803 25.0267 19.9135 25.0267 20.3405C25.0267 20.7677 24.6976 21.1009 24.2921 21.1009C23.8866 21.1009 23.5569 20.7677 23.5569 20.3405C23.5569 19.9268 23.8654 19.6 24.2539 19.5803C24.2601 19.5801 24.2664 19.5798 24.2727 19.58Z" fill="#DEE5E5"/>
<path d="M8.63265 6.68359C8.43456 6.68343 8.24452 6.76505 8.1043 6.91051C7.96407 7.05597 7.88513 7.25337 7.88483 7.45932C7.88461 7.56154 7.90379 7.66281 7.94128 7.75731C7.97877 7.85181 8.03383 7.93769 8.1033 8.01003C8.17277 8.08237 8.25529 8.13974 8.34612 8.17886C8.43696 8.21797 8.53433 8.23807 8.63265 8.23799C8.73096 8.23807 8.82833 8.21797 8.91917 8.17886C9.01 8.13974 9.09252 8.08237 9.16199 8.01003C9.23146 7.93769 9.28652 7.85181 9.32401 7.75731C9.3615 7.66281 9.38068 7.56154 9.38046 7.45932C9.38016 7.25337 9.30122 7.05597 9.16099 6.91051C9.02077 6.76505 8.83073 6.68343 8.63265 6.68359ZM18.4623 6.68359C18.2643 6.68343 18.0742 6.76505 17.934 6.91051C17.7938 7.05597 17.7148 7.25337 17.7145 7.45932C17.7143 7.56154 17.7335 7.66281 17.771 7.75731C17.8085 7.85181 17.8635 7.93769 17.933 8.01003C18.0025 8.08237 18.085 8.13974 18.1758 8.17886C18.2667 8.21797 18.364 8.23807 18.4623 8.23799C18.5606 8.23799 18.6579 8.21783 18.7487 8.17868C18.8395 8.13953 18.9219 8.08214 18.9913 8.00981C19.0607 7.93749 19.1157 7.85163 19.1532 7.75717C19.1906 7.66271 19.2098 7.56149 19.2096 7.45932C19.2093 7.25348 19.1304 7.05617 18.9903 6.91073C18.8502 6.76528 18.6603 6.68359 18.4623 6.68359ZM4.20453 18.2402C4.07787 18.2402 3.95642 18.2925 3.86688 18.3855C3.77735 18.4784 3.72705 18.6045 3.72705 18.7359C3.72701 18.801 3.73935 18.8655 3.76337 18.9257C3.78738 18.9859 3.82259 19.0406 3.86699 19.0867C3.91139 19.1327 3.96411 19.1693 4.02213 19.1942C4.08015 19.2191 4.14233 19.2319 4.20512 19.2319C4.26791 19.2319 4.3301 19.2191 4.38812 19.1942C4.44613 19.1693 4.49885 19.1327 4.54325 19.0867C4.58765 19.0406 4.62287 18.9859 4.64688 18.9257C4.67089 18.8655 4.68323 18.801 4.68319 18.7359C4.68319 18.6707 4.67083 18.6063 4.6468 18.5461C4.62277 18.4859 4.58755 18.4313 4.54315 18.3852C4.49875 18.3392 4.44605 18.3027 4.38805 18.2778C4.33005 18.2529 4.26789 18.2401 4.20512 18.2402H4.20453ZM10.5573 18.3113C10.4945 18.3113 10.4324 18.3241 10.3744 18.349C10.3164 18.374 10.2637 18.4105 10.2193 18.4566C10.175 18.5026 10.1398 18.5573 10.1158 18.6175C10.0918 18.6777 10.0795 18.7421 10.0795 18.8073C10.0795 18.8724 10.0919 18.9369 10.1159 18.997C10.1399 19.0572 10.1751 19.1119 10.2195 19.1579C10.2639 19.2039 10.3166 19.2404 10.3746 19.2653C10.4326 19.2902 10.4948 19.303 10.5576 19.303C10.6204 19.3031 10.6826 19.2904 10.7407 19.2655C10.7987 19.2406 10.8515 19.2042 10.896 19.1581C10.9404 19.1121 10.9757 19.0574 10.9998 18.9972C11.0238 18.937 11.0362 18.8724 11.0362 18.8073C11.0363 18.742 11.0239 18.6775 10.9998 18.6172C10.9758 18.5569 10.9405 18.5022 10.896 18.4561C10.8515 18.4101 10.7987 18.3735 10.7405 18.3487C10.6824 18.3238 10.6201 18.3111 10.5573 18.3113ZM17.2185 19.5119C17.0832 19.5118 16.9534 19.5674 16.8575 19.6665C16.7617 19.7656 16.7076 19.9001 16.7073 20.0405C16.7071 20.1102 16.7202 20.1793 16.7459 20.2438C16.7715 20.3083 16.8091 20.3668 16.8566 20.4162C16.9041 20.4655 16.9605 20.5047 17.0226 20.5314C17.0847 20.5581 17.1513 20.5718 17.2185 20.5718C17.2858 20.5718 17.3523 20.5581 17.4144 20.5314C17.4765 20.5047 17.533 20.4655 17.5804 20.4162C17.6279 20.3668 17.6656 20.3083 17.6912 20.2438C17.7168 20.1793 17.73 20.1102 17.7298 20.0405C17.7294 19.9001 17.6754 19.7656 17.5795 19.6665C17.4837 19.5674 17.3539 19.5118 17.2185 19.5119ZM24.0493 19.5801C23.9821 19.58 23.9155 19.5938 23.8533 19.6205C23.7912 19.6472 23.7347 19.6864 23.6872 19.7358C23.6397 19.7852 23.6021 19.8439 23.5765 19.9084C23.5509 19.973 23.5378 20.0421 23.5381 20.1119C23.5384 20.2523 23.5924 20.3869 23.6882 20.4861C23.7841 20.5852 23.914 20.6409 24.0493 20.6408C24.1847 20.6409 24.3146 20.5852 24.4105 20.4861C24.5063 20.3869 24.5603 20.2523 24.5606 20.1119C24.5608 20.0421 24.5478 19.973 24.5222 19.9084C24.4966 19.8439 24.459 19.7852 24.4115 19.7358C24.364 19.6864 24.3075 19.6472 24.2454 19.6205C24.1832 19.5938 24.1166 19.58 24.0493 19.5801Z" fill="white"/>
</svg>
