<svg width="30" height="30" viewBox="0 0 30 30" fill="none" xmlns="http://www.w3.org/2000/svg">
<path d="M19.8263 0.0559374C19.3257 0.109133 18.1222 0.332808 17.7547 0.439348C17.563 0.497952 17.4458 0.497953 17.0357 0.434014C16.3008 0.311545 14.3944 0.316878 13.7979 0.439348C13.1695 0.567152 12.589 0.758894 12.0672 1.0145L11.6357 1.22751L11.1085 1.06777C9.70261 0.631091 8.36063 0.418011 7.02925 0.423345C5.18665 0.423345 3.88728 0.796161 2.74764 1.64293C1.56539 2.52688 0.846434 3.77306 0.478951 5.56239C0.37782 6.07368 0.361816 6.31329 0.361816 7.4796C0.361816 8.70444 0.372485 8.88018 0.510958 9.66301C1.04877 12.6878 1.94347 15.9044 2.84877 18.024C3.818 20.3086 4.88311 21.608 6.08669 21.9808C6.4861 22.1032 7.14112 22.0979 7.55113 21.9648C7.72687 21.9062 8.01982 21.7624 8.2009 21.6399L8.5257 21.4215L8.68018 21.5707C9.5322 22.4121 11.6624 22.7316 13.1429 22.231C13.3505 22.1618 13.5209 22.1139 13.5316 22.1245C13.5423 22.1298 13.5689 22.6624 13.6009 23.3014C13.6808 25.2345 13.7819 25.9428 14.1228 26.9547C14.421 27.8334 14.6713 28.2861 15.1133 28.7281C16.0452 29.6654 17.1636 29.857 18.9583 29.3938C21.5784 28.7174 22.7127 26.8641 22.9683 22.8595C23.0003 22.3695 23.0429 21.8156 23.0535 21.6293L23.0855 21.2991H23.6606C24.3689 21.2991 25.2636 21.1819 25.8866 21.0009C26.8186 20.7399 27.9636 20.0582 28.5014 19.4565C29.3109 18.5405 29.1991 17.4221 28.2458 16.9269C27.9103 16.7565 27.3938 16.7352 26.5843 16.8683C25.7216 17.0121 25.3648 17.0494 25.3648 17.0068C25.3648 16.9855 25.4819 16.7618 25.631 16.5062C26.0571 15.7606 26.9837 13.8275 27.3138 12.9914C28.6293 9.65234 29.1831 6.56363 28.7943 4.6997C28.6079 3.79966 28.3044 3.30979 27.3512 2.38849C26.2115 1.29145 24.9174 0.609754 23.2825 0.242272C22.228 0.00800163 20.9766 -0.0612717 19.8263 0.0559374ZM22.718 0.9293C23.7138 1.11037 24.6884 1.47245 25.4872 1.95173C26.3233 2.45768 27.3086 3.37898 27.6866 4.02334C28.3577 5.16298 28.118 7.96421 27.0742 11.1169C26.4725 12.9381 25.4606 15.1269 24.4914 16.7192C23.9322 17.6351 23.9322 17.6139 24.3795 17.7417C24.7203 17.8376 25.844 17.8109 26.5363 17.6831C26.8719 17.6246 27.3032 17.5713 27.4896 17.5713C27.7984 17.5713 27.8358 17.582 28.0062 17.7524C28.4375 18.1837 28.1233 18.7961 27.1222 19.4725C26.334 20.005 25.5298 20.2712 24.3263 20.3991C23.7405 20.4576 22.9789 20.4364 22.6594 20.3405C22.4517 20.2819 22.4837 20.1648 22.3027 21.7251C22.1002 23.4825 21.818 25.4156 21.6849 25.9322C21.5038 26.6671 21.2109 27.2156 20.7636 27.6576C20.3429 28.0784 19.9488 28.3127 19.2565 28.547C18.3352 28.8559 17.4032 28.9464 16.7642 28.7813C16.2316 28.6429 15.8855 28.4405 15.4807 28.0411C15.1719 27.7322 15.0547 27.5618 14.8311 27.1038C14.5328 26.4914 14.437 26.0866 14.3411 25.0801C14.2718 24.3932 14.192 21.3736 14.2239 20.9423C14.2346 20.7879 14.2292 20.6601 14.2133 20.6601C14.1973 20.6601 14.0695 20.7453 13.931 20.8571C13.6061 21.1021 13.0311 21.3736 12.5837 21.4962C12.1204 21.6186 11.0074 21.6186 10.4588 21.4908C9.89435 21.363 9.47367 21.1606 9.23399 20.8997C8.78131 20.4097 8.93579 19.9092 9.62274 19.6216C9.73461 19.5736 10.1606 19.4511 10.5707 19.3499C10.9807 19.2488 11.4068 19.121 11.5186 19.0624C11.7796 18.9293 12.3654 18.221 12.2695 18.1624C12.2322 18.1358 12.0618 18.1038 11.8914 18.0878C11.7209 18.0666 11.4227 17.992 11.2204 17.9121C11.018 17.8376 10.805 17.7736 10.7517 17.7683C10.6399 17.7577 10.0435 18.3914 8.81332 19.824C7.81208 20.9902 7.41266 21.2352 6.62983 21.1819C6.13462 21.1447 5.78314 20.9529 5.28252 20.4523C4.78724 19.9518 4.43042 19.4192 3.95648 18.45C2.87544 16.2452 1.78907 12.4908 1.26711 9.16772C0.846434 6.49969 1.36832 4.11921 2.66777 2.75056C4.33463 1.00383 7.4074 0.689621 11.1885 1.88786L11.7689 2.07427L12.179 1.83993C12.6636 1.56299 13.3985 1.31271 14.0429 1.19558C14.8417 1.0571 16.1358 1.09971 17.089 1.29145C17.3713 1.34998 17.4512 1.34998 17.7281 1.26478C18.1807 1.13164 18.9689 0.961233 19.5866 0.87603C20.2842 0.774825 22.0576 0.806831 22.718 0.9293Z" fill="#DEE5E5"/>
<path d="M19.5919 1.72807C19.3043 1.77067 19.0327 1.81327 18.9901 1.8292C18.9422 1.85054 19.0807 1.94641 19.3309 2.07955C20.2842 2.58009 21.1949 3.29905 21.9458 4.15108C22.7605 5.07238 23.5433 6.3825 23.9108 7.42626C24.0386 7.80434 24.0546 7.92155 24.0493 8.4647C24.044 8.80551 23.9907 9.43927 23.9268 9.87595C23.783 10.8505 23.7724 11.644 23.9002 12.6452C24.0972 14.1949 24.0014 15.26 23.5806 16.176C23.4049 16.5487 23.3729 16.7724 23.5007 16.6925C23.57 16.6499 23.996 15.9256 24.438 15.1109C26.3392 11.5801 27.5268 7.20792 27.154 5.10438C27.0581 4.56116 26.925 4.32682 26.4138 3.78901C25.4233 2.75583 24.225 2.10081 22.7552 1.79727C22.0789 1.65879 20.3534 1.62153 19.5919 1.72807Z" fill="#DEE5E5"/>
<path d="M14.0534 2.05304C11.6463 2.52699 10.1552 4.46013 9.62796 7.77258C9.58536 8.04953 9.5481 8.3424 9.5481 8.41693V8.55007L9.91024 8.37967C11.0711 7.83118 12.2907 7.67671 13.0736 7.98025C13.5156 8.15066 13.9202 8.54474 14.1546 9.01342C14.5167 9.76432 14.783 11.8306 14.6658 13.0341C14.5859 13.8969 14.4102 14.5466 14.0002 15.5105C13.7339 16.1441 13.2759 17.353 13.2759 17.4383C13.2759 17.4436 13.4144 17.4648 13.5848 17.4755C14.1812 17.5341 14.6445 17.8803 14.9215 18.4767L15.0546 18.7696L15.0652 21.166C15.0812 24.537 15.1824 25.7992 15.5072 26.5767C15.8161 27.3116 16.2635 27.7536 16.8866 27.9347C17.4883 28.1104 18.6705 27.9347 19.48 27.5566C20.3534 27.1412 20.7688 26.4596 20.9978 25.0856C21.2268 23.7276 21.6155 20.5376 21.6848 19.4513C21.7647 18.3116 22.0043 17.8377 22.654 17.5501L22.915 17.4383L22.5422 16.9376C22.3345 16.6661 22.0415 16.1867 21.8871 15.8726C21.7327 15.5637 21.4398 15.0152 21.2428 14.653C20.4333 13.1886 19.8795 11.8519 19.6877 10.9093C19.6291 10.611 19.6078 10.2969 19.6238 9.88679C19.6398 9.38083 19.6665 9.24244 19.7836 8.98675C20.0658 8.385 20.6304 7.94832 21.3706 7.76724C21.5357 7.72464 21.967 7.69271 22.3664 7.69271C22.7552 7.69271 23.0747 7.67671 23.0747 7.65544C23.0747 7.55424 22.6646 6.68088 22.4143 6.26012C20.9978 3.85838 18.8676 2.36726 16.3487 2.02645C15.7788 1.94658 14.5007 1.96251 14.0534 2.05304Z" fill="#DEE5E5"/>
<path d="M5.80974 2.10087C3.63692 2.45768 2.40675 3.77306 2.0606 6.12688C1.9328 7.01091 1.9754 8.44349 2.16714 9.50327C2.88077 13.4813 4.16948 17.4275 5.33045 19.1955C5.61799 19.6269 6.09202 20.1275 6.34762 20.2606C6.59256 20.3831 6.92278 20.3778 7.17838 20.2446C7.42866 20.1168 7.63633 19.9038 8.55763 18.8334C8.93578 18.3967 9.40439 17.8642 9.61206 17.6458L9.97955 17.2464L9.7026 16.9429C9.13812 16.3304 8.77597 15.6168 8.6109 14.8074C8.51503 14.3228 8.5257 13.7157 8.64283 12.5387C8.68551 12.1553 8.69077 11.4097 8.6695 10.382C8.64283 9.11978 8.6535 8.67243 8.71744 8.09735C8.96771 5.98314 9.69201 4.13521 10.7144 3.02217C10.8636 2.8571 10.9701 2.70795 10.9434 2.69203C10.837 2.62809 9.41506 2.28194 8.82924 2.1754C7.99314 2.03167 6.47009 1.98907 5.80974 2.10087Z" fill="#DEE5E5"/>
<path d="M21.7863 8.57136C21.1579 8.67783 20.7904 8.89617 20.5828 9.28499C20.4549 9.53526 20.4336 10.2862 20.5455 10.792C20.7585 11.7347 21.2271 12.837 22.0951 14.4293C22.3241 14.8554 22.5744 15.3293 22.6437 15.4837C22.7182 15.6329 22.7928 15.7607 22.8088 15.7607C22.8301 15.7607 22.8993 15.6009 22.9685 15.3985C23.1442 14.882 23.1709 13.8648 23.0431 12.7784C22.9153 11.7133 22.9259 10.7282 23.0697 9.7802C23.1336 9.37545 23.1816 8.9441 23.1816 8.8163V8.58729L22.8567 8.55002C22.4519 8.51276 22.1165 8.51809 21.7863 8.57136ZM22.2762 8.96011C22.7076 9.17845 22.1005 9.88141 21.5679 9.77487C21.4827 9.75894 21.323 9.67907 21.2271 9.60446C21.0088 9.43939 21.0034 9.24765 21.2164 9.08791C21.4668 8.9015 22.0259 8.8323 22.2762 8.96011Z" fill="#DEE5E5"/>
<path d="M11.4119 8.75765C10.8368 8.88545 10.1764 9.16766 9.6758 9.49254L9.51607 9.59901L9.53733 10.8026C9.55333 11.5215 9.53733 12.2618 9.49473 12.6452C9.33499 14.296 9.37226 14.7434 9.75567 15.521C10.2296 16.4849 11.1297 17.1452 12.1362 17.2784L12.4078 17.3103L12.5835 16.7884C12.6794 16.5008 12.8551 16.0375 12.9669 15.7606C13.0841 15.4836 13.2598 15.0576 13.361 14.818C13.7551 13.8594 13.8989 12.8582 13.8083 11.7132C13.7551 11.0263 13.6113 10.0836 13.4941 9.66295C13.3983 9.29013 13.1533 8.97066 12.871 8.83752C12.5515 8.67771 11.9125 8.64578 11.4119 8.75765ZM12.8817 9.25286C13.2119 9.42327 13.2598 9.63635 13.0255 9.85995C12.8125 10.0517 12.674 10.1156 12.4397 10.1156C12.0456 10.1156 11.6249 9.75882 11.6249 9.42327C11.6249 9.09846 12.3864 8.99726 12.8817 9.25286Z" fill="#DEE5E5"/>
<path d="M23.1069 18.3061C22.9631 18.354 22.798 18.4552 22.7447 18.5298C22.6116 18.7108 22.5104 19.302 22.5903 19.4031C22.7021 19.5363 23.3145 19.6109 23.9483 19.5735C25.2104 19.499 26.2222 19.1635 26.9199 18.5777L27.085 18.4445L26.5311 18.5351C25.8974 18.6469 24.7204 18.6682 24.2891 18.5777C24.1347 18.5458 23.8631 18.4499 23.6927 18.3647C23.5169 18.2795 23.3731 18.2102 23.3731 18.2102C23.3678 18.2155 23.2507 18.2581 23.1069 18.3061Z" fill="#DEE5E5"/>
<path d="M13.3025 18.4127C13.244 18.4607 13.0629 18.6577 12.9031 18.8494C12.1416 19.76 11.8966 19.9092 10.741 20.1808C10.3469 20.2766 10.0167 20.3725 10.0008 20.3938C9.92083 20.5163 10.6345 20.708 11.3321 20.7453C12.3546 20.8038 13.0895 20.5375 13.7605 19.8666C14.1919 19.4299 14.2664 19.2595 14.1812 18.9559C14.112 18.7109 13.9895 18.5405 13.7924 18.4234C13.5848 18.2955 13.441 18.2903 13.3025 18.4127Z" fill="#DEE5E5"/>
</svg>
