<svg width="31" height="30" viewBox="0 0 31 30" fill="none" xmlns="http://www.w3.org/2000/svg">
<path d="M1.25098 1H29.251V29H1.25098V1Z" stroke="#DEE5E5" stroke-width="2"/>
<path d="M8.13928 25.0702L10.435 23.6808C10.8779 24.4661 11.2808 25.1305 12.2473 25.1305C13.1737 25.1305 13.7578 24.7682 13.7578 23.3586V13.7729H16.577V23.3985C16.577 26.3185 14.8654 27.6476 12.3681 27.6476C10.1128 27.6476 8.80373 26.4796 8.13916 25.0699M18.1083 24.7681L20.4038 23.439C21.0081 24.4259 21.7935 25.1508 23.1829 25.1508C24.3511 25.1508 25.096 24.5667 25.096 23.7612C25.096 22.7946 24.3307 22.4522 23.0419 21.8885L22.3372 21.5862C20.3032 20.7205 18.954 19.633 18.954 17.3373C18.954 15.2228 20.565 13.6117 23.0823 13.6117C24.8746 13.6117 26.1634 14.2361 27.0897 15.8672L24.8945 17.277C24.4111 16.4111 23.8878 16.0688 23.0822 16.0688C22.2565 16.0688 21.7329 16.5924 21.7329 17.277C21.7329 18.1227 22.2565 18.4652 23.4647 18.9888L24.1695 19.2908C26.566 20.318 27.9151 21.3651 27.9151 23.721C27.9151 26.2586 25.9215 27.6479 23.2432 27.6479C20.6254 27.6479 18.9338 26.3994 18.1082 24.7682" fill="#DEE5E5"/>
</svg>
