<svg width="31" height="28" viewBox="0 0 31 28" fill="none" xmlns="http://www.w3.org/2000/svg">
<path d="M15.3795 10.9165C15.8947 10.9166 16.3982 11.0708 16.8269 11.3599C17.2556 11.649 17.5902 12.0599 17.7886 12.541C17.9869 13.0221 18.0402 13.5518 17.9417 14.0635C17.8433 14.5752 17.5974 15.046 17.2351 15.4166C16.8728 15.7871 16.4103 16.041 15.9057 16.1461C15.4012 16.2512 14.8772 16.2029 14.3997 16.0072C13.9223 15.8116 13.5127 15.4774 13.2225 15.0467C12.9323 14.6159 12.7745 14.108 12.769 13.5867C12.7672 13.2379 12.8332 12.8921 12.9634 12.5692C13.0936 12.2462 13.2854 11.9524 13.5278 11.7045C13.7702 11.4565 14.0585 11.2593 14.3763 11.1241C14.694 10.9889 15.0349 10.9184 15.3795 10.9165ZM8.91607 24.8889C9.79555 25.4257 11.7081 24.6063 13.9417 22.4872C13.1951 21.6286 12.4916 20.7327 11.8337 19.8029C10.7077 19.6753 9.58932 19.4866 8.48331 19.2378C7.77135 22.2611 8.03659 24.3379 8.91607 24.8889ZM9.90723 16.7796L9.50239 16.059C9.34457 16.4559 9.2094 16.8615 9.09755 17.274C9.47447 17.3588 9.89327 17.4294 10.326 17.5001L9.90723 16.7796ZM19.0371 15.7058L20.1678 13.5867L19.0371 11.4675C18.6183 10.7188 18.1715 10.0548 17.7667 9.39075C17.0129 9.34837 16.2171 9.34837 15.3795 9.34837C14.5419 9.34837 13.7462 9.34837 12.9924 9.34837C12.5875 10.0124 12.1408 10.6764 11.722 11.4251L10.5913 13.5867L11.722 15.7058C12.1408 16.4546 12.5875 17.1186 12.9924 17.7826C13.7462 17.7826 14.5419 17.7826 15.3795 17.7826C16.2171 17.7826 17.0129 17.7826 17.7667 17.7826C18.1715 17.1186 18.6183 16.4546 19.0371 15.7058ZM15.3795 6.21201C15.1143 6.52282 14.8351 6.84776 14.5559 7.22921H16.2032C15.924 6.84776 15.6448 6.52282 15.3795 6.21201ZM15.3795 20.9614C15.6448 20.6506 15.924 20.3256 16.2032 19.9442H14.5559C14.8351 20.3256 15.1143 20.6506 15.3795 20.9614ZM21.8291 2.2845C20.9635 1.74765 19.0371 2.56706 16.8174 4.68621C17.564 5.54476 18.2675 6.44064 18.9254 7.37048C20.0503 7.47944 21.1687 7.64921 22.2758 7.87908C22.9877 4.85575 22.7225 2.77897 21.8291 2.22799M20.8519 10.3373L21.2567 11.0578C21.4145 10.661 21.5497 10.2553 21.6615 9.84284C21.2846 9.75807 20.8658 9.68743 20.4331 9.61679L20.8519 10.3373ZM22.876 0.447896C24.9282 1.63463 25.1515 4.75685 24.272 8.40181C27.8179 9.46139 30.3726 11.2274 30.3726 13.6008C30.3726 15.9743 27.8179 17.7402 24.272 18.7998C25.1376 22.4448 24.9142 25.567 22.876 26.7537C20.8379 27.9405 18.0599 26.5842 15.3795 23.9988C12.6992 26.5842 9.92119 27.9405 7.86907 26.7537C5.81695 25.567 5.60755 22.5154 6.47307 18.7998C2.92724 17.7402 0.372559 15.9743 0.372559 13.6008C0.372559 11.2274 2.92724 9.44726 6.47307 8.38768C5.60755 4.74273 5.83091 1.6205 7.86907 0.433768C9.90723 -0.752962 12.6992 0.603301 15.3795 3.18868C18.0599 0.603301 20.8379 -0.752962 22.876 0.433768M22.4712 13.5867C22.956 14.6267 23.3848 15.6925 23.7555 16.7796C26.6871 15.8895 28.3344 14.618 28.3344 13.5867C28.3344 12.5554 26.6452 11.2839 23.7555 10.3938C23.3848 11.4808 22.956 12.5467 22.4712 13.5867ZM8.28787 13.5867C7.80304 12.5467 7.3743 11.4808 7.00355 10.3938C4.07195 11.2839 2.42468 12.5554 2.42468 13.5867C2.42468 14.618 4.11383 15.8895 7.00355 16.7796C7.3743 15.6925 7.80304 14.6267 8.28787 13.5867ZM20.8519 16.7796L20.4331 17.5001C20.8658 17.5001 21.2846 17.3588 21.6615 17.274C21.5497 16.8615 21.4145 16.4559 21.2567 16.059L20.8519 16.7796ZM16.7755 22.4872C18.9952 24.6063 20.9635 25.4257 21.7872 24.8889C22.6108 24.352 22.9458 22.3176 22.2339 19.2378C21.1269 19.4676 20.0085 19.6374 18.8835 19.7464C18.2271 20.6955 17.5236 21.6103 16.7755 22.4872ZM9.90723 10.3938L10.326 9.6733C9.89327 9.6733 9.47447 9.81458 9.09755 9.89935C9.2094 10.3119 9.34457 10.7175 9.50239 11.1143L9.90723 10.3938ZM13.9835 4.68621C11.722 2.56706 9.79555 1.74765 8.91607 2.2845C8.03659 2.82135 7.77135 4.85575 8.48331 7.93559C9.59035 7.70572 10.7087 7.53595 11.8337 7.42699C12.5037 6.47689 13.2212 5.5621 13.9835 4.68621Z" fill="#DEE5E5"/>
</svg>
