<svg width="30" height="25" viewBox="0 0 30 25" fill="none" xmlns="http://www.w3.org/2000/svg">
<path d="M29.1991 15.1417C29.2 15.1421 29.2011 15.1426 29.2021 15.143C29.2021 15.143 29.2014 17.7412 29.2014 18.0111C29.2017 18.2985 28.8561 18.614 28.0745 19.0216C26.5383 19.8222 18.5812 23.0941 16.8874 23.9769C15.1932 24.8603 14.2522 24.8518 12.914 24.2119C11.5759 23.5722 3.10811 20.1518 1.58292 19.4229C0.820437 19.0581 0.419678 18.7508 0.419678 18.4604C0.419678 18.1706 0.419678 15.553 0.419678 15.5512C0.431506 15.8409 0.820718 16.1485 1.58292 16.5127C3.10811 17.2414 11.5756 20.6623 12.914 21.3017C14.2522 21.9416 15.1932 21.9501 16.8874 21.067C18.5812 20.1839 26.5383 16.912 28.0745 16.1115C28.8198 15.723 29.1867 15.4169 29.1991 15.1417ZM0.419678 8.78379C0.419678 8.50543 0.419678 6.07987 0.419678 5.88757C0.419678 5.88684 0.419678 5.88627 0.419678 5.88571C0.419678 5.8789 0.419678 5.87445 0.419678 5.87422C0.419678 5.87563 0.420523 5.87715 0.420635 5.87856C0.416411 5.59175 0.781966 5.32189 1.52406 5.0313C3.02227 4.44444 11.4433 1.1407 13.2233 0.502194C15.003 -0.136317 15.6205 -0.15941 17.1351 0.395569C18.6497 0.950379 26.5592 4.09843 28.0558 4.64694C28.8151 4.92502 29.2023 5.17854 29.2008 5.46524C29.2012 5.46535 29.2017 5.46546 29.2021 5.46569C29.2021 5.46569 29.2014 8.064 29.2014 8.33409C29.2017 8.62157 28.8561 8.93717 28.0745 9.34457C26.5383 10.1453 18.5812 13.4169 16.8874 14.3002C15.1932 15.1834 14.2522 15.1746 12.914 14.5349C11.5756 13.8955 3.10811 10.4748 1.58292 9.74584C0.820437 9.38124 0.419678 9.07426 0.419678 8.78379ZM17.395 7.20903L10.7252 8.23287L15.381 10.1634L17.395 7.20903ZM21.5298 4.01226L17.1622 5.73977L21.1049 7.29921L21.5321 7.13068L25.4768 5.5735L21.5298 4.01226ZM11.7473 3.49011L14.6268 3.74871L15.5295 5.24793L16.0882 3.90388L18.5812 3.64518L16.6471 2.92139L17.1608 1.69163L15.263 2.31234L13.2515 1.5253L13.8963 2.71468L11.7473 3.49011ZM5.36273 5.77441C5.36273 6.53757 6.95883 7.1562 8.92748 7.1562C10.8964 7.1562 12.4924 6.53757 12.4924 5.77441C12.4924 5.01125 10.8964 4.39262 8.92748 4.39262C6.95883 4.39262 5.36273 5.01125 5.36273 5.77441ZM28.0745 11.3673C26.5383 12.168 18.5812 15.4396 16.8874 16.3231C15.1932 17.206 14.2522 17.1974 12.914 16.5576C11.5756 15.9181 3.10811 12.4975 1.58292 11.7686C0.820718 11.4044 0.431506 11.0969 0.419678 10.8071C0.419678 10.8129 0.419678 13.4271 0.419678 13.7165C0.419678 14.007 0.820437 14.3141 1.58292 14.6788C3.10811 15.4077 11.5756 18.8281 12.914 19.4676C14.2522 20.1076 15.1932 20.116 16.8874 19.2331C18.5812 18.3498 26.5383 15.0782 28.0745 14.2774C28.8561 13.8701 29.2017 13.5545 29.2014 13.2669C29.2014 12.997 29.2021 10.3986 29.2021 10.3986C29.2011 10.3983 29.2 10.3979 29.1991 10.3975C29.1867 10.6726 28.8198 10.9789 28.0745 11.3673Z" fill="#DEE5E5"/>
</svg>
