<svg width="30" height="23" viewBox="0 0 30 23" fill="none" xmlns="http://www.w3.org/2000/svg">
<path d="M4.99622 17.4729C5.17523 17.2933 5.41825 17.1922 5.67182 17.1918H28.9842C29.0787 17.1916 29.1712 17.2196 29.2498 17.272C29.3284 17.3245 29.3897 17.3991 29.4258 17.4865C29.462 17.5738 29.4714 17.6699 29.4529 17.7626C29.4343 17.8553 29.3887 17.9404 29.3217 18.0071L24.7167 22.6121C24.628 22.7007 24.5227 22.771 24.4067 22.819C24.2908 22.8669 24.1666 22.8916 24.0411 22.8915H0.728754C0.634892 22.8909 0.54328 22.8627 0.465354 22.8104C0.387428 22.7581 0.32664 22.6839 0.290578 22.5973C0.254515 22.5106 0.244777 22.4153 0.262577 22.3231C0.280377 22.2309 0.324928 22.1461 0.390668 22.0791L4.99622 17.4729Z" fill="#DEE5E5"/>
<path d="M4.99622 0.278864C5.17716 0.102449 5.41913 0.00257074 5.67182 5.03749e-07H28.9842C29.0787 -0.000136804 29.1712 0.0277983 29.2498 0.0802636C29.3284 0.132729 29.3897 0.207361 29.4258 0.294696C29.462 0.382031 29.4714 0.478135 29.4529 0.570822C29.4343 0.663509 29.3887 0.748604 29.3217 0.815316L24.7167 5.4203C24.628 5.50896 24.5227 5.57927 24.4067 5.62722C24.2908 5.67517 24.1666 5.69981 24.0411 5.69973H0.728754C0.634892 5.69915 0.54328 5.67094 0.465354 5.61861C0.387428 5.56629 0.32664 5.49217 0.290578 5.40551C0.254515 5.31885 0.244777 5.22349 0.262577 5.13133C0.280377 5.03917 0.324928 4.95429 0.390668 4.88729L4.99622 0.278864Z" fill="#DEE5E5"/>
<path d="M24.7166 8.82131C24.6279 8.73264 24.5226 8.66233 24.4066 8.61438C24.2907 8.56644 24.1665 8.5418 24.041 8.54187H0.72866C0.634212 8.54189 0.541889 8.56991 0.463354 8.62238C0.384819 8.67484 0.323596 8.74941 0.287419 8.83666C0.251241 8.9239 0.241731 9.01991 0.260092 9.11256C0.278452 9.2052 0.323858 9.29033 0.390575 9.35719L4.99613 13.9622C5.08485 14.0509 5.19019 14.1212 5.30611 14.1691C5.42203 14.2171 5.54627 14.2417 5.67172 14.2416H28.9841C29.0786 14.2417 29.1711 14.2138 29.2497 14.1613C29.3283 14.1089 29.3896 14.0342 29.4257 13.9469C29.4619 13.8596 29.4713 13.7635 29.4528 13.6708C29.4342 13.5781 29.3886 13.493 29.3216 13.4263L24.7166 8.82131Z" fill="#DEE5E5"/>
</svg>
