<svg width="29" height="29" viewBox="0 0 29 29" fill="none" xmlns="http://www.w3.org/2000/svg">
    <path
        d="M26.3245 20.8802C22.7544 25.6423 15.131 24.0351 10.2421 24.2654C10.2421 24.2654 9.3759 24.3146 8.50541 24.4579C8.50541 24.4579 8.8351 24.3175 9.25588 24.1712C12.6887 22.9825 14.3111 22.7436 16.3977 21.6707C20.3164 19.661 24.2177 15.2811 25.0116 10.7318C23.5193 15.1074 18.9817 18.8734 14.8505 20.4024C12.0235 21.4477 6.90902 22.4642 6.90757 22.4642C6.83809 22.4286 6.76915 22.3919 6.70079 22.3541C3.22315 20.6601 3.12193 13.1165 9.43953 10.6855C12.2101 9.61985 14.8577 10.2048 17.8524 9.49099C21.0452 8.73084 24.7441 6.33456 26.2465 3.20131C27.931 8.20815 29.9555 16.0384 26.3245 20.8802ZM26.3853 1.65205C25.9814 2.62178 25.4645 3.54033 24.8453 4.38859C23.4993 2.99954 21.8884 1.89533 20.1082 1.14146C18.328 0.387596 16.4146 -0.000567073 14.4818 6.21796e-07C6.49546 6.21796e-07 1.58235e-06 6.50397 1.58235e-06 14.4993C-0.000930952 16.4936 0.410328 18.4666 1.20791 20.2941C2.00549 22.1216 3.17213 23.7641 4.63445 25.1182L4.95257 25.3991C4.7207 25.1665 4.59055 24.8513 4.59076 24.5226C4.59096 24.194 4.72149 23.8789 4.95366 23.6466C5.18582 23.4144 5.5006 23.2839 5.82879 23.284C6.15698 23.2841 6.47171 23.4146 6.70378 23.647C6.93585 23.8794 7.06625 24.1945 7.06632 24.5231C7.06639 24.8518 6.93611 25.167 6.70414 25.3994C6.47217 25.6319 6.1575 25.7626 5.8293 25.7628C5.50111 25.763 5.18628 25.6327 4.95402 25.4005L5.16947 25.5916C7.77287 27.7955 11.0726 29.0033 14.4818 29C22.1138 29 28.3822 23.052 28.9187 15.5461C29.3149 11.8699 28.2304 7.20186 26.3853 1.65205Z"
        fill="#DEE5E5" />
</svg>