<svg width="38" height="37" viewBox="0 0 38 37" fill="none" xmlns="http://www.w3.org/2000/svg">
<path d="M9.85397 10.6601C9.74389 10.6839 9.65478 10.7417 9.57826 10.8458C9.49939 10.9587 9.47142 11.1447 9.51194 11.2674C9.54616 11.3748 9.73293 11.5924 9.93771 11.7403C9.73398 12.0061 9.34223 12.5413 9.15291 12.8157C7.77683 14.8091 6.97006 16.6328 6.86761 17.9477C6.81223 18.6585 6.95029 19.1555 7.27749 19.5419C7.51952 19.8266 7.8028 19.9885 8.25917 20.0856C8.63358 20.1652 9.20663 20.1614 9.78491 20.0732C9.42135 20.5946 8.90219 21.3943 8.63462 21.8494C8.1928 22.6055 7.7403 23.5715 7.57024 24.1244C7.27076 25.088 7.23236 25.8796 7.43184 26.6347C7.5537 27.0986 7.75013 27.471 8.01707 27.7569C8.28888 28.0481 8.63449 28.2515 9.05709 28.366C9.74944 28.5533 10.7657 28.5001 12.0492 28.1979C12.3196 28.1349 12.7347 28.019 13.0443 27.9272C12.7683 28.8928 12.7991 29.7745 13.1089 30.4071C13.209 30.6105 13.489 30.9536 13.6565 31.0798C14.6574 31.827 16.7619 31.7991 19.5859 30.9135C19.812 30.8429 20.4505 30.6222 20.7685 30.5066C20.9858 30.7969 21.1884 30.9112 21.6581 30.9677C21.9637 31.0009 22.2144 30.9518 22.4519 30.8151C22.5604 30.7522 22.6244 30.6904 22.6608 30.6326C22.7199 30.5387 22.731 30.4419 22.69 30.3262C22.6507 30.2179 22.5939 30.1534 22.4923 30.1077C22.4339 30.0815 22.3482 30.0626 22.2094 30.0522C22.101 30.0449 22.0628 30.0406 22.005 29.9997L22.023 29.9846C22.5174 29.7756 23.5848 29.2423 24.2435 28.8752C26.6526 27.5313 29.2268 25.6372 30.941 23.9461C32.4945 22.4153 33.9999 20.505 34.3109 19.6867C34.4051 19.4414 34.431 19.1864 34.3912 18.9879C34.3576 18.8329 34.339 18.7907 34.1894 18.6124C34.0312 18.4239 33.9981 18.4062 33.8522 18.3484C33.3665 18.1573 32.616 18.3678 31.1374 19.271C29.2458 20.4259 26.4386 22.5703 24.4607 24.3741C22.5124 26.149 21.2326 27.7002 20.7579 28.8382C20.7008 28.9755 20.7025 29.0395 20.6727 29.0556C20.6423 29.0726 20.379 29.1752 20.0897 29.289C18.4951 29.9079 17.1056 30.2629 16.0676 30.3085C15.7814 30.3215 15.3243 30.2906 15.0985 30.2419C14.9092 30.2016 14.6765 30.1098 14.5884 30.0261C14.4787 29.924 14.4357 29.7527 14.4282 29.5371C14.4187 29.2652 14.4735 28.9256 14.5883 28.5309C14.6668 28.2642 14.9425 27.5749 15.0801 27.3069L15.4029 27.133C17.1425 26.475 19.1112 25.5224 20.955 24.4468C23.4454 22.9937 26.3119 20.979 28.8786 18.8723C30.4079 17.617 31.2302 16.8254 32.0097 15.8621C32.6184 15.1102 33.1114 14.2632 33.2236 13.7912C33.3048 13.4559 33.2941 13.1554 33.2052 12.9021C33.1116 12.6352 32.932 12.4165 32.6685 12.262C31.9824 11.8599 30.7391 12.0184 29.0587 12.7761C27.4696 13.4927 25.483 14.7277 23.2389 16.4206C21.8978 17.4295 20.0204 18.9912 19.0283 19.9206C16.4963 22.2955 14.7619 24.3609 13.8 26.1389L13.7348 26.2604C12.8838 26.5805 11.5696 26.9519 10.9115 27.0638C10.3627 27.1557 9.83322 27.1802 9.52206 27.1189C9.32955 27.0815 9.18298 27.0202 9.07542 26.9097C8.96373 26.7949 8.89588 26.6321 8.84623 26.4152C8.7704 26.0755 8.79299 25.5169 8.89424 25.1035C9.20733 23.8286 10.2397 21.9981 11.8156 19.8981L12.1575 19.4438L12.5104 19.3072C14.8454 18.4107 17.7443 16.7977 20.3154 14.9623C21.7404 13.9442 23.2725 12.6805 24.3137 11.6625C25.1409 10.854 25.8022 10.1089 26.3131 9.41219C26.7631 8.79572 27.0461 8.27504 27.1736 7.8329C27.3157 7.33996 27.2712 6.93554 27.0672 6.59369C26.9113 6.33246 26.6746 6.15686 26.3746 6.07497C26.1003 6.00011 25.7689 6.00537 25.3976 6.10474C24.3199 6.39655 22.7138 7.36059 20.4181 9.11056C19.8472 9.54804 17.9645 11.1278 17.4023 11.6411C15.057 13.7918 12.9792 15.9895 11.2191 18.1777L10.8865 18.5921L10.6999 18.6475C10.158 18.8073 9.53595 18.9252 9.09544 18.9518C8.83771 18.9672 8.49652 18.9314 8.34802 18.8638C8.26955 18.8291 8.25707 18.8197 8.2113 18.7574C8.13081 18.6464 8.11191 18.5401 8.10547 18.3276C8.0723 17.3994 8.71514 15.8294 9.78225 14.1648C10.1891 13.531 10.6575 12.8811 11.1562 12.2576L11.3974 11.9558C12.1624 11.7185 12.9215 11.2367 14.0646 10.2776C15.3775 9.17316 16.6611 7.78295 17.0176 7.30417C17.434 6.74497 17.5934 6.18903 17.524 5.96989C17.477 5.82985 17.3853 5.71342 17.2711 5.63467C17.1515 5.55218 17.0088 5.512 16.8721 5.52635C16.6705 5.54685 16.2086 5.79373 15.5946 6.24015C15.16 6.55474 13.9539 7.54983 13.4259 8.02906C12.4629 8.90094 11.8275 9.53972 11.0336 10.4307L10.7829 10.7112C10.567 10.7562 10.3656 10.7384 10.1906 10.6865C10.0507 10.646 9.94241 10.641 9.85397 10.6601ZM19.4446 11.8457C20.1126 11.2658 20.3943 11.0323 21.3117 10.2928C22.4197 9.40128 23.6388 8.55541 24.5325 8.05708C24.9705 7.81229 25.3805 7.61878 25.6999 7.55479C25.6262 7.70928 25.5129 7.9034 25.3906 8.08822C24.7956 8.98026 23.8899 9.99505 22.5315 11.2932C22.1215 11.6866 20.0751 13.4008 19.5646 13.7826C17.8436 15.0648 16.2564 16.0868 14.6247 16.9593C14.4168 17.0701 14.1682 17.1983 13.9286 17.3192C15.6206 15.4053 17.5322 13.5083 19.4446 11.8457ZM27.9924 15.0722C29.7167 14.0304 31.1889 13.4209 31.8871 13.388C31.8712 13.4468 31.8464 13.5192 31.8188 13.5833C31.5464 14.2273 30.781 15.1655 29.689 16.211C29.2395 16.6403 27.4837 18.1049 26.6656 18.7337C22.7479 21.7364 19.5323 23.759 16.4055 25.1765C16.9534 24.4354 17.7232 23.5237 18.4513 22.7597C19.8192 21.3236 21.4965 19.8037 23.1732 18.4819C25.0378 17.0107 26.5282 15.9575 27.9924 15.0722ZM29.033 22.6128C30.3131 21.6112 31.4573 20.8088 32.3022 20.3153C32.2219 20.4234 32.1393 20.5319 32.0613 20.6306C30.7133 22.3392 29.1019 23.8712 27.09 25.3515C25.9092 26.2196 24.6861 27.0121 23.4971 27.6768C24.1818 26.8891 25.049 26.0269 26.2295 24.9568C26.5369 24.6769 28.6255 22.93 29.033 22.6128Z" fill="#DEE5E5"/>
<path d="M19.5637 26.4071C23.6879 26.4071 27.0312 23.0573 27.0312 18.9252C27.0312 14.7931 23.6879 11.4434 19.5637 11.4434C15.4395 11.4434 12.0962 14.7931 12.0962 18.9252C12.0962 23.0573 15.4395 26.4071 19.5637 26.4071Z" fill="#CDCDCD"/>
<path d="M33.8519 18.3557C33.9979 18.4135 34.031 18.4312 34.1892 18.6197C34.3388 18.798 34.3573 18.8402 34.391 18.9952C34.4308 19.1937 34.4049 19.4486 34.3107 19.694C33.9997 20.5123 32.4942 22.4226 30.9408 23.9534C29.2265 25.6445 26.6524 27.5386 24.2432 28.8825C23.5845 29.2496 22.5171 29.7828 22.0228 29.9919L22.0048 30.007L20.7683 30.5139C20.6438 30.5591 20.4703 30.6204 20.2917 30.6826L20.1723 30.724C19.9339 30.8063 19.7036 30.884 19.5857 30.9208C16.7617 31.8064 14.6572 31.8343 13.6562 31.0871L14.5882 30.0334C14.6763 30.1171 14.9089 30.2089 15.0982 30.2492C15.3241 30.2979 15.7811 30.3289 16.0674 30.3158C17.1054 30.2702 18.4948 29.9152 20.0895 29.2963C20.3788 29.1825 20.642 29.0799 20.6725 29.0629L23.4969 27.684C24.6859 27.0194 25.909 26.2269 27.0897 25.3588C29.1016 23.8785 30.713 22.3465 32.061 20.6379C32.139 20.5392 32.2217 20.4307 32.3019 20.3226L33.8519 18.3557ZM32.6683 12.2693C32.9318 12.4238 33.1113 12.6425 33.205 12.9094C33.2938 13.1627 33.3046 13.4631 33.2234 13.7985C33.1111 14.2705 32.6182 15.1175 32.0095 15.8694C31.23 16.8327 30.4076 17.6243 28.8783 18.8797C26.3116 20.9863 23.4452 23.001 20.9548 24.4541C19.1109 25.5297 17.1423 26.4823 15.4027 27.1403L15.0798 27.3142L13.0441 27.9345C12.7345 28.0263 12.3193 28.1421 12.0489 28.2052C10.7655 28.5074 9.74921 28.5606 9.05683 28.3733C8.63425 28.2588 8.28863 28.0554 8.01681 27.7642C7.7499 27.4783 7.55346 27.1059 7.43162 26.642L8.84599 26.4225C8.89564 26.6394 8.96349 26.8021 9.07517 26.917C9.18274 27.0275 9.32931 27.0888 9.52181 27.1262C9.83298 27.1875 10.3625 27.163 10.9112 27.0711C11.5694 26.9592 12.8835 26.5878 13.7345 26.2677L16.4052 25.1838C19.532 23.7663 22.7477 21.7437 26.6654 18.741C27.4834 18.1122 29.2392 16.6476 29.6888 16.2183C30.7807 15.1728 31.5462 14.2346 31.8185 13.5906C31.8462 13.5265 31.8709 13.454 31.8869 13.3953L32.6683 12.2693ZM26.3744 6.08228C26.6689 6.1584 26.9111 6.33975 27.067 6.601C27.2709 6.94285 27.3154 7.34726 27.1733 7.84021C27.0459 8.28235 26.7628 8.80301 26.3129 9.41949C25.8019 10.1162 25.1406 10.8613 24.3134 11.6698C23.2723 12.6878 21.7402 13.9515 20.3151 14.9696C17.7441 16.8051 14.8452 18.418 12.5102 19.3146L12.1573 19.4511L10.9139 19.8266L9.78469 20.0805C9.20641 20.1688 8.63333 20.1725 8.25894 20.0929C7.80256 19.9958 7.51926 19.8339 7.27724 19.5492C6.95005 19.1628 6.812 18.6658 6.86737 17.955L8.10522 18.3349C8.11168 18.5474 8.13058 18.6537 8.21107 18.7647C8.25685 18.827 8.2693 18.8364 8.34778 18.8712C8.49629 18.9387 8.83748 18.9745 9.09519 18.9591C9.26757 18.9487 9.55071 18.8998 9.83154 18.8442L9.92491 18.8255C10.2968 18.7498 10.6422 18.6684 10.6932 18.6563L10.6996 18.6548L13.9284 17.3265L13.9356 17.3229C13.9967 17.2917 14.4314 17.0695 14.6244 16.9666C16.2562 16.0941 17.8434 15.0721 19.5643 13.7899C20.0749 13.4081 22.1213 11.6939 22.5312 11.3005C23.8897 10.0024 24.7954 8.98757 25.3904 8.09551C25.5126 7.91071 25.5859 7.71914 25.6997 7.56208L26.3744 6.08228Z" fill="#DEE5E5"/>
</svg>
