<svg width="29" height="21" viewBox="0 0 29 21" fill="none" xmlns="http://www.w3.org/2000/svg">
<path d="M27.5568 9.36655C27.4802 9.36053 27.3915 9.35651 27.3019 9.35651C26.8501 9.35651 26.4178 9.44693 26.0201 9.6117L26.0443 9.60266C25.9276 9.6529 25.7409 9.6529 25.725 9.81264C25.7895 9.87895 25.7988 9.98847 25.853 10.0809C25.9622 10.2798 26.0966 10.4486 26.2535 10.5893L26.2563 10.5923C26.4197 10.7299 26.583 10.8636 26.7548 10.9811C27.0582 11.1821 27.4028 11.3016 27.6996 11.5036C27.8686 11.6211 28.0413 11.7708 28.2131 11.8964C28.2981 11.9587 28.3532 12.0722 28.4624 12.1124V12.0873C28.4092 12.0119 28.3924 11.9024 28.3401 11.819C28.2617 11.7346 28.1842 11.6593 28.1067 11.5769C27.8752 11.2504 27.6072 10.9711 27.3066 10.738L27.2954 10.7299C27.0461 10.5471 26.4999 10.2909 26.3972 9.98244L26.3823 9.96436C26.5858 9.93321 26.767 9.88699 26.9415 9.8247L26.9191 9.83173C27.1843 9.75638 27.427 9.77246 27.7006 9.69911C27.8238 9.66495 27.9489 9.62376 28.074 9.58156V9.50621C27.934 9.3555 27.8294 9.15054 27.6847 9.00988C27.3029 8.64819 26.8818 8.3086 26.4383 8.00317L26.3963 7.97604C26.1517 7.80825 25.8408 7.69974 25.5831 7.55708C25.4898 7.50684 25.3339 7.48172 25.2797 7.39733C25.1583 7.21146 25.051 6.99846 24.966 6.7734L24.9586 6.7513C24.7295 6.27306 24.5166 5.78645 24.32 5.29146C24.1855 4.90666 24.052 4.59118 23.9017 4.28575L23.9232 4.33297C23.1894 3.00776 22.167 1.94277 20.9468 1.21636L20.9067 1.19426C20.6182 1.04054 20.283 0.92098 19.931 0.853665L19.9077 0.849646C19.7126 0.839599 19.5184 0.824528 19.3242 0.815486C19.1879 0.721043 19.0703 0.624591 18.9601 0.518092L18.9629 0.521106C18.5194 0.219694 17.372 -0.433366 17.0452 0.430683C16.8352 0.975234 17.3571 1.51275 17.5373 1.78905C17.681 1.97291 17.8117 2.17887 17.9247 2.3969L17.934 2.41699C17.9891 2.56267 18.0041 2.71237 18.0591 2.86408C18.1945 3.31821 18.3318 3.69096 18.4877 4.05165L18.4634 3.98936C18.5558 4.18929 18.652 4.35909 18.7594 4.51984L18.7519 4.50779C18.8144 4.59922 18.9218 4.64242 18.947 4.79312C18.8667 4.97498 18.8042 5.18596 18.7696 5.406L18.7678 5.42006C18.6669 5.75363 18.6081 6.13843 18.6081 6.5373C18.6081 7.16122 18.751 7.74897 19.003 8.26539L18.9937 8.2453C19.1188 8.45327 19.4157 8.91544 19.8134 8.73861C20.1635 8.58791 20.086 8.11067 20.1869 7.6907C20.2102 7.59023 20.1953 7.52392 20.2429 7.4556V7.47469C20.3521 7.7108 20.4623 7.93585 20.5622 8.17196C20.8441 8.609 21.1793 8.98075 21.5621 9.28718L21.5742 9.29622C21.7609 9.44693 21.9094 9.70815 22.1428 9.80059V9.77547H22.125C22.0718 9.71318 22.013 9.65792 21.9486 9.6107L21.9448 9.60869C21.8001 9.45597 21.6657 9.2912 21.5443 9.11739L21.5369 9.10633C21.2325 8.66426 20.9431 8.16392 20.6919 7.63846L20.6649 7.57717C20.537 7.31394 20.4296 7.0296 20.3269 6.76938C20.2802 6.66891 20.2802 6.51821 20.2018 6.46797C20.0636 6.63475 19.9394 6.82062 19.8358 7.02056L19.8283 7.03664C19.7088 7.41139 19.6304 7.84442 19.6099 8.29353V8.30458C19.5781 8.31362 19.594 8.30458 19.5781 8.32266C19.3289 8.25736 19.243 7.97905 19.1496 7.74496C19.0226 7.37723 18.9489 6.95124 18.9489 6.50816C18.9489 6.15048 18.9965 5.80487 19.0861 5.47833L19.0805 5.50446C19.1356 5.32863 19.369 4.77403 19.2756 4.60524C19.2271 4.44549 19.0731 4.35407 18.9872 4.22446C18.8854 4.06973 18.792 3.89391 18.7145 3.70804L18.7071 3.68795C18.5204 3.21875 18.427 2.69831 18.2244 2.22911C18.1021 1.98396 17.9733 1.77297 17.8285 1.57605L17.8351 1.58509C17.681 1.39319 17.5391 1.17919 17.4159 0.952126L17.4056 0.932032C17.3673 0.840603 17.3123 0.688893 17.3739 0.588422C17.3851 0.530149 17.428 0.484937 17.4831 0.475895C17.5858 0.385471 17.8752 0.503022 17.9761 0.553257C18.272 0.673822 18.5269 0.815486 18.7631 0.982267L18.7482 0.97222C18.8574 1.05461 18.976 1.21435 19.116 1.25555H19.2794C19.5287 1.31483 19.8106 1.27363 20.044 1.34698C20.4725 1.50271 20.8432 1.69762 21.1858 1.93674L21.1662 1.92368C22.1969 2.64004 23.0222 3.60857 23.5805 4.75294L23.5992 4.79413C23.6926 4.98703 23.7336 5.16487 23.8186 5.36581C23.982 5.77975 24.1837 6.19871 24.3498 6.59858C24.5076 7.0286 24.6943 7.40034 24.9165 7.74295L24.9053 7.72486C25.022 7.90069 25.4907 7.99211 25.7008 8.08354C25.922 8.16693 26.0994 8.2463 26.2712 8.33572L26.2367 8.31965C26.5046 8.49547 26.766 8.69641 27.0181 8.88932C27.146 8.98476 27.5353 9.19475 27.5587 9.36354L27.5568 9.36655ZM16.6111 16.714C16.6111 16.7291 16.612 16.7461 16.612 16.7632C16.612 17.3238 16.3796 17.8252 16.0117 18.1628L16.0089 18.1648C15.6056 18.5184 15.0856 18.7334 14.5189 18.7334C14.475 18.7334 14.4311 18.7324 14.3882 18.7294H14.3938C13.7038 18.7194 13.069 18.4782 12.549 18.0754L12.5583 18.0824L12.8346 17.4846C13.2352 17.7257 13.7113 17.8754 14.2173 17.8965H14.2229C14.2481 17.8985 14.2771 17.8995 14.307 17.8995C14.6169 17.8995 14.9054 17.795 15.1416 17.6172L15.1369 17.6202C15.3507 17.4454 15.487 17.1721 15.487 16.8647C15.487 16.8587 15.487 16.8536 15.487 16.8476V16.8486C15.487 16.4347 15.2191 16.083 14.7308 15.7876C14.278 15.5204 13.3743 14.9628 13.3743 14.9628C12.928 14.6654 12.6358 14.1419 12.6358 13.5451C12.6358 13.524 12.6358 13.5029 12.6367 13.4818V13.4849C12.6358 13.4658 12.6358 13.4437 12.6358 13.4216C12.6358 12.9041 12.8477 12.44 13.1829 12.1245L13.1848 12.1225C13.5414 11.7969 14.0073 11.599 14.5161 11.599C14.5488 11.599 14.5805 11.6 14.6122 11.601H14.6076C14.616 11.601 14.6263 11.601 14.6365 11.601C15.2331 11.601 15.7886 11.7929 16.2517 12.1235L16.2405 12.1164L15.9921 12.7142C15.6271 12.5374 15.2014 12.4309 14.7532 12.4259H14.7514C14.7289 12.4239 14.7037 12.4229 14.6776 12.4229C14.4162 12.4229 14.1753 12.5213 13.9867 12.6861L13.9886 12.6841C13.8121 12.8418 13.7001 13.0779 13.6992 13.3422C13.6992 13.7541 13.9718 14.1078 14.4759 14.4092C14.9343 14.6794 15.8605 15.2501 15.8605 15.2501C16.3161 15.5385 16.6176 16.0629 16.6176 16.6637C16.6176 16.6818 16.6176 16.7009 16.6167 16.719V16.716L16.6111 16.714ZM18.5456 17.2475C18.2907 16.6999 18.1422 16.0549 18.1422 15.3727C18.1422 15.2652 18.146 15.1587 18.1534 15.0542L18.1525 15.0683C18.1525 13.3194 18.6464 12.4446 19.6342 12.444C19.6584 12.442 19.6874 12.441 19.7172 12.441C20.1607 12.441 20.55 12.6901 20.7713 13.0659L20.7741 13.0709C21.0271 13.6155 21.1755 14.2585 21.1755 14.9377C21.1755 15.0421 21.1718 15.1456 21.1653 15.2481L21.1662 15.234C21.1662 16.997 20.6723 17.8791 19.6846 17.8804C19.6594 17.8825 19.6304 17.8835 19.6015 17.8835C19.158 17.8835 18.7678 17.6343 18.5465 17.2585L18.5437 17.2535L18.5456 17.2475ZM22.3864 18.8068L21.2008 18.1788C21.3091 18.0814 21.4062 17.9789 21.4958 17.8684L21.4986 17.8654C21.9775 17.1701 22.2651 16.295 22.2651 15.3486C22.2651 15.2391 22.2613 15.1306 22.2539 15.0231L22.2548 15.0371C22.2548 12.7397 21.4167 11.5903 19.7406 11.589C19.7032 11.587 19.6594 11.586 19.6155 11.586C18.8994 11.586 18.2561 11.9245 17.8183 12.4621L17.8164 12.4651C17.3393 13.1603 17.0527 14.0344 17.0527 14.9809C17.0527 15.0874 17.0564 15.1929 17.0639 15.2973L17.063 15.2833C17.0546 15.3848 17.0499 15.5033 17.0499 15.6229C17.0499 16.501 17.3057 17.3148 17.7408 17.9829L17.7324 17.9699C18.1516 18.4501 18.7463 18.7495 19.4045 18.7495C19.4661 18.7495 19.5268 18.7465 19.5865 18.7415L19.5781 18.7425C19.5865 18.7425 19.5977 18.7425 19.608 18.7425C19.8984 18.7425 20.1794 18.6973 20.4455 18.6139L20.4249 18.6199L21.971 19.5895L22.3911 18.8088L22.3864 18.8068ZM26.2591 18.637H23.1903V11.6945H24.2229V17.784H26.2591V18.637ZM11.8805 13.515C11.6125 15.6088 10.9992 17.4987 10.102 19.1916L10.1393 19.1142C9.77986 19.8587 9.10019 20.3771 8.30195 20.4605L8.29262 20.4615C8.05081 20.4475 7.82581 20.3852 7.62135 20.2837L7.63255 20.2887V19.6688C7.76046 19.6899 7.90797 19.702 8.05828 19.702C8.06668 19.702 8.07509 19.702 8.08442 19.702C8.09936 19.703 8.11523 19.703 8.13204 19.703C8.40185 19.703 8.64926 19.5975 8.83971 19.4217L8.83785 19.4227C9.04324 19.2408 9.17488 18.9696 9.18235 18.6641C9.13287 18.2241 9.03857 17.8222 8.9032 17.4434L8.9144 17.4776L7.73152 13.515H8.79303L9.64169 16.4779C9.79293 16.8958 9.88069 17.3801 9.88069 17.8855C9.88069 17.8865 9.88069 17.8875 9.88069 17.8875C10.3307 16.6195 10.6724 15.1406 10.846 13.6064L10.8545 13.514L11.8805 13.515ZM7.19375 18.637H6.11263C6.08213 16.7877 5.97726 14.942 5.798 13.1H5.78867L4.14364 18.637H3.32113L1.6873 13.1H1.6761C1.54851 14.9427 1.47257 16.7883 1.4483 18.637H0.462402C0.52651 16.1688 0.685847 13.8542 0.940412 11.6935H2.28201L3.83928 16.7964H3.84862L5.41989 11.6935H6.69707C6.97965 14.2233 7.14614 16.5378 7.19656 18.637H7.19375ZM19.6015 2.07238C19.5996 2.07238 19.5968 2.07238 19.594 2.07238C19.4829 2.07238 19.3755 2.08745 19.2728 2.11558L19.2822 2.11357V2.12964H19.2981C19.3783 2.25825 19.4605 2.36977 19.5492 2.47426L19.5473 2.47225C19.6099 2.60688 19.664 2.74051 19.7266 2.87413L19.7425 2.85504C19.8442 2.76864 19.9086 2.63602 19.9086 2.48732C19.9086 2.46923 19.9077 2.45216 19.9058 2.43407V2.43608C19.8592 2.3768 19.8526 2.31853 19.8125 2.26026C19.7658 2.17586 19.6659 2.13467 19.6024 2.06836L19.6015 2.07238Z" fill="#DEE5E5"/>
</svg>
