<svg width="25" height="29" viewBox="0 0 25 29" fill="none" xmlns="http://www.w3.org/2000/svg">
<path d="M22.7561 3.83045C20.0693 -0.0168549 14.7596 -1.1578 10.9197 1.28848L4.17708 5.58726C2.3345 6.74425 1.06575 8.6251 0.683095 10.7669C0.361252 12.5513 0.643588 14.3921 1.48544 15.9981C0.907682 16.8747 0.514474 17.8598 0.329771 18.8934C-0.0587011 21.0761 0.448049 23.3233 1.73571 25.1281C4.43471 28.9754 9.73458 30.1163 13.5745 27.67L20.3171 23.3713C22.1593 22.2138 23.4279 20.3332 23.8111 18.1916C24.1341 16.4056 23.8517 14.5629 23.0088 12.9555C23.5865 12.0789 23.9797 11.0938 24.1644 10.0602C24.5533 7.87716 24.0456 5.62948 22.7561 3.82555" fill="#DEE5E5"/>
<path d="M10.2619 25.4838C8.0901 26.0485 5.79669 25.1981 4.51795 23.3541C3.74126 22.2698 3.43433 20.9183 3.66653 19.6049C3.70495 19.3913 3.75824 19.1806 3.82602 18.9743L3.95361 18.5867L4.29957 18.832C5.09708 19.4187 5.98921 19.8643 6.93724 20.1496L7.1826 20.2257L7.15807 20.4711C7.12874 20.8264 7.22514 21.1807 7.43042 21.4721C7.81405 22.0415 8.51619 22.3054 9.17987 22.1297C9.32577 22.0907 9.4648 22.0295 9.59208 21.9481L16.3224 17.6518C16.6562 17.4411 16.8866 17.1003 16.9579 16.7121C17.0307 16.3182 16.9423 15.9115 16.7125 15.5834C16.3269 15.0272 15.6354 14.7706 14.9803 14.9405C14.8338 14.9801 14.694 15.0413 14.5656 15.1221L11.9844 16.7611C11.5616 17.0307 11.0998 17.2335 10.6152 17.3623C8.44193 17.9284 6.14629 17.078 4.86637 15.2325C4.09397 14.1465 3.7915 12.7951 4.02722 11.4834C4.25914 10.196 5.02126 9.06528 6.12754 8.36724L12.8603 4.07091C13.2831 3.80136 13.7449 3.5986 14.2295 3.46977C16.402 2.90403 18.6968 3.75451 19.9759 5.59953C20.7526 6.68379 21.0595 8.03532 20.8273 9.3487C20.7889 9.56235 20.7356 9.77306 20.6678 9.97928L20.5402 10.367L20.1943 10.1216C19.3968 9.53495 18.5046 9.0893 17.5566 8.80399L17.3112 8.72793L17.3358 8.48256C17.3651 8.12726 17.2687 7.77295 17.0634 7.48148C16.6783 6.9247 15.9863 6.6679 15.3311 6.83862C15.1852 6.87764 15.0462 6.93888 14.9189 7.02019L8.17142 11.3018C7.8375 11.5119 7.60766 11.8531 7.53838 12.2415C7.463 12.6355 7.55162 13.0431 7.78374 13.3702C8.16936 13.9264 8.86093 14.183 9.51602 14.0131C9.66251 13.9735 9.80227 13.9123 9.93068 13.8315L12.5021 12.1925C12.9249 11.9229 13.3867 11.7201 13.8712 11.5913C16.0445 11.0252 18.3402 11.8757 19.6201 13.7211C20.3951 14.8061 20.7002 16.1575 20.4666 17.4702C20.2347 18.7576 19.4726 19.8883 18.3663 20.5864L11.6335 24.8827C11.2107 25.1523 10.7489 25.355 10.2644 25.4838" fill="white"/>
</svg>
