<svg width="27" height="30" viewBox="0 0 27 30" fill="none" xmlns="http://www.w3.org/2000/svg">
<path d="M17.7099 21.6023C19.0173 21.3323 20.2635 20.8129 21.3837 20.0712C23.1053 18.931 24.469 17.3056 25.3112 15.3901C26.1536 13.4745 26.4381 11.3502 26.1305 9.2728C25.8231 7.19562 24.9369 5.2537 23.5785 3.68051C22.2075 2.11074 20.4286 0.973903 18.4501 0.403129C16.4755 -0.162689 14.3836 -0.132308 12.4254 0.490626C10.4673 1.11358 8.72635 2.30282 7.4116 3.9155C6.51438 5.01619 5.83775 6.28749 5.42046 7.65661C6.70303 7.01424 8.08399 6.60324 9.50273 6.44166C10.4525 5.08483 11.8084 4.08288 13.3643 3.58801C14.7403 3.15038 16.2103 3.12911 17.5978 3.52676C18.9853 3.92443 20.2314 4.72436 21.1862 5.83043C22.1403 6.93614 22.7627 8.30074 22.9786 9.76028C23.1946 11.2197 22.9947 12.7119 22.4031 14.0576C21.8112 15.4039 20.8526 16.5463 19.6426 17.3475C19.1423 17.6785 18.6052 17.9471 18.0428 18.1475C18.0794 18.4575 18.0989 18.7725 18.0989 19.0912C18.0998 19.9459 17.9609 20.7947 17.688 21.6023H17.7099ZM15.6042 13.7651C16.3434 13.7653 17.0525 13.4644 17.5753 12.9287C18.0982 12.3929 18.392 11.6662 18.3922 10.9084C18.3923 10.1505 18.0988 9.42368 17.5762 8.8877C17.0536 8.35172 16.3447 8.05051 15.6054 8.05035C14.866 8.05018 14.1568 8.35113 13.6338 8.887C13.1109 9.42287 12.817 10.1497 12.8168 10.9077C12.8167 11.6657 13.1102 12.3928 13.633 12.9289C14.1557 13.465 14.8648 13.765 15.6042 13.7651ZM8.82113 8.39284C7.50322 8.66125 6.24676 9.1829 5.11807 9.93028C3.39658 11.0705 2.03283 12.6959 1.19065 14.6114C0.348473 16.5265 0.0639394 18.6504 0.371271 20.7274C0.678796 22.8045 1.56498 24.7464 2.9233 26.3197C4.28216 27.8933 6.05533 29.0314 8.0298 29.5971C10.004 30.1626 12.0954 30.1322 14.0532 29.5096C16.0111 28.8869 17.7521 27.6981 19.067 26.0859C19.9673 24.9823 20.6456 23.7071 21.0631 22.3336C19.7803 22.9792 18.3984 23.3932 16.9784 23.5573C16.8704 23.7115 16.7569 23.8616 16.6382 24.0073C15.7144 25.1403 14.4913 25.9758 13.1156 26.4134C11.7396 26.8511 10.2696 26.8723 8.8821 26.4747C7.49453 26.077 6.24847 25.2771 5.29365 24.171C4.33948 23.0653 3.71708 21.7007 3.50126 20.2411C3.28493 18.7819 3.48435 17.2896 4.07555 15.9438C4.66748 14.5975 5.62606 13.4552 6.83609 12.6539C7.32727 12.3287 7.85395 12.0635 8.40535 11.864C8.37686 11.5904 8.36261 11.3154 8.36267 11.0402C8.36267 10.1103 8.52362 9.2178 8.82113 8.39284ZM10.894 16.235C10.5278 16.2349 10.1653 16.3086 9.82697 16.4521C9.48866 16.5956 9.18122 16.806 8.92222 17.0713C8.39915 17.607 8.10511 18.3338 8.10478 19.0918C8.10462 19.4671 8.17658 19.8388 8.31654 20.1856C8.4565 20.5324 8.66172 20.8476 8.9205 21.1131C9.17927 21.3786 9.48653 21.5893 9.82472 21.7331C10.1629 21.8768 10.5254 21.9509 10.8915 21.9511C11.6309 21.9513 12.3401 21.6503 12.8631 21.1144C13.3861 20.5786 13.6799 19.8517 13.6801 19.0937C13.6803 18.3357 13.3867 17.6087 12.864 17.0726C12.3412 16.5365 11.6322 16.2352 10.8928 16.235H10.894Z" fill="#DEE5E5"/>
</svg>
