<svg width="31" height="30" viewBox="0 0 31 30" fill="none" xmlns="http://www.w3.org/2000/svg">
<path d="M1.25098 1H29.251V29H1.25098V1Z" stroke="#DEE5E5" stroke-width="2"/>
<path d="M7.90918 15.9165V17.139H11.8092V28.239H14.5767V17.139H18.4767V15.939C18.4767 15.264 18.4767 14.7165 18.4467 14.7015C18.4467 14.679 16.0692 14.6715 13.1817 14.6715L7.93168 14.694V15.924L7.90918 15.9165ZM25.4367 14.664C26.2017 14.844 26.7867 15.189 27.3117 15.7365C27.5892 16.0365 28.0017 16.5615 28.0317 16.6965C28.0317 16.7415 26.7342 17.619 25.9467 18.1065C25.9167 18.129 25.7967 18.0015 25.6767 17.8065C25.2867 17.2515 24.8892 17.0115 24.2667 16.9665C23.3667 16.9065 22.7667 17.379 22.7667 18.1665C22.7667 18.4065 22.8117 18.5415 22.9017 18.7365C23.1042 19.149 23.4792 19.3965 24.6417 19.9065C26.7867 20.829 27.7167 21.4365 28.2792 22.3065C28.9167 23.2815 29.0592 24.8115 28.6317 25.959C28.1517 27.2115 26.9817 28.059 25.3092 28.3365C24.7842 28.4265 23.5842 28.4115 23.0217 28.314C21.8217 28.089 20.6742 27.489 19.9692 26.7165C19.6917 26.4165 19.1592 25.614 19.1892 25.5615L19.4742 25.3815L20.5992 24.729L21.4467 24.234L21.6417 24.4965C21.8892 24.8865 22.4442 25.4115 22.7667 25.5915C23.7417 26.094 25.0467 26.0265 25.6917 25.4415C25.9692 25.1865 26.0892 24.9165 26.0892 24.5415C26.0892 24.1965 26.0367 24.039 25.8642 23.7765C25.6242 23.4465 25.1442 23.1765 23.7942 22.5765C22.2417 21.9165 21.5817 21.4965 20.9667 20.8515C20.6142 20.4615 20.2917 19.854 20.1417 19.3515C20.0292 18.9165 19.9917 17.8515 20.0967 17.424C20.4192 15.924 21.5517 14.874 23.1717 14.574C23.6967 14.469 24.9342 14.514 25.4517 14.649L25.4367 14.664Z" fill="#DEE5E5"/>
</svg>
