<svg width="33" height="19" viewBox="0 0 33 19" fill="none" xmlns="http://www.w3.org/2000/svg">
<path d="M1.00848 8.95517L1.01372 8.92997L1.5406 6.39899L1.54248 6.38997L1.54501 6.38111C3.02477 1.2138 9.10079 -0.952574 13.3033 2.25606L13.3039 2.25653C15.7649 4.14754 16.3608 6.82131 16.242 9.74468L16.2323 9.98453H15.9922H2.88191C2.8473 12.4037 3.72111 14.313 5.14177 15.4492C6.60677 16.6208 8.69161 17.0011 11.0637 16.2237C12.6788 15.6938 13.6389 14.4612 14.1258 12.8805L14.1261 12.8797C14.2622 12.4433 14.4634 12.1217 14.7976 11.973C15.1206 11.8292 15.4995 11.8798 15.905 12.0002L16.123 12.065L16.0791 12.2882C15.6666 14.3832 14.7262 16.1698 12.7212 17.2866L1.00848 8.95517ZM1.00848 8.95517V8.98092M1.00848 8.95517V8.98092M1.00848 8.98092V8.98183C1.00848 9.45467 1.00598 9.92751 1.00099 10.4003L1.00071 10.4268L1.00596 10.4527C1.0263 10.553 1.04756 10.6474 1.06821 10.739C1.10922 10.9211 1.14778 11.0922 1.1718 11.2776L1.17179 11.2776M1.00848 8.98092L1.17179 11.2776M1.17179 11.2776L1.17201 11.2791M1.17179 11.2776L1.17201 11.2791M1.17201 11.2791C1.4137 13.0562 1.95686 14.7544 3.2944 16.1006M1.17201 11.2791L3.2944 16.1006M3.2944 16.1006C4.41964 17.2621 6.0395 17.9678 7.73674 18.181C9.43516 18.3943 11.2326 18.1173 12.7211 17.2867L3.2944 16.1006ZM31.3112 17.8018L31.6825 17.7095L31.449 17.4065L25.434 9.60116L25.4331 9.6C25.2694 9.39011 25.2103 9.25249 25.2049 9.14099C25.2 9.03764 25.2394 8.90445 25.4078 8.69888L25.4079 8.69891L25.4109 8.69499L28.5609 4.68884L28.5623 4.68711L30.8873 1.67631L31.1129 1.38419L30.7579 1.28307C30.2058 1.1258 29.7332 1.11976 29.311 1.28455C28.893 1.44765 28.5598 1.76454 28.2576 2.18274L23.9594 7.78036L19.6929 2.15261C19.3526 1.66874 18.9736 1.37776 18.5224 1.24549C18.0793 1.11557 17.5965 1.14813 17.0677 1.2486L16.6637 1.32538L16.9179 1.64871L22.7945 9.12425L16.4713 17.4149L16.2441 17.7126L16.6063 17.8082C17.1789 17.9593 17.6575 17.9495 18.0795 17.7702C18.4957 17.5933 18.8223 17.2657 19.1212 16.8504L23.9518 10.4684L24.3728 11.0135L28.6753 16.8277C28.9948 17.2952 29.3512 17.6243 29.7956 17.79C30.2405 17.9557 30.7375 17.9443 31.3112 17.8018ZM14.4713 8.38295H2.92699C3.05082 6.61901 3.70094 5.15631 4.71511 4.12567C5.77765 3.04588 7.25354 2.42596 8.98531 2.43921L8.98548 2.43921C12.0196 2.46045 14.2949 4.87142 14.4713 8.38295Z" fill="#DEE5E5" stroke="#DEE5E5" stroke-width="0.5"/>
</svg>
