<svg width="25" height="29" viewBox="0 0 25 29" fill="none" xmlns="http://www.w3.org/2000/svg">
<path d="M9.15063 2.88096L12.3753 1L15.6 2.88096" stroke="#DEE5E5" stroke-width="2" stroke-linecap="round" stroke-linejoin="round"/>
<path d="M12.3748 1V5.7024" stroke="#DEE5E5" stroke-width="2" stroke-miterlimit="10" stroke-linecap="round"/>
<path d="M15.6 25.4525L12.3753 27.3335L9.15063 25.4525" stroke="#DEE5E5" stroke-width="2" stroke-linecap="round" stroke-linejoin="round"/>
<path d="M12.3748 27.3334V22.631" stroke="#DEE5E5" stroke-width="2" stroke-miterlimit="10" stroke-linecap="round"/>
<path d="M1.08911 11.3165V7.58336L4.21327 5.7312" stroke="#DEE5E5" stroke-width="2" stroke-linecap="round" stroke-linejoin="round"/>
<path d="M1.08911 7.58337L5.04442 9.93457" stroke="#DEE5E5" stroke-width="2" stroke-miterlimit="10" stroke-linecap="round"/>
<path d="M23.6608 17.017V20.7501L20.5366 22.6022" stroke="#DEE5E5" stroke-width="2" stroke-linecap="round" stroke-linejoin="round"/>
<path d="M23.6606 20.7501L19.7053 18.3989" stroke="#DEE5E5" stroke-width="2" stroke-miterlimit="10" stroke-linecap="round"/>
<path d="M4.21327 22.631L1.08911 20.7501V17.017" stroke="#DEE5E5" stroke-width="2" stroke-linecap="round" stroke-linejoin="round"/>
<path d="M1.08911 20.7501L5.00621 18.3989" stroke="#DEE5E5" stroke-width="2" stroke-miterlimit="10" stroke-linecap="round"/>
<path d="M20.5366 5.7312L23.6608 7.58336V11.3165" stroke="#DEE5E5" stroke-width="2" stroke-linecap="round" stroke-linejoin="round"/>
<path d="M23.6606 7.58337L19.7053 9.93457" stroke="#DEE5E5" stroke-width="2" stroke-miterlimit="10" stroke-linecap="round"/>
<path d="M12.3748 17.9286V14.1667L15.5994 12.2858" stroke="#DEE5E5" stroke-width="2" stroke-miterlimit="10" stroke-linecap="round"/>
<path d="M12.3753 14.1667L9.15063 12.2858" stroke="#DEE5E5" stroke-width="2" stroke-miterlimit="10" stroke-linecap="round"/>
</svg>
