<svg width="30" height="29" viewBox="0 0 30 29" fill="none" xmlns="http://www.w3.org/2000/svg">
<path fill-rule="evenodd" clip-rule="evenodd" d="M13.6233 15.1294C13.6306 18.0278 13.6393 22.9523 13.6466 26.7797C18.8869 27.4883 24.1273 28.2189 29.3589 29C29.3589 24.4307 29.3647 19.8813 29.3589 15.5337C24.1142 15.5337 18.8709 15.1294 13.6233 15.1294ZM0.361816 15.1308V24.9714C4.31425 25.5047 8.26668 26.0144 12.2118 26.597C12.2191 22.79 12.2089 18.9818 12.2089 15.1747C8.25941 15.182 4.31134 15.1178 0.361816 15.1308ZM0.361816 4.12273V13.9357C4.31425 13.9459 8.26668 13.8861 12.2191 13.8904C12.2162 10.092 12.2162 6.29834 12.2118 2.49998C8.2565 2.99415 4.30116 3.51696 0.361816 4.12273ZM29.3618 13.7339C24.1244 13.7542 18.8869 13.8341 13.6466 13.85C13.6437 9.98937 13.6437 6.13331 13.6466 2.27554C18.8768 1.47702 24.1186 0.726044 29.3589 0C29.3618 4.57948 29.3589 9.15446 29.3618 13.7339Z" fill="#DEE5E5"/>
</svg>
