<svg width="33" height="32" viewBox="0 0 33 32" fill="none" xmlns="http://www.w3.org/2000/svg">
<path d="M18.0784 23.3245H14.7007L11.4473 17.9911L8.21176 23.3245H5.02954L9.66954 16.2133L5.33176 9.3689H8.60287L11.6073 14.4L14.5229 9.3689H17.7051L13.3318 16.3022L18.0784 23.3245Z" fill="#DEE5E5"/>
<path d="M21.0117 23.52C20.4402 23.5392 19.8729 23.416 19.3609 23.1616C18.8489 22.9071 18.4081 22.5293 18.0783 22.0622C17.3032 20.8578 16.9297 19.4388 17.0117 18.0089C16.9248 16.5648 17.305 15.1312 18.0961 13.92C18.4373 13.4463 18.8899 13.0639 19.4138 12.8065C19.9378 12.5492 20.5171 12.4248 21.1006 12.4444C21.7039 12.4227 22.3028 12.5548 22.8408 12.8285C23.3789 13.1023 23.8384 13.5085 24.1761 14.0089H24.265C24.1321 13.3053 24.0607 12.5915 24.0517 11.8755V8.47998H26.9672V23.3244H24.7272L24.1761 21.9555H24.0517C23.7327 22.4658 23.2819 22.8805 22.7469 23.1559C22.2118 23.4313 21.6123 23.557 21.0117 23.52ZM22.0428 21.2089C22.3479 21.2349 22.6548 21.189 22.9389 21.0747C23.223 20.9605 23.4762 20.7811 23.6783 20.5511C24.0875 19.8911 24.2859 19.1222 24.2472 18.3466V18.0266C24.3162 17.1741 24.1306 16.3203 23.7139 15.5733C23.5062 15.3072 23.2337 15.0988 22.9224 14.9681C22.6112 14.8373 22.2716 14.7886 21.9361 14.8266C21.6357 14.8241 21.3395 14.8978 21.0752 15.0409C20.8109 15.1839 20.5872 15.3915 20.425 15.6444C20.0236 16.3842 19.8388 17.2222 19.8917 18.0622C19.8344 18.8799 20.0199 19.6963 20.425 20.4089C20.5987 20.6745 20.8403 20.8887 21.1248 21.0294C21.4093 21.1701 21.7263 21.2321 22.0428 21.2089Z" fill="#DEE5E5"/>
<path d="M28.745 3.55556V28.4444H3.85609V3.55556H28.745ZM28.745 0H3.85609C2.9131 0 2.00873 0.374602 1.34194 1.0414C0.675139 1.70819 0.300537 2.61256 0.300537 3.55556V28.4444C0.300537 29.3874 0.675139 30.2918 1.34194 30.9586C2.00873 31.6254 2.9131 32 3.85609 32H28.745C29.688 32 30.5923 31.6254 31.2591 30.9586C31.9259 30.2918 32.3005 29.3874 32.3005 28.4444V3.55556C32.3005 2.61256 31.9259 1.70819 31.2591 1.0414C30.5923 0.374602 29.688 0 28.745 0Z" fill="#DEE5E5"/>
</svg>
