<svg width="30" height="27" viewBox="0 0 30 27" fill="none" xmlns="http://www.w3.org/2000/svg">
<path d="M27.6414 9.30888C27.6414 7.98923 26.5595 6.90735 25.2399 6.90735C23.9202 6.90735 22.8383 7.98923 22.8383 9.30888C22.8383 9.74876 22.9691 10.1649 23.1831 10.5215L19.9494 13.7553C19.6165 13.5888 19.2479 13.4818 18.8556 13.4818C18.3563 13.4818 17.9045 13.6364 17.5122 13.8861L14.2665 10.6523C14.5281 10.2719 14.6827 9.80821 14.6827 9.30888C14.6827 7.98923 13.6008 6.90735 12.2811 6.90735C10.9615 6.90735 9.87959 7.98923 9.87959 9.30888C9.87959 9.70121 9.98659 10.0698 10.153 10.3908L6.71718 13.8266C6.36052 13.6126 5.94441 13.4818 5.50453 13.4818C4.18487 13.4818 3.103 14.5637 3.103 15.8834C3.103 17.203 4.18487 18.2849 5.50453 18.2849C6.82418 18.2849 7.90606 17.203 7.90606 15.8834C7.90606 15.4435 7.77528 15.0274 7.56128 14.6707L10.9377 11.2943C11.3181 11.5559 11.7818 11.7104 12.2811 11.7104C12.6735 11.7104 13.042 11.6034 13.363 11.437L16.7156 14.7896C16.5492 15.1225 16.4422 15.491 16.4422 15.8834C16.4422 17.203 17.5241 18.2849 18.8437 18.2849C20.1634 18.2849 21.2452 17.203 21.2452 15.8834C21.2452 15.384 21.0907 14.9204 20.841 14.5399L24.0153 11.3656C24.372 11.5796 24.7881 11.7104 25.228 11.7104C26.5595 11.7104 27.6414 10.6285 27.6414 9.30888ZM5.50453 17.0841C4.83876 17.0841 4.29187 16.5372 4.29187 15.8715C4.29187 15.2057 4.83876 14.6588 5.50453 14.6588C5.83741 14.6588 6.13463 14.7896 6.36052 15.0155C6.57452 15.2295 6.71718 15.5386 6.71718 15.8715C6.71718 16.5491 6.1703 17.0841 5.50453 17.0841ZM12.2811 10.5096C11.6154 10.5096 11.0685 9.96276 11.0685 9.29699C11.0685 8.63122 11.6154 8.08434 12.2811 8.08434C12.9469 8.08434 13.4938 8.63122 13.4938 9.29699C13.4938 9.97465 12.9469 10.5096 12.2811 10.5096ZM18.8556 17.0841C18.1898 17.0841 17.643 16.5372 17.643 15.8715C17.643 15.2057 18.1898 14.6588 18.8556 14.6588C19.5214 14.6588 20.0683 15.2057 20.0683 15.8715C20.0564 16.5491 19.5214 17.0841 18.8556 17.0841ZM24.3839 10.153C24.1699 9.93898 24.0272 9.62988 24.0272 9.29699C24.0272 8.63122 24.5741 8.08434 25.2399 8.08434C25.9056 8.08434 26.4525 8.63122 26.4525 9.29699C26.4525 9.96276 25.9056 10.5096 25.2399 10.5096C24.907 10.5096 24.5979 10.3789 24.3839 10.153Z" fill="#FAFFFD"/>
<path d="M0.641993 23.302C0.998656 23.302 1.28399 23.0166 1.28399 22.66V0.641993C1.28399 0.28533 0.998656 0 0.641993 0C0.28533 0 0 0.28533 0 0.641993V22.66C0 23.0166 0.28533 23.302 0.641993 23.302Z" fill="#FAFFFD"/>
<path d="M3.99462 25.1803H0.641993C0.28533 25.1803 0 25.4656 0 25.8223C0 26.179 0.28533 26.4643 0.641993 26.4643H4.00651C4.36318 26.4643 4.64851 26.179 4.64851 25.8223C4.64851 25.4656 4.35129 25.1803 3.99462 25.1803Z" fill="#FAFFFD"/>
<path d="M10.2005 25.1803H6.8479C6.49123 25.1803 6.2059 25.4656 6.2059 25.8223C6.2059 26.179 6.49123 26.4643 6.8479 26.4643H10.2124C10.5691 26.4643 10.8544 26.179 10.8544 25.8223C10.8544 25.4656 10.5572 25.1803 10.2005 25.1803Z" fill="#FAFFFD"/>
<path d="M16.4065 25.1803H13.042C12.6853 25.1803 12.4 25.4656 12.4 25.8223C12.4 26.179 12.6853 26.4643 13.042 26.4643H16.4065C16.7632 26.4643 17.0485 26.179 17.0485 25.8223C17.0485 25.4656 16.7632 25.1803 16.4065 25.1803Z" fill="#FAFFFD"/>
<path d="M22.6124 25.1803H19.2479C18.8912 25.1803 18.6059 25.4656 18.6059 25.8223C18.6059 26.179 18.8912 26.4643 19.2479 26.4643H22.6124C22.9691 26.4643 23.2544 26.179 23.2544 25.8223C23.2544 25.4656 22.9691 25.1803 22.6124 25.1803Z" fill="#FAFFFD"/>
<path d="M28.8184 25.1803H25.4539C25.0972 25.1803 24.8119 25.4656 24.8119 25.8223C24.8119 26.179 25.0972 26.4643 25.4539 26.4643H28.8184C29.1751 26.4643 29.4604 26.179 29.4604 25.8223C29.4604 25.4656 29.1751 25.1803 28.8184 25.1803Z" fill="#FAFFFD"/>
</svg>
