<svg id="svg" version="1.1" xmlns="http://www.w3.org/2000/svg"
    xmlns:xlink="http://www.w3.org/1999/xlink" width="400" height="400" viewBox="0, 0, 400,400">
    <g id="svgg">
        <path id="path0"
            d="M181.144 2.177 C 172.311 6.766,170.039 12.944,170.458 31.223 C 170.982 54.082,175.821 58.559,200.000 58.559 C 224.179 58.559,229.018 54.082,229.542 31.223 C 229.961 12.944,227.689 6.766,218.856 2.177 C 212.379 -1.188,187.621 -1.188,181.144 2.177 M114.453 65.602 C 93.828 76.322,76.303 85.893,75.508 86.871 C 72.136 91.016,75.555 97.656,81.061 97.656 C 84.687 97.656,156.962 60.312,159.445 57.155 C 162.635 53.100,159.214 46.082,154.058 46.102 C 152.843 46.107,136.097 54.352,114.453 65.602 M241.814 47.852 C 239.003 50.294,238.430 54.454,240.537 57.132 C 243.071 60.354,315.357 97.656,319.067 97.656 C 324.977 97.656,328.010 90.800,324.023 86.451 C 321.650 83.861,248.544 46.094,245.906 46.094 C 244.768 46.094,242.927 46.885,241.814 47.852 M197.154 71.839 C 189.543 75.045,191.912 90.980,200.000 90.980 C 205.063 90.980,207.031 88.257,207.031 81.250 C 207.031 73.554,202.755 69.480,197.154 71.839 M21.161 86.004 C 9.508 88.291,5.545 95.696,5.520 115.234 C 5.489 139.795,9.953 144.141,35.218 144.141 L 50.513 144.141 54.331 141.780 C 63.091 136.365,65.168 130.517,64.728 112.508 C 64.314 95.514,59.988 88.488,48.412 86.005 C 43.808 85.018,26.190 85.017,21.161 86.004 M350.525 86.231 C 339.475 89.332,335.677 95.874,335.272 112.508 C 334.832 130.517,336.909 136.365,345.669 141.780 L 349.487 144.141 364.782 144.141 C 381.846 144.141,383.551 143.715,388.780 138.154 C 393.893 132.716,394.141 131.639,394.141 114.844 C 394.141 95.995,392.079 91.229,382.031 86.854 C 378.210 85.189,355.813 84.747,350.525 86.231 M163.672 126.580 C 127.055 146.531,125.833 147.389,129.335 150.688 C 131.245 152.486,198.634 189.063,200.037 189.063 C 201.432 189.063,269.986 151.725,271.137 150.339 C 273.750 147.190,272.360 146.243,236.454 126.692 C 217.383 116.308,200.940 107.821,199.913 107.832 C 198.887 107.842,182.578 116.279,163.672 126.580 M76.502 134.315 C 71.406 139.412,73.896 143.415,86.023 149.618 C 96.127 154.787,98.909 154.952,101.597 150.544 C 104.948 145.048,102.625 141.877,90.941 135.999 C 81.768 131.385,79.677 131.141,76.502 134.315 M308.984 136.015 C 297.363 141.902,295.061 145.062,298.403 150.544 C 301.091 154.952,303.873 154.787,313.977 149.618 C 326.104 143.415,328.594 139.412,323.498 134.315 C 320.316 131.133,318.112 131.392,308.984 136.015 M31.641 157.975 C 28.130 159.988,28.175 159.444,28.175 200.000 C 28.175 240.793,28.116 240.106,31.785 242.060 C 34.675 243.599,37.462 243.127,39.904 240.685 L 42.188 238.401 42.188 200.000 L 42.188 161.599 39.904 159.315 C 37.465 156.876,34.418 156.382,31.641 157.975 M360.096 159.315 L 357.813 161.599 357.813 200.000 L 357.813 238.401 360.096 240.685 C 363.310 243.898,368.075 243.556,370.874 239.911 C 372.247 238.123,372.247 161.877,370.874 160.089 C 368.075 156.444,363.310 156.102,360.096 159.315 M118.906 162.656 C 118.200 163.362,117.969 173.966,117.969 205.581 L 117.969 247.569 119.727 249.470 C 122.131 252.071,187.556 287.500,189.954 287.500 C 193.823 287.500,193.750 288.349,193.750 243.324 C 193.750 204.006,193.654 200.941,192.383 199.849 C 189.833 197.659,122.893 161.719,121.364 161.719 C 120.528 161.719,119.422 162.141,118.906 162.656 M242.796 180.376 C 224.009 190.614,208.101 199.437,207.444 199.982 C 206.400 200.848,206.250 206.279,206.250 243.299 C 206.250 288.351,206.177 287.500,210.046 287.500 C 212.444 287.500,277.869 252.071,280.273 249.470 L 282.031 247.569 282.031 205.581 C 282.031 161.430,282.052 161.694,278.555 161.740 C 277.674 161.752,261.582 170.138,242.796 180.376 M85.938 250.386 C 76.881 255.067,74.219 257.487,74.219 261.041 C 74.219 264.108,77.953 267.969,80.920 267.969 C 83.826 267.969,98.320 260.576,100.977 257.739 C 105.220 253.207,101.794 245.994,95.457 246.120 C 94.733 246.134,90.449 248.054,85.938 250.386 M300.586 246.938 C 296.755 249.169,295.985 254.493,299.023 257.739 C 301.680 260.576,316.174 267.969,319.080 267.969 C 324.279 267.969,327.493 260.980,324.212 256.809 C 320.463 252.043,303.785 245.074,300.586 246.938 M20.307 256.168 C 8.440 259.964,5.230 266.565,5.599 286.415 C 6.026 309.339,10.388 313.999,32.052 314.674 C 57.603 315.470,64.179 310.000,64.728 287.492 C 65.168 269.485,63.091 263.638,54.334 258.220 L 50.519 255.859 36.392 255.701 C 28.623 255.613,21.384 255.824,20.307 256.168 M349.129 256.515 C 338.063 260.593,334.794 267.901,335.272 287.492 C 335.821 310.000,342.397 315.470,367.948 314.674 C 389.612 313.999,393.974 309.339,394.401 286.415 C 394.742 268.072,392.616 262.567,383.256 257.562 C 379.264 255.428,354.170 254.658,349.129 256.515 M76.136 304.261 C 73.625 306.773,73.553 310.910,75.977 313.539 C 78.362 316.128,151.472 353.906,154.096 353.906 C 159.224 353.906,162.621 346.882,159.445 342.845 C 158.389 341.503,144.735 333.977,120.818 321.556 C 80.783 300.765,79.954 300.444,76.136 304.261 M279.297 321.478 C 257.206 332.967,241.846 341.418,240.740 342.690 C 237.283 346.668,240.617 353.906,245.906 353.906 C 248.609 353.906,321.683 316.104,324.107 313.452 C 326.422 310.919,326.055 305.868,323.400 303.719 C 319.656 300.687,317.950 301.375,279.297 321.478 M197.154 309.339 C 189.543 312.545,191.912 328.480,200.000 328.480 C 205.063 328.480,207.031 325.757,207.031 318.750 C 207.031 311.054,202.755 306.980,197.154 309.339 M182.813 343.030 C 173.133 347.407,170.839 352.188,170.458 368.777 C 169.855 395.035,174.553 400.000,200.000 400.000 C 225.447 400.000,230.145 395.035,229.542 368.777 C 229.018 345.918,224.179 341.441,200.000 341.441 C 187.923 341.441,185.918 341.626,182.813 343.030 "
            stroke="none" fill="#fafffd" fill-rule="evenodd"></path>
    </g>
</svg>