<svg width="28" height="18" viewBox="0 0 28 18" fill="none" xmlns="http://www.w3.org/2000/svg">
<path d="M22.9562 7.55C22.9562 7.475 22.9688 7.4 22.9688 7.325C22.9688 3.30625 19.6688 0 15.6688 0C12.7875 0 10.3063 1.74375 9.14375 4.1875C8.6375 3.93125 8.075 3.7875 7.46875 3.7875C5.61875 3.7875 4.0875 5.26875 3.7875 7.0375C1.5875 7.8 0 9.8 0 12.275C0 15.3875 2.50625 18 5.6 18H22.875C25.6875 18 28 15.5688 28 12.7313C28 9.88125 25.7875 7.55625 22.9562 7.55ZM22.8438 16.975L22.6437 17H5.65C3.09375 17 1.0125 14.8187 1.0125 12.2437C1.0125 10.25 2.275 8.59375 4.15 7.94375L4.675 7.75625L4.76875 7.20625C4.99375 5.85625 6.15 4.75 7.5125 4.75C7.94375 4.75 8.36875 4.85 8.75625 5.05L9.6 5.475L10.0063 4.61875C11.0438 2.4375 13.2625 0.98125 15.6562 0.98125C19.1125 0.98125 21.9625 3.7375 21.9625 7.2125C21.9625 8.04375 21.95 8.48125 21.95 8.48125L22.9 8.4875C25.1937 8.51875 27 10.3938 27 12.7C27 15.0063 25.1375 16.9625 22.8438 16.975Z" fill="#FAFFFD"/>
</svg>
