<svg width="30" height="29" viewBox="0 0 30 29" fill="none" xmlns="http://www.w3.org/2000/svg">
<path d="M26.8833 28.9166H2.71665C1.38386 28.9166 0.299988 27.8327 0.299988 26.4999V8.37492C0.299988 7.04213 1.38386 5.95825 2.71665 5.95825H14.8C15.1335 5.95825 15.4042 6.22892 15.4042 6.56242C15.4042 6.89592 15.1335 7.16659 14.8 7.16659H2.71665C2.05026 7.16659 1.50832 7.70852 1.50832 8.37492V26.4999C1.50832 27.1663 2.05026 27.7083 2.71665 27.7083H26.8833C27.5497 27.7083 28.0917 27.1663 28.0917 26.4999V8.37492C28.0917 7.70852 27.5497 7.16659 26.8833 7.16659C26.5498 7.16659 26.2792 6.89592 26.2792 6.56242C26.2792 6.22892 26.5498 5.95825 26.8833 5.95825C28.2161 5.95825 29.3 7.04213 29.3 8.37492V26.4999C29.3 27.8327 28.2161 28.9166 26.8833 28.9166Z" fill="#FAFFFD"/>
<path d="M26.8833 26.5H6.34161V8.375H12.3833C12.7168 8.375 12.9874 8.64567 12.9874 8.97917C12.9874 9.31267 12.7168 9.58333 12.3833 9.58333H7.54995V25.2917H25.6749V9.58333H24.4666C24.1331 9.58333 23.8624 9.31267 23.8624 8.97917C23.8624 8.64567 24.1331 8.375 24.4666 8.375H26.8833V26.5Z" fill="#FAFFFD"/>
<path d="M5.13332 25.2916H0.299988V9.58325H5.13332V25.2916ZM1.50832 24.0833H3.92499V10.7916H1.50832V24.0833Z" fill="#FAFFFD"/>
<path d="M10.8366 16.5675L12.431 11.5547L23.3012 0.685125C24.2141 -0.228375 25.806 -0.228375 26.7189 0.685125C27.6614 1.62762 27.6614 3.1604 26.7189 4.10229L15.8494 14.9725L10.8366 16.5675ZM13.4937 12.2011L12.6962 14.7072L15.2023 13.9097L25.8647 3.2486C26.3359 2.77735 26.3359 2.01127 25.8647 1.54002C25.4079 1.08327 24.6122 1.08327 24.1555 1.54002L13.4937 12.2011Z" fill="#FAFFFD"/>
<path d="M4.52911 14.4165H0.904114V15.6248H4.52911V14.4165Z" fill="#FAFFFD"/>
<path d="M4.52911 19.25H0.904114V20.4583H4.52911V19.25Z" fill="#FAFFFD"/>
<path d="M25.437 5.13427C25.2823 5.13427 25.1276 5.07506 25.0098 4.95725L22.4463 2.39377C22.2101 2.15754 22.2101 1.77571 22.4463 1.53948C22.6826 1.30325 23.0644 1.30325 23.3006 1.53948L25.8641 4.10296C26.1003 4.33918 26.1003 4.72102 25.8641 4.95725C25.7463 5.07566 25.5916 5.13427 25.437 5.13427Z" fill="#FAFFFD"/>
<path d="M22.0197 8.55199C21.8651 8.55199 21.7104 8.49278 21.5926 8.37497L19.0291 5.81149C18.7929 5.57526 18.7929 5.19343 19.0291 4.9572C19.2653 4.72097 19.6472 4.72097 19.8834 4.9572L22.4469 7.52068C22.6831 7.75691 22.6831 8.13874 22.4469 8.37497C22.3285 8.49278 22.1744 8.55199 22.0197 8.55199Z" fill="#FAFFFD"/>
<path d="M15.5262 15.0456C15.3715 15.0456 15.2169 14.9864 15.099 14.8686L12.5356 12.3051C12.2993 12.0689 12.2993 11.6871 12.5356 11.4509C12.7718 11.2146 13.1536 11.2146 13.3899 11.4509L15.9533 14.0143C16.1896 14.2506 16.1896 14.6324 15.9533 14.8686C15.8349 14.9864 15.6809 15.0456 15.5262 15.0456Z" fill="#FAFFFD"/>
<path d="M10.5707 17.4376C10.4161 17.4376 10.2614 17.3784 10.1436 17.2606C9.90737 17.0243 9.90737 16.6425 10.1436 16.4063L11.3392 15.2106C11.5755 14.9744 11.9573 14.9744 12.1935 15.2106C12.4298 15.4468 12.4298 15.8287 12.1935 16.0649L10.9979 17.2606C10.8801 17.3784 10.7254 17.4376 10.5707 17.4376Z" fill="#FAFFFD"/>
</svg>
