<svg width="27" height="30" viewBox="0 0 27 30" fill="none" xmlns="http://www.w3.org/2000/svg">
<path fill-rule="evenodd" clip-rule="evenodd" d="M11.1964 16.7595C11.2044 16.7675 11.2123 16.7754 11.2198 16.7829C11.4267 16.9891 11.6497 17.1562 11.8889 17.2846C12.0901 17.3953 12.3027 17.4783 12.5269 17.5336V19.2527H8.57833C8.54972 19.2529 8.52124 19.2529 8.49276 19.2527C8.48888 19.2527 8.48507 19.2527 8.48106 19.2527H8.3955C7.99199 19.2434 7.6171 19.1657 7.27115 19.0194L11.1964 16.7595ZM13.9157 9.54457C14.2296 9.71511 14.5226 9.93558 14.7949 10.2058C15.052 10.4624 15.2647 10.7372 15.433 11.0304C15.5705 10.9204 15.7182 10.8336 15.8764 10.7698C16.097 10.6793 16.3367 10.634 16.5961 10.6337C17.1188 10.6323 17.5648 10.8152 17.9345 11.1821C17.9558 11.2033 17.9766 11.2254 17.9967 11.2482L15.2502 12.8273C15.2456 12.8191 15.2404 12.8112 15.2346 12.804C15.2262 12.8003 15.2184 12.7965 15.2113 12.7923C15.0919 12.6738 14.9672 12.5686 14.8378 12.4772C14.5545 12.2762 14.2472 12.1349 13.9157 12.0532V9.54457ZM4.82406 10.7892C4.44248 11.1693 4.00803 11.4182 3.52083 11.536V18.043C4.00522 18.1604 4.43707 18.4057 4.81631 18.7782C4.82085 18.7823 4.82607 18.7861 4.83188 18.7897C4.83904 18.7959 4.84686 18.8024 4.85521 18.8092L6.06118 18.113C5.58802 17.5499 5.35063 16.89 5.3493 16.1334C5.3513 15.4058 5.57177 14.7679 6.01064 14.2198C6.08966 14.1215 6.17516 14.0256 6.26741 13.9319C6.84445 13.3574 7.53434 13.0554 8.3372 13.0256C8.33647 12.9753 8.33647 12.9247 8.3372 12.8739C8.3372 12.8443 8.3372 12.8145 8.3372 12.7844L10.4963 14.029C10.4644 14.1508 10.4411 14.2766 10.4263 14.4063C10.4079 14.5309 10.3974 14.6593 10.3952 14.7914C10.3968 15.0598 10.4305 15.3152 10.4963 15.5577L6.069 18.113C6.1317 18.1894 6.19916 18.2633 6.27135 18.3347C6.30451 18.3681 6.3382 18.4005 6.3725 18.4319C6.64671 18.6867 6.9462 18.8812 7.27109 19.0153L5.53995 20.0149C5.60734 20.2551 5.6437 20.5079 5.64892 20.7734C5.64898 20.7785 5.64898 20.7836 5.64892 20.789C5.64364 21.0509 5.60854 21.2999 5.54383 21.5357L11.1927 24.7911C11.2016 24.7834 11.2107 24.7756 11.2199 24.7678L11.2238 24.7639C11.6048 24.3878 12.0406 24.1402 12.5309 24.021V19.2486H13.9159V17.5295C14.4017 17.4116 14.835 17.1628 15.2153 16.7828C15.2213 16.7796 15.2278 16.777 15.2347 16.775C15.2409 16.767 15.2474 16.7592 15.2542 16.7516L19.1795 19.0192C18.8079 19.1746 18.4033 19.2524 17.9657 19.2525C17.9617 19.2525 17.958 19.2525 17.9542 19.2525H13.9159V24.0209C14.4017 24.141 14.8347 24.3887 15.2153 24.7638C15.22 24.7667 15.2251 24.7693 15.231 24.7716C15.2378 24.7786 15.2443 24.7863 15.2504 24.795L20.9029 21.5433C20.8345 21.2995 20.7996 21.0427 20.798 20.7732C20.7996 20.5012 20.8333 20.2418 20.8992 19.9952L19.1796 19.0151C19.4715 18.8913 19.7439 18.7203 19.9967 18.5017C20.0571 18.4493 20.1168 18.3936 20.1754 18.3345C20.2476 18.263 20.3163 18.1889 20.3817 18.1128L15.9468 15.5497C16.0103 15.314 16.0439 15.0636 16.048 14.7991C16.048 14.7939 16.048 14.7887 16.048 14.7836C16.0471 14.7362 16.0458 14.6895 16.0439 14.6435C16.0312 14.4308 15.9988 14.2272 15.9468 14.0329L18.4872 12.5704C18.483 12.7361 18.4598 12.8943 18.4171 13.0449C19.0882 13.1361 19.6745 13.4317 20.1754 13.9318C20.4559 14.2105 20.6727 14.5164 20.8252 14.8496C21.0023 15.2399 21.0905 15.6677 21.0897 16.1332C21.0905 16.8895 20.8571 17.5495 20.3894 18.1128L21.5878 18.8012C21.5985 18.7917 21.609 18.7826 21.6189 18.7741V18.7701C21.9996 18.3962 22.4327 18.1499 22.9183 18.0311V11.5397C22.4324 11.4198 21.9992 11.1734 21.6189 10.8007V10.7968C21.61 10.7904 21.6008 10.784 21.5917 10.7773L18.4873 12.5703C18.4873 12.5517 18.4873 12.5335 18.4873 12.5159C18.4884 12.2569 18.4442 12.017 18.3549 11.7963C18.2734 11.5961 18.1543 11.412 17.997 11.244L20.8992 9.57546C20.8334 9.33152 20.7998 9.07482 20.798 8.80528C20.7997 8.53855 20.8334 8.28439 20.8992 8.043L15.2426 4.78375C15.2348 4.79171 15.2268 4.79953 15.2194 4.80708C14.8377 5.18578 14.4033 5.43346 13.9161 5.54998V9.5405C13.6433 9.39082 13.3555 9.27931 13.0524 9.20598C12.883 9.1656 12.7092 9.13713 12.5311 9.12048V5.55767C12.0393 5.43807 11.6022 5.18786 11.2202 4.80708C11.2127 4.79966 11.2048 4.79177 11.1968 4.78375L5.54403 8.043C5.60881 8.27905 5.64384 8.52793 5.64912 8.78984C5.64918 8.79492 5.64918 8.80014 5.64912 8.80528C5.64384 9.07248 5.60747 9.32658 5.54015 9.5677L8.64859 11.349C8.83109 10.9336 9.09695 10.5524 9.4461 10.2054C9.53729 10.1148 9.63067 10.0292 9.72614 9.94875C10.4061 9.38306 11.2036 9.10042 12.1187 9.10089C12.2576 9.10143 12.3938 9.10918 12.5271 9.12422V12.053C12.2736 12.1141 12.0351 12.2101 11.8113 12.3408C11.6024 12.4605 11.4065 12.611 11.2239 12.792C11.2181 12.7962 11.2115 12.8001 11.2044 12.8037C11.1998 12.8098 11.1946 12.8163 11.1889 12.8231L8.64471 11.3529C8.554 11.5592 8.4826 11.7731 8.43073 11.9947C8.3737 12.2462 8.34262 12.5081 8.3374 12.7804L4.8399 10.7695C4.8379 10.7741 4.83529 10.7781 4.83222 10.7812C4.82881 10.7836 4.82613 10.7861 4.82406 10.7892ZM11.2159 0.824522L11.2236 0.820645C11.6765 0.373421 12.2069 0.108965 12.8148 0.0272079C12.946 0.00949273 13.0808 0.000467947 13.2194 0C13.9959 0.00167124 14.6612 0.275219 15.2151 0.820645L15.2228 0.824522C15.7663 1.37148 16.0425 2.03269 16.0515 2.80808C16.0516 2.8137 16.0516 2.82018 16.0515 2.82753C16.045 3.09306 16.0072 3.34582 15.9387 3.58601L21.5874 6.83757C21.5976 6.83002 21.608 6.82219 21.6185 6.81424V6.80254C22.1714 6.26046 22.8393 5.98945 23.6221 5.98972C24.3973 5.98878 25.0613 6.25972 25.6139 6.80254L25.6217 6.81805C25.8304 7.02709 26.0002 7.2527 26.1313 7.49483C26.337 7.88751 26.4421 8.3231 26.4463 8.80167C26.4465 8.80682 26.4465 8.81204 26.4463 8.81718C26.4381 9.59545 26.1618 10.2553 25.6179 10.7969C25.2354 11.1791 24.7996 11.4293 24.3106 11.5476V18.0312C24.798 18.1477 25.2325 18.394 25.6138 18.7702L25.6216 18.7781C26.1636 19.3263 26.4387 19.9888 26.4463 20.7655C26.4464 20.7693 26.4464 20.7732 26.4463 20.7772C26.4417 21.2175 26.3509 21.6195 26.1739 21.9829C26.04 22.2652 25.8544 22.5244 25.6179 22.7608C25.064 23.3132 24.3989 23.5895 23.6221 23.5893C22.8389 23.5889 22.1712 23.3126 21.6185 22.7608C21.6088 22.7523 21.5996 22.7445 21.5914 22.7374L15.9387 25.993C16.0072 26.2306 16.045 26.4834 16.0515 26.7514C16.0516 26.7587 16.0516 26.7651 16.0515 26.7708C16.0419 27.5491 15.7644 28.2089 15.219 28.7505C14.7519 29.2181 14.2047 29.4877 13.5773 29.5595C13.4611 29.5732 13.3418 29.5798 13.2194 29.579C12.4376 29.5784 11.7711 29.3023 11.2198 28.7505C10.6735 28.2067 10.3998 27.5441 10.3989 26.7629C10.3993 26.4935 10.4317 26.2368 10.4962 25.993L4.85515 22.7374C4.84773 22.7459 4.8399 22.7538 4.83182 22.7608C4.82874 22.7629 4.82607 22.7653 4.82399 22.7685C4.26908 23.3211 3.60252 23.5972 2.82439 23.5971C2.04138 23.5964 1.37349 23.3204 0.820845 22.7685C0.543018 22.4914 0.336922 22.1828 0.202353 21.8428C0.068855 21.5166 0.00140384 21.1613 0 20.7772C0.00167124 19.9986 0.275286 19.3351 0.820845 18.7858L0.824789 18.7781C1.20583 18.4047 1.64149 18.1596 2.13196 18.0429V11.536C1.64002 11.4176 1.20302 11.1687 0.820845 10.7892C0.274685 10.2454 0.00106959 9.58294 0 8.80174C0.000133699 8.29823 0.112909 7.84192 0.338526 7.43273C0.465206 7.20858 0.625979 6.99868 0.820845 6.80261L0.824789 6.79485C1.3763 6.2527 2.04299 5.98169 2.82439 5.98196C3.59971 5.98109 4.2636 6.2521 4.81624 6.79485C4.82079 6.8016 4.826 6.80802 4.83182 6.81431C4.84158 6.82173 4.8506 6.82948 4.85896 6.83764L10.4961 3.58608C10.4317 3.34368 10.3992 3.08818 10.3988 2.81991C10.3993 2.04018 10.6717 1.37503 11.2159 0.824522Z" fill="#FAFFFD"/>
</svg>
