<svg width="29" height="21" viewBox="0 0 29 21" fill="none" xmlns="http://www.w3.org/2000/svg">
<path d="M28.5381 6.59082L22.2564 0.451173C21.9546 0.161983 21.5487 0 21.1261 0C20.7034 0 20.2975 0.161983 19.9957 0.451173L19.1183 1.30872C18.8362 1.59104 18.6726 1.96639 18.6596 2.36079C18.6467 2.75519 18.7853 3.14003 19.0483 3.43945C18.6607 3.75754 18.2103 3.99413 17.725 4.13443C17.2397 4.27474 16.73 4.31575 16.2277 4.25491C15.2878 4.14478 14.3356 4.31149 13.4933 4.73367H13.4556L11.3025 4.46535C11.0616 4.43651 10.8378 4.32898 10.6673 4.16021L9.95143 3.46049C10.2189 3.16172 10.3613 2.7754 10.3504 2.37855C10.3394 1.9817 10.1758 1.60346 9.89222 1.31925L9.01483 0.461695C8.71297 0.172505 8.30713 0.0105223 7.88444 0.0105223C7.46176 0.0105223 7.05592 0.172505 6.75406 0.461695L0.461611 6.59082C0.16573 6.88585 0 7.28251 0 7.69564C0 8.10877 0.16573 8.50543 0.461611 8.80046L1.339 9.65801C1.6298 9.93518 2.01678 10.0951 2.42281 10.1058C2.82884 10.1165 3.2241 9.9773 3.52979 9.71588L4.90778 11.0574C5.11746 11.2678 5.2693 11.5266 5.34916 11.8098C5.63321 12.8395 6.19024 13.7777 6.96399 14.5297C6.81906 14.7959 6.74706 15.0941 6.75502 15.3955C6.76297 15.6969 6.85059 15.9911 7.00937 16.2496C7.16815 16.508 7.39267 16.7219 7.66109 16.8705C7.92951 17.019 8.23269 17.0971 8.54114 17.0971C8.53971 17.3276 8.5851 17.556 8.67468 17.7692C8.76425 17.9824 8.89623 18.1761 9.06296 18.339C9.22969 18.502 9.42785 18.631 9.64597 18.7185C9.86409 18.8061 10.0978 18.8505 10.3336 18.8491C10.3387 19.3161 10.5321 19.7622 10.8719 20.0907C11.1426 20.3559 11.4939 20.5285 11.8732 20.5825C12.2525 20.6366 12.6396 20.5692 12.9765 20.3905L13.0734 20.4852C13.2849 20.6935 13.5467 20.8462 13.8347 20.929C14.1226 21.0119 14.4273 21.0224 14.7205 20.9594C15.0137 20.8964 15.2859 20.7621 15.5117 20.5688C15.7376 20.3755 15.9098 20.1296 16.0124 19.8539L16.2331 20.0696C16.3992 20.233 16.5967 20.3626 16.8143 20.4511C17.0318 20.5396 17.2651 20.5851 17.5008 20.5851C17.7364 20.5851 17.9697 20.5396 18.1873 20.4511C18.4048 20.3626 18.6023 20.233 18.7684 20.0696C18.9463 19.8908 19.0806 19.675 19.1613 19.4383L19.4251 19.6961C19.7613 20.0247 20.2173 20.2093 20.6927 20.2093C21.1682 20.2093 21.6242 20.0247 21.9604 19.6961C22.2966 19.3675 22.4855 18.9218 22.4855 18.4571C22.4855 17.9924 22.2966 17.5467 21.9604 17.2181L21.6966 16.9603C21.9383 16.8762 22.1574 16.7394 22.3372 16.5605C22.5064 16.3997 22.6412 16.2076 22.7336 15.9953C22.8261 15.783 22.8743 15.5549 22.8755 15.3242C22.8741 15.0471 22.8039 14.7744 22.6709 14.5297L22.7732 14.4245C23.4726 13.7476 23.9472 12.8804 24.135 11.936C24.2823 11.189 24.6576 10.503 25.2116 9.96841L25.4861 9.7001C25.7918 9.96151 26.187 10.1007 26.5931 10.09C26.9991 10.0793 27.3861 9.9194 27.6769 9.64223L28.5543 8.78467C28.8432 8.48833 29.003 8.09388 29 7.68456C28.9969 7.27524 28.8314 6.88307 28.5381 6.59082ZM2.08182 8.9162L1.20443 8.07969C1.10418 7.98112 1.04791 7.84778 1.04791 7.70879C1.04791 7.5698 1.10418 7.43646 1.20443 7.33789L7.50227 1.1772C7.55255 1.12546 7.61308 1.08427 7.68017 1.05611C7.74726 1.02796 7.81951 1.01345 7.89252 1.01345C7.96553 1.01345 8.03778 1.02796 8.10487 1.05611C8.17196 1.08427 8.23248 1.12546 8.28277 1.1772L9.1171 2.03475C9.17003 2.0839 9.21218 2.14306 9.24098 2.20863C9.26978 2.2742 9.28464 2.34482 9.28464 2.41617C9.28464 2.48753 9.26978 2.55815 9.24098 2.62372C9.21218 2.68929 9.17003 2.74845 9.1171 2.7976L2.86232 8.9162C2.81204 8.96794 2.75151 9.00913 2.68442 9.03728C2.61733 9.06544 2.54508 9.07995 2.47207 9.07995C2.39906 9.07995 2.32682 9.06544 2.25973 9.03728C2.19264 9.00913 2.13211 8.96794 2.08182 8.9162ZM8.04055 15.8713C7.96827 15.8031 7.91078 15.7214 7.87152 15.631C7.83226 15.5406 7.81202 15.4434 7.81202 15.3452C7.81202 15.247 7.83226 15.1498 7.87152 15.0594C7.91078 14.969 7.96827 14.8873 8.04055 14.8191C8.1805 14.6845 8.369 14.609 8.56537 14.609C8.76173 14.609 8.95023 14.6845 9.09019 14.8191C9.16087 14.8865 9.21729 14.9668 9.25622 15.0554C9.29516 15.1441 9.31584 15.2394 9.31709 15.3359C9.31834 15.4324 9.30013 15.5282 9.26351 15.6178C9.22688 15.7074 9.17256 15.7891 9.10364 15.8582C9.03472 15.9272 8.95255 15.9824 8.86183 16.0204C8.7711 16.0585 8.6736 16.0787 8.57488 16.0799C8.47616 16.0811 8.37817 16.0634 8.28648 16.0276C8.1948 15.9918 8.11123 15.9387 8.04055 15.8713ZM9.83301 17.6232C9.7275 17.5211 9.65576 17.3903 9.62703 17.2479C9.59831 17.1055 9.61393 16.9579 9.67188 16.8242C9.72983 16.6906 9.82744 16.577 9.95211 16.4981C10.0768 16.4192 10.2228 16.3786 10.3713 16.3816C10.471 16.3787 10.5702 16.3959 10.6628 16.4321C10.7554 16.4683 10.8394 16.5228 10.9096 16.5921C10.9812 16.6607 11.0381 16.7425 11.0769 16.8328C11.1157 16.9232 11.1357 17.0202 11.1357 17.1182C11.1357 17.2162 11.1157 17.3132 11.0769 17.4035C11.0381 17.4938 10.9812 17.5757 10.9096 17.6443C10.8372 17.7163 10.7505 17.7732 10.6548 17.8114C10.5591 17.8495 10.4565 17.8682 10.3532 17.8662C10.2499 17.8643 10.1481 17.8417 10.054 17.7999C9.95991 17.7581 9.87556 17.698 9.80609 17.6232H9.83301ZM11.6255 19.3752C11.5525 19.3073 11.4944 19.2257 11.4547 19.1353C11.415 19.0449 11.3945 18.9475 11.3945 18.8491C11.3945 18.7507 11.415 18.6533 11.4547 18.5628C11.4944 18.4724 11.5525 18.3908 11.6255 18.323C11.7693 18.186 11.9629 18.1103 12.1637 18.1125C12.2851 18.115 12.4039 18.1465 12.5099 18.2042C12.616 18.262 12.7059 18.3442 12.7718 18.4438C12.8378 18.5434 12.8778 18.6572 12.8883 18.7754C12.8988 18.8935 12.8796 19.0124 12.8322 19.1216C12.7849 19.2309 12.7109 19.3271 12.6167 19.4019C12.5225 19.4767 12.411 19.5278 12.2919 19.5507C12.1729 19.5736 12.0499 19.5677 11.9337 19.5334C11.8175 19.4992 11.7117 19.4376 11.6255 19.3541V19.3752ZM21.6266 15.8555C21.4828 15.9931 21.2896 16.0701 21.0884 16.0701C20.8872 16.0701 20.6939 15.9931 20.5501 15.8555L15.0866 10.4945C15.0434 10.4279 14.9854 10.3716 14.917 10.3299C14.8485 10.2881 14.7714 10.262 14.6912 10.2533C14.611 10.2446 14.5298 10.2537 14.4537 10.2798C14.3775 10.3059 14.3084 10.3484 14.2513 10.4042C14.1943 10.4599 14.1508 10.5275 14.1241 10.6019C14.0973 10.6763 14.0881 10.7557 14.0969 10.8341C14.1058 10.9124 14.1326 10.9879 14.1753 11.0548C14.2181 11.1217 14.2756 11.1783 14.3438 11.2205L21.2176 17.9599C21.2884 18.0288 21.3445 18.1108 21.3824 18.2012C21.4203 18.2915 21.4393 18.3884 21.4383 18.486C21.4402 18.5838 21.4216 18.681 21.3837 18.7714C21.3457 18.8619 21.2892 18.9439 21.2176 19.0122C21.0776 19.1468 20.8891 19.2222 20.6927 19.2222C20.4964 19.2222 20.3079 19.1468 20.1679 19.0122L13.2941 12.2675C13.1908 12.2035 13.0683 12.1758 12.9467 12.1889C12.8252 12.2021 12.7118 12.2553 12.6253 12.3398C12.5388 12.4244 12.4844 12.5352 12.4709 12.654C12.4575 12.7728 12.4858 12.8925 12.5513 12.9935L18.0148 18.3282C18.1576 18.4677 18.2378 18.657 18.2378 18.8543C18.2378 19.0516 18.1576 19.2409 18.0148 19.3804C17.8721 19.52 17.6784 19.5983 17.4765 19.5983C17.2746 19.5983 17.081 19.52 16.9383 19.3804L11.5017 14.0194C11.3984 13.9554 11.2758 13.9277 11.1543 13.9409C11.0327 13.954 10.9193 14.0072 10.8328 14.0918C10.7464 14.1763 10.6919 14.2871 10.6785 14.4059C10.665 14.5247 10.6934 14.6445 10.7588 14.7454L14.8497 18.7438C14.9204 18.8129 14.9765 18.895 15.0148 18.9852C15.053 19.0755 15.0727 19.1722 15.0727 19.2699C15.0727 19.3677 15.053 19.4644 15.0148 19.5547C14.9765 19.6449 14.9204 19.727 14.8497 19.7961C14.7791 19.8651 14.6951 19.9199 14.6028 19.9573C14.5104 19.9947 14.4114 20.014 14.3115 20.014C14.2115 20.014 14.1125 19.9947 14.0202 19.9573C13.9278 19.9199 13.8439 19.8651 13.7732 19.7961L13.6763 19.7014C13.8233 19.4358 13.8968 19.1374 13.8898 18.8356C13.8827 18.5338 13.7952 18.239 13.636 17.9803C13.4768 17.7216 13.2513 17.5079 12.9817 17.3605C12.7122 17.213 12.408 17.1367 12.0992 17.1392C12.1021 16.9091 12.0576 16.6807 11.9684 16.4678C11.8791 16.2548 11.747 16.0615 11.5797 15.8995C11.4124 15.7375 11.2135 15.6101 10.9948 15.5248C10.7761 15.4395 10.5421 15.3981 10.3067 15.4031C10.3143 15.0987 10.2402 14.7976 10.0916 14.53C9.94304 14.2623 9.72527 14.0374 9.46001 13.8777C9.19475 13.718 8.89128 13.629 8.57987 13.6198C8.26847 13.6105 7.96001 13.6812 7.68528 13.8248C7.04574 13.1931 6.58885 12.4071 6.36112 11.5467C6.2385 11.0877 5.99113 10.6695 5.64521 10.3367L4.27261 9.00038L9.20322 4.18126L9.91375 4.87572C10.25 5.20225 10.687 5.41122 11.1572 5.47021L12.266 5.607L9.6177 8.19544C9.41938 8.37605 9.26031 8.59386 9.14998 8.83587C9.03966 9.07788 8.98034 9.33912 8.97555 9.60402C8.97077 9.86893 9.02063 10.1321 9.12215 10.3777C9.22367 10.6234 9.37478 10.8465 9.56646 11.0339C9.75813 11.2212 9.98645 11.3689 10.2378 11.4681C10.4891 11.5674 10.7584 11.6161 11.0294 11.6114C11.3004 11.6067 11.5677 11.5488 11.8153 11.4409C12.0629 11.3331 12.2858 11.1776 12.4706 10.9838L14.2523 9.24239C14.4119 9.08974 14.6046 8.97408 14.816 8.90396C15.0275 8.83385 15.2524 8.81106 15.4741 8.83729L21.5997 14.8244C21.6699 14.8935 21.7251 14.9757 21.7621 15.066C21.7991 15.1564 21.8171 15.2531 21.815 15.3505C21.8128 15.5397 21.7357 15.7207 21.5997 15.8555H21.6266ZM23.1123 11.7519C22.9615 12.4978 22.5867 13.1828 22.0357 13.7195L21.9981 13.7564L17.8372 9.7001C18.365 9.83389 18.9069 9.90803 19.452 9.92106C19.5218 9.92623 19.5919 9.91705 19.6578 9.89411C19.7237 9.87118 19.7839 9.835 19.8346 9.78791C19.8853 9.74082 19.9254 9.68386 19.9522 9.62071C19.979 9.55756 19.992 9.48961 19.9903 9.42126C19.9903 9.28173 19.9336 9.14791 19.8326 9.04925C19.7317 8.95059 19.5948 8.89516 19.452 8.89516C18.4314 8.86835 17.4324 8.60124 16.5399 8.11652C16.0562 7.8502 15.497 7.74467 14.9465 7.81584C14.3961 7.887 13.8842 8.131 13.4879 8.5111L11.7062 10.2525C11.622 10.3604 11.5151 10.4493 11.3927 10.5133C11.2703 10.5772 11.1353 10.6147 10.9968 10.6233C10.8582 10.6318 10.7195 10.6111 10.5898 10.5627C10.4602 10.5142 10.3427 10.4391 10.2453 10.3424C10.148 10.2458 10.073 10.1298 10.0255 10.0023C9.97798 9.87482 9.95904 9.73887 9.96997 9.60363C9.98089 9.46839 10.0214 9.33703 10.0888 9.21843C10.1562 9.09982 10.2488 8.99676 10.3605 8.9162L13.0519 6.28568C13.4501 5.90039 13.9329 5.60874 14.4635 5.43281C14.9942 5.25689 15.5588 5.20132 16.1147 5.27029C16.7696 5.34894 17.4342 5.29267 18.0655 5.10511C18.6968 4.91754 19.281 4.60284 19.7804 4.18126L24.7271 9.00038L24.458 9.25817C23.7648 9.93953 23.2962 10.808 23.1123 11.7519ZM27.8114 8.06917L26.9179 8.9162C26.8676 8.96794 26.8071 9.00913 26.74 9.03728C26.6729 9.06544 26.6007 9.07995 26.5277 9.07995C26.4546 9.07995 26.3824 9.06544 26.3153 9.03728C26.2482 9.00913 26.1877 8.96794 26.1374 8.9162L19.8826 2.7976C19.8297 2.74845 19.7876 2.68929 19.7587 2.62372C19.7299 2.55815 19.7151 2.48753 19.7151 2.41617C19.7151 2.34482 19.7299 2.2742 19.7587 2.20863C19.7876 2.14306 19.8297 2.0839 19.8826 2.03475L20.76 1.1772C20.8103 1.12546 20.8708 1.08427 20.9379 1.05611C21.005 1.02796 21.0773 1.01345 21.1503 1.01345C21.2233 1.01345 21.2955 1.02796 21.3626 1.05611C21.4297 1.08427 21.4902 1.12546 21.5405 1.1772L27.7953 7.33789C27.8956 7.43646 27.9518 7.5698 27.9518 7.70879C27.9518 7.84778 27.8956 7.98112 27.7953 8.07969L27.8114 8.06917Z" fill="#FAFFFD"/>
</svg>
