<svg width="22" height="30" viewBox="0 0 22 30" fill="none" xmlns="http://www.w3.org/2000/svg">
<path d="M17.8962 0H3.40379C1.54399 0 0 1.5089 0 3.3687V26.5987C0 28.4585 1.5089 29.9674 3.40379 29.9674H17.8962C19.756 29.9674 21.3 28.4585 21.3 26.5987V3.3687C21.3 1.5089 19.7911 0 17.8962 0ZM20.2473 26.5987C20.2473 27.897 19.1946 28.9147 17.8962 28.9147H3.40379C2.10544 28.9147 1.05272 27.8619 1.05272 26.5987V3.3687C1.05272 2.07035 2.10544 1.05272 3.40379 1.05272H17.8962C19.1946 1.05272 20.2473 2.10544 20.2473 3.3687V26.5987Z" fill="#FAFFFD"/>
<path d="M14.9486 3.33362H6.28124C6.00052 3.33362 5.75488 3.57925 5.75488 3.85998C5.75488 4.1407 6.00052 4.38634 6.28124 4.38634H14.9486C15.2293 4.38634 15.475 4.1407 15.475 3.85998C15.475 3.57925 15.2293 3.33362 14.9486 3.33362Z" fill="#FAFFFD"/>
<path d="M10.6325 23.4406C9.64992 23.4406 8.87793 24.2476 8.87793 25.1951C8.87793 25.6513 9.05338 26.1074 9.40429 26.4233C9.7201 26.7391 10.1763 26.9145 10.6325 26.9145C11.615 26.9145 12.387 26.1074 12.387 25.16C12.387 24.2125 11.615 23.4406 10.6325 23.4406ZM10.6676 25.8969C10.4921 25.8969 10.3166 25.8267 10.1763 25.6864C10.0359 25.546 9.96574 25.3705 9.96574 25.1951C9.96574 24.8091 10.2816 24.4933 10.6676 24.4933C11.0535 24.4933 11.3694 24.8091 11.3694 25.1951C11.3694 25.5811 11.0535 25.8969 10.6676 25.8969Z" fill="#FAFFFD"/>
</svg>
