<svg width="29" height="6" viewBox="0 0 29 6" fill="none" xmlns="http://www.w3.org/2000/svg">
<path d="M4.64062 4.6748C4.64062 4.72949 4.62988 4.78027 4.6084 4.82715C4.58887 4.87402 4.56152 4.91504 4.52637 4.9502C4.49316 4.9834 4.45312 5.00977 4.40625 5.0293C4.35938 5.04883 4.30957 5.05859 4.25684 5.05859C4.20996 5.05859 4.16211 5.0498 4.11328 5.03223C4.06641 5.01465 4.02441 4.98633 3.9873 4.94727L1.2041 2.04102V5H0.442383V1.12402C0.442383 1.0459 0.463867 0.975586 0.506836 0.913086C0.551758 0.848633 0.608398 0.800781 0.676758 0.769531C0.749023 0.740234 0.823242 0.733398 0.899414 0.749023C0.975586 0.762695 1.04102 0.797852 1.0957 0.854492L3.87891 3.75781V0.798828H4.64062V4.6748ZM7.44727 2.29883L8.73047 0.798828H9.77051L7.96289 2.90527L9.75879 5H8.72461L7.44727 3.51172L6.17578 5H5.13867L6.93164 2.90527L5.13281 0.798828H6.16406L7.44727 2.29883ZM14.0479 1.56055H12.3691V5H11.6074V1.56055H9.92578V0.798828H14.0479V1.56055ZM18.7559 4.61621C18.7559 4.6709 18.7461 4.72168 18.7266 4.76855C18.707 4.81543 18.6797 4.85645 18.6445 4.8916C18.6113 4.9248 18.5713 4.95117 18.5244 4.9707C18.4775 4.99023 18.4268 5 18.3721 5H15.624C15.5537 5 15.4775 4.99219 15.3955 4.97656C15.3154 4.95898 15.2354 4.93262 15.1553 4.89746C15.0771 4.8623 15.002 4.81738 14.9297 4.7627C14.8574 4.70605 14.793 4.63867 14.7363 4.56055C14.6816 4.48047 14.6377 4.38867 14.6045 4.28516C14.5713 4.17969 14.5547 4.06152 14.5547 3.93066V1.86816C14.5547 1.79785 14.5625 1.72266 14.5781 1.64258C14.5957 1.56055 14.6221 1.48047 14.6572 1.40234C14.6924 1.32227 14.7383 1.24609 14.7949 1.17383C14.8516 1.10156 14.9189 1.03809 14.9971 0.983398C15.0771 0.926758 15.1689 0.881836 15.2725 0.848633C15.376 0.81543 15.4932 0.798828 15.624 0.798828H18.7207V1.56055H15.624C15.5244 1.56055 15.4482 1.58691 15.3955 1.63965C15.3428 1.69238 15.3164 1.77051 15.3164 1.87402V3.93066C15.3164 4.02832 15.3428 4.10449 15.3955 4.15918C15.4502 4.21191 15.5264 4.23828 15.624 4.23828H17.9941V3.2832H15.9668V2.51562H18.3721C18.4268 2.51562 18.4775 2.52637 18.5244 2.54785C18.5713 2.56738 18.6113 2.59473 18.6445 2.62988C18.6797 2.66504 18.707 2.70605 18.7266 2.75293C18.7461 2.79785 18.7559 2.84668 18.7559 2.89941V4.61621ZM23.0039 3.2832H20.5986V2.51562H23.0039V3.2832ZM23.3467 5H20.5986C20.4932 5 20.3779 4.98145 20.2529 4.94434C20.1279 4.90723 20.0117 4.84668 19.9043 4.7627C19.7988 4.67676 19.71 4.56641 19.6377 4.43164C19.5674 4.29492 19.5322 4.12793 19.5322 3.93066V1.18262C19.5322 1.12988 19.542 1.08008 19.5615 1.0332C19.5811 0.986328 19.6074 0.945312 19.6406 0.910156C19.6758 0.875 19.7168 0.847656 19.7637 0.828125C19.8105 0.808594 19.8613 0.798828 19.916 0.798828H23.3467V1.56055H20.2939V3.93066C20.2939 4.03027 20.3203 4.10645 20.373 4.15918C20.4258 4.21191 20.5029 4.23828 20.6045 4.23828H23.3467V5ZM28.2832 4.6748C28.2832 4.72949 28.2725 4.78027 28.251 4.82715C28.2314 4.87402 28.2041 4.91504 28.1689 4.9502C28.1357 4.9834 28.0957 5.00977 28.0488 5.0293C28.002 5.04883 27.9521 5.05859 27.8994 5.05859C27.8525 5.05859 27.8047 5.0498 27.7559 5.03223C27.709 5.01465 27.667 4.98633 27.6299 4.94727L24.8467 2.04102V5H24.085V1.12402C24.085 1.0459 24.1064 0.975586 24.1494 0.913086C24.1943 0.848633 24.251 0.800781 24.3193 0.769531C24.3916 0.740234 24.4658 0.733398 24.542 0.749023C24.6182 0.762695 24.6836 0.797852 24.7383 0.854492L27.5215 3.75781V0.798828H28.2832V4.6748Z" fill="#FAFFFD"/>
</svg>
