<svg width="25" height="31" viewBox="0 0 25 31" fill="none" xmlns="http://www.w3.org/2000/svg">
<path d="M15.0027 11.8674C15.1733 11.8674 15.2766 11.9221 15.336 11.9815C15.3953 12.0409 15.45 12.1442 15.45 12.3147C15.45 12.4853 15.3953 12.5886 15.336 12.648C15.2766 12.7073 15.1733 12.762 15.0027 12.762H9.31899C9.14843 12.762 9.04515 12.7073 8.98576 12.648C8.92638 12.5886 8.8717 12.4853 8.8717 12.3147C8.8717 12.1442 8.92638 12.0409 8.98576 11.9815C9.04515 11.9221 9.14843 11.8674 9.31899 11.8674H15.0027Z" stroke="#FAFFFD"/>
<path d="M15.6559 19.2045L15.415 19.3797L15.4544 19.675C15.6705 21.2958 16.8574 22.6939 18.5718 23.1242C21.2339 23.8355 23.2662 25.9634 23.7958 28.6114C23.8674 28.9692 23.7885 29.2965 23.6874 29.457C23.4994 29.7016 23.2711 29.8132 22.9599 29.8132H1.45646C1.28796 29.8132 1.16285 29.7801 1.06217 29.7235C0.961527 29.6669 0.854345 29.5694 0.748456 29.3929L0.735186 29.3708L0.71971 29.3501C0.51732 29.0803 0.460123 28.8452 0.525814 28.5167C1.05551 25.8682 2.99354 23.8353 5.65514 23.1242C7.35732 22.697 8.65143 21.3071 8.8678 19.5762L8.90705 19.2622L8.6401 19.0923C7.70479 18.4971 7.00443 17.5473 6.55971 16.48L6.49288 16.3196L6.34099 16.2352C5.6216 15.8355 5.08251 15.0423 5.08251 14.2093V12.3148V11.3675V8.5256C5.08251 5.62367 7.01386 3.1813 9.71327 2.57176L9.88655 2.53263L9.9963 2.39295C10.9399 1.19201 12.403 0.5 13.9607 0.5C16.8106 0.5 19.1444 2.83382 19.1444 5.68373V11.3675V12.3148V14.2093C19.1444 15.0727 18.6719 15.8512 17.9806 16.2352L17.8288 16.3196L17.7619 16.48C17.3188 17.5434 16.6143 18.5075 15.6559 19.2045ZM13.074 14.9407L13.0822 14.9449L13.0907 14.9487C14.2195 15.4618 15.5284 15.6566 16.8973 15.6566C17.2951 15.6566 17.6654 15.5218 17.9376 15.2497C18.2098 14.9775 18.3445 14.6071 18.3445 14.2093V12.3148V11.3675C18.3445 10.9697 18.2098 10.5993 17.9376 10.3271C17.6654 10.055 17.2951 9.92017 16.8973 9.92017H7.42437C7.02656 9.92017 6.6562 10.055 6.38404 10.3271C6.11187 10.5993 5.97709 10.9697 5.97709 11.3675V12.3148V14.2093C5.97709 14.6071 6.11187 14.9775 6.38404 15.2497C6.6562 15.5218 7.02656 15.6566 7.42437 15.6566C8.79325 15.6566 10.1021 15.4618 11.231 14.9487L11.2394 14.9449L11.2477 14.9407C11.5654 14.7818 11.8683 14.7093 12.1608 14.7093C12.4533 14.7093 12.7562 14.7818 13.074 14.9407Z" stroke="#FAFFFD"/>
</svg>
